<svg width="155" height="155" viewBox="0 0 155 155" fill="none" xmlns="http://www.w3.org/2000/svg">
<g clip-path="url(#clip0_1373_402)">
<path d="M77.5002 153.605C119.532 153.605 153.605 119.531 153.605 77.5C153.605 35.4685 119.532 1.39526 77.5002 1.39526C35.4688 1.39526 1.39551 35.4685 1.39551 77.5C1.39551 119.531 35.4688 153.605 77.5002 153.605Z" fill="#32292F" stroke="#32292F" stroke-width="2.60646"/>
<g filter="url(#filter0_f_1373_402)">
<g opacity="0.994" filter="url(#filter1_f_1373_402)">
<path d="M88.9066 12.6387L83.2612 24.1324C78.477 23.5227 73.6614 23.2853 68.8423 24.0441L62.5862 13.6736L49.4704 17.8239L50.7735 31.218C45.8814 33.7139 42.2156 37.2776 39.8271 39.9461L27.2332 34.4146L19.1557 46.6007L28.8842 55.6749C25.0974 62.0179 25.0119 65.3581 24.7123 68.8076L11.7705 71.4002L11.8559 85.8328L25.0605 88.5102C25.3777 90.1712 27.6721 98.7028 30.1875 101.3L21.0129 110.714L30.2266 123.119L41.5884 116.517C44.9137 119.096 48.0372 122.201 52.8579 124.376L51.988 138.201L65.8885 142.348L71.5339 129.904C76.1377 130.067 80.7418 130.381 85.3456 129.385L92.5568 140.878L106.195 136.643L103.936 122.299C109.258 119.79 112.794 116.078 114.705 114.263L127.154 119.406L134.684 107.87L125.911 98.7076C128.691 93.4109 129.529 89.3224 130.516 85.1405L143.199 82.5478L142.503 68.2919L129.735 66.1302C128.951 62.4995 128.489 59.1234 124.348 52.8209L133.381 42.8848L124.348 31.5642L112.188 37.1803C106.014 31.8685 104.465 31.2144 101.589 29.6638L102.719 16.6124L88.9066 12.6387ZM77.4915 33.4256C89.0895 33.4256 100.617 38.1737 108.818 46.3323C117.019 54.4909 121.795 65.9588 121.795 77.4968C121.795 89.0348 117.019 100.503 108.818 108.661C100.617 116.82 89.0895 121.568 77.4915 121.568C65.8932 121.568 54.3694 116.82 46.1684 108.661C37.9674 100.503 33.1911 89.0348 33.1911 77.4968C33.1911 65.9588 37.9674 54.4909 46.1684 46.3323C54.3694 38.1737 65.8932 33.4256 77.4915 33.4256Z" fill="#00B1FC"/>
</g>
</g>
<g filter="url(#filter2_f_1373_402)">
<path d="M61.3369 107.544H65.8022V90.8785H89.7237V107.544H94.3485V109.298H61.0977L61.3369 107.544Z" fill="#FF715B"/>
<path d="M61.3369 107.544H65.8022V90.8785H89.7237V107.544H94.3485V109.298H61.0977L61.3369 107.544Z" stroke="black" stroke-width="0.26503"/>
</g>
<path d="M70.686 90.8786C73.4718 88.2808 75.012 84.4373 75.8049 79.8466C63.6807 74.1374 61.4538 59.8429 61 50.7238H93.9869C94.0411 60.4162 90.5706 75.2817 79.6184 79.8655C80.3172 84.3864 81.9376 88.165 84.8801 90.8786H70.686Z" fill="white" stroke="white" stroke-width="0.26503"/>
<path d="M61.7501 56.4501C60.3251 56.0026 58.923 55.8987 57.3334 52.981H49.2227C50.1932 70.3596 59.3192 73.3114 69.2023 74.2455" stroke="white" stroke-width="1.32516"/>
<path d="M93.2511 56.6797C94.676 56.2322 96.0781 56.1283 97.6678 53.2106H105.779C104.808 70.5893 95.6819 73.541 85.7988 74.4751" stroke="white" stroke-width="1.32516"/>
</g>
<defs>
<filter id="filter0_f_1373_402" x="11.7694" y="12.6375" width="131.43" height="129.712" filterUnits="userSpaceOnUse" color-interpolation-filters="sRGB">
<feFlood flood-opacity="0" result="BackgroundImageFix"/>
<feBlend mode="normal" in="SourceGraphic" in2="BackgroundImageFix" result="shape"/>
<feGaussianBlur stdDeviation="0.000576555" result="effect1_foregroundBlur_1373_402"/>
</filter>
<filter id="filter1_f_1373_402" x="11.7692" y="12.6374" width="131.43" height="129.712" filterUnits="userSpaceOnUse" color-interpolation-filters="sRGB">
<feFlood flood-opacity="0" result="BackgroundImageFix"/>
<feBlend mode="normal" in="SourceGraphic" in2="BackgroundImageFix" result="shape"/>
<feGaussianBlur stdDeviation="0.000657939" result="effect1_foregroundBlur_1373_402"/>
</filter>
<filter id="filter2_f_1373_402" x="60.9456" y="90.7452" width="33.5366" height="18.686" filterUnits="userSpaceOnUse" color-interpolation-filters="sRGB">
<feFlood flood-opacity="0" result="BackgroundImageFix"/>
<feBlend mode="normal" in="SourceGraphic" in2="BackgroundImageFix" result="shape"/>
<feGaussianBlur stdDeviation="0.000363478" result="effect1_foregroundBlur_1373_402"/>
</filter>
<clipPath id="clip0_1373_402">
<rect width="155" height="155" fill="white"/>
</clipPath>
</defs>
</svg>
