<svg width="151" height="148" viewBox="0 0 151 148" fill="none" xmlns="http://www.w3.org/2000/svg">
<path fill-rule="evenodd" clip-rule="evenodd" d="M63.9862 74.4446C67.4187 76.5926 69.5862 80.5065 68.5829 84.4294C66.3847 93.0242 62.9013 100.334 57.5542 105.78C57.1917 106.149 57.4476 106.79 57.9651 106.79H93.9131C94.4305 106.79 94.6864 106.149 94.3239 105.78C88.9768 100.334 85.4934 93.0242 83.2953 84.4294C82.292 80.5065 84.4594 76.5926 87.8919 74.4446C113.425 58.4673 119.275 26.3532 120.71 3.96063C120.813 2.34656 119.523 1 117.905 1H33.9728C32.3554 1 31.0648 2.34656 31.1682 3.96063C32.6027 26.3532 38.4533 58.4673 63.9862 74.4446Z" fill="white"/>
<path d="M94.3239 105.78L94.573 105.535L94.3239 105.78ZM120.71 3.96063L121.058 3.98295L120.71 3.96063ZM68.5829 84.4294L68.2447 84.3428L68.5829 84.4294ZM63.9862 74.4446L64.1714 74.1487L63.9862 74.4446ZM83.2953 84.4294L82.957 84.5159L83.2953 84.4294ZM87.8919 74.4446L87.7067 74.1487L87.8919 74.4446ZM57.5542 105.78L57.8033 106.024L57.5542 105.78ZM57.8033 106.024C63.2074 100.52 66.7134 93.1478 68.9211 84.5159L68.2447 84.3428C66.056 92.9006 62.5953 100.147 57.3051 105.535L57.8033 106.024ZM57.9651 107.139H93.9131V106.441H57.9651V107.139ZM94.573 105.535C89.2828 100.147 85.8222 92.9006 83.6335 84.3428L82.957 84.5159C85.1647 93.1478 88.6707 100.52 94.0748 106.024L94.573 105.535ZM88.0771 74.7406C113.77 58.6631 119.624 26.3796 121.058 3.98295L120.362 3.93831C118.927 26.3268 113.08 58.2714 87.7067 74.1487L88.0771 74.7406ZM117.905 0.650883H33.9728V1.34912H117.905V0.650883ZM64.1714 74.1487C38.7985 58.2714 32.9509 26.3268 31.5166 3.93831L30.8198 3.98295C32.2546 26.3796 38.1082 58.6631 63.801 74.7406L64.1714 74.1487ZM33.9728 0.650883C32.1584 0.650883 30.7032 2.16312 30.8198 3.98295L31.5166 3.93831C31.4263 2.53001 32.5524 1.34912 33.9728 1.34912V0.650883ZM93.9131 107.139C94.756 107.139 95.1411 106.114 94.573 105.535L94.0748 106.024C94.2318 106.184 94.105 106.441 93.9131 106.441V107.139ZM121.058 3.98295C121.175 2.16312 119.72 0.650883 117.905 0.650883V1.34912C119.326 1.34912 120.452 2.53001 120.362 3.93831L121.058 3.98295ZM68.9211 84.5159C69.9719 80.4074 67.6957 76.354 64.1714 74.1487L63.801 74.7406C67.1418 76.8311 69.2005 80.6055 68.2447 84.3428L68.9211 84.5159ZM83.6335 84.3428C82.6776 80.6055 84.7364 76.8311 88.0771 74.7406L87.7067 74.1487C84.1825 76.354 81.9063 80.4074 82.957 84.5159L83.6335 84.3428ZM57.3051 105.535C56.737 106.114 57.1221 107.139 57.9651 107.139V106.441C57.7731 106.441 57.6463 106.184 57.8033 106.024L57.3051 105.535Z" fill="white"/>
<path d="M34.0041 16.1396C31.1661 15.2483 28.3625 14.8743 25.3539 11.424C23.1883 8.9405 20.3175 7 17.0225 7H10.5167C5.34887 7 1.1931 11.3745 1.90438 16.4931C7.10234 53.8994 29.5137 60.7422 53.6374 63.0224" stroke="white" stroke-width="3.49118"/>
<path d="M116.996 16.7442C119.834 15.8529 122.638 15.479 125.646 12.0286C127.812 9.54512 130.683 7.60461 133.978 7.60461H140.483C145.651 7.60461 149.807 11.9791 149.096 17.0977C143.898 54.504 121.486 61.3469 97.3627 63.627" stroke="white" stroke-width="3.49118"/>
<rect x="47" y="105" width="57" height="43" rx="9" fill="white"/>
<rect x="42" y="142" width="66" height="6" rx="3" fill="white"/>
</svg>
