<svg width="369" height="369" viewBox="0 0 369 369" fill="none" xmlns="http://www.w3.org/2000/svg">
<g clip-path="url(#clip0_1370_265)">
<path d="M184.585 364.776C284.566 364.776 365.616 283.726 365.616 183.745C365.616 83.7646 284.566 2.71423 184.585 2.71423C84.6041 2.71423 3.55371 83.7646 3.55371 183.745C3.55371 283.726 84.6041 364.776 184.585 364.776Z" fill="#32292F" stroke="#32292F" stroke-width="6.20001"/>
<path d="M252.68 192.534V244.683C254.567 245.786 256.979 245.993 260.281 244.683V199.605L279.793 201.528V232.839C281.297 234.134 283.141 234.374 285.56 232.839V201.727L296.874 202.964V252.462C299.267 255.26 302.17 254.288 305.094 253.169V202.257L319.943 197.042L321.181 238.938C323.562 240.683 325.717 240.129 327.81 238.938L328.87 117.227L325.158 190.236L302.221 198.412L252.68 192.534Z" fill="#CDCDCD" stroke="#CDCDCD" stroke-width="0.999999"/>
<path d="M281.76 117.205L277.672 182.988C277.672 182.988 256.743 190.578 254.086 191.547C253.908 191.612 253.789 191.669 253.787 191.67L256.887 192.07L302.047 197.91L324.68 189.879L328.34 117.205H281.76ZM286.562 143.644L322.75 146.144L319.187 187.019L284.812 181.957L286.562 143.644Z" fill="white" stroke="white" stroke-width="0.999999"/>
<path d="M134.795 205.912V268.646C137.065 269.973 139.967 270.222 143.939 268.646V214.419L167.411 216.731V254.398C169.22 255.955 171.439 256.245 174.349 254.398V216.971L187.959 218.459V278.003C190.838 281.37 194.331 280.2 197.848 278.854V217.609L215.711 211.335L217.2 261.735C220.065 263.834 222.658 263.167 225.175 261.735L226.451 115.32L221.985 203.148L194.392 212.983L134.795 205.912Z" fill="#CDCDCD" stroke="#CDCDCD" stroke-width="1.20297"/>
<path d="M169.777 115.293L164.86 194.428C164.86 194.428 139.683 203.559 136.486 204.724C136.272 204.802 136.129 204.871 136.127 204.872L139.856 205.354L194.182 212.379L221.409 202.718L225.812 115.293H169.777ZM175.555 147.099L219.088 150.106L214.802 199.278L173.45 193.188L175.555 147.099Z" fill="white" stroke="white" stroke-width="1.20298"/>
<path d="M36.1104 192.534V244.683C37.9976 245.786 40.41 245.993 43.7117 244.683V199.605L63.2235 201.528V232.839C64.7272 234.134 66.5718 234.374 68.9908 232.839V201.727L80.3045 202.964V252.462C82.6975 255.26 85.6011 254.288 88.5246 253.169V202.257L103.374 197.042L104.611 238.938C106.993 240.683 109.148 240.129 111.24 238.938L112.301 117.227L108.589 190.236L85.652 198.412L36.1104 192.534Z" fill="#CDCDCD" stroke="#CDCDCD" stroke-width="0.999999"/>
<path d="M65.1904 117.205L61.1025 182.988C61.1025 182.988 40.1738 190.578 37.5166 191.547C37.3385 191.612 37.2197 191.669 37.2178 191.67L40.3174 192.07L85.4775 197.91L108.11 189.879L111.77 117.205H65.1904ZM69.9932 143.644L106.181 146.144L102.618 187.019L68.2432 181.957L69.9932 143.644Z" fill="white" stroke="white" stroke-width="0.999999"/>
</g>
<defs>
<clipPath id="clip0_1370_265">
<rect width="368.7" height="368.7" fill="white"/>
</clipPath>
</defs>
</svg>
