<svg width="159" height="159" viewBox="0 0 159 159" fill="none" xmlns="http://www.w3.org/2000/svg">
<g clip-path="url(#clip0_1373_437)">
<path d="M79.6019 157.308C122.718 157.308 157.671 122.355 157.671 79.2391C157.671 36.123 122.718 1.17041 79.6019 1.17041C36.4858 1.17041 1.5332 36.123 1.5332 79.2391C1.5332 122.355 36.4858 157.308 79.6019 157.308Z" fill="#32292F" stroke="#32292F" stroke-width="2.67372"/>
<path d="M108.967 83.0294V105.518C109.781 105.994 110.821 106.083 112.245 105.518V86.0788L120.659 86.9078V100.411C121.308 100.969 122.103 101.073 123.146 100.411V86.9936L128.025 87.5272V108.873C129.057 110.08 130.309 109.66 131.57 109.178V87.2223L137.974 84.9734L138.507 103.041C139.535 103.793 140.464 103.554 141.366 103.041L141.824 50.5537L140.223 82.0384L130.331 85.5642L108.967 83.0294Z" fill="#CDCDCD" stroke="#CDCDCD" stroke-width="0.431244"/>
<path d="M121.507 50.5439L119.745 78.9126C119.745 78.9126 110.719 82.1856 109.573 82.6034C109.496 82.6314 109.445 82.6561 109.444 82.6565L110.781 82.8292L130.256 85.3476L140.016 81.8841L141.595 50.5439H121.507ZM123.579 61.9458L139.184 63.0239L137.648 80.6511L122.824 78.4679L123.579 61.9458Z" fill="white" stroke="white" stroke-width="0.431244"/>
<path d="M58.1289 88.7986V115.852C59.108 116.425 60.3595 116.532 62.0723 115.852V92.4669L72.1946 93.4642V109.708C72.9747 110.379 73.9316 110.504 75.1865 109.708V93.5674L81.0558 94.2093V119.887C82.2972 121.339 83.8036 120.835 85.3202 120.254V93.8425L93.0237 91.1371L93.6656 112.872C94.9012 113.777 96.0192 113.49 97.1047 112.872L97.6549 49.7311L95.7291 87.6064L83.83 91.8478L58.1289 88.7986Z" fill="#CDCDCD" stroke="#CDCDCD" stroke-width="0.518776"/>
<path d="M73.2147 49.7194L71.094 83.8462C71.094 83.8462 60.2366 87.7836 58.8582 88.2862C58.7658 88.3199 58.7041 88.3495 58.7031 88.35L60.3111 88.5577L83.7392 91.5873L95.4806 87.4209L97.3794 49.7194H73.2147ZM75.7062 63.4355L94.4795 64.7325L92.6314 85.9375L74.7984 83.3112L75.7062 63.4355Z" fill="white" stroke="white" stroke-width="0.518777"/>
<path d="M15.5723 83.0294V105.518C16.3861 105.994 17.4265 106.083 18.8503 105.518V86.0788L27.2647 86.9078V100.411C27.9131 100.969 28.7086 101.073 29.7518 100.411V86.9936L34.6308 87.5272V108.873C35.6627 110.08 36.9149 109.66 38.1756 109.178V87.2223L44.5793 84.9734L45.1129 103.041C46.1401 103.793 47.0694 103.554 47.9717 103.041L48.4291 50.5537L46.8282 82.0384L36.9368 85.5642L15.5723 83.0294Z" fill="#CDCDCD" stroke="#CDCDCD" stroke-width="0.431244"/>
<path d="M28.1129 50.5439L26.35 78.9126C26.35 78.9126 17.3246 82.1856 16.1787 82.6034C16.1019 82.6314 16.0506 82.6561 16.0498 82.6565L17.3865 82.8292L36.8616 85.3476L46.6219 81.8841L48.2003 50.5439H28.1129ZM30.184 61.9458L45.7897 63.0239L44.2534 80.6511L29.4293 78.4679L30.184 61.9458Z" fill="white" stroke="white" stroke-width="0.431244"/>
</g>
<defs>
<clipPath id="clip0_1373_437">
<rect width="159" height="159" fill="white"/>
</clipPath>
</defs>
</svg>
