<svg width="155" height="154" viewBox="0 0 155 154" fill="none" xmlns="http://www.w3.org/2000/svg">
<g clip-path="url(#clip0_1373_455)">
<path d="M77.7007 152.614C119.461 152.614 153.314 118.76 153.314 77C153.314 35.2397 119.461 1.38623 77.7007 1.38623C35.9403 1.38623 2.08691 35.2397 2.08691 77C2.08691 118.76 35.9403 152.614 77.7007 152.614Z" fill="#00B1FC"/>
<path d="M27.4492 50.5152C21.7384 65.9047 22.7804 92.5503 27.4105 107.113C29.2718 112.77 30.914 119.075 35.595 122.531C40.1772 125.914 47.2927 128.311 52.3776 125.745C62.947 120.41 62.2796 99.778 67.7233 93.7133C74.334 86.3485 85.9601 83.1735 95.6924 84.473C106.727 85.9464 109.788 100.791 123.544 102.903C127.767 103.551 132.667 102.448 135.961 99.7272C138.799 97.3835 140.564 93.4189 140.671 89.7397C141.088 75.3611 132.63 61.6139 124.56 49.7061C118.012 40.0441 106.788 28.9096 99.2329 25.5275C91.6778 22.1454 89.4166 23.4002 84.6289 24.3625C77.1042 25.8748 71.6357 32.4674 64.1661 34.9192C56.6964 37.371 47.5693 35.2188 40.3218 38.719C35.081 41.25 29.4741 45.0588 27.4492 50.5152Z" fill="#32292F" stroke="#32292F" stroke-width="3.21616"/>
<path d="M83.819 44.6428C83.9535 45.9206 84.6132 47.1352 85.6119 47.9436C86.6105 48.7521 87.9359 49.1444 89.2137 49.0099C90.4915 48.8754 91.7061 48.2157 92.5146 47.217C93.323 46.2184 93.7154 44.893 93.5809 43.6152C93.4464 42.3374 92.7866 41.1228 91.788 40.3143C90.7893 39.5059 89.464 39.1135 88.1861 39.248C86.9083 39.3826 85.6937 40.0423 84.8853 41.0409C84.0768 42.0396 83.6845 43.3649 83.819 44.6428Z" fill="#F6FCFF"/>
<path d="M91.2584 63.9868C91.3929 65.2646 92.0526 66.4792 93.0513 67.2876C94.05 68.0961 95.3753 68.4884 96.6531 68.3539C97.931 68.2194 99.1456 67.5597 99.954 66.561C100.762 65.5624 101.155 64.237 101.02 62.9592C100.886 61.6814 100.226 60.4668 99.2274 59.6583C98.2287 58.8499 96.9034 58.4575 95.6256 58.592C94.3477 58.7265 93.1332 59.3863 92.3247 60.3849C91.5163 61.3836 91.1239 62.7089 91.2584 63.9868Z" fill="#F6FCFF"/>
<path d="M98.2027 50.5687C98.3373 51.8465 98.997 53.0611 99.9956 53.8695C100.994 54.678 102.32 55.0703 103.597 54.9358C104.875 54.8013 106.09 54.1416 106.898 53.1429C107.707 52.1443 108.099 50.8189 107.965 49.5411C107.83 48.2633 107.17 47.0487 106.172 46.2402C105.173 45.4318 103.848 45.0394 102.57 45.1739C101.292 45.3084 100.078 45.9682 99.2691 46.9668C98.4606 47.9655 98.0682 49.2908 98.2027 50.5687Z" fill="#F6FCFF"/>
<path d="M76.5875 58.4525C76.722 59.7303 77.3817 60.9449 78.3804 61.7533C79.3791 62.5618 80.7044 62.9541 81.9822 62.8196C83.2601 62.6851 84.4747 62.0254 85.2831 61.0267C86.0916 60.0281 86.4839 58.7027 86.3494 57.4249C86.2149 56.1471 85.5552 54.9325 84.5565 54.124C83.5578 53.3156 82.2325 52.9232 80.9547 53.0577C79.6768 53.1922 78.4623 53.852 77.6538 54.8506C76.8454 55.8493 76.453 57.1746 76.5875 58.4525Z" fill="#F6FCFF"/>
<path d="M44.0857 66.0575L41.4991 57.9549L47.8992 55.9119L50.4431 63.8808L57.2398 61.7111L59.3399 68.29L52.6014 70.4411L53.4958 73.2428L54.8824 77.5864L48.4782 79.6307L46.2354 72.605L39.7923 74.6618L37.7129 68.1478L44.1019 66.1083L44.0857 66.0575Z" fill="#F6FCFF"/>
<path d="M86.169 42.2222L86.826 41.958L89.0295 43.6411L89.085 43.6188L89.5095 40.8786L90.1665 40.6144L89.5749 44.0883L90.3602 46.0408L89.7865 46.2715L89.0012 44.319L86.169 42.2222Z" fill="#32292F"/>
<path d="M86.169 42.2222L86.1362 42.1408L85.9906 42.1994L86.1167 42.2928L86.169 42.2222ZM86.826 41.958L86.8792 41.8882L86.8395 41.8579L86.7932 41.8765L86.826 41.958ZM89.0295 43.6411L88.9762 43.7108L89.0159 43.7412L89.0623 43.7225L89.0295 43.6411ZM89.085 43.6188L89.1178 43.7002L89.1641 43.6815L89.1718 43.6322L89.085 43.6188ZM89.5095 40.8786L89.4768 40.7972L89.4304 40.8158L89.4228 40.8652L89.5095 40.8786ZM90.1665 40.6144L90.2531 40.6291L90.2794 40.4744L90.1338 40.5329L90.1665 40.6144ZM89.5749 44.0883L89.4884 44.0735L89.4842 44.098L89.4935 44.121L89.5749 44.0883ZM90.3602 46.0408L90.393 46.1222L90.4744 46.0895L90.4417 46.008L90.3602 46.0408ZM89.7865 46.2715L89.7051 46.3043L89.7378 46.3857L89.8192 46.353L89.7865 46.2715ZM89.0012 44.319L89.0826 44.2863L89.0733 44.2632L89.0534 44.2485L89.0012 44.319ZM86.2017 42.3037L86.8587 42.0394L86.7932 41.8765L86.1362 42.1408L86.2017 42.3037ZM86.7727 42.0277L88.9762 43.7108L89.0828 43.5713L86.8792 41.8882L86.7727 42.0277ZM89.0623 43.7225L89.1178 43.7002L89.0523 43.5373L88.9968 43.5596L89.0623 43.7225ZM89.1718 43.6322L89.5963 40.8921L89.4228 40.8652L88.9983 43.6053L89.1718 43.6322ZM89.5423 40.9601L90.1993 40.6958L90.1338 40.5329L89.4768 40.7972L89.5423 40.9601ZM90.08 40.5996L89.4884 44.0735L89.6614 44.103L90.2531 40.6291L90.08 40.5996ZM89.4935 44.121L90.2788 46.0735L90.4417 46.008L89.6563 44.0555L89.4935 44.121ZM90.3275 45.9593L89.7537 46.1901L89.8192 46.353L90.393 46.1222L90.3275 45.9593ZM89.8679 46.2388L89.0826 44.2863L88.9197 44.3518L89.7051 46.3043L89.8679 46.2388ZM89.0534 44.2485L86.2212 42.1517L86.1167 42.2928L88.9489 44.3896L89.0534 44.2485Z" fill="#32292F"/>
<path d="M95.7557 66.3074L95.076 66.5828L94.8728 60.4323L95.542 60.1611L99.6772 64.7187L98.9975 64.9941L95.5715 61.1352L95.5297 61.1522L95.7557 66.3074ZM95.1594 64.1143L97.8991 63.0043L98.1322 63.5795L95.3924 64.6895L95.1594 64.1143Z" fill="#32292F"/>
<path d="M95.7557 66.3074L95.793 66.3995L95.858 66.3731L95.8549 66.3031L95.7557 66.3074ZM95.076 66.5828L94.9768 66.5861L94.9815 66.7283L95.1133 66.6748L95.076 66.5828ZM94.8728 60.4323L94.8355 60.3402L94.7713 60.3663L94.7735 60.4355L94.8728 60.4323ZM95.542 60.1611L95.6156 60.0944L95.569 60.0431L95.5048 60.0691L95.542 60.1611ZM99.6772 64.7187L99.7145 64.8107L99.8463 64.7573L99.7507 64.652L99.6772 64.7187ZM98.9975 64.9941L98.9232 65.06L98.9698 65.1124L99.0347 65.0861L98.9975 64.9941ZM95.5715 61.1352L95.6457 61.0693L95.5992 61.0169L95.5342 61.0432L95.5715 61.1352ZM95.5297 61.1522L95.4924 61.0602L95.4274 61.0865L95.4305 61.1565L95.5297 61.1522ZM95.1594 64.1143L95.1221 64.0223L95.0301 64.0596L95.0673 64.1516L95.1594 64.1143ZM97.8991 63.0043L97.9912 62.967L97.9539 62.875L97.8619 62.9123L97.8991 63.0043ZM98.1322 63.5795L98.1694 63.6715L98.2615 63.6342L98.2242 63.5422L98.1322 63.5795ZM95.3924 64.6895L95.3004 64.7268L95.3376 64.8188L95.4297 64.7815L95.3924 64.6895ZM95.7185 66.2154L95.0387 66.4908L95.1133 66.6748L95.793 66.3995L95.7185 66.2154ZM95.1753 66.5795L94.972 60.429L94.7735 60.4355L94.9768 66.5861L95.1753 66.5795ZM94.9101 60.5243L95.5793 60.2531L95.5048 60.0691L94.8355 60.3402L94.9101 60.5243ZM95.4685 60.2278L99.6036 64.7854L99.7507 64.652L95.6156 60.0944L95.4685 60.2278ZM99.6399 64.6267L98.9602 64.902L99.0347 65.0861L99.7145 64.8107L99.6399 64.6267ZM99.0717 64.9281L95.6457 61.0693L95.4972 61.2012L98.9232 65.06L99.0717 64.9281ZM95.5342 61.0432L95.4924 61.0602L95.5669 61.2442L95.6088 61.2273L95.5342 61.0432ZM95.4305 61.1565L95.6565 66.3118L95.8549 66.3031L95.6289 61.1478L95.4305 61.1565ZM95.1967 64.2063L97.9364 63.0963L97.8619 62.9123L95.1221 64.0223L95.1967 64.2063ZM97.8071 63.0416L98.0401 63.6167L98.2242 63.5422L97.9912 62.967L97.8071 63.0416ZM98.0949 63.4874L95.3551 64.5974L95.4297 64.7815L98.1694 63.6715L98.0949 63.4874ZM95.4844 64.6522L95.2514 64.077L95.0673 64.1516L95.3004 64.7268L95.4844 64.6522Z" fill="#32292F"/>
<path d="M79.2099 55.0434L81.3962 56.6318L81.4361 56.6155L81.8856 53.9508L82.6144 53.6531L82.0507 56.8654L84.7018 58.7649L83.973 59.0626L81.803 57.5141L81.7631 57.5304L81.2973 60.1552L80.5685 60.4528L81.1721 57.2242L78.481 55.341L79.2099 55.0434Z" fill="#32292F"/>
<path d="M79.2099 55.0434L79.2656 54.9666L79.2229 54.9356L79.174 54.9555L79.2099 55.0434ZM81.3962 56.6318L81.3404 56.7086L81.3831 56.7397L81.432 56.7197L81.3962 56.6318ZM81.4361 56.6155L81.472 56.7034L81.5209 56.6834L81.5297 56.6313L81.4361 56.6155ZM81.8856 53.9508L81.8497 53.8629L81.8008 53.8829L81.792 53.935L81.8856 53.9508ZM82.6144 53.6531L82.7079 53.6695L82.7376 53.5003L82.5785 53.5653L82.6144 53.6531ZM82.0507 56.8654L81.9572 56.849L81.9469 56.9078L81.9954 56.9426L82.0507 56.8654ZM84.7018 58.7649L84.7377 58.8528L84.8968 58.7879L84.7571 58.6878L84.7018 58.7649ZM83.973 59.0626L83.9179 59.1398L83.9605 59.1702L84.0089 59.1504L83.973 59.0626ZM81.803 57.5141L81.8582 57.4368L81.8156 57.4064L81.7671 57.4262L81.803 57.5141ZM81.7631 57.5304L81.7272 57.4425L81.6788 57.4623L81.6696 57.5138L81.7631 57.5304ZM81.2973 60.1552L81.3332 60.2431L81.3816 60.2233L81.3907 60.1718L81.2973 60.1552ZM80.5685 60.4528L80.4752 60.4354L80.4432 60.6065L80.6043 60.5407L80.5685 60.4528ZM81.1721 57.2242L81.2654 57.2417L81.2766 57.1815L81.2265 57.1465L81.1721 57.2242ZM78.481 55.341L78.4452 55.2532L78.284 55.319L78.4266 55.4188L78.481 55.341ZM79.1541 55.1202L81.3404 56.7086L81.4519 56.5551L79.2656 54.9666L79.1541 55.1202ZM81.432 56.7197L81.472 56.7034L81.4002 56.5277L81.3603 56.544L81.432 56.7197ZM81.5297 56.6313L81.9792 53.9665L81.792 53.935L81.3425 56.5997L81.5297 56.6313ZM81.9215 54.0386L82.6503 53.741L82.5785 53.5653L81.8497 53.8629L81.9215 54.0386ZM82.5209 53.6367L81.9572 56.849L82.1442 56.8818L82.7079 53.6695L82.5209 53.6367ZM81.9954 56.9426L84.6466 58.8421L84.7571 58.6878L82.106 56.7883L81.9954 56.9426ZM84.666 58.6771L83.9371 58.9747L84.0089 59.1504L84.7377 58.8528L84.666 58.6771ZM84.0281 58.9853L81.8582 57.4368L81.7479 57.5913L83.9179 59.1398L84.0281 58.9853ZM81.7671 57.4262L81.7272 57.4425L81.799 57.6182L81.8389 57.6019L81.7671 57.4262ZM81.6696 57.5138L81.2039 60.1386L81.3907 60.1718L81.8565 57.547L81.6696 57.5138ZM81.2614 60.0674L80.5326 60.365L80.6043 60.5407L81.3332 60.2431L81.2614 60.0674ZM80.6618 60.4703L81.2654 57.2417L81.0788 57.2068L80.4752 60.4354L80.6618 60.4703ZM81.2265 57.1465L78.5354 55.2633L78.4266 55.4188L81.1177 57.302L81.2265 57.1465ZM78.5169 55.4289L79.2457 55.1313L79.174 54.9555L78.4452 55.2532L78.5169 55.4289Z" fill="#32292F"/>
<path d="M102.501 52.1473L100.432 46.8641L102.279 46.1408C102.647 45.9967 102.975 45.9415 103.264 45.9752C103.553 46.0071 103.797 46.1068 103.997 46.2743C104.197 46.44 104.347 46.6519 104.449 46.9098C104.537 47.1369 104.57 47.3401 104.547 47.5197C104.526 47.6986 104.467 47.8566 104.37 47.9938C104.275 48.1303 104.16 48.2488 104.024 48.3493L104.045 48.4009C104.21 48.3479 104.395 48.341 104.599 48.3802C104.803 48.4195 104.997 48.5138 105.183 48.6633C105.368 48.8129 105.515 49.0269 105.625 49.3055C105.728 49.5704 105.761 49.8321 105.724 50.0908C105.686 50.3495 105.562 50.5916 105.351 50.8171C105.139 51.0426 104.826 51.2368 104.41 51.3998L102.501 52.1473ZM102.918 51.3292L104.187 50.8323C104.605 50.6686 104.87 50.4716 104.982 50.2413C105.096 50.0085 105.107 49.7761 105.016 49.5439C104.946 49.3651 104.836 49.2178 104.685 49.1022C104.534 48.9848 104.356 48.9135 104.152 48.8884C103.947 48.8615 103.73 48.8932 103.499 48.9834L102.199 49.4925L102.918 51.3292ZM101.981 48.9353L103.167 48.4706C103.36 48.3952 103.519 48.2894 103.644 48.1531C103.771 48.0161 103.853 47.861 103.89 47.6878C103.929 47.5138 103.912 47.334 103.84 47.1482C103.749 46.9161 103.591 46.7508 103.366 46.6524C103.14 46.5523 102.852 46.571 102.501 46.7084L101.294 47.1811L101.981 48.9353Z" fill="#32292F"/>
<path d="M102.501 52.1473L102.41 52.1828L102.445 52.2736L102.536 52.2381L102.501 52.1473ZM100.432 46.8641L100.396 46.7733L100.306 46.8088L100.341 46.8996L100.432 46.8641ZM103.264 45.9752L103.253 46.072L103.254 46.0721L103.264 45.9752ZM103.997 46.2743L103.935 46.3491L103.935 46.3493L103.997 46.2743ZM104.547 47.5197L104.451 47.5073L104.451 47.5082L104.547 47.5197ZM104.37 47.9938L104.29 47.9374L104.29 47.9379L104.37 47.9938ZM104.024 48.3493L103.966 48.2711L103.906 48.3155L103.934 48.3849L104.024 48.3493ZM104.045 48.4009L103.954 48.4365L103.987 48.5216L104.074 48.4938L104.045 48.4009ZM104.599 48.3802L104.58 48.476L104.58 48.476L104.599 48.3802ZM105.724 50.0908L105.82 50.1048L105.82 50.1048L105.724 50.0908ZM105.351 50.8171L105.279 50.7504L105.279 50.7504L105.351 50.8171ZM102.918 51.3292L102.827 51.3648L102.863 51.4556L102.954 51.42L102.918 51.3292ZM104.982 50.2413L105.07 50.284L105.07 50.2839L104.982 50.2413ZM104.685 49.1022L104.625 49.1792L104.626 49.1795L104.685 49.1022ZM104.152 48.8884L104.139 48.9851L104.14 48.9852L104.152 48.8884ZM102.199 49.4925L102.163 49.4017L102.073 49.4372L102.108 49.5281L102.199 49.4925ZM101.981 48.9353L101.89 48.9708L101.926 49.0616L102.016 49.0261L101.981 48.9353ZM103.644 48.1531L103.573 48.0868L103.572 48.0871L103.644 48.1531ZM103.89 47.6878L103.795 47.6664L103.795 47.6672L103.89 47.6878ZM103.366 46.6524L103.326 46.7416L103.327 46.7418L103.366 46.6524ZM101.294 47.1811L101.258 47.0903L101.168 47.1258L101.203 47.2166L101.294 47.1811ZM102.591 52.1117L100.523 46.8285L100.341 46.8996L102.41 52.1828L102.591 52.1117ZM100.467 46.9549L102.315 46.2316L102.243 46.05L100.396 46.7733L100.467 46.9549ZM102.315 46.2316C102.673 46.0914 102.985 46.0408 103.253 46.072L103.276 45.8783C102.966 45.8422 102.621 45.9021 102.243 46.05L102.315 46.2316ZM103.254 46.0721C103.525 46.1022 103.751 46.1953 103.935 46.3491L104.06 46.1994C103.843 46.0183 103.58 45.9121 103.275 45.8782L103.254 46.0721ZM103.935 46.3493C104.121 46.5038 104.262 46.7017 104.358 46.9454L104.539 46.8743C104.433 46.602 104.273 46.3762 104.06 46.1992L103.935 46.3493ZM104.358 46.9454C104.443 47.1623 104.471 47.3487 104.451 47.5073L104.644 47.532C104.67 47.3316 104.632 47.1115 104.539 46.8743L104.358 46.9454ZM104.451 47.5082C104.431 47.6721 104.377 47.8145 104.29 47.9374L104.45 48.0501C104.557 47.8987 104.621 47.725 104.644 47.5312L104.451 47.5082ZM104.29 47.9379C104.201 48.0657 104.093 48.1767 103.966 48.2711L104.083 48.4276C104.226 48.3208 104.349 48.1948 104.45 48.0496L104.29 47.9379ZM103.934 48.3849L103.954 48.4365L104.135 48.3653L104.115 48.3137L103.934 48.3849ZM104.074 48.4938C104.222 48.4467 104.39 48.4393 104.58 48.476L104.617 48.2845C104.4 48.2428 104.199 48.2492 104.015 48.308L104.074 48.4938ZM104.58 48.476C104.766 48.5118 104.947 48.5983 105.122 48.7393L105.244 48.5874C105.048 48.4294 104.839 48.3271 104.617 48.2845L104.58 48.476ZM105.122 48.7393C105.291 48.8757 105.429 49.0743 105.534 49.3411L105.715 49.27C105.602 48.9796 105.446 48.75 105.244 48.5874L105.122 48.7393ZM105.534 49.3411C105.632 49.5916 105.662 49.8363 105.627 50.0768L105.82 50.1048C105.86 49.828 105.825 49.5492 105.715 49.27L105.534 49.3411ZM105.627 50.0768C105.593 50.3124 105.48 50.5368 105.279 50.7504L105.422 50.8838C105.644 50.6464 105.779 50.3866 105.82 50.1048L105.627 50.0768ZM105.279 50.7504C105.082 50.9617 104.782 51.1491 104.374 51.309L104.445 51.4906C104.869 51.3245 105.197 51.1235 105.422 50.8838L105.279 50.7504ZM104.374 51.309L102.465 52.0565L102.536 52.2381L104.445 51.4906L104.374 51.309ZM102.954 51.42L104.223 50.9231L104.152 50.7415L102.883 51.2384L102.954 51.42ZM104.223 50.9231C104.648 50.7566 104.942 50.5478 105.07 50.284L104.895 50.1986C104.799 50.3954 104.563 50.5806 104.152 50.7415L104.223 50.9231ZM105.07 50.2839C105.195 50.0278 105.208 49.767 105.107 49.5084L104.925 49.5795C105.006 49.7852 104.996 49.9893 104.895 50.1986L105.07 50.2839ZM105.107 49.5084C105.03 49.3132 104.909 49.1514 104.745 49.0248L104.626 49.1795C104.762 49.2842 104.861 49.4169 104.925 49.5795L105.107 49.5084ZM104.745 49.0251C104.579 48.8962 104.384 48.8187 104.164 48.7916L104.14 48.9852C104.328 49.0083 104.489 49.0734 104.625 49.1792L104.745 49.0251ZM104.165 48.7917C103.941 48.7623 103.706 48.7975 103.464 48.8926L103.535 49.0742C103.753 48.9888 103.954 48.9607 104.139 48.9851L104.165 48.7917ZM103.464 48.8926L102.163 49.4017L102.234 49.5833L103.535 49.0742L103.464 48.8926ZM102.108 49.5281L102.827 51.3648L103.009 51.2937L102.29 49.4569L102.108 49.5281ZM102.016 49.0261L103.203 48.5614L103.132 48.3798L101.945 48.8445L102.016 49.0261ZM103.203 48.5614C103.408 48.4813 103.58 48.3675 103.716 48.2191L103.572 48.0871C103.458 48.2112 103.312 48.3092 103.132 48.3798L103.203 48.5614ZM103.716 48.2194C103.854 48.0703 103.944 47.8996 103.986 47.7083L103.795 47.6672C103.762 47.8225 103.688 47.962 103.573 48.0868L103.716 48.2194ZM103.985 47.7091C104.029 47.514 104.009 47.3143 103.931 47.1127L103.749 47.1838C103.815 47.3537 103.829 47.5137 103.795 47.6664L103.985 47.7091ZM103.931 47.1127C103.83 46.8568 103.654 46.672 103.405 46.5631L103.327 46.7418C103.528 46.8296 103.667 46.9753 103.749 47.1838L103.931 47.1127ZM103.405 46.5633C103.146 46.4482 102.828 46.4756 102.466 46.6176L102.537 46.7992C102.876 46.6664 103.135 46.6565 103.326 46.7416L103.405 46.5633ZM102.466 46.6176L101.258 47.0903L101.329 47.2719L102.537 46.7992L102.466 46.6176ZM101.203 47.2166L101.89 48.9708L102.072 48.8997L101.385 47.1455L101.203 47.2166Z" fill="#32292F"/>
</g>
<defs>
<clipPath id="clip0_1373_455">
<rect width="154" height="154" fill="white" transform="translate(0.700195)"/>
</clipPath>
</defs>
</svg>
