<svg width="173" height="158" viewBox="0 0 173 158" fill="none" xmlns="http://www.w3.org/2000/svg">
<path d="M52.5349 154.755C45.4671 157.915 38.2989 158.081 31.0302 155.253C23.7616 152.425 18.4007 147.472 14.9477 140.394C14.4737 139.334 14.0586 138.247 13.7024 137.135C13.3462 136.022 13.0488 134.883 12.8104 133.717L1.10821 67.712C-0.0866992 60.6137 0.965746 53.9579 4.26554 47.7447C7.56534 41.5315 12.4557 36.9789 18.9365 34.0868L87.847 3.27629C94.3258 0.379571 100.981 -0.226891 107.811 1.45691C114.642 3.14072 120.303 6.79208 124.794 12.411L166.18 65.1439C166.89 66.0987 167.585 67.0968 168.266 68.1382C168.946 69.1795 169.52 70.229 169.987 71.2866C173.2 78.4721 173.363 85.7153 170.476 93.016C167.588 100.317 162.556 105.569 155.378 108.773C150.43 110.985 145.257 111.743 139.857 111.048C134.458 110.352 129.698 108.24 125.576 104.712L116.046 96.676C114.931 95.7614 113.652 95.2729 112.211 95.2106C110.77 95.1483 109.399 95.4079 108.098 95.9894L74.5266 111C73.2308 111.579 72.1256 112.426 71.211 113.542C70.2964 114.658 69.8079 115.936 69.7456 117.378L69.3803 129.838C69.2613 135.262 67.6609 140.218 64.5789 144.706C61.497 149.193 57.4823 152.543 52.5349 154.755ZM86.1138 63.4157C88.1163 62.5203 89.4927 61.0908 90.243 59.1271C90.9933 57.1633 90.9194 55.1836 90.0215 53.1879C89.1261 51.1854 87.6966 49.809 85.7329 49.0587C83.7691 48.3084 81.7894 48.3822 79.7937 49.2802C77.7912 50.1755 76.4148 51.6051 75.6645 53.5688C74.9142 55.5326 74.9881 57.5123 75.886 59.508C76.7814 61.5105 78.2109 62.8869 80.1746 63.6372C82.1384 64.3875 84.1181 64.3136 86.1138 63.4157ZM93.9292 42.9601C95.9317 42.0647 97.3081 40.6352 98.0584 38.6715C98.8087 36.7077 98.7348 34.728 97.8369 32.7323C96.9415 30.7298 95.512 29.3534 93.5482 28.6031C91.5845 27.8528 89.6048 27.9266 87.6091 28.8246C85.6065 29.7199 84.2301 31.1495 83.4799 33.1132C82.7296 35.077 82.8034 37.0567 83.7014 39.0524C84.5967 41.0549 86.0263 42.4313 87.99 43.1816C89.9538 43.9319 91.9335 43.858 93.9292 42.9601ZM106.569 71.2311C108.572 70.3357 109.948 68.9062 110.699 66.9424C111.449 64.9787 111.375 62.999 110.477 61.0033C109.582 59.0007 108.152 57.6243 106.188 56.874C104.225 56.1238 102.245 56.1976 100.249 57.0956C98.2468 57.9909 96.8704 59.4205 96.1201 61.3842C95.3698 63.3479 95.4437 65.3277 96.3416 67.3234C97.237 69.3259 98.6665 70.7023 100.63 71.4526C102.594 72.2028 104.574 72.129 106.569 71.2311ZM114.385 50.7755C116.387 49.8801 117.764 48.4506 118.514 46.4868C119.264 44.5231 119.19 42.5434 118.292 40.5477C117.397 38.5451 115.968 37.1687 114.004 36.4184C112.04 35.6682 110.06 35.742 108.065 36.64C106.062 37.5353 104.686 38.9649 103.935 40.9286C103.185 42.8923 103.259 44.8721 104.157 46.8678C105.052 48.8703 106.482 50.2467 108.446 50.997C110.409 51.7472 112.389 51.6734 114.385 50.7755ZM55.5152 89.8176C57.0465 89.1329 58.0873 88.0654 58.6375 86.6152C59.1876 85.165 59.1238 83.6755 58.4459 82.1467L55.2859 75.079L62.3536 71.9189C63.885 71.2343 64.9257 70.1668 65.4759 68.7166C66.0261 67.2663 65.9623 65.7768 65.2844 64.2481C64.5997 62.7167 63.5322 61.676 62.082 61.1258C60.6318 60.5756 59.1423 60.6395 57.6135 61.3173L50.5458 64.4774L47.3857 57.4096C46.7011 55.8783 45.6336 54.8375 44.1834 54.2873C42.7331 53.7372 41.2436 53.801 39.7149 54.4789C38.1835 55.1635 37.1428 56.231 36.5926 57.6812C36.0424 59.1315 36.1063 60.621 36.7841 62.1497L39.9442 69.2175L32.8764 72.3775C31.3451 73.0622 30.3043 74.1297 29.7542 75.5799C29.204 77.0301 29.2678 78.5196 29.9457 80.0484C30.6304 81.5797 31.6978 82.6205 33.1481 83.1707C34.5983 83.7208 36.0878 83.657 37.6165 82.9791L44.6843 79.8191L47.8443 86.8868C48.529 88.4182 49.5965 89.4589 51.0467 90.0091C52.4969 90.5593 53.9864 90.4954 55.5152 89.8176Z" fill="#0B3B6A"/>
</svg>
