<svg width="155" height="155" viewBox="0 0 155 155" fill="none" xmlns="http://www.w3.org/2000/svg">
<g clip-path="url(#clip0_1373_604)">
<path d="M77.0639 154.101C119.624 154.101 154.125 119.6 154.125 77.0403C154.125 34.4807 119.624 -0.020752 77.0639 -0.020752C34.5043 -0.020752 0.00292969 34.4807 0.00292969 77.0403C0.00292969 119.6 34.5043 154.101 77.0639 154.101Z" fill="#00B1FC"/>
<path d="M77.064 131.713C107.259 131.713 131.736 107.235 131.736 77.0403C131.736 46.8456 107.259 22.3679 77.064 22.3679C46.8693 22.3679 22.3916 46.8456 22.3916 77.0403C22.3916 107.235 46.8693 131.713 77.064 131.713Z" fill="#FF715B"/>
<path d="M77.0642 124.288C103.158 124.288 124.312 103.134 124.312 77.0403C124.312 50.946 103.158 29.7925 77.0642 29.7925C50.97 29.7925 29.8164 50.946 29.8164 77.0403C29.8164 103.134 50.97 124.288 77.0642 124.288Z" fill="#00B1FC"/>
<path d="M53.2354 121.635V41.8994H99.6513V121.635H53.2354Z" fill="#32292F" stroke="#32292F" stroke-width="1.11324"/>
<path d="M51.2516 49.692L39.9785 39.1289V34.0681H114.143V39.1289L102.134 49.692H51.2516Z" fill="#32292F" stroke="#32292F" stroke-width="1.11324"/>
<path d="M52.732 120.387L48.2168 121.635V125.79H104.464V121.635L99.9491 120.291L52.732 120.387Z" fill="#32292F" stroke="#32292F" stroke-width="1.11324"/>
<path d="M47.7363 124.589L41.6309 126.398V130.26H111.452V126.338L104.201 124.395L47.7363 124.589Z" fill="#32292F" stroke="#32292F" stroke-width="1.11324"/>
<path d="M72.6104 34.0681V21.2493H72.7147" fill="#32292F"/>
<path d="M72.6104 34.0681V21.2493H72.7147" stroke="#32292F" stroke-width="1.11324"/>
<path d="M80.3682 34.068V20.5187Z" fill="#32292F"/>
<path d="M80.3682 34.068V20.5187" stroke="#32292F" stroke-width="1.11324"/>
<path d="M72.7499 23.1453C70.6989 23.3389 69.3455 17.5849 72.2107 16.1701C73.1533 15.7047 74.3105 15.8905 74.84 16.5074C76.6732 18.6433 74.6509 23.7277 72.7499 23.1453Z" fill="#32292F" stroke="#32292F" stroke-width="1.11324"/>
<path d="M79.9599 23.1134C77.9088 23.3071 76.5555 17.553 79.4207 16.1382C80.3633 15.6728 81.5205 15.8586 82.0499 16.4755C83.8832 18.6114 81.8609 23.6959 79.9599 23.1134Z" fill="#32292F" stroke="#32292F" stroke-width="1.11324"/>
<path d="M52.6719 119.512V42.8563H100.187V119.481L52.6719 119.512Z" fill="#32292F" stroke="white" stroke-width="0.999999"/>
<path d="M39.4297 39.375V33.5209H114.706V39.375H39.4297Z" stroke="white" stroke-width="0.999999"/>
<path d="M48.0762 123.621V121.641H104.609V123.621H48.0762Z" stroke="white" stroke-width="0.8339"/>
<path d="M41.5771 131.15V126.481H111.519V131.15H41.5771Z" stroke="white" stroke-width="0.975568"/>
</g>
<defs>
<clipPath id="clip0_1373_604">
<rect width="154.122" height="154.122" fill="white"/>
</clipPath>
</defs>
</svg>
