<svg width="132" height="131" viewBox="0 0 132 131" fill="none" xmlns="http://www.w3.org/2000/svg">
<path fill-rule="evenodd" clip-rule="evenodd" d="M128.818 112.683L82.8719 59.7293C78.8443 69.6581 70.3021 77.6886 60.5466 82.2032L113.5 127.803C115.543 129.813 118.294 130.94 121.159 130.94C124.025 130.94 126.776 129.813 128.818 127.803C129.826 126.818 130.626 125.642 131.172 124.344C131.719 123.046 132 121.651 132 120.243C132 118.834 131.719 117.44 131.172 116.142C130.626 114.843 129.826 113.667 128.818 112.683Z" fill="#0B3B6A"/>
<path fill-rule="evenodd" clip-rule="evenodd" d="M63.8491 11.7855C60.3827 23.2576 53.5819 34.4327 44.1319 43.891C34.723 53.2998 23.4159 60.0676 12.0181 63.534C18.794 69.7744 27.6655 73.244 36.8772 73.2564C57.2547 73.2564 73.7614 56.8653 73.7614 36.6281C73.7483 27.3857 70.2021 18.4981 63.8491 11.7855Z" fill="#0B3B6A"/>
<path fill-rule="evenodd" clip-rule="evenodd" d="M56.7583 5.85163C50.8305 2.03859 43.9325 0.00759038 36.8842 0C16.5067 0 0 16.3912 0 36.6284C0 44.0316 2.25317 50.8984 6.04971 56.6675C17.3073 54.076 28.8207 47.5393 38.2956 38.0562C47.7869 28.5648 54.142 17.233 56.7583 5.85163Z" fill="#0B3B6A"/>
</svg>
