<svg width="141" height="146" viewBox="0 0 141 146" fill="none" xmlns="http://www.w3.org/2000/svg">
<path d="M140.096 26.9347V107.739C140.093 110.595 138.957 113.334 136.936 115.354C134.916 117.374 132.177 118.51 129.32 118.513H102.813L117.362 136.696C117.812 137.247 118.147 137.883 118.35 138.565C118.553 139.247 118.618 139.962 118.542 140.669C118.467 141.377 118.252 142.062 117.91 142.686C117.568 143.31 117.106 143.86 116.55 144.305C115.995 144.749 115.356 145.079 114.672 145.275C113.989 145.472 113.272 145.531 112.566 145.449C111.859 145.367 111.175 145.146 110.554 144.799C109.933 144.452 109.387 143.985 108.947 143.426L89.0117 118.513H51.0847L31.1492 143.426C30.7096 143.985 30.1636 144.452 29.5425 144.799C28.9215 145.146 28.2378 145.367 27.5309 145.449C26.824 145.531 26.1079 145.472 25.424 145.275C24.74 145.079 24.1018 144.749 23.5461 144.305C22.9904 143.86 22.5283 143.31 22.1864 142.686C21.8444 142.062 21.6295 141.377 21.554 140.669C21.4785 139.962 21.5439 139.247 21.7464 138.565C21.949 137.883 22.2846 137.247 22.734 136.696L37.2838 118.513H10.7766C7.91949 118.51 5.18027 117.374 3.15995 115.354C1.13963 113.334 0.00320889 110.595 0 107.739V26.9347C0.00320889 24.0783 1.13963 21.3398 3.15995 19.32C5.18027 17.3002 7.91949 16.1641 10.7766 16.1608H64.6599V5.38695C64.6599 3.95824 65.2276 2.58805 66.2381 1.5778C67.2486 0.567552 68.6191 0 70.0482 0C71.4773 0 72.8478 0.567552 73.8583 1.5778C74.8689 2.58805 75.4365 3.95824 75.4365 5.38695V16.1608H129.32C132.177 16.1641 134.916 17.3002 136.936 19.32C138.957 21.3398 140.093 24.0783 140.096 26.9347Z" fill="white"/>
</svg>
