<svg width="152" height="154" viewBox="0 0 152 154" fill="none" xmlns="http://www.w3.org/2000/svg">
<path d="M1.354 108.617C1.12013 108.138 1.02465 107.601 1.07141 107.069L8.08146 27.3761C8.18049 26.2502 8.90389 25.2755 9.95283 24.8547L49.0438 9.17077C49.6883 8.91219 50.2074 8.41379 50.492 7.78037C51.5676 5.38619 55.0865 5.80164 55.575 8.38049L72.8833 99.7523C73.5005 103.01 78.1672 103.007 78.7793 99.7478L95.9073 8.56665C96.4262 5.8042 100.143 5.25288 101.505 7.71171C101.836 8.30927 102.364 8.78167 102.996 9.04038L141.63 24.8506C142.666 25.2746 143.38 26.2404 143.482 27.3555L150.978 109.82C151.036 110.459 150.89 111.1 150.551 111.645C145.605 119.596 139.569 126.458 132.819 132.605C131.095 134.175 128.364 133.162 127.996 130.86L125.217 113.442C124.712 110.281 120.27 110.002 119.374 113.075L117.113 120.827C116.965 121.336 116.954 121.876 117.081 122.39L121.029 138.288C121.358 139.613 120.751 140.998 119.541 141.629C92.5568 155.689 63.838 158.068 32.2132 140.879C31.0356 140.239 30.444 138.877 30.7606 137.575L34.485 122.251C34.6083 121.744 34.5971 121.214 34.4525 120.712L32.185 112.845C31.2964 109.762 26.8402 110.038 26.3392 113.208L23.7664 129.482C23.4121 131.723 20.7984 132.767 19.0693 131.298C12.3095 125.554 6.16921 118.494 1.354 108.617Z" fill="#0B3B6A" stroke="#0B3B6A" stroke-width="1.77896"/>
<path d="M103.862 63.5342L121.842 61.0564V53.5593L115.349 49.8107L103.862 63.5342Z" fill="#0B3B6A"/>
<path d="M72.7297 14.7686C73.1986 15.7464 73.1034 16.9011 72.4806 17.7888L65.7601 27.3692C65.301 28.0236 65.1221 28.8341 65.263 29.6209L72.8776 72.1357C73.4675 75.4294 78.1912 75.4309 78.7833 72.1376L86.4673 29.3993C86.6138 28.5843 86.417 27.745 85.9234 27.0801L79.006 17.7628C78.3238 16.844 78.2238 15.6171 78.7481 14.6L80.1292 11.9207C81.1584 9.92408 79.7089 7.54619 77.4626 7.54619H74.0318C71.8232 7.54619 70.3717 9.85205 71.3268 11.8435L72.7297 14.7686Z" fill="#0B3B6A" stroke="#0B3B6A" stroke-width="0.508273"/>
</svg>
