<svg width="154" height="154" viewBox="0 0 154 154" fill="none" xmlns="http://www.w3.org/2000/svg">
<g clip-path="url(#clip0_1373_477)">
<path d="M77.0004 152.614C118.761 152.614 152.614 118.76 152.614 76.9999C152.614 35.2396 118.761 1.38623 77.0004 1.38623C35.2401 1.38623 1.38672 35.2396 1.38672 76.9999C1.38672 118.76 35.2401 152.614 77.0004 152.614Z" fill="#32292F" stroke="#32292F" stroke-width="2.58964"/>
<g filter="url(#filter0_f_1373_477)">
<path d="M22.2119 76.9999C22.2119 91.3432 28.1165 105.598 38.2588 115.74C48.401 125.883 62.656 131.787 76.9993 131.787C91.3426 131.787 105.598 125.883 115.74 115.74C125.882 105.598 131.787 91.3432 131.787 76.9999C131.787 62.6566 125.882 48.4016 115.74 38.2594C105.598 28.1171 91.3426 22.2125 76.9993 22.2125C62.656 22.2125 48.401 28.1171 38.2588 38.2594C28.1165 48.4016 22.2119 62.6566 22.2119 76.9999Z" stroke="#F7F7FF" stroke-width="2.36956"/>
<path d="M6.74219 63.2663C6.74219 68.5294 8.90928 73.76 12.6316 77.4815C16.354 81.203 21.5858 83.3696 26.85 83.3696C32.1143 83.3696 37.3461 81.203 41.0684 77.4815C44.7908 73.76 46.9579 68.5294 46.9579 63.2663C46.9579 58.0033 44.7908 52.7727 41.0684 49.0512C37.3461 45.3297 32.1143 43.1631 26.85 43.1631C21.5858 43.1631 16.354 45.3297 12.6316 49.0512C8.90928 52.7727 6.74219 58.0033 6.74219 63.2663Z" fill="#00B1FC" stroke="#00B1FC" stroke-width="0.318949"/>
<path d="M27.2125 62.442L33.8887 51.988L28.7323 48.5173L21.8721 58.7281L27.2125 62.442Z" fill="#F7F7FF" stroke="#F7F7FF" stroke-width="0.321368"/>
<path d="M29.5381 48.8419L30.2394 47.7795L33.8973 50.3405L33.2167 51.3406" fill="#32292F"/>
<path d="M29.5381 48.8419L30.2394 47.7795L33.8973 50.3405L33.2167 51.3406" stroke="#32292F" stroke-width="0.321368"/>
<path d="M20.8323 62.0723L20.0176 63.1788L23.6608 65.7783L24.5523 64.4698" fill="#F7F7FF"/>
<path d="M20.8323 62.0723L20.0176 63.1788L23.6608 65.7783L24.5523 64.4698" stroke="#F7F7FF" stroke-width="0.321368"/>
<path d="M31.5448 58.9083C38.0434 64.9026 34.3582 68.5548 29.3477 72.2156" stroke="#32292F" stroke-width="1.86393"/>
<path d="M27.9502 57.8922C27.9502 58.427 28.1704 58.9586 28.5487 59.3368C28.927 59.715 29.4587 59.9352 29.9937 59.9352C30.5287 59.9352 31.0604 59.715 31.4387 59.3368C31.817 58.9586 32.0372 58.427 32.0372 57.8922C32.0372 57.3573 31.817 56.8257 31.4387 56.4475C31.0604 56.0693 30.5287 55.8491 29.9937 55.8491C29.4587 55.8491 28.927 56.0693 28.5487 56.4475C28.1704 56.8257 27.9502 57.3573 27.9502 57.8922Z" fill="#F7F7FF" stroke="#32292F" stroke-width="0.321368"/>
<path d="M21.8725 58.728L20.0479 61.3545L25.4959 65.2285L27.2129 62.4419" fill="#32292F"/>
<path d="M21.8725 58.728L20.0479 61.3545L25.4959 65.2285L27.2129 62.4419" stroke="#32292F" stroke-width="0.321368"/>
<path d="M22.2114 78.2092L30.2048 78.1785L30.1741 71.0475L22.1191 71.0782C22.1864 72.5129 22.2114 76.3699 22.2114 78.2092Z" fill="#F7F7FF" stroke="#F7F7FF" stroke-width="0.321368"/>
<path d="M17.7451 78.4813H34.5714" stroke="#32292F" stroke-width="0.996242"/>
<path d="M17.7451 70.7438H31.5892" stroke="#32292F" stroke-width="0.903656"/>
<path d="M56.8994 24.0081C56.8994 29.27 59.0655 34.4995 62.7862 38.2202C66.507 41.9409 71.7365 44.107 76.9983 44.107C82.2602 44.107 87.4897 41.9409 91.2104 38.2202C94.9311 34.4995 97.0973 29.27 97.0973 24.0081C97.0973 18.7462 94.9311 13.5167 91.2104 9.79602C87.4897 6.0753 82.2602 3.90918 76.9983 3.90918C71.7365 3.90918 66.507 6.0753 62.7862 9.79602C59.0655 13.5167 56.8994 18.7462 56.8994 24.0081Z" fill="#FF715B" stroke="#FF715B" stroke-width="0.336907"/>
<path d="M80.4219 9.46948V11.8394H79.4648V18.0377L79.5104 17.9466" stroke="#F7F7FF" stroke-width="0.336907"/>
<path d="M73.9958 18.0834C71.5637 18.8387 69.4427 20.5502 68.1906 22.7678C66.9385 24.9854 66.5686 27.6856 67.1781 30.1583C67.7877 32.6309 69.3702 34.8498 71.5095 36.2314C73.6489 37.613 76.3224 38.1426 78.8269 37.681C81.0704 37.2675 83.1611 36.0683 84.6509 34.3406C86.1406 32.6129 87.0192 30.3684 87.0982 28.0885C87.1771 25.8086 86.456 23.5087 85.0894 21.6821C83.7228 19.8554 81.72 18.5144 79.5105 17.9467" stroke="#F7F7FF" stroke-width="0.336907"/>
<path d="M73.9955 18.0834V11.8395H72.9473L73.1182 9.47241H80.5926" stroke="#F7F7FF" stroke-width="0.336907"/>
<path d="M68.6744 24.9686C67.8662 27.6098 68.4121 30.6274 70.0943 32.818C71.7765 35.0087 74.551 36.3149 77.3112 36.2158C79.9787 36.1201 82.5687 34.7193 84.1089 32.5394C85.6491 30.3595 86.1043 27.4504 85.3035 24.9042" fill="#00B1FC"/>
<path d="M68.6744 24.9686C67.8662 27.6098 68.4121 30.6274 70.0943 32.818C71.7765 35.0087 74.551 36.3149 77.3112 36.2158C79.9787 36.1201 82.5687 34.7193 84.1089 32.5394C85.6491 30.3595 86.1043 27.4504 85.3035 24.9042" stroke="#00B1FC" stroke-width="0.336907"/>
<path d="M68.5156 24.9686L85.4609 24.9155Z" fill="#00B1FC"/>
<path d="M68.5156 24.9686L85.4609 24.9155" stroke="#00B1FC" stroke-width="0.336907"/>
<path d="M72.2885 28.0061C72.2974 28.3939 72.4659 28.7756 72.7465 29.0435C73.027 29.3114 73.4161 29.4621 73.8039 29.4532C74.1916 29.4442 74.5733 29.2757 74.8412 28.9952C75.1091 28.7146 75.2598 28.3255 75.2509 27.9378C75.242 27.55 75.0734 27.1683 74.7929 26.9004C74.5123 26.6325 74.1233 26.4818 73.7355 26.4907C73.3477 26.4996 72.966 26.6682 72.6981 26.9487C72.4302 27.2293 72.2795 27.6183 72.2885 28.0061Z" fill="#F7F7FF" stroke="#F7F7FF" stroke-width="0.336907"/>
<path d="M76.3908 32.0395C76.3968 32.3408 76.5268 32.6378 76.744 32.8466C76.9613 33.0554 77.2631 33.1735 77.5644 33.1675C77.8657 33.1615 78.1627 33.0316 78.3715 32.8143C78.5803 32.5971 78.6984 32.2952 78.6924 31.9939C78.6864 31.6927 78.5565 31.3957 78.3393 31.1869C78.122 30.9781 77.8201 30.86 77.5188 30.8659C77.2176 30.8719 76.9206 31.0019 76.7118 31.2191C76.503 31.4364 76.3849 31.7382 76.3908 32.0395Z" fill="#F7F7FF" stroke="#F7F7FF" stroke-width="0.336907"/>
<path d="M78.8527 27.4363C78.8556 27.5676 78.9126 27.6968 79.0076 27.7875C79.1025 27.8782 79.2341 27.9292 79.3654 27.9263C79.4966 27.9233 79.6259 27.8663 79.7166 27.7714C79.8073 27.6764 79.8583 27.5448 79.8553 27.4135C79.8524 27.2823 79.7954 27.1531 79.7004 27.0624C79.6055 26.9717 79.4739 26.9206 79.3426 26.9236C79.2114 26.9265 79.0821 26.9836 78.9914 27.0785C78.9007 27.1734 78.8497 27.3051 78.8527 27.4363Z" fill="#F7F7FF" stroke="#F7F7FF" stroke-width="0.336907"/>
<path d="M73.0199 9.50899C72.8642 9.81523 72.9909 10.1929 72.95 10.5279C72.9781 10.9496 72.8908 11.3921 72.9992 11.7994C73.299 11.9545 73.6697 11.8292 73.9982 11.8694C73.9838 13.884 74.0285 15.9259 73.9713 17.9232C73.8369 17.9867 73.876 18.18 73.6962 18.1771C71.0211 19.1189 68.7426 21.1975 67.6704 23.8367C66.8266 25.8701 66.6659 28.1874 67.2178 30.3176C67.4377 31.1668 67.771 31.9863 68.2193 32.7461C69.6731 35.3307 72.3207 37.189 75.2412 37.693C76.317 37.8891 77.4242 37.8529 78.5077 37.7468C81.283 37.3024 83.8755 35.7037 85.4152 33.3373C86.5386 31.6251 87.1689 29.5736 87.0963 27.5197C87.0785 25.2657 86.2219 23.0376 84.7939 21.3014C83.4508 19.664 81.5702 18.5226 79.5483 17.9299C79.3507 17.8103 79.5154 17.4357 79.4614 17.215V11.8694C79.7556 11.8447 80.0687 11.9245 80.3485 11.8202C80.5043 11.5139 80.3776 11.1363 80.4185 10.8013C80.3904 10.3796 80.4776 9.93703 80.3693 9.52973C80.063 9.374 79.6854 9.50068 79.3504 9.45976H73.1521C73.108 9.47617 73.064 9.49258 73.0199 9.50899ZM79.4189 24.9498L85.3201 24.95C85.5276 25.7446 85.682 26.5453 85.6416 27.3556C85.6715 28.2082 85.6006 29.0661 85.3442 29.887C84.759 32.071 83.247 33.9674 81.2741 35.0633C79.358 36.1565 77.034 36.5068 74.8891 35.9312C72.2198 35.2713 69.8973 33.288 68.928 30.7015C68.3399 29.2123 68.2158 27.5865 68.4427 26.0163C68.5016 25.6769 68.589 25.3433 68.668 25.0081C72.2514 24.954 75.8352 24.9529 79.4189 24.9498Z" fill="#F7F7FF" stroke="#F7F7FF" stroke-width="0.0136728"/>
<mask id="mask0_1373_477" style="mask-type:luminance" maskUnits="userSpaceOnUse" x="1" y="1" width="152" height="152">
<path d="M77.145 152.49C118.905 152.49 152.759 118.637 152.759 76.8766C152.759 35.1163 118.905 1.26294 77.145 1.26294C35.3847 1.26294 1.53125 35.1163 1.53125 76.8766C1.53125 118.637 35.3847 152.49 77.145 152.49Z" fill="white"/>
</mask>
<g mask="url(#mask0_1373_477)">
<g filter="url(#filter1_f_1373_477)">
<path d="M77.0542 65.8499C69.2976 66.003 61.2706 67.3168 54.5415 71.3852C48.8572 74.7678 45.1053 80.6157 43.0716 86.7927C41.2098 92.2323 40.0295 98.2484 41.7593 103.881C42.2074 106.143 40.3431 107.947 39.3784 109.802C37.9944 112.205 36.2554 114.441 35.1955 117.01C34.6501 119.18 36.9333 120.517 38.6849 121.057C39.9883 121.589 41.9768 122.062 41.844 123.87C41.9816 125.13 40.8215 126.229 41.1231 127.455C41.3875 128.327 43.1473 128.662 42.5095 129.763C41.7396 130.629 42.0147 131.858 42.8267 132.59C43.8686 133.592 44.4286 135.018 44.0589 136.452C43.645 138.584 43.061 141.012 44.3865 142.963C45.7993 145.318 48.7809 145.756 51.2937 145.604C54.2813 145.618 57.3998 144.754 60.3062 145.731C62.2961 146.818 59.1224 150.509 59.5783 152.453C71.1073 157.312 101.999 151.044 106.434 148.985C102.041 143.339 101.19 141.309 99.9976 134.306C99.6573 117.343 112.706 105.138 109.376 88.6415C107.892 81.3276 103.46 74.5882 97.0193 70.7264C91.0773 67.0338 83.9626 65.785 77.0542 65.8499Z" fill="#F7F7FF"/>
<path d="M77.0542 65.8499C69.2976 66.003 61.2706 67.3168 54.5415 71.3852C48.8572 74.7678 45.1053 80.6157 43.0716 86.7927C41.2098 92.2323 40.0295 98.2484 41.7593 103.881C42.2074 106.143 40.3431 107.947 39.3784 109.802C37.9944 112.205 36.2554 114.441 35.1955 117.01C34.6501 119.18 36.9333 120.517 38.6849 121.057C39.9883 121.589 41.9768 122.062 41.844 123.87C41.9816 125.13 40.8215 126.229 41.1231 127.455C41.3875 128.327 43.1473 128.662 42.5095 129.763C41.7396 130.629 42.0147 131.858 42.8267 132.59C43.8686 133.592 44.4286 135.018 44.0589 136.452C43.645 138.584 43.061 141.012 44.3865 142.963C45.7993 145.318 48.7809 145.756 51.2937 145.604C54.2813 145.618 57.3998 144.754 60.3062 145.731C62.2961 146.818 59.1224 150.509 59.5783 152.453C71.1073 157.312 101.999 151.044 106.434 148.985C102.041 143.339 101.19 141.309 99.9976 134.306C99.6573 117.343 112.706 105.138 109.376 88.6415C107.892 81.3276 103.46 74.5882 97.0193 70.7264C91.0773 67.0338 83.9626 65.785 77.0542 65.8499Z" stroke="#F7F7FF" stroke-width="0.488936" stroke-linecap="round"/>
</g>
<path d="M63.1602 90.652C64.0345 87.8279 65.8103 85.2905 68.164 83.5017C70.5178 81.713 73.4382 80.6817 76.3932 80.5956C79.3483 80.5095 82.3237 81.3691 84.7776 83.0178C87.2315 84.6665 89.1519 87.0963 90.1892 89.8647C91.1266 92.3667 91.3422 95.1416 90.754 97.7478C90.1659 100.354 88.7695 102.779 86.7777 104.56C85.2737 105.905 83.4735 106.864 81.7189 107.86C79.9643 108.856 78.209 109.924 76.8641 111.428C75.1691 113.323 74.2235 115.872 74.2717 118.414" stroke="#32292F" stroke-width="7.41994"/>
<path d="M70.1211 124.887C70.1211 125.944 70.5561 126.994 71.3032 127.741C72.0503 128.488 73.1004 128.923 74.157 128.923C75.2136 128.923 76.2636 128.488 77.0108 127.741C77.7579 126.994 78.1928 125.944 78.1928 124.887C78.1928 123.831 77.7579 122.781 77.0108 122.034C76.2636 121.286 75.2136 120.851 74.157 120.851C73.1004 120.851 72.0503 121.286 71.3032 122.034C70.5561 122.781 70.1211 123.831 70.1211 124.887Z" fill="#32292F" stroke="#32292F" stroke-width="0.484963"/>
</g>
</g>
<path d="M106.223 63.2664C106.223 68.5283 108.389 73.7578 112.109 77.4785C115.83 81.1992 121.06 83.3653 126.322 83.3653C131.583 83.3653 136.813 81.1992 140.534 77.4785C144.254 73.7578 146.421 68.5283 146.421 63.2664C146.421 58.0045 144.254 52.775 140.534 49.0543C136.813 45.3336 131.583 43.1675 126.322 43.1675C121.06 43.1675 115.83 45.3336 112.109 49.0543C108.389 52.775 106.223 58.0045 106.223 63.2664Z" fill="#F7F7FF" stroke="#F7F7FF" stroke-width="0.336907"/>
<path fill-rule="evenodd" clip-rule="evenodd" d="M121 64.2536L126.254 67.4798L130.991 64.1626L125.815 61.6924L121 64.2536Z" fill="#32292F" stroke="#F7F7FF" stroke-width="0.311745" stroke-linejoin="round"/>
<path fill-rule="evenodd" clip-rule="evenodd" d="M126.255 67.4798V74.3074L130.992 70.0857V64.1626L126.255 67.4798Z" fill="#32292F" stroke="#F7F7FF" stroke-width="0.311745" stroke-linejoin="round"/>
<path fill-rule="evenodd" clip-rule="evenodd" d="M121 64.2535L126.254 67.4798V74.3073L121 70.2015V64.2535Z" fill="#32292F" stroke="#F7F7FF" stroke-width="0.311745" stroke-linejoin="round"/>
<path d="M120.854 68.8622C120.143 69.1918 119.589 69.511 118.899 69.8821C117.059 70.8945 115.24 71.9444 113.396 72.9471C113.387 72.7944 113.476 72.6302 113.509 72.4758C113.558 72.3149 113.606 72.1541 113.654 71.993C113.458 71.967 113.349 72.1778 113.21 72.2789C112.532 72.9457 111.84 73.6003 111.188 74.2933C111.129 74.3195 111.097 74.4836 111.199 74.4414C112.244 74.2125 113.293 74.0048 114.331 73.7501C114.383 73.7227 114.524 73.719 114.51 73.6403C114.263 73.5045 113.97 73.4629 113.706 73.3634C113.631 73.3273 113.375 73.3101 113.574 73.2374C115.294 72.2676 117.018 71.305 118.742 70.3439C119.512 69.9089 120.194 69.6048 120.962 69.1654C120.819 69.0825 120.856 68.9909 120.854 68.8622Z" fill="#00B1FC"/>
<path d="M125.379 49.2398C125.215 49.8522 125.015 50.4598 124.885 51.0786C124.975 51.2085 125.145 51.025 125.224 50.9544C125.406 50.7822 125.58 50.6022 125.759 50.4262C125.758 53.7521 125.613 57.0699 125.657 60.3958C125.856 60.2934 125.788 60.3173 126.037 60.4131C126.048 60.1768 126.048 60.1841 126.049 59.9862C126.052 56.7776 126.121 53.5696 126.148 50.3612C126.424 50.6078 126.65 50.9234 126.967 51.1164C127.067 51.1589 127.166 51.0947 127.087 50.9877C126.758 49.8253 126.424 48.6641 126.093 47.5025C125.837 47.419 125.826 47.6583 125.776 47.846C125.644 48.3106 125.511 48.7752 125.379 49.2398Z" fill="#00FF00"/>
<path d="M131.146 68.782C131.142 68.9419 131.153 68.9094 131.07 69.0303C132.466 69.7533 133.872 70.4113 135.272 71.127C136.569 71.7919 137.884 72.4207 139.171 73.1056C139.333 73.1815 139.035 73.2155 138.99 73.2609C138.784 73.3714 138.515 73.3963 138.35 73.5693C138.253 73.8102 138.594 73.7199 138.734 73.7783C139.741 73.9307 140.747 74.1261 141.753 74.2564C141.844 74.1278 141.621 74.0216 141.562 73.9287C140.823 73.2338 140.085 72.5335 139.304 71.889C139.231 71.7929 139.035 71.8211 139.1 71.9715C139.158 72.2398 139.298 72.4997 139.341 72.7631C137.079 71.6717 134.852 70.5024 132.598 69.3931C131.985 69.1211 131.683 68.9741 131.146 68.782Z" fill="#FF715B"/>
<path d="M128.842 48.0095H129.431L130.609 49.9924H130.659L131.837 48.0095H132.426L130.891 50.5068V52.2573H130.377V50.5068L128.842 48.0095Z" fill="#32292F"/>
<path d="M112.173 69.2488V68.843L114.662 65.1276H112.146V64.6317H115.33V65.0375L112.841 68.7528H115.357V69.2488H112.173Z" fill="#32292F"/>
<path d="M136.851 64.9548L138.022 66.8449H138.057L139.229 64.9548H139.876L138.448 67.2264L139.876 69.498H139.229L138.057 67.6435H138.022L136.851 69.498H136.203L137.667 67.2264L136.203 64.9548H136.851Z" fill="#32292F"/>
</g>
<defs>
<filter id="filter0_f_1373_477" x="6.58186" y="3.73958" width="126.391" height="148.752" filterUnits="userSpaceOnUse" color-interpolation-filters="sRGB">
<feFlood flood-opacity="0" result="BackgroundImageFix"/>
<feBlend mode="normal" in="SourceGraphic" in2="BackgroundImageFix" result="shape"/>
<feGaussianBlur stdDeviation="0.000572835" result="effect1_foregroundBlur_1373_477"/>
</filter>
<filter id="filter1_f_1373_477" x="34.8638" y="65.5986" width="75.3057" height="88.9079" filterUnits="userSpaceOnUse" color-interpolation-filters="sRGB">
<feFlood flood-opacity="0" result="BackgroundImageFix"/>
<feBlend mode="normal" in="SourceGraphic" in2="BackgroundImageFix" result="shape"/>
<feGaussianBlur stdDeviation="0.00220212" result="effect1_foregroundBlur_1373_477"/>
</filter>
<clipPath id="clip0_1373_477">
<rect width="154" height="154" fill="white"/>
</clipPath>
</defs>
</svg>
