<svg width="155" height="155" viewBox="0 0 155 155" fill="none" xmlns="http://www.w3.org/2000/svg">
<g clip-path="url(#clip0_1373_422)">
<path d="M77.3501 153.308C119.3 153.308 153.308 119.3 153.308 77.3501C153.308 35.3999 119.3 1.39258 77.3501 1.39258C35.3999 1.39258 1.39258 35.3999 1.39258 77.3501C1.39258 119.3 35.3999 153.308 77.3501 153.308Z" fill="#00B1FC" stroke="#00B1FC" stroke-width="2.60142"/>
<path d="M15 109.826L20.9791 41.8533L55.4897 28.0071L58.7415 20.7693L76.7835 116.015L94.6158 21.084L98.392 27.9022L132.483 41.8533L138.882 112.238C133.945 120.378 127.634 127.145 120.525 133.113L115.805 103.532L110.665 121.154L114.546 136.784C91.316 149.435 66.545 151.71 39.126 136.154L42.7973 121.05L37.6575 103.217L33.1469 131.749C26.1588 126.437 19.762 119.868 15 109.826Z" fill="#32292F" stroke="#32292F" stroke-width="1.46854"/>
<path d="M99.9131 73.2172L114.756 71.1717V64.9828L109.396 61.8883L99.9131 73.2172Z" fill="#F7F7FF" stroke="#F7F7FF" stroke-width="0.419582"/>
<path d="M74.8404 34.2677L67.8682 44.2068L76.7689 93.9023L85.7437 43.9843L78.4748 34.1935L82.1834 26.9988H71.3543L74.8404 34.2677Z" fill="#FF715B" stroke="#FF715B" stroke-width="0.419582"/>
</g>
<defs>
<clipPath id="clip0_1373_422">
<rect width="154.7" height="154.7" fill="white"/>
</clipPath>
</defs>
</svg>
