<svg width="169" height="121" viewBox="0 0 169 121" fill="none" xmlns="http://www.w3.org/2000/svg">
<path d="M8.45 0H50.7C52.9411 0 55.0904 0.791345 56.675 2.19995C58.2597 3.60856 59.15 5.51904 59.15 7.51111V112.667C59.15 114.659 58.2597 116.569 56.675 117.978C55.0904 119.386 52.9411 120.178 50.7 120.178H8.45C6.20892 120.178 4.05963 119.386 2.47495 117.978C0.890265 116.569 0 114.659 0 112.667V7.51111C0 5.51904 0.890265 3.60856 2.47495 2.19995C4.05963 0.791345 6.20892 0 8.45 0ZM8.45 82.6222V97.6444H25.35V82.6222H8.45ZM84.5 22.5333H152.1C156.582 22.5333 160.881 24.116 164.05 26.9332C167.219 29.7505 169 33.5714 169 37.5556V82.6222C169 86.6064 167.219 90.4273 164.05 93.2445C160.881 96.0618 156.582 97.6444 152.1 97.6444H84.5C80.0178 97.6444 75.7193 96.0618 72.5499 93.2445C69.3805 90.4273 67.6 86.6064 67.6 82.6222V37.5556C67.6 33.5714 69.3805 29.7505 72.5499 26.9332C75.7193 24.116 80.0178 22.5333 84.5 22.5333ZM101.4 105.156H135.2C137.441 105.156 139.59 105.947 141.175 107.356C142.76 108.764 143.65 110.675 143.65 112.667C143.65 114.659 142.76 116.569 141.175 117.978C139.59 119.386 137.441 120.178 135.2 120.178H101.4C99.1589 120.178 97.0096 119.386 95.4249 117.978C93.8403 116.569 92.95 114.659 92.95 112.667C92.95 110.675 93.8403 108.764 95.4249 107.356C97.0096 105.947 99.1589 105.156 101.4 105.156Z" fill="white"/>
</svg>
