<svg width="155" height="155" viewBox="0 0 155 155" fill="none" xmlns="http://www.w3.org/2000/svg">
<g clip-path="url(#clip0_1373_542)">
<path opacity="0.994" d="M77.061 154.122C119.621 154.122 154.122 119.621 154.122 77.061C154.122 34.5014 119.621 0 77.061 0C34.5014 0 0 34.5014 0 77.061C0 119.621 34.5014 154.122 77.061 154.122Z" fill="#32292F"/>
<path opacity="0.999" d="M135.795 111.127C137.262 111.128 137.371 109.78 137.346 108.866C137.323 108.014 136.817 106.84 135.787 106.84H20.3682C17.8339 106.84 18.0453 111.111 20.3682 111.112L135.795 111.127Z" fill="white" stroke="white" stroke-width="0.0532986"/>
<g opacity="0.999">
<path d="M26.7314 106.84V41.9545C26.6456 39.5975 27.6986 38.2413 30.3745 38.3113H125.658C127.84 38.2805 129.24 39.1749 129.165 41.8181V106.84" fill="white"/>
<path d="M26.7314 106.84V41.9545C26.6456 39.5975 27.6986 38.2413 30.3745 38.3113H125.658C127.84 38.2805 129.24 39.1749 129.165 41.8181V106.84" stroke="white" stroke-width="0.0532986"/>
</g>
<g opacity="0.999">
<path d="M28.4705 106.845V43.4436C28.3876 41.1405 29.4048 39.8153 31.99 39.8838H124.039C126.147 39.8533 127.5 40.7276 127.427 43.3103V106.845" fill="#00B1FC" fill-opacity="0.37619"/>
<path d="M28.4705 106.845V43.4436C28.3876 41.1405 29.4048 39.8153 31.99 39.8838H124.039C126.147 39.8533 127.5 40.7276 127.427 43.3103V106.845" stroke="white" stroke-width="0.0532986"/>
</g>
<path d="M125.929 38.0764H30.1544C28.251 38.0764 26.708 39.6194 26.708 41.5228V106.582C26.708 108.485 28.251 110.028 30.1544 110.028H125.929C127.832 110.028 129.375 108.485 129.375 106.582V41.5228C129.375 39.6194 127.832 38.0764 125.929 38.0764Z" fill="white"/>
<path d="M124.952 39.951H30.9827C29.6159 39.951 28.5078 41.0591 28.5078 42.4259V104.371C28.5078 105.737 29.6159 106.845 30.9827 106.845H124.952C126.319 106.845 127.427 105.737 127.427 104.371V42.4259C127.427 41.0591 126.319 39.951 124.952 39.951Z" fill="#00B1FC"/>
<path d="M127.427 103.891H123.625V106.845H127.427V103.891Z" fill="#00B1FC"/>
<path d="M32.3101 103.891H28.5078V106.845H32.3101V103.891Z" fill="#00B1FC"/>
<path d="M27.5166 80.0554L35.073 72.4991V39.2601" stroke="#32292F" stroke-opacity="0.996078" stroke-width="2.39989"/>
<path d="M27.543 89.3739L42.4534 74.8421V51.9387" stroke="#32292F" stroke-opacity="0.996078" stroke-width="2.39989"/>
<path d="M27.2441 101.105L49.2481 79.0596V39.155" stroke="#FF715B" stroke-width="2.39989"/>
<path d="M26.8135 109.344L57.7418 78.4153" stroke="#FF715B" stroke-width="2.39989"/>
<path d="M37.4746 108.992L59.6165 86.8503H69.926L74.9699 81.9863" stroke="#32292F" stroke-opacity="0.996078" stroke-width="2.39989"/>
<path d="M48.2529 110.047L62.9556 95.3439H78.8298" stroke="#FF715B" stroke-width="2.39989"/>
<path d="M135.9 106.795H19.6578C18.7757 106.795 18.0605 107.511 18.0605 108.393V109.628C18.0605 110.51 18.7757 111.225 19.6578 111.225H135.9C136.783 111.225 137.498 110.51 137.498 109.628V108.393C137.498 107.511 136.783 106.795 135.9 106.795Z" fill="white"/>
<path d="M28.4922 73.0728H26.7051V108.712H28.4922V73.0728Z" fill="white"/>
<path d="M53.0897 38.4124H33.7129V39.914H53.0897V38.4124Z" fill="white"/>
<path d="M42.6369 52.4605C44.2771 52.4605 45.6067 51.1308 45.6067 49.4906C45.6067 47.8504 44.2771 46.5208 42.6369 46.5208C40.9966 46.5208 39.667 47.8504 39.667 49.4906C39.667 51.1308 40.9966 52.4605 42.6369 52.4605Z" stroke="#32292F" stroke-opacity="0.996078" stroke-width="2.39989"/>
<path d="M59.5451 79.3131C61.1853 79.3131 62.5149 77.9835 62.5149 76.3433C62.5149 74.7031 61.1853 73.3734 59.5451 73.3734C57.9048 73.3734 56.5752 74.7031 56.5752 76.3433C56.5752 77.9835 57.9048 79.3131 59.5451 79.3131Z" stroke="#FF715B" stroke-width="2.39989"/>
<path d="M76.3214 83.2644C77.9616 83.2644 79.2913 81.9348 79.2913 80.2946C79.2913 78.6544 77.9616 77.3247 76.3214 77.3247C74.6812 77.3247 73.3516 78.6544 73.3516 80.2946C73.3516 81.9348 74.6812 83.2644 76.3214 83.2644Z" stroke="#32292F" stroke-opacity="0.996078" stroke-width="2.39989"/>
<path d="M81.1808 98.4889C82.821 98.4889 84.1507 97.1593 84.1507 95.5191C84.1507 93.8789 82.821 92.5492 81.1808 92.5492C79.5406 92.5492 78.2109 93.8789 78.2109 95.5191C78.2109 97.1593 79.5406 98.4889 81.1808 98.4889Z" stroke="#FF715B" stroke-width="2.39989"/>
<path d="M122.92 42.3331H81.3327C80.6139 42.3331 80.0312 42.9158 80.0312 43.6345V70.8503C80.0312 71.5691 80.6139 72.1517 81.3327 72.1517H122.92C123.639 72.1517 124.221 71.5691 124.221 70.8503V43.6345C124.221 42.9158 123.639 42.3331 122.92 42.3331Z" fill="white" stroke="#32292F" stroke-opacity="0.996078" stroke-width="1.39219"/>
<path d="M80.0801 47.4658H124.124" stroke="#32292F" stroke-opacity="0.996078" stroke-width="1.39219"/>
<path d="M102.81 49.4701L100.731 57.2286Z" fill="white"/>
<path d="M102.81 49.4701L100.731 57.2286" stroke="#FF715B" stroke-width="1.39219"/>
<path d="M99.4866 55.9714L96.6758 53.1607L99.4132 50.4232" fill="white"/>
<path d="M99.4866 55.9714L96.6758 53.1607L99.4132 50.4232" stroke="#FF715B" stroke-width="1.39219"/>
<path d="M104.787 56.2036L107.598 53.3928L104.86 50.6554" fill="white"/>
<path d="M104.787 56.2036L107.598 53.3928L104.86 50.6554" stroke="#FF715B" stroke-width="1.39219"/>
<path d="M82.5732 45.3639H103.544" stroke="#32292F" stroke-opacity="0.996078" stroke-width="1.39219"/>
<path d="M86.6309 58.66H88.7817" stroke="#32292F" stroke-opacity="0.996078" stroke-width="1.39219"/>
<path d="M88.9277 60.5665H96.1624" stroke="#32292F" stroke-opacity="0.996078" stroke-width="1.39219"/>
<path d="M97.6289 60.5665H100.073" stroke="#32292F" stroke-opacity="0.996078" stroke-width="1.39219"/>
<path d="M101.735 60.5665H107.65" stroke="#32292F" stroke-opacity="0.996078" stroke-width="1.39219"/>
<path d="M108.97 60.5665H111.267" stroke="#32292F" stroke-opacity="0.996078" stroke-width="1.39219"/>
<path d="M112.636 60.5665H117.964" stroke="#32292F" stroke-opacity="0.996078" stroke-width="1.39219"/>
<path d="M89.123 63.0106H96.1133" stroke="#32292F" stroke-opacity="0.996078" stroke-width="1.39219"/>
<path d="M97.5312 63.0106H102.664" stroke="#32292F" stroke-opacity="0.996078" stroke-width="1.39219"/>
<path d="M104.277 63.0106H106.526" stroke="#32292F" stroke-opacity="0.996078" stroke-width="1.39219"/>
<path d="M108.285 63.0106H111.756" stroke="#32292F" stroke-opacity="0.996078" stroke-width="1.39219"/>
<path d="M86.3857 64.6726H88.6344" stroke="#32292F" stroke-opacity="0.996078" stroke-width="1.39219"/>
<path d="M89.0254 66.6279H96.5534" stroke="#32292F" stroke-opacity="0.996078" stroke-width="1.39219"/>
<path d="M97.9229 66.6279H100.66" stroke="#32292F" stroke-opacity="0.996078" stroke-width="1.39219"/>
<path d="M101.784 66.6279H107.308" stroke="#32292F" stroke-opacity="0.996078" stroke-width="1.39219"/>
<path d="M108.384 66.6279H113.37" stroke="#32292F" stroke-opacity="0.996078" stroke-width="1.39219"/>
<path d="M114.494 66.6279H117.818" stroke="#32292F" stroke-opacity="0.996078" stroke-width="1.39219"/>
<path d="M89.0742 68.8766H93.327" stroke="#32292F" stroke-opacity="0.996078" stroke-width="1.39219"/>
<path d="M94.8916 68.8766H97.7268" stroke="#32292F" stroke-opacity="0.996078" stroke-width="1.39219"/>
</g>
<defs>
<clipPath id="clip0_1373_542">
<rect width="154.122" height="154.122" fill="white"/>
</clipPath>
</defs>
</svg>
