<svg width="154" height="154" viewBox="0 0 154 154" fill="none" xmlns="http://www.w3.org/2000/svg">
<g clip-path="url(#clip0_1373_371)">
<path d="M76.9995 152.614C118.76 152.614 152.613 118.76 152.613 77.0001C152.613 35.2398 118.76 1.38635 76.9995 1.38635C35.2392 1.38635 1.38574 35.2398 1.38574 77.0001C1.38574 118.76 35.2392 152.614 76.9995 152.614Z" fill="#00B1FC" stroke="#00B1FC" stroke-width="2.77258"/>
<g filter="url(#filter0_f_1373_371)">
<mask id="mask0_1373_371" style="mask-type:luminance" maskUnits="userSpaceOnUse" x="6" y="6" width="142" height="142">
<path d="M76.9999 147.431C115.898 147.431 147.431 115.898 147.431 76.9999C147.431 38.1022 115.898 6.56934 76.9999 6.56934C38.1022 6.56934 6.56934 38.1022 6.56934 76.9999C6.56934 115.898 38.1022 147.431 76.9999 147.431Z" fill="white"/>
</mask>
<g mask="url(#mask0_1373_371)">
<path d="M156.72 103.096L-2.66992 102.902L3.98251 99.5067C2.78491 98.778 2.22926 97.6863 4.41987 97.3447C3.4404 96.7025 3.4572 95.5774 4.63392 95.5931" stroke="#F7F7FF" stroke-width="0.286119"/>
<path d="M4.63379 95.5931H8.05507V90.3511C6.45396 90.143 7.18348 89.0147 8.05507 89.1625H10.7224C10.4864 87.8771 10.2293 86.5844 11.3906 85.7782C11.8636 83.0715 11.6931 80.0435 15.5446 79.0239" stroke="#F7F7FF" stroke-width="0.286119"/>
<path d="M15.3741 79.2291C15.1413 78.4309 14.9927 77.4044 15.7596 76.8707L16.2628 74.8896L16.712 76.8266C17.6228 77.3623 17.3352 78.3161 17.367 78.9882" stroke="#F7F7FF" stroke-width="0.190745"/>
<path d="M17.3662 78.9882C20.8842 79.8533 21.2092 83.0313 21.5265 85.8169C22.7776 86.4353 22.3823 88.0001 22.4082 89.1052H24.9897C25.9275 89.1052 25.2105 90.1051 24.6749 89.9939V95.6024L28.2652 95.6009C28.7612 95.5226 29.089 96.6534 28.1518 97.3698C28.7587 97.6233 30.5776 97.9351 29.4481 98.8388V99.4808H30.3626" stroke="#F7F7FF" stroke-width="0.190745"/>
<path d="M53.248 100.169H54.6327V74.4864H55.424V76.4975H57.2043V74.2886H58.0945V86.2844" stroke="#F7F7FF" stroke-width="0.476864"/>
<path d="M70.0186 97.1476V74.5427H68.9476V76.4551H67.1117V74.3514H66.232V86.3232C64.0516 85.6717 61.5813 85.3353 57.8926 86.3232" stroke="#F7F7FF" stroke-width="0.476864"/>
<path d="M62.1611 84.7909V85.7339" stroke="#F7F7FF" stroke-width="0.476864"/>
<path d="M30.363 99.4808C30.363 99.4808 30.9482 98.0919 30.2783 97.7641C29.6084 97.4362 29.2093 97.3792 29.3233 96.7378C29.4374 96.0964 29.6205 95.2909 28.7368 95.0913C27.8531 94.8918 26.2 95.005 26.2 95.005L26.0488 85.9593H27.1451V84.0634H30.1067V85.3281H31.6348V83.1465H32.636V84.6536H34.7918V83.8541H34.9494V84.6197H37.5766V84.0425H40.8375V80.9315H40.4018C40.7864 79.1682 41.2163 78.8041 41.8449 78.051L42.163 74.9757L42.6667 78.051C43.3793 78.8983 43.7552 80.0135 43.8565 80.9315H43.4513V84.2065H44.7175V83.9195H45.6291V83.7H46.7095V84.7129H51.7064V83.0923H52.9556V85.1519H53.7828" stroke="#F7F7FF" stroke-width="0.238433"/>
<path d="M41.8904 83.6543H42.5317V81.5012H41.8789V83.6543H41.9362H41.8904Z" stroke="#F7F7FF" stroke-width="0.143059"/>
<path d="M53.7825 85.1519V86.276H53.2543V87.8606H53.8573V88.9404H53.2402V89.8099H53.9975V90.7495H53.4786V91.8713H53.8292V92.5725H53.5067L53.4773 100.413" stroke="#F7F7FF" stroke-width="0.286119"/>
<path d="M70.0187 97.1476L71.4767 97.9894V85.1419H73.0501L72.337 84.4288V59.9084L73.5408 59.5858L70.5385 57.8525C70.5385 57.8525 69.3238 57.2651 70.5665 57.2651C71.8092 57.2651 83.625 57.2651 83.625 57.2651V50.9456H84.2789V57.3897H85.2997V59.6866L86.2405 59.9387V70.1184H90.1807V91.5004" stroke="#F7F7FF" stroke-width="0.238433"/>
<path d="M90.1809 91.5003C86.3737 94.8229 81.9687 97.7298 76.7217 100.051C106.302 88.9387 100.548 71.7737 100.524 70.9356C100.524 70.9356 98.5183 69.1204 100.435 69.0405C102.352 68.9606 103.412 69.0405 103.412 69.0405V69.4484H110.895V69.7145H112.824V70.4129C107.59 78.4539 108.231 88.0378 108.116 91.7053C123.881 84.0119 132.775 86.2682 140.134 90.7476C144.322 90.8162 147.596 91.8503 148.758 95.1161C149.479 95.834 150.329 96.5154 148.714 97.9007L149.28 100.294L156.72 103.096" stroke="#F7F7FF" stroke-width="0.095373"/>
<path d="M83.9253 50.7803C83.4051 50.9754 83.6285 51.6867 83.5497 52.1162C83.5178 53.7899 83.5174 55.464 83.5011 57.1379C79.1025 57.1677 74.7039 57.1976 70.3053 57.2274C69.5959 57.5377 70.5296 58.0139 70.8762 58.1741C71.6569 58.6293 72.4446 59.0733 73.2101 59.5541C72.7986 59.686 72.0414 59.6785 72.1994 60.3111V84.3157C72.5076 84.8266 73.0296 85.1281 72.0941 84.996C71.4421 84.7991 71.2571 85.4004 71.3749 85.9215C71.3605 89.8713 71.3462 93.8212 71.332 97.7711C70.9386 97.5044 70.4205 97.3226 70.1072 96.9921C69.9581 93.1604 70.059 89.2912 70.0268 85.4449V74.8517C69.9173 74.4168 69.0155 74.4268 68.9056 74.8498V76.4872H67.0989C67.0159 75.8336 67.2688 75.0675 66.9208 74.4772C66.5275 74.1583 66.2312 74.7178 66.299 75.0716C66.1906 78.8156 66.3133 82.573 66.1976 86.3107C64.449 85.7752 62.6095 85.6275 60.7928 85.807C59.9062 85.8427 59.0058 86.1147 58.1813 86.1882C58.063 82.3901 58.2079 78.5871 58.0808 74.7903C58.16 74.2709 57.3566 74.0902 57.2429 74.607C57.1464 75.2273 57.2172 75.8617 57.1943 76.4872H55.3877C55.3301 75.8625 55.5076 75.1656 55.239 74.5805C54.8707 74.2518 54.6008 74.8067 54.6959 75.1358C54.5805 83.4846 54.6541 91.8349 54.6325 100.184C54.2058 100.086 53.2771 100.487 53.5171 99.727C53.575 97.3746 53.4085 94.9985 53.6304 92.6545C54.0093 92.4725 53.9752 91.8398 53.5658 91.7686C53.6307 91.4325 53.3452 90.8161 53.8371 90.8356C54.3125 90.6166 54.1669 89.664 53.5726 89.7552C53.2373 89.9687 53.1318 88.7692 53.6116 89.0214C54.0443 88.845 54.0202 88.127 53.7422 87.827C53.191 87.9209 53.3318 87.4972 53.3748 87.0665C53.2972 86.5579 53.2254 86.1893 53.7559 86.2954C54.0296 85.9754 53.8589 85.4253 53.9183 85.0393C53.1713 85.0193 52.6179 85.2644 52.9233 84.3147C52.8605 83.8819 52.9556 83.0923 52.6312 82.9833C52.1353 83.0202 51.6273 82.8751 51.6132 83.6354C51.6988 84.2438 51.963 85.0172 50.9727 84.6245C49.588 84.6121 48.2032 84.5996 46.8185 84.587C46.7987 84.1525 46.8904 83.5537 46.2175 83.7114C45.9653 83.7009 45.6311 83.5372 45.5098 83.8006C45.185 83.8029 44.9171 83.9127 44.7175 84.2065C44.421 84.0997 43.4508 84.3281 43.4514 84.2065C43.485 83.2787 43.3331 81.8146 43.4514 80.9315C44.0175 80.7572 43.7957 80.2053 43.7309 79.8223C43.4601 78.8636 42.1003 78.0346 42.5824 77.2568C42.2485 76.5423 42.4245 73.8171 42.0361 76.4083C41.6055 76.9841 42.4073 78.0013 41.4059 78.4137C40.9025 79.1106 40.392 79.922 40.3829 80.8041C40.5068 81.0028 41.1978 80.6579 40.7643 81.3668C40.7767 82.2106 40.835 83.1986 40.8375 84.0425C39.7727 84.0948 38.5847 83.9854 37.516 83.9814C37.8007 84.864 37.1204 84.5991 36.5166 84.5388H32.7885C32.4589 84.2071 32.6937 83.4815 32.6211 83.0324C32.1995 83.2161 31.5377 82.8924 31.6294 83.5159C31.5815 84.0709 31.9636 85.1035 31.4844 85.1792C31.0757 85.5953 29.8707 85.4875 30.0727 84.7153C30.244 84.1143 29.7489 83.8996 29.147 84.0795C28.3859 84.1462 27.9072 84.2502 27.0857 83.9814C27.1631 84.6167 27.2162 85.3926 27.1452 85.9592C27.1346 86.2671 25.9112 85.6943 26.0699 86.3705C26.1381 89.194 25.9832 92.0523 26.1428 94.8621C26.438 95.2599 27.1072 94.9989 27.5487 95.1089C28.0635 95.1916 28.8127 95.0422 29.1949 95.517C29.4678 96.1236 28.9995 96.7712 29.3813 97.3021C29.6457 97.4527 30.0621 97.6275 30.2725 97.9219C30.3998 98.1001 30.5205 98.2774 30.4527 98.5537C30.384 98.8276 30.2251 99.2019 29.9531 99.3592C29.6123 99.4538 29.5245 99.2424 29.6111 98.9486C29.7927 98.6556 30.055 98.3077 29.6875 97.991C29.3026 97.6637 28.8736 97.496 28.4143 97.3088C28.8535 96.8811 29.0967 95.9531 28.5394 95.5404C27.3217 95.3196 26.0615 95.4775 24.8285 95.4266V90.1074C25.2516 90.0408 25.541 89.2065 25.3477 89.0729C24.4496 88.8234 23.4756 88.9831 22.5506 88.9309C22.5087 87.8962 22.8102 86.5163 21.8135 85.819C21.4502 85.4125 21.6169 84.751 21.467 84.2473C21.2121 82.3949 20.5174 80.3553 18.7761 79.4036C18.3896 79.1789 17.9679 79.0255 17.5474 78.8783C17.5297 78.1437 17.574 77.284 16.9278 76.7835C16.6035 76.3156 16.7721 75.5456 16.3133 75.2248C15.7761 75.221 15.9318 76.0016 15.7479 76.3665C15.6149 76.9993 14.9553 77.4234 15.0549 78.1249C15.032 78.4206 15.1289 78.8033 15.1914 79.0259C13.6322 79.5122 12.2897 80.7585 11.9175 82.3811C11.545 83.494 11.564 84.7048 11.1905 85.8074C10.5786 86.3766 10.3404 87.2286 10.4791 88.0436C10.5076 88.3707 10.5384 88.6982 10.5915 89.0224C9.55843 89.4506 8.4315 89.2498 7.38526 89.2273C6.88645 89.4748 7.03639 90.2398 7.57522 90.3303C7.95084 90.3157 7.93455 90.6157 7.91993 90.9112C7.95393 92.4234 7.95281 93.9866 7.97051 95.5181C6.67749 95.5767 5.35507 95.3955 4.07878 95.6398C3.42381 95.8712 3.58529 96.7631 4.0366 97.1196C4.46013 97.3797 3.81555 97.304 3.63042 97.4538C3.14127 97.6073 2.61048 98.1815 3.00211 98.6866C3.20422 99.0071 3.48345 99.2756 3.7959 99.4877C1.83557 100.542 -0.200361 101.489 -2.13467 102.569C-2.45826 103.183 -1.47811 103.042 -1.12193 103.041C58.7764 174.174 109.457 158.332 155.973 103.218C156.62 102.983 155.932 102.477 155.534 102.452C153.504 101.68 151.47 100.92 149.437 100.155C149.266 99.422 149.094 98.6892 148.922 97.9565C149.497 97.4453 150.157 96.596 149.617 95.8289C149.077 95.216 148.677 94.5072 148.288 93.7922C146.933 91.6721 144.317 90.8767 141.939 90.6635C141.085 90.5581 140.133 90.7125 139.423 90.1146C135.742 87.9929 131.592 86.5909 127.322 86.4759C121.467 86.3222 115.739 88.083 110.436 90.4331C109.729 90.7505 109.029 91.0846 108.315 91.3869C108.393 87.7233 108.37 84.0251 109.13 80.4254C109.777 77.0304 110.97 73.7346 112.78 70.7899C112.997 70.4275 113.286 69.5867 112.652 69.5337C112.124 69.4846 111.51 69.6235 111.025 69.4656C110.47 69.1285 109.74 69.3413 109.119 69.2645C107.281 69.255 105.443 69.2607 103.605 69.2592C103.69 68.5552 102.818 68.8347 102.398 68.8003C101.518 68.8936 100.553 68.6771 99.7251 69.0426C99.1248 69.4189 99.6187 70.1337 99.9149 70.5374C100.627 71.2872 100.541 72.3882 100.693 73.3382C101.088 77.3885 100.012 81.5134 97.8378 84.9387C94.469 90.3003 89.114 94.0541 83.5435 96.8617C82.8922 97.1908 82.2436 97.5034 81.5815 97.8099C84.6729 96.0498 87.6133 93.9817 90.277 91.6382C90.4239 90.6466 90.2951 89.5867 90.3385 88.5695V70.2772C90.1393 69.7376 89.3942 70.0933 88.9545 69.9911H86.4043V60.059C86.3193 59.4653 85.1703 59.9619 85.3978 59.2388C85.3474 58.6163 85.5022 57.9532 85.3147 57.3579C84.8714 57.1515 84.1402 57.5148 84.3914 56.7245C84.3468 54.8387 84.4828 52.9391 84.3063 51.0611C84.266 50.8919 84.1066 50.7514 83.9253 50.7803ZM42.478 81.552C42.5802 81.7993 42.6139 83.3584 42.5942 83.5659C42.2879 83.6709 41.8637 83.7207 41.86 83.5934C41.8452 83.0861 41.8337 81.4627 41.8997 81.4649C41.9573 81.4668 41.7771 81.4198 42.0241 81.506C42.2241 81.5758 42.1359 81.4632 42.478 81.552Z" fill="#F7F7FF" stroke="#F7F7FF" stroke-width="0.0274483"/>
<path d="M114.079 89.9322L106.665 75.1844L116.673 90.0646" stroke="#F7F7FF" stroke-width="0.476864"/>
<path d="M119.904 90.5147L106.665 75.1844L123.028 89.5351" stroke="#F7F7FF" stroke-width="0.476864"/>
<path d="M106.665 75.1844L125.623 89.3232" stroke="#F7F7FF" stroke-width="0.476864"/>
<path d="M128.244 89.032L106.665 75.1844L131.077 88.6084" stroke="#F7F7FF" stroke-width="0.476864"/>
<path d="M106.665 75.1844L135.34 89.0585" stroke="#F7F7FF" stroke-width="0.476864"/>
</g>
</g>
<path d="M11.3251 58.7389H12.1013L13.9263 63.1966H13.9892L15.8143 58.7389H16.5904V64.1091H15.9821V60.029H15.9296L14.2514 64.1091H13.6641L11.9859 60.029H11.9334V64.1091H11.3251V58.7389ZM22.4254 61.424C22.4254 61.9904 22.3232 62.4799 22.1186 62.8924C21.9141 63.305 21.6335 63.6232 21.2769 63.8469C20.9203 64.0707 20.513 64.1826 20.055 64.1826C19.597 64.1826 19.1897 64.0707 18.833 63.8469C18.4764 63.6232 18.1959 63.305 17.9913 62.8924C17.7868 62.4799 17.6845 61.9904 17.6845 61.424C17.6845 60.8576 17.7868 60.3682 17.9913 59.9556C18.1959 59.5431 18.4764 59.2249 18.833 59.0011C19.1897 58.7774 19.597 58.6655 20.055 58.6655C20.513 58.6655 20.9203 58.7774 21.2769 59.0011C21.6335 59.2249 21.9141 59.5431 22.1186 59.9556C22.3232 60.3682 22.4254 60.8576 22.4254 61.424ZM21.7961 61.424C21.7961 60.959 21.7183 60.5666 21.5627 60.2467C21.4089 59.9268 21.2 59.6847 20.936 59.5203C20.6738 59.356 20.3801 59.2738 20.055 59.2738C19.7298 59.2738 19.4353 59.356 19.1713 59.5203C18.9091 59.6847 18.7002 59.9268 18.5446 60.2467C18.3908 60.5666 18.3139 60.959 18.3139 61.424C18.3139 61.889 18.3908 62.2815 18.5446 62.6014C18.7002 62.9213 18.9091 63.1634 19.1713 63.3277C19.4353 63.492 19.7298 63.5742 20.055 63.5742C20.3801 63.5742 20.6738 63.492 20.936 63.3277C21.2 63.1634 21.4089 62.9213 21.5627 62.6014C21.7183 62.2815 21.7961 61.889 21.7961 61.424ZM27.7773 58.7389V64.1091H27.148L24.2216 59.8927H24.1692V64.1091H23.5189V58.7389H24.1482L27.085 62.9659H27.1375V58.7389H27.7773ZM28.7848 59.3158V58.7389H32.8125V59.3158H31.1238V64.1091H30.4735V59.3158H28.7848ZM33.8161 64.1091V58.7389H35.6307C36.0502 58.7389 36.3946 58.8106 36.6638 58.9539C36.933 59.0955 37.1323 59.2904 37.2617 59.5387C37.391 59.7869 37.4557 60.0692 37.4557 60.3856C37.4557 60.7021 37.391 60.9826 37.2617 61.2274C37.1323 61.4721 36.9339 61.6644 36.6664 61.8042C36.399 61.9423 36.0572 62.0114 35.6412 62.0114H34.1728V61.424H35.6202C35.9069 61.424 36.1376 61.3821 36.3125 61.2982C36.489 61.2143 36.6166 61.0954 36.6953 60.9415C36.7757 60.786 36.8159 60.6007 36.8159 60.3856C36.8159 60.1706 36.7757 59.9827 36.6953 59.8219C36.6149 59.6611 36.4864 59.5369 36.3098 59.4495C36.1333 59.3604 35.8999 59.3158 35.6097 59.3158H34.4664V64.1091H33.8161ZM36.3439 61.6967L37.6655 64.1091H36.9103L35.6097 61.6967H36.3439ZM38.5393 64.1091V58.7389H41.7803V59.3158H39.1896V61.1303H41.6125V61.7072H39.1896V63.5323H41.8223V64.1091H38.5393ZM43.1727 64.1091H42.4909L44.4628 58.7389H45.1341L47.106 64.1091H46.4242L44.8194 59.5885H44.7775L43.1727 64.1091ZM43.4244 62.0114H46.1725V62.5883H43.4244V62.0114ZM47.9424 64.1091V58.7389H48.5927V63.5323H51.0891V64.1091H47.9424Z" fill="#F7F7FF"/>
</g>
<defs>
<filter id="filter0_f_1373_371" x="6.5452" y="50.7387" width="140.91" height="96.716" filterUnits="userSpaceOnUse" color-interpolation-filters="sRGB">
<feFlood flood-opacity="0" result="BackgroundImageFix"/>
<feBlend mode="normal" in="SourceGraphic" in2="BackgroundImageFix" result="shape"/>
<feGaussianBlur stdDeviation="0.0120704" result="effect1_foregroundBlur_1373_371"/>
</filter>
<clipPath id="clip0_1373_371">
<rect width="154" height="154" fill="white"/>
</clipPath>
</defs>
</svg>
