<svg width="199" height="199" viewBox="0 0 199 199" fill="none" xmlns="http://www.w3.org/2000/svg">
<mask id="mask0_1116_1416" style="mask-type:luminance" maskUnits="userSpaceOnUse" x="0" y="0" width="199" height="199">
<path d="M99.5 199C154.452 199 199 154.452 199 99.5C199 44.5477 154.452 0 99.5 0C44.5477 0 0 44.5477 0 99.5C0 154.452 44.5477 199 99.5 199Z" fill="white"/>
</mask>
<g mask="url(#mask0_1116_1416)">
<path d="M212.122 136.367L-13.054 136.094L-3.6558 131.296C-5.34771 130.267 -6.13269 128.725 -3.03794 128.242C-4.42167 127.335 -4.39793 125.745 -2.73554 125.767" stroke="#0B3B6A" stroke-width="0.404211"/>
<path d="M-2.73547 125.767H2.0979V118.362C-0.164053 118.068 0.866573 116.474 2.0979 116.683H5.86612C5.5328 114.867 5.16955 113.041 6.81019 111.902C7.4784 108.078 7.23745 103.8 12.6786 102.36" stroke="#0B3B6A" stroke-width="0.404211"/>
<path d="M12.4371 102.649C12.1083 101.522 11.8983 100.072 12.9818 99.3176L13.6927 96.5189L14.3272 99.2553C15.6139 100.012 15.2076 101.359 15.2526 102.309" stroke="#0B3B6A" stroke-width="0.269473"/>
<path d="M15.2526 102.309C20.2226 103.531 20.6818 108.021 21.13 111.956C22.8974 112.83 22.339 115.04 22.3756 116.602H26.0226C27.3474 116.602 26.3344 118.014 25.5779 117.857V125.781L30.65 125.778C31.3507 125.668 31.8138 127.265 30.4898 128.277C31.3471 128.636 33.9168 129.076 32.3212 130.353V131.26H33.6131" stroke="#0B3B6A" stroke-width="0.269473"/>
<path d="M65.9432 132.232H67.8994V95.9491H69.0173V98.7903H71.5324V95.6697H72.79V112.617" stroke="#0B3B6A" stroke-width="0.673684"/>
<path d="M89.6359 127.963V96.0287H88.1229V98.7305H85.5292V95.7585H84.2864V112.672C81.2061 111.751 77.7162 111.276 72.505 112.672" stroke="#0B3B6A" stroke-width="0.673684"/>
<path d="M78.5349 110.507V111.839" stroke="#0B3B6A" stroke-width="0.673684"/>
<path d="M33.6131 131.26C33.6131 131.26 34.4399 129.298 33.4935 128.834C32.547 128.371 31.9832 128.291 32.1443 127.385C32.3054 126.478 32.5642 125.34 31.3157 125.058C30.0673 124.777 27.7318 124.936 27.7318 124.936L27.5183 112.157H29.0671V109.479H33.251V111.266H35.4099V108.184H36.8243V110.313H39.8698V109.183H40.0925V110.265H43.8041V109.449H48.4108V105.054H47.7954C48.3387 102.563 48.946 102.049 49.834 100.985L50.2835 96.6404L50.9951 100.985C52.0017 102.182 52.5327 103.757 52.6759 105.054H52.1035V109.681H53.8922V109.276H55.18V108.966H56.7064V110.397H63.7657V108.107H65.5305V111.017H66.6992" stroke="#0B3B6A" stroke-width="0.336843"/>
<path d="M49.8981 108.901H50.8042V105.859H49.882V108.901H49.9628H49.8981Z" stroke="#0B3B6A" stroke-width="0.202106"/>
<path d="M66.6991 111.017V112.605H65.9529V114.843H66.8048V116.369H65.9331V117.597H67.0029V118.925H66.2699V120.509H66.7652V121.5H66.3095L66.268 132.576" stroke="#0B3B6A" stroke-width="0.404211"/>
<path d="M89.6358 127.964L91.6957 129.153V111.003H93.9184L92.911 109.995V75.3542L94.6117 74.8985L90.3703 72.4497C90.3703 72.4497 88.6542 71.6199 90.4098 71.6199C92.1654 71.6199 108.858 71.6199 108.858 71.6199V62.692H109.782V71.7959H111.224V75.0408L112.553 75.3969V89.7782H118.119V119.985" stroke="#0B3B6A" stroke-width="0.336843"/>
<path d="M118.12 119.985C112.741 124.679 106.518 128.786 99.1052 132.066C140.895 116.367 132.766 92.1169 132.732 90.9328C132.732 90.9328 129.898 88.3684 132.606 88.2556C135.314 88.1428 136.811 88.2556 136.811 88.2556V88.8318H147.384V89.2077H150.109V90.1945C142.714 101.554 143.62 115.094 143.458 120.275C165.729 109.406 178.294 112.594 188.69 118.922C194.606 119.019 199.232 120.48 200.873 125.094C201.893 126.108 203.093 127.07 200.812 129.028L201.611 132.408L212.122 136.367" stroke="#0B3B6A" stroke-width="0.134737"/>
<path d="M109.283 62.4587C108.548 62.7343 108.863 63.7391 108.752 64.346C108.707 66.7105 108.706 69.0755 108.683 71.4403C102.469 71.4824 96.2551 71.5246 90.041 71.5668C89.0387 72.0051 90.3579 72.6779 90.8475 72.9041C91.9505 73.5473 93.0633 74.1745 94.1447 74.8538C93.5634 75.04 92.4936 75.0294 92.7168 75.9232V109.835C93.1523 110.557 93.8897 110.983 92.5681 110.796C91.647 110.518 91.3857 111.368 91.552 112.104C91.5316 117.684 91.5115 123.264 91.4914 128.844C90.9357 128.468 90.2038 128.211 89.7611 127.744C89.5505 122.331 89.693 116.865 89.6475 111.431V96.4653C89.4928 95.8508 88.2188 95.8649 88.0636 96.4626V98.7758H85.5112C85.3939 97.8524 85.7512 96.7701 85.2595 95.9362C84.7039 95.4856 84.2854 96.2761 84.3812 96.7759C84.228 102.065 84.4013 107.373 84.2378 112.654C81.7676 111.897 79.1688 111.689 76.6023 111.942C75.3498 111.993 74.0777 112.377 72.9129 112.481C72.7458 107.115 72.9506 101.742 72.771 96.3785C72.8828 95.6448 71.7479 95.3894 71.5873 96.1195C71.4508 96.9958 71.5509 97.8922 71.5186 98.7758H68.9663C68.885 97.8933 69.1357 96.9087 68.7562 96.0821C68.2359 95.6178 67.8547 96.4017 67.989 96.8666C67.8259 108.661 67.9299 120.458 67.8994 132.254C67.2965 132.115 65.9846 132.682 66.3236 131.608C66.4054 128.284 66.1702 124.927 66.4838 121.616C67.019 121.359 66.9708 120.465 66.3925 120.364C66.4841 119.89 66.0809 119.019 66.7757 119.046C67.4474 118.737 67.2417 117.391 66.4021 117.52C65.9283 117.822 65.7793 116.127 66.4571 116.483C67.0684 116.234 67.0344 115.22 66.6416 114.796C65.8629 114.929 66.0618 114.33 66.1226 113.722C66.013 113.003 65.9116 112.482 66.6611 112.632C67.0477 112.18 66.8065 111.403 66.8904 110.858C65.8351 110.829 65.0533 111.176 65.4847 109.834C65.3961 109.223 65.5305 108.107 65.0721 107.953C64.3715 108.005 63.6539 107.8 63.6339 108.874C63.7549 109.734 64.1282 110.826 62.7291 110.272C60.7728 110.254 58.8165 110.236 56.8602 110.219C56.8323 109.605 56.9619 108.759 56.0112 108.982C55.655 108.967 55.1828 108.736 55.0115 109.108C54.5525 109.111 54.1741 109.266 53.8922 109.681C53.4733 109.53 52.1026 109.853 52.1035 109.681C52.1509 108.37 51.9364 106.302 52.1035 105.054C52.9032 104.808 52.5898 104.028 52.4983 103.487C52.1158 102.133 50.1946 100.962 50.8758 99.863C50.4041 98.8536 50.6527 95.0036 50.104 98.6643C49.4957 99.4778 50.6284 100.915 49.2137 101.497C48.5026 102.482 47.7813 103.628 47.7685 104.874C47.9435 105.155 48.9197 104.668 48.3073 105.669C48.3248 106.861 48.4072 108.257 48.4108 109.449C46.9064 109.523 45.2281 109.369 43.7184 109.363C44.1205 110.61 43.1595 110.236 42.3064 110.151H37.0396C36.5739 109.682 36.9056 108.657 36.8031 108.022C36.2074 108.282 35.2725 107.825 35.402 108.705C35.3345 109.49 35.8742 110.948 35.1972 111.055C34.6198 111.643 32.9175 111.491 33.2028 110.4C33.4448 109.551 32.7454 109.248 31.8951 109.502C30.8198 109.596 30.1435 109.743 28.983 109.363C29.0924 110.261 29.1673 111.357 29.0671 112.157C29.0521 112.592 27.3238 111.783 27.5479 112.738C27.6443 116.727 27.4255 120.765 27.6509 124.735C28.068 125.297 29.0133 124.928 29.6371 125.083C30.3644 125.2 31.4229 124.989 31.9627 125.66C32.3483 126.517 31.6868 127.432 32.226 128.182C32.5996 128.395 33.1879 128.641 33.4851 129.057C33.665 129.309 33.8355 129.56 33.7397 129.95C33.6427 130.337 33.4181 130.866 33.0339 131.088C32.5524 131.222 32.4284 130.923 32.5507 130.508C32.8073 130.094 33.1779 129.603 32.6586 129.155C32.1149 128.693 31.5088 128.456 30.86 128.191C31.4805 127.587 31.824 126.276 31.0367 125.693C29.3164 125.381 27.5361 125.604 25.7942 125.532V118.018C26.3919 117.923 26.8008 116.745 26.5276 116.556C25.2589 116.204 23.8829 116.429 22.5762 116.355C22.5169 114.894 22.9428 112.944 21.5348 111.959C21.0215 111.385 21.2571 110.45 21.0453 109.739C20.6851 107.122 19.7037 104.24 17.2438 102.896C16.6977 102.578 16.102 102.362 15.5079 102.154C15.4829 101.116 15.5455 99.9014 14.6326 99.1944C14.1744 98.5333 14.4126 97.4456 13.7644 96.9923C13.0055 96.9869 13.2254 98.0897 12.9656 98.6052C12.7777 99.4992 11.8459 100.098 11.9866 101.089C11.9543 101.507 12.0912 102.048 12.1795 102.362C9.97669 103.049 8.08018 104.81 7.55425 107.102C7.02802 108.674 7.05493 110.385 6.52725 111.943C5.6628 112.747 5.32626 113.951 5.52229 115.102C5.56256 115.564 5.60594 116.027 5.68102 116.485C4.22156 117.09 2.62951 116.806 1.15145 116.774C0.446755 117.124 0.658585 118.205 1.41981 118.332C1.95045 118.312 1.92744 118.736 1.9068 119.153C1.95483 121.289 1.95324 123.498 1.97824 125.661C0.151549 125.744 -1.71668 125.488 -3.51975 125.833C-4.44505 126.16 -4.21692 127.42 -3.57933 127.924C-2.98101 128.291 -3.89162 128.184 -4.15316 128.396C-4.8442 128.613 -5.59408 129.424 -5.0408 130.138C-4.75527 130.59 -4.36079 130.97 -3.91939 131.27C-6.68881 132.759 -9.56505 134.096 -12.2977 135.623C-12.7549 136.49 -11.3702 136.291 -10.867 136.289C73.7536 236.782 145.352 214.401 211.068 136.54C211.981 136.208 211.009 135.493 210.446 135.458C207.579 134.366 204.705 133.292 201.834 132.212C201.591 131.177 201.349 130.141 201.106 129.106C201.918 128.384 202.851 127.184 202.087 126.1C201.325 125.235 200.76 124.233 200.209 123.223C198.296 120.228 194.6 119.104 191.24 118.803C190.034 118.654 188.689 118.872 187.686 118.028C182.486 115.03 176.624 113.05 170.59 112.887C162.319 112.67 154.227 115.158 146.735 118.478C145.736 118.926 144.748 119.398 143.739 119.825C143.849 114.649 143.817 109.425 144.889 104.339C145.804 99.5432 147.489 94.8871 150.047 90.727C150.353 90.215 150.761 89.0272 149.865 88.9523C149.12 88.8829 148.253 89.0792 147.567 88.8561C146.783 88.3799 145.752 88.6804 144.875 88.572C142.278 88.5586 139.682 88.5666 137.085 88.5645C137.204 87.57 135.973 87.9647 135.38 87.9162C134.136 88.0481 132.772 87.7421 131.603 88.2585C130.755 88.7901 131.453 89.7999 131.872 90.3703C132.878 91.4295 132.757 92.985 132.971 94.327C133.529 100.049 132.008 105.876 128.937 110.716C124.178 118.29 116.613 123.593 108.743 127.56C107.823 128.025 106.907 128.466 105.971 128.899C110.339 126.413 114.493 123.491 118.256 120.18C118.463 118.779 118.281 117.282 118.343 115.845V90.0027C118.061 89.2404 117.009 89.7429 116.387 89.5985H112.785V75.567C112.665 74.7282 111.041 75.4299 111.363 74.4082C111.292 73.5289 111.51 72.5921 111.245 71.7511C110.619 71.4595 109.586 71.9727 109.941 70.8562C109.878 68.1921 110.07 65.5084 109.821 62.8553C109.764 62.6163 109.539 62.4178 109.283 62.4587ZM50.7283 105.931C50.8726 106.28 50.9203 108.483 50.8925 108.776C50.4598 108.924 49.8604 108.995 49.8552 108.815C49.8343 108.098 49.8181 105.805 49.9113 105.808C49.9927 105.811 49.7382 105.744 50.0871 105.866C50.3697 105.965 50.2451 105.806 50.7283 105.931Z" fill="#0B3B6A"/>
<path d="M151.881 117.77L141.408 96.9354L155.547 117.957" stroke="#0B3B6A" stroke-width="0.673684"/>
<path d="M160.111 118.593L141.408 96.9354L164.524 117.209" stroke="#0B3B6A" stroke-width="0.673684"/>
<path d="M141.408 96.9354L168.19 116.91" stroke="#0B3B6A" stroke-width="0.673684"/>
<path d="M171.893 116.498L141.408 96.9354L175.896 115.9" stroke="#0B3B6A" stroke-width="0.673684"/>
<path d="M141.408 96.9354L181.918 116.536" stroke="#0B3B6A" stroke-width="0.673684"/>
</g>
</svg>
