<svg width="300" height="300" viewBox="0 0 300 300" fill="none" xmlns="http://www.w3.org/2000/svg">
<path d="M150 300C67.29 300 0 232.71 0 150C0 67.29 67.29 0 150 0C232.71 0 300 67.29 300 150C300 232.71 232.71 300 150 300Z" fill="#2B7AE8"/>
<path d="M231.047 111.403C223.402 111.402 215.929 113.668 209.572 117.915C203.216 122.161 198.261 128.197 195.335 135.259C192.409 142.321 191.643 150.093 193.134 157.59C194.624 165.088 198.305 171.975 203.71 177.381C209.115 182.787 216.002 186.469 223.5 187.96C230.997 189.452 238.769 188.687 245.831 185.762C252.894 182.837 258.93 177.883 263.178 171.527C267.425 165.171 269.692 157.698 269.692 150.053C269.692 139.804 265.62 129.974 258.373 122.725C251.126 115.477 241.296 111.405 231.047 111.403ZM231.047 171.938C226.717 171.939 222.484 170.656 218.883 168.251C215.283 165.846 212.476 162.428 210.819 158.428C209.161 154.427 208.728 150.026 209.572 145.779C210.416 141.532 212.501 137.631 215.563 134.57C218.625 131.508 222.526 129.423 226.772 128.579C231.019 127.734 235.421 128.168 239.421 129.826C243.421 131.483 246.84 134.289 249.245 137.89C251.649 141.491 252.933 145.723 252.932 150.053C252.93 155.857 250.624 161.423 246.52 165.527C242.416 169.631 236.85 171.937 231.047 171.938Z" fill="white"/>
<path d="M195.05 125.339V112.999C195.05 112.024 194.66 111.499 193.89 111.454C193.12 111.409 191.315 111.454 191.315 111.454C167.735 112.514 157.395 128.899 157.395 148.174C157.395 148.204 157.395 166.769 157.395 178.514L148.15 166.999L137.03 152.999L125.935 166.784L129.84 171.749L141.3 186.249C141.831 186.922 142.509 187.467 143.281 187.841C144.054 188.215 144.901 188.409 145.76 188.409H163.22C163.289 188.406 163.358 188.396 163.425 188.379H172.925C173.584 188.359 174.209 188.082 174.667 187.608C175.125 187.133 175.379 186.498 175.375 185.839C175.375 149.514 175.375 153.469 175.375 150.054C175.54 140.464 179.06 129.479 193.245 128.169C194.675 128.064 195.05 126.629 195.05 125.339Z" fill="white"/>
<path d="M86.4611 142.833H54.2761C53.7536 142.833 53.2434 142.992 52.813 143.288C52.3827 143.585 52.0525 144.005 51.8661 144.493C50.5863 148.007 50.5863 151.859 51.8661 155.373C52.0523 155.862 52.3823 156.283 52.8125 156.58C53.2428 156.877 53.7532 157.037 54.2761 157.038H86.7061C87.1199 157.038 87.5167 156.874 87.8092 156.581C88.1018 156.289 88.2661 155.892 88.2661 155.478V144.638C88.2661 144.159 88.076 143.7 87.7375 143.362C87.399 143.023 86.9399 142.833 86.4611 142.833Z" fill="white"/>
<path d="M133.087 148.052L106.087 114.242C104.727 112.577 103.417 111.457 101.132 111.457H68.0466H67.9966C58.0324 111.816 48.5962 116.027 41.6741 123.203C34.7519 130.38 30.8838 139.961 30.8838 149.932C30.8838 159.903 34.7519 169.484 41.6741 176.661C48.5962 183.837 58.0324 188.048 67.9966 188.407H68.0466H101.117C103.402 188.407 104.712 187.287 106.072 185.622L133.072 151.812C133.502 151.281 133.738 150.618 133.741 149.935C133.744 149.251 133.513 148.587 133.087 148.052ZM111.372 151.227L95.9016 170.802C95.6529 171.099 95.3424 171.338 94.9917 171.502C94.6411 171.666 94.2587 171.751 93.8716 171.752H68.7866C63.0062 171.752 57.4625 169.456 53.3752 165.368C49.2878 161.281 46.9916 155.737 46.9916 149.957C46.9916 144.177 49.2878 138.633 53.3752 134.546C57.4625 130.458 63.0062 128.162 68.7866 128.162H93.8716C94.2587 128.163 94.6411 128.248 94.9917 128.412C95.3424 128.576 95.6529 128.815 95.9016 129.112L111.372 148.587C111.665 148.964 111.824 149.429 111.824 149.907C111.824 150.385 111.665 150.85 111.372 151.227Z" fill="white"/>
<path d="M137.03 146.875L148.15 132.875L163.45 113.725C163.614 113.519 163.717 113.27 163.746 113.008C163.776 112.745 163.731 112.48 163.617 112.242C163.503 112.004 163.323 111.803 163.1 111.662C162.877 111.521 162.619 111.446 162.355 111.445H145.76C144.901 111.445 144.054 111.639 143.281 112.013C142.509 112.387 141.831 112.931 141.3 113.605L129.84 128.105L125.935 133.075L137.03 146.875Z" fill="white"/>
<path d="M261.502 182.899H265.772V183.529H264.002V188.424H263.317V183.529H261.502V182.899Z" fill="white"/>
<path d="M266.7 182.899H267.565L269.525 187.484L271.46 182.899H272.31V188.424H271.64V184.069L269.81 188.424H269.2L267.37 184.069V188.424H266.7V182.899Z" fill="white"/>
</svg>
