<svg width="417" height="417" viewBox="0 0 417 417" fill="none" xmlns="http://www.w3.org/2000/svg">
<g opacity="0.996" filter="url(#filter0_f_1370_82)">
<path d="M208.659 416.317C323.345 416.317 416.317 323.345 416.317 208.659C416.317 93.9719 323.345 1 208.659 1C93.9719 1 1 93.9719 1 208.659C1 323.345 93.9719 416.317 208.659 416.317Z" fill="#30272D"/>
<mask id="mask0_1370_82" style="mask-type:luminance" maskUnits="userSpaceOnUse" x="18" y="18" width="381" height="381">
<path d="M208.658 398.92C313.737 398.92 398.92 313.737 398.92 208.659C398.92 103.58 313.737 18.397 208.658 18.397C103.58 18.397 18.3965 103.58 18.3965 208.659C18.3965 313.737 103.58 398.92 208.658 398.92Z" fill="white"/>
</mask>
<g mask="url(#mask0_1370_82)">
<path d="M11.4871 245.186C9.56831 178.059 19.636 144.974 32.8579 120.846L111.865 142.865C112.677 143.091 113.518 143.467 114.271 143.509C115.023 143.55 115.538 143.521 116.25 143.073L179.149 103.486C179.149 103.486 179.626 103.199 179.892 103.13C180.151 103.063 180.417 103.069 180.695 103.085C185.982 103.384 191.258 103.703 193.887 108.736C193.964 108.883 193.979 109.165 193.862 109.291L193.636 109.535L175.18 124.114C175.18 124.114 173.142 125.496 172.801 125.994C172.461 126.491 171.509 127.606 171.309 128.303C161.525 162.519 156.985 194.024 166.288 203.172C178.3 212.902 197.027 211.981 201.785 209.148C204.086 207.778 207.216 205.422 208.439 203.22C215.899 189.403 218.433 159.592 222.2 156.545L231.872 149.412C231.872 149.412 232.525 149.028 233.039 149.121C233.554 149.214 235.568 150.466 235.568 150.466C264.364 166.634 306.641 192.973 345.446 215.72C347.133 217.047 347.705 217.704 348.268 219.043C348.804 220.318 348.826 221.802 348.65 223.174C347.874 229.222 344.726 235.212 339.992 239.528C338.589 240.806 336.78 241.8 334.903 242.085C333.298 242.329 331.105 241.678 330.096 241.29C319.668 237.474 297.274 222.474 290.878 219.454C288.853 218.498 284.762 220.17 285.003 223.17C285.245 226.17 286.097 226.53 290.684 228.753C304.896 235.64 314.963 242.4 327.284 250.517C328.223 251.135 329.748 253.177 329.825 254.341C329.902 255.505 329.803 258.46 329.237 260.412C327.957 264.824 325.885 269.121 323.017 272.709C321.471 274.643 319.6 276.55 317.289 277.44C315.861 277.99 314.007 278.148 312.702 277.646C296.571 271.444 271.381 253.94 271.499 254.576C268.711 253.29 266.313 253.114 265.257 254.91C264.224 256.666 264.875 258.229 267.937 260.404L299.607 280.838C299.607 280.838 302.237 282.916 302.405 284.422C303.269 292.202 298.496 300.412 292.375 305.655C291.297 306.579 289.764 307.256 288.326 307.438C286.452 307.675 282.844 306.001 282.844 306.001L250.775 288.899C247.2 286.992 245.59 291.217 248.918 292.879C251.211 294.024 264.131 299.127 265.023 306.465C266.123 315.521 258.857 325.637 249.804 329.212C246.838 330.383 238.347 328.885 240.319 322.364C254.067 293.539 226.616 282.331 210.621 289.279C208.44 290.226 214.318 284.097 210.14 275.715C205.962 267.332 190.264 254.965 172.936 266.607C172.104 267.167 171.258 267.888 170.516 267.803C169.774 267.717 169.138 266.671 169.138 266.671C167.609 264.431 166.353 259.816 159.61 256.015C146.025 248.357 133.734 254.955 126.969 265.453C118.372 251.934 100.779 245.621 87.4992 267.771L11.4871 245.186Z" fill="#00B1FC" stroke="#00B1FC" stroke-width="0.647599"/>
<path d="M117.913 300.015C121.283 286.325 131.616 263.804 141.766 259.419C149.913 255.899 165.247 264.071 165.158 272.491C165.014 286.164 150.058 307.707 142.342 315.221C135.384 321.997 115.955 317.058 117.913 300.015Z" fill="#FEADA0" stroke="#FEADA0" stroke-width="0.647599"/>
<path d="M88.3426 287.998C86.7443 279.143 95.4212 261.61 104.798 258.769C111.35 256.783 121.783 263.421 121.713 269.258C121.6 278.735 115.152 293.309 109.093 298.512C103.635 303.199 89.9409 296.853 88.3426 287.998Z" fill="#FEADA0" stroke="#FEADA0" stroke-width="0.477553"/>
<g filter="url(#filter1_f_1370_82)">
<path d="M191.686 332.52C195.056 318.83 204.474 298.942 214.623 294.557C222.77 291.037 238.104 299.209 238.015 307.629C237.871 321.302 224.976 340.67 217.259 348.184C210.302 354.96 189.728 349.563 191.686 332.52Z" fill="#FEADA0"/>
<path d="M191.686 332.52C195.056 318.83 204.474 298.942 214.623 294.557C222.77 291.037 238.104 299.209 238.015 307.629C237.871 321.302 224.976 340.67 217.259 348.184C210.302 354.96 189.728 349.563 191.686 332.52Z" stroke="#FEADA0" stroke-width="0.6476"/>
</g>
<g filter="url(#filter2_f_1370_82)">
<path d="M150.936 320.904C154.226 306.925 172.418 274.576 181.644 269.503C191.071 264.319 206.482 274.255 205.684 283.385C204.493 297.007 185.359 330.025 177.642 337.539C170.685 344.315 147.006 337.603 150.936 320.904Z" fill="#FEADA0"/>
<path d="M150.936 320.904C154.226 306.925 172.418 274.576 181.644 269.503C191.071 264.319 206.482 274.255 205.684 283.385C204.493 297.007 185.359 330.025 177.642 337.539C170.685 344.315 147.006 337.603 150.936 320.904Z" stroke="#FEADA0" stroke-width="0.6476"/>
</g>
<path d="M336.826 249.881C337.02 254.108 337.783 259.363 334.114 265.099L404.592 246.5C406.647 205.851 410.823 165.545 381.915 119.875L309.384 138.655L241.062 96.8851C234.566 94.7527 228.34 94.2949 222.605 96.8851L182.607 126.514L179.865 129.036C178.787 130.029 177.978 132.017 177.549 133.353C169.562 158.261 168.134 174.289 168.692 192.892C169.138 207.719 199.104 207.577 201.882 200.825C207.691 186.708 209.714 173.065 212.493 159.327C212.925 157.189 213.629 155.708 214.607 154.105C215.47 152.689 217.852 150.333 217.852 150.333L229.074 143.106C229.074 143.106 231.423 141.6 232.967 141.571C234.061 141.551 235.793 142.271 235.793 142.271L352.773 211.51C362.5 217.268 351.158 249.507 336.826 249.881Z" fill="#FEADA0" stroke="#FEADA0" stroke-width="0.647599"/>
</g>
</g>
<defs>
<filter id="filter0_f_1370_82" x="0.961257" y="0.961257" width="415.395" height="415.395" filterUnits="userSpaceOnUse" color-interpolation-filters="sRGB">
<feFlood flood-opacity="0" result="BackgroundImageFix"/>
<feBlend mode="normal" in="SourceGraphic" in2="BackgroundImageFix" result="shape"/>
<feGaussianBlur stdDeviation="0.0193713" result="effect1_foregroundBlur_1370_82"/>
</filter>
<filter id="filter1_f_1370_82" x="191.231" y="293.394" width="47.1085" height="57.9543" filterUnits="userSpaceOnUse" color-interpolation-filters="sRGB">
<feFlood flood-opacity="0" result="BackgroundImageFix"/>
<feBlend mode="normal" in="SourceGraphic" in2="BackgroundImageFix" result="shape"/>
<feGaussianBlur stdDeviation="3.73061e-05" result="effect1_foregroundBlur_1370_82"/>
</filter>
<filter id="filter2_f_1370_82" x="150.175" y="267.752" width="55.8625" height="72.7223" filterUnits="userSpaceOnUse" color-interpolation-filters="sRGB">
<feFlood flood-opacity="0" result="BackgroundImageFix"/>
<feBlend mode="normal" in="SourceGraphic" in2="BackgroundImageFix" result="shape"/>
<feGaussianBlur stdDeviation="3.73061e-05" result="effect1_foregroundBlur_1370_82"/>
</filter>
</defs>
</svg>
