<svg width="642" height="642" viewBox="0 0 642 642" fill="none" xmlns="http://www.w3.org/2000/svg">
<g clip-path="url(#clip0_1370_77)">
<g opacity="0.996" filter="url(#filter0_f_1370_77)">
<path d="M320.659 641.317C497.753 641.317 641.317 497.753 641.317 320.659C641.317 143.564 497.753 0 320.659 0C143.564 0 0 143.564 0 320.659C0 497.753 143.564 641.317 320.659 641.317Z" fill="#30272D"/>
<mask id="mask0_1370_77" style="mask-type:luminance" maskUnits="userSpaceOnUse" x="26" y="26" width="589" height="589">
<path d="M320.658 614.453C482.916 614.453 614.453 482.917 614.453 320.659C614.453 158.4 482.916 26.8638 320.658 26.8638C158.4 26.8638 26.8633 158.4 26.8633 320.659C26.8633 482.917 158.4 614.453 320.658 614.453Z" fill="white"/>
</mask>
<g mask="url(#mask0_1370_77)">
<path d="M16.1941 377.062C13.2312 273.408 28.7774 222.318 49.1941 185.062L171.194 219.062C172.448 219.411 173.746 219.992 174.909 220.056C176.071 220.121 176.865 220.076 177.965 219.384L275.092 158.256C275.092 158.256 275.828 157.811 276.238 157.706C276.639 157.602 277.05 157.611 277.478 157.636C285.643 158.098 293.79 158.59 297.849 166.362C297.968 166.589 297.991 167.024 297.811 167.218L297.462 167.595L268.963 190.108C268.963 190.108 265.815 192.242 265.29 193.01C264.764 193.779 263.294 195.5 262.986 196.577C247.877 249.411 240.866 298.06 255.232 312.187C273.781 327.211 302.698 325.789 310.046 321.414C313.599 319.299 318.432 315.661 320.319 312.26C331.84 290.925 335.752 244.892 341.569 240.187L356.504 229.173C356.504 229.173 357.512 228.579 358.307 228.723C359.101 228.867 362.211 230.8 362.211 230.8C406.678 255.765 471.96 296.437 531.882 331.562C534.485 333.611 535.369 334.626 536.239 336.694C537.066 338.663 537.101 340.955 536.829 343.073C535.63 352.412 530.77 361.662 523.459 368.325C521.292 370.3 518.499 371.834 515.601 372.275C513.122 372.652 509.736 371.647 508.178 371.046C492.075 365.155 457.496 341.992 447.619 337.328C444.492 335.852 438.175 338.434 438.548 343.066C438.921 347.699 440.237 348.255 447.319 351.687C469.265 362.323 484.81 372.76 503.835 385.294C505.285 386.25 507.641 389.402 507.76 391.2C507.879 392.998 507.726 397.559 506.851 400.575C504.875 407.386 501.676 414.022 497.247 419.562C494.859 422.549 491.97 425.493 488.402 426.868C486.196 427.717 483.333 427.961 481.319 427.187C456.41 417.61 417.512 390.581 417.694 391.562C413.39 389.576 409.687 389.305 408.056 392.078C406.46 394.79 407.466 397.203 412.194 400.562L461.098 432.115C461.098 432.115 465.159 435.324 465.418 437.65C466.753 449.663 459.383 462.34 449.931 470.437C448.267 471.863 445.898 472.908 443.679 473.19C440.785 473.556 435.214 470.971 435.214 470.971L385.694 444.562C380.174 441.618 377.688 448.142 382.827 450.708C386.368 452.477 406.318 460.357 407.694 471.687C409.393 485.671 398.173 501.293 384.194 506.812C379.614 508.62 366.503 506.307 369.548 496.239C390.778 451.727 348.388 434.421 323.689 445.149C320.322 446.612 329.398 437.148 322.946 424.204C316.495 411.26 292.255 392.163 265.498 410.141C264.212 411.005 262.906 412.119 261.76 411.987C260.614 411.855 259.633 410.239 259.633 410.239C257.272 406.781 255.332 399.653 244.919 393.784C223.942 381.96 204.964 392.147 194.517 408.358C181.242 387.483 154.075 377.734 133.569 411.937L16.1941 377.062Z" fill="#00B1FC" stroke="#00B1FC" stroke-width="0.999999"/>
<path d="M180.533 461.728C185.737 440.588 201.693 405.812 217.365 399.041C229.946 393.605 253.624 406.224 253.487 419.226C253.264 440.34 230.169 473.605 218.254 485.208C207.511 495.671 177.51 488.044 180.533 461.728Z" fill="#FEADA0" stroke="#FEADA0" stroke-width="0.999999"/>
<path d="M134.871 443.172C132.403 429.499 145.802 402.425 160.281 398.037C170.399 394.97 186.509 405.221 186.401 414.233C186.226 428.868 176.27 451.372 166.913 459.407C158.485 466.644 137.339 456.846 134.871 443.172Z" fill="#FEADA0" stroke="#FEADA0" stroke-width="0.73742"/>
<g filter="url(#filter1_f_1370_77)">
<path d="M294.451 511.921C299.655 490.781 314.196 460.071 329.869 453.299C342.449 447.864 366.127 460.482 365.99 473.485C365.767 494.599 345.855 524.505 333.94 536.109C323.196 546.571 291.428 538.237 294.451 511.921Z" fill="#FEADA0"/>
<path d="M294.451 511.921C299.655 490.781 314.196 460.071 329.869 453.299C342.449 447.864 366.127 460.482 365.99 473.485C365.767 494.599 345.855 524.505 333.94 536.109C323.196 546.571 291.428 538.237 294.451 511.921Z" stroke="#FEADA0" stroke-width="0.999999"/>
</g>
<g filter="url(#filter2_f_1370_77)">
<path d="M231.526 493.984C236.606 472.398 264.697 422.446 278.943 414.612C293.501 406.608 317.297 421.95 316.065 436.048C314.226 457.083 284.679 508.068 272.765 519.672C262.021 530.134 225.457 519.769 231.526 493.984Z" fill="#FEADA0"/>
<path d="M231.526 493.984C236.606 472.398 264.697 422.446 278.943 414.612C293.501 406.608 317.297 421.95 316.065 436.048C314.226 457.083 284.679 508.068 272.765 519.672C262.021 530.134 225.457 519.769 231.526 493.984Z" stroke="#FEADA0" stroke-width="0.999999"/>
</g>
<path d="M518.569 384.312C518.87 390.84 520.047 398.954 514.382 407.812L623.212 379.092C626.385 316.323 632.833 254.085 588.194 183.562L476.194 212.562L370.694 148.062C360.663 144.769 351.049 144.062 342.194 148.062L280.43 193.813L276.197 197.709C274.531 199.241 273.282 202.311 272.62 204.375C260.287 242.837 258.082 267.587 258.944 296.312C259.632 319.208 305.904 318.988 310.194 308.562C319.165 286.764 322.288 265.696 326.579 244.483C327.247 241.181 328.333 238.894 329.843 236.418C331.177 234.232 334.854 230.595 334.854 230.595L352.183 219.434C352.183 219.434 355.811 217.11 358.194 217.065C359.884 217.033 362.559 218.145 362.559 218.145L543.194 325.062C558.215 333.953 540.701 383.736 518.569 384.312Z" fill="#FEADA0" stroke="#FEADA0" stroke-width="0.999999"/>
</g>
</g>
</g>
<defs>
<filter id="filter0_f_1370_77" x="-0.059825" y="-0.059825" width="641.437" height="641.437" filterUnits="userSpaceOnUse" color-interpolation-filters="sRGB">
<feFlood flood-opacity="0" result="BackgroundImageFix"/>
<feBlend mode="normal" in="SourceGraphic" in2="BackgroundImageFix" result="shape"/>
<feGaussianBlur stdDeviation="0.0299125" result="effect1_foregroundBlur_1370_77"/>
</filter>
<filter id="filter1_f_1370_77" x="293.749" y="451.503" width="72.7414" height="89.491" filterUnits="userSpaceOnUse" color-interpolation-filters="sRGB">
<feFlood flood-opacity="0" result="BackgroundImageFix"/>
<feBlend mode="normal" in="SourceGraphic" in2="BackgroundImageFix" result="shape"/>
<feGaussianBlur stdDeviation="5.76066e-05" result="effect1_foregroundBlur_1370_77"/>
</filter>
<filter id="filter2_f_1370_77" x="230.35" y="411.909" width="86.26" height="112.295" filterUnits="userSpaceOnUse" color-interpolation-filters="sRGB">
<feFlood flood-opacity="0" result="BackgroundImageFix"/>
<feBlend mode="normal" in="SourceGraphic" in2="BackgroundImageFix" result="shape"/>
<feGaussianBlur stdDeviation="5.76066e-05" result="effect1_foregroundBlur_1370_77"/>
</filter>
<clipPath id="clip0_1370_77">
<rect width="641.317" height="641.317" fill="white"/>
</clipPath>
</defs>
</svg>
