<svg width="823" height="796" viewBox="0 0 823 796" fill="none" xmlns="http://www.w3.org/2000/svg">
<path d="M116.517 203.124L140.625 171.585L151.332 179.77L143.385 190.166L189.741 225.602L181.32 236.619L134.963 201.183L127.223 211.308L116.517 203.124Z" fill="#32292F"/>
<path d="M156.303 153.91L166.722 144.759L184.605 165.12L202.655 149.268L184.772 128.906L195.155 119.787L242.552 173.755L232.17 182.873L211.387 159.21L193.337 175.063L214.119 198.726L203.7 207.877L156.303 153.91Z" fill="#32292F"/>
<path d="M243.437 90.1942L255.832 83.9768L312.739 135.788L300.038 142.159L288.385 131.452L262.198 144.587L263.594 160.439L250.893 166.809L243.437 90.1942ZM258.259 104.063L260.761 130.395L277.826 121.835L258.259 104.063Z" fill="#32292F"/>
<path d="M309.119 62.5373L321.943 59.9317L361.548 100.116L352.137 53.7971L365.535 51.075L379.836 121.463L366.964 124.078L327.437 84.0274L336.818 130.203L323.42 132.925L309.119 62.5373Z" fill="#32292F"/>
<path d="M399.625 49.1042L413.431 49.6942L412.376 74.3787L432.896 50.526L449.336 51.2286L422.893 82.1591L448.708 123.094L432.512 122.401L411.726 89.5992L410.364 121.455L396.559 120.865L399.625 49.1042Z" fill="#32292F"/>
<path d="M506.73 62.98L520.448 68.2552L523.682 97.1206L545.331 77.8243L558.867 83.0295L524.654 113.503L513.49 142.533L500.638 137.591L511.802 108.56L506.73 62.98Z" fill="#32292F"/>
<path d="M614.423 115.335C622.644 121.299 627.545 129.4 629.127 139.636C630.735 149.892 628.432 159.301 622.219 167.864C616.064 176.348 607.93 181.406 597.818 183.038C587.732 184.689 578.526 182.494 570.201 176.453C561.479 170.126 556.423 161.852 555.03 151.632C553.637 141.412 555.952 132.152 561.974 123.852C566.007 118.293 571.059 114.156 577.13 111.443C583.201 108.729 589.566 107.717 596.225 108.405C602.93 109.087 608.996 111.397 614.423 115.335ZM606.448 126.078C601.073 122.178 595.197 120.77 588.82 121.855C582.443 122.939 577.162 126.366 572.975 132.136C568.311 138.565 566.927 145.323 568.823 152.41C570.285 157.934 573.334 162.378 577.971 165.743C583.215 169.547 589.057 170.89 595.498 169.772C601.94 168.655 607.177 165.316 611.211 159.757C615.225 154.224 616.761 148.199 615.818 141.683C614.893 135.141 611.77 129.939 606.448 126.078Z" fill="#32292F"/>
<path d="M665.283 161.706L673.885 172.395L637.672 201.539C634.552 204.049 632.56 206.091 631.696 207.665C630.851 209.263 630.536 211 630.75 212.876C631.009 214.756 631.854 216.584 633.282 218.359C634.793 220.235 636.52 221.499 638.464 222.149C640.428 222.825 642.273 222.885 644 222.331C645.773 221.782 648.536 219.997 652.289 216.977L687.172 188.904L695.774 199.594L662.413 226.441C656.783 230.972 652.623 233.798 649.932 234.919C647.24 236.04 644.156 236.517 640.678 236.349C637.221 236.207 634.059 235.367 631.192 233.83C628.351 232.272 625.685 229.946 623.195 226.853C619.93 222.795 618.008 218.512 617.431 214.005C616.899 209.502 617.508 205.482 619.257 201.943C621.031 198.385 625.253 193.921 631.922 188.554L665.283 161.706Z" fill="#32292F"/>
<path d="M132.679 454.129L142.137 489.952L129.975 493.163L126.858 481.354L74.2024 495.256L70.8984 482.742L123.554 468.84L120.517 457.34L132.679 454.129Z" fill="#32292F"/>
<path d="M157.628 521.828C161.762 530.358 162.224 539.182 159.012 548.301C155.814 557.447 149.773 564.173 140.887 568.479C132.083 572.745 123.162 573.321 114.124 570.206C105.099 567.118 98.4927 561.255 94.306 552.615C89.9204 543.565 89.4074 534.529 92.7668 525.508C96.1263 516.486 102.112 509.888 110.725 505.715C116.493 502.919 122.473 501.743 128.664 502.187C134.855 502.63 140.537 504.603 145.712 508.105C150.927 511.621 154.899 516.195 157.628 521.828ZM146.332 527.15C143.629 521.573 139.415 517.824 133.691 515.905C127.967 513.986 122.112 514.478 116.124 517.379C109.453 520.612 105.335 525.562 103.772 532.228C102.539 537.417 103.088 542.417 105.42 547.229C108.057 552.67 112.271 556.35 118.063 558.27C123.855 560.19 129.635 559.752 135.404 556.956C141.146 554.174 145.065 549.895 147.161 544.119C149.285 538.329 149.008 532.673 146.332 527.15Z" fill="#32292F"/>
<path d="M216.364 601.917C223.247 608.436 226.797 616.527 227.017 626.193C227.258 635.879 223.984 644.306 217.194 651.475C210.466 658.578 202.324 662.269 192.768 662.55C183.235 662.852 174.982 659.702 168.012 653.1C160.711 646.184 157.037 637.913 156.991 628.286C156.944 618.66 160.212 610.372 166.793 603.424C171.201 598.769 176.379 595.556 182.327 593.782C188.275 592.009 194.288 591.846 200.367 593.293C206.488 594.739 211.821 597.613 216.364 601.917ZM207.678 610.889C203.179 606.627 197.912 604.61 191.879 604.838C185.846 605.066 180.542 607.596 175.967 612.427C170.869 617.809 168.767 623.894 169.66 630.683C170.341 635.972 172.623 640.456 176.505 644.133C180.894 648.291 186.138 650.244 192.234 649.992C198.331 649.741 203.583 647.288 207.992 642.634C212.379 638.002 214.533 632.613 214.452 626.469C214.392 620.303 212.134 615.109 207.678 610.889Z" fill="#32292F"/>
<path d="M246.674 629.976L257.725 636.446L235.806 673.887C233.918 677.112 232.858 679.554 232.626 681.214C232.42 682.889 232.721 684.509 233.53 686.074C234.38 687.628 235.723 688.942 237.559 690.016C239.499 691.152 241.425 691.681 243.336 691.603C245.274 691.541 246.904 690.981 248.227 689.925C249.591 688.858 251.409 686.384 253.681 682.503L274.794 646.439L285.846 652.908L265.653 687.4C262.245 693.221 259.554 697.067 257.578 698.938C255.603 700.809 253.07 702.248 249.981 703.256C246.917 704.279 243.88 704.596 240.869 704.206C237.874 703.79 234.777 702.646 231.578 700.773C227.383 698.317 224.286 695.219 222.286 691.478C220.328 687.727 219.525 684.018 219.876 680.351C220.243 676.658 222.444 671.363 226.481 664.468L246.674 629.976Z" fill="black"/>
<path d="M295.823 657.15L308.566 661.714C315.545 664.213 320.282 666.619 322.777 668.933C325.312 671.228 326.963 674.143 327.73 677.677C328.498 681.211 328.174 684.952 326.761 688.899C325.276 693.047 323.03 696.164 320.024 698.25C317.057 700.317 313.315 701.349 308.798 701.345L313.681 734.752L300.552 730.051L295.923 698.235L294.807 697.836L285.235 724.565L273.222 720.263L295.823 657.15ZM299.002 686.123L302.777 687.475C306.61 688.847 309.421 689.289 311.209 688.8C313.027 688.321 314.35 686.924 315.18 684.607C315.672 683.234 315.739 681.919 315.382 680.662C315.036 679.376 314.339 678.303 313.291 677.444C312.254 676.556 310.133 675.539 306.93 674.391L303.626 673.208L299.002 686.123Z" fill="#32292F"/>
<path d="M402.597 689.351L392.531 696.916C389.597 692.049 386.418 689.48 382.996 689.207C381.33 689.075 379.931 689.421 378.799 690.245C377.669 691.039 377.059 691.996 376.97 693.116C376.881 694.237 377.175 695.327 377.852 696.387C378.776 697.801 381.652 700.911 386.481 705.715C391.004 710.159 393.738 712.952 394.683 714.094C397.05 716.904 398.668 719.547 399.538 722.024C400.44 724.473 400.779 727.106 400.555 729.922C400.118 735.404 397.865 739.781 393.794 743.054C389.724 746.326 384.645 747.72 378.558 747.235C373.803 746.856 369.746 745.36 366.389 742.745C363.061 740.134 360.339 736.229 358.224 731.032L369.413 725.431C372.153 731.592 375.613 734.839 379.792 735.172C381.973 735.346 383.856 734.856 385.441 733.702C387.027 732.548 387.886 731.138 388.018 729.473C388.139 727.958 387.699 726.399 386.699 724.796C385.699 723.192 383.415 720.679 379.848 717.256C373.052 710.741 368.722 705.794 366.857 702.414C364.995 699.005 364.192 695.695 364.448 692.485C364.817 687.851 366.889 684.023 370.665 681.002C374.474 677.953 378.968 676.634 384.147 677.047C387.478 677.312 390.582 678.336 393.457 680.12C396.363 681.906 399.409 684.983 402.597 689.351Z" fill="#32292F"/>
<path d="M411.709 680.236L425.197 679.104C432.493 678.491 437.803 678.732 441.127 679.825C444.478 680.885 447.204 682.851 449.305 685.724C451.434 688.564 452.674 692.088 453.028 696.296C453.419 700.958 452.518 704.937 450.325 708.231C448.162 711.522 445.043 713.948 440.966 715.51C438.572 716.412 434.136 717.135 427.657 717.679L430.031 745.971L417.316 747.039L411.709 680.236ZM426.616 705.281L430.658 704.942C433.837 704.675 436.028 704.262 437.231 703.704C438.434 703.146 439.341 702.323 439.951 701.235C440.589 700.114 440.845 698.812 440.721 697.329C440.505 694.755 439.348 692.962 437.251 691.949C435.724 691.193 432.993 690.98 429.057 691.31L425.469 691.612L426.616 705.281Z" fill="#32292F"/>
<path d="M488.983 665.604C498.044 662.819 506.835 663.709 515.358 668.272C523.91 672.827 529.636 679.824 532.537 689.262C535.411 698.614 534.62 707.518 530.163 715.976C525.736 724.425 518.933 730.059 509.756 732.88C500.144 735.835 491.136 734.964 482.731 730.269C474.327 725.573 468.719 718.651 465.908 709.503C464.024 703.376 463.774 697.286 465.156 691.236C466.538 685.185 469.354 679.87 473.604 675.289C477.874 670.671 483 667.443 488.983 665.604ZM492.521 677.58C486.597 679.401 482.25 682.994 479.481 688.358C476.711 693.723 476.304 699.585 478.259 705.945C480.437 713.031 484.701 717.855 491.051 720.417C495.991 722.427 501.017 722.646 506.128 721.075C511.907 719.299 516.187 715.695 518.967 710.263C521.748 704.831 522.196 699.052 520.313 692.924C518.438 686.826 514.807 682.3 509.417 679.348C504.019 676.366 498.387 675.777 492.521 677.58Z" fill="#32292F"/>
<path d="M528.973 653.13L539.414 646.793L586.885 669.587L563.998 631.874L574.906 625.254L609.686 682.564L599.206 688.924L551.845 666.223L574.661 703.819L563.752 710.439L528.973 653.13Z" fill="#32292F"/>
<path d="M614.776 601.264L613.421 613.783C607.862 612.6 603.815 613.165 601.277 615.477C600.042 616.603 599.338 617.861 599.166 619.251C598.974 620.618 599.256 621.717 600.013 622.548C600.771 623.379 601.768 623.909 603.004 624.139C604.668 624.431 608.904 624.455 615.711 624.212C622.046 623.947 625.954 623.859 627.434 623.949C631.102 624.141 634.138 624.766 636.541 625.823C638.945 626.838 641.099 628.39 643.002 630.478C646.706 634.543 648.362 639.179 647.97 644.387C647.578 649.595 645.125 654.255 640.611 658.369C637.086 661.582 633.222 663.521 629.018 664.186C624.838 664.831 620.127 664.15 614.887 662.143L618.444 650.146C624.814 652.356 629.549 652.049 632.648 649.225C634.265 647.751 635.194 646.041 635.435 644.096C635.676 642.15 635.233 640.559 634.108 639.324C633.084 638.201 631.646 637.457 629.792 637.091C627.938 636.726 624.542 636.676 619.605 636.941C610.204 637.452 603.633 637.233 599.892 636.285C596.131 635.315 593.165 633.639 590.996 631.259C587.865 627.823 586.486 623.695 586.861 618.873C587.237 614.009 589.345 609.827 593.185 606.327C595.655 604.076 598.524 602.51 601.79 601.629C605.08 600.728 609.408 600.607 614.776 601.264Z" fill="black"/>
<path d="M632.425 562.345C637.956 554.647 645.496 550.038 655.043 548.518C664.608 546.973 673.4 549.081 681.419 554.843C689.363 560.551 694.119 568.121 695.685 577.552C697.269 586.958 695.26 595.56 689.658 603.356C683.79 611.523 676.09 616.278 666.557 617.622C657.024 618.966 648.372 616.845 640.6 611.261C635.394 607.52 631.511 602.822 628.953 597.168C626.394 591.513 625.421 585.577 626.036 579.359C626.643 573.099 628.773 567.427 632.425 562.345ZM642.486 569.742C638.869 574.776 637.581 580.266 638.62 586.213C639.659 592.16 642.881 597.075 648.284 600.957C654.304 605.283 660.618 606.545 667.224 604.745C672.373 603.357 676.508 600.492 679.629 596.15C683.157 591.24 684.385 585.781 683.314 579.774C682.243 573.767 679.105 568.893 673.899 565.152C668.717 561.429 663.088 560.022 657.011 560.93C650.909 561.821 646.067 564.758 642.486 569.742Z" fill="black"/>
<path d="M656.474 527.237L661.8 514.793C664.717 507.978 667.406 503.395 669.866 501.045C672.311 498.654 675.32 497.183 678.894 496.63C682.468 496.078 686.183 496.627 690.037 498.277C694.087 500.011 697.062 502.441 698.963 505.568C700.847 508.655 701.65 512.452 701.373 516.96L735.014 514.109L729.526 526.929L697.489 529.624L697.023 530.713L723.124 541.886L718.103 553.617L656.474 527.237ZM685.585 525.818L687.163 522.131C688.766 518.388 689.377 515.609 688.997 513.794C688.629 511.951 687.314 510.546 685.052 509.577C683.711 509.003 682.402 508.856 681.126 509.136C679.821 509.404 678.709 510.035 677.788 511.029C676.838 512.01 675.694 514.065 674.355 517.194L672.975 520.42L685.585 525.818Z" fill="#32292F"/>
<path d="M691.625 450.411L697.504 461.546C692.235 463.674 689.195 466.407 688.385 469.743C687.991 471.367 688.111 472.803 688.746 474.052C689.351 475.293 690.2 476.046 691.293 476.311C692.385 476.576 693.508 476.458 694.662 475.957C696.204 475.268 699.729 472.919 705.236 468.91C710.339 465.147 713.529 462.888 714.806 462.135C717.954 460.242 720.82 459.062 723.404 458.595C725.965 458.091 728.618 458.173 731.364 458.839C736.708 460.137 740.673 463.054 743.261 467.59C745.849 472.126 746.423 477.362 744.982 483.296C743.857 487.931 741.738 491.7 738.626 494.603C735.521 497.475 731.235 499.546 725.769 500.814L722.007 488.88C728.524 487.148 732.277 484.245 733.266 480.17C733.782 478.044 733.596 476.108 732.707 474.36C731.818 472.612 730.562 471.541 728.938 471.147C727.462 470.789 725.853 470.977 724.112 471.711C722.37 472.445 719.528 474.302 715.583 477.284C708.076 482.965 702.507 486.459 698.876 487.766C695.215 489.066 691.82 489.336 688.69 488.576C684.173 487.479 680.721 484.828 678.334 480.622C675.925 476.379 675.334 471.733 676.559 466.684C677.348 463.437 678.85 460.534 681.065 457.977C683.288 455.39 686.808 452.868 691.625 450.411Z" fill="#32292F"/>
<path d="M672.741 421.43H143.524C148.263 471.741 166.335 518.885 196.046 558.25C211.704 578.997 233.234 599.896 254.421 614.918C291.545 641.24 336.631 658.251 380.573 662.512C385.288 662.969 390.552 663.482 392.271 663.653C398.598 664.283 430.814 663.296 439.146 662.217C499.048 654.461 550.579 630.041 592.587 589.504C632.075 551.399 658.669 502.428 669.167 448.485C670.898 439.589 671.97 430.533 672.741 421.43Z" fill="#32292F"/>
<path d="M408.796 132.583C343.078 132.378 279.092 156.844 229.771 201.377C211.073 218.26 195.107 237.657 182.062 258.93H634.513C589.318 185.472 510.157 137.658 421.958 132.954C417.565 132.719 413.177 132.596 408.796 132.583Z" fill="#32292F"/>
<path d="M796.325 421.397H779.581C779.435 426.068 779.201 430.735 778.88 435.397C777.641 447.752 775.785 460.036 773.319 472.206C770.852 484.374 767.778 496.412 764.108 508.274C760.439 520.136 756.178 531.807 751.343 543.243C746.508 554.679 741.104 565.866 735.151 576.762C729.199 587.659 722.705 598.251 715.694 608.499C708.683 618.746 701.164 628.637 693.165 638.133C685.167 647.63 676.698 656.721 667.792 665.372C658.884 674.022 649.55 682.222 639.823 689.94C630.097 697.658 619.992 704.885 609.544 711.594C599.096 718.303 588.319 724.485 577.253 730.118C566.187 735.749 554.847 740.824 543.274 745.323C531.701 749.822 519.911 753.74 507.946 757.061C495.983 760.382 483.861 763.103 471.626 765.213C459.389 767.324 447.055 768.821 434.669 769.7C425.902 770.322 417.116 770.633 408.327 770.633C395.91 770.634 383.501 770.013 371.146 768.774C358.792 767.534 346.507 765.677 334.339 763.209C322.17 760.742 310.132 757.668 298.271 753.999C286.409 750.329 274.738 746.068 263.302 741.233C251.865 736.399 240.677 730.995 229.78 725.043C218.884 719.09 208.293 712.596 198.046 705.584C187.798 698.574 177.906 691.056 168.409 683.057C158.912 675.058 149.822 666.589 141.171 657.682C132.521 648.775 124.322 639.441 116.604 629.715C108.886 619.989 101.659 609.883 94.9502 599.434C88.2413 588.986 82.0591 578.209 76.4268 567.143C70.7945 556.077 65.7191 544.737 61.2197 533.165C56.7205 521.592 52.8029 509.802 49.4814 497.838C46.1602 485.874 43.4394 473.752 41.3291 461.516C39.2192 449.28 37.7225 436.946 36.8447 424.561C36.8031 423.507 36.766 422.452 36.7334 421.397H20.667C26.5706 520.249 69.9695 613.123 142.009 681.071C214.048 749.018 309.299 786.918 408.327 787.038C507.413 787.004 602.749 749.143 674.86 681.187C746.972 613.23 790.418 520.307 796.325 421.397Z" fill="#32292F"/>
<path d="M408.327 9.39502C329.693 9.41262 252.912 33.272 188.117 77.8246C123.321 122.377 73.5573 185.529 45.3916 258.946H63.21C63.894 257.022 64.5939 255.104 65.3096 253.192C70.1445 241.755 75.5484 230.567 81.501 219.67C87.4542 208.775 93.9487 198.183 100.96 187.936C107.97 177.688 115.489 167.798 123.487 158.301C131.486 148.805 139.954 139.714 148.86 131.063C157.768 122.412 167.102 114.213 176.829 106.495C186.556 98.7762 196.662 91.5491 207.11 84.8403C217.559 78.1314 228.336 71.9492 239.401 66.3169C250.466 60.6847 261.806 55.6093 273.378 51.1099C284.951 46.6113 296.742 42.6943 308.706 39.3735C320.669 36.0517 332.791 33.3302 345.026 31.2192C357.263 29.1093 369.597 27.6126 381.983 26.7349C390.751 26.1129 399.538 25.8015 408.327 25.8013C420.744 25.8015 433.152 26.4227 445.507 27.6626C457.861 28.902 470.146 30.7585 482.315 33.2251C494.484 35.6922 506.522 38.7664 518.384 42.436C530.246 46.105 541.916 50.3649 553.353 55.1997C564.789 60.0347 575.976 65.4386 586.872 71.3911C597.769 77.3443 608.361 83.8388 618.608 90.8501C628.856 97.8605 638.747 105.379 648.243 113.377C657.74 121.376 666.831 129.845 675.482 138.752C684.131 147.659 692.33 156.993 700.048 166.719C707.767 176.446 714.995 186.552 721.704 197C728.412 207.449 734.594 218.226 740.226 229.292C745.079 238.978 749.508 248.873 753.499 258.946H770.888C742.745 185.588 693.038 122.478 628.317 77.9307C563.596 33.3831 486.898 9.4884 408.327 9.39502Z" fill="#32292F"/>
<path d="M239.25 703.695C236.713 703.144 232.334 701.12 229.608 699.238C227.02 697.452 223.685 693.692 222.359 691.065C218.889 684.191 219.259 678.858 223.835 669.811C226.081 665.37 246.525 630.453 246.877 630.456C247.017 630.457 249.453 631.824 252.29 633.494L257.449 636.531L246.475 655.27C240.439 665.576 234.878 675.239 234.117 676.743C231.037 682.832 232.493 687.548 238.422 690.682C239.733 691.374 240.748 691.571 243.058 691.578C245.63 691.586 246.225 691.448 247.618 690.527C249.96 688.977 251.577 686.487 263.552 666.001C269.517 655.796 274.529 647.297 274.691 647.114C274.897 646.879 283.699 651.589 285.503 652.899C285.704 653.045 264.624 688.769 261.982 692.76C260.417 695.124 258.229 697.908 257.119 698.945C254.807 701.109 251.073 702.936 247.357 703.724C244.228 704.387 242.402 704.381 239.25 703.695Z" fill="#32292F"/>
<path d="M186.6 662.077C177.118 660.588 168.49 655.01 162.867 646.734C155.624 636.075 155.315 621.436 162.089 609.954C164.627 605.652 170.701 599.595 174.78 597.298C188.824 589.389 205.723 591.628 216.985 602.889C223.567 609.471 226.699 617.278 226.712 627.133C226.724 636.813 223.69 644.286 216.901 651.296C211.821 656.541 206.573 659.706 200.308 661.303C196.721 662.217 189.932 662.6 186.6 662.077ZM197.111 649.388C204.293 647.517 211.002 641.214 213.468 634.019C214.434 631.204 214.767 625.375 214.146 622.163C212.753 614.952 207.183 608.596 199.866 605.868C196.638 604.665 191.365 604.383 187.801 605.224C179.406 607.203 171.511 615.13 169.775 623.322C169.052 626.731 169.061 628.629 169.818 632.326C171.48 640.446 177.747 647.343 185.315 649.381C188.086 650.127 194.259 650.13 197.111 649.388Z" fill="#32292F"/>
<path d="M306.792 732.119C302.006 730.378 300.79 729.787 300.637 729.127C300.533 728.675 299.469 721.541 298.273 713.272C296.99 704.399 295.911 698.12 295.639 697.946C295.146 697.633 294.592 697.548 294.592 697.786C294.592 698.06 285.255 723.905 285.1 724.06C284.762 724.399 273.467 720.161 273.616 719.752C273.702 719.515 278.741 705.434 284.814 688.462C290.887 671.489 295.898 657.554 295.95 657.495C296.239 657.164 314.142 664.041 317.375 665.724C322.08 668.173 325.283 671.332 326.64 674.861C327.728 677.691 328.088 682.813 327.414 685.872C326.2 691.38 322.549 696.724 318.488 698.934C316.386 700.078 312.369 701.142 310.119 701.151C309.314 701.154 308.654 701.266 308.654 701.4C308.654 701.534 309.709 708.836 310.998 717.627C312.287 726.419 313.342 733.78 313.342 733.986C313.342 734.509 313.419 734.531 306.792 732.119ZM312.571 688.382C313.831 687.514 314.399 686.798 315.106 685.191C316.44 682.16 315.452 678.729 312.716 676.892C310.73 675.557 303.941 672.895 303.564 673.302C303.404 673.476 302.27 676.41 301.046 679.823C299.273 684.764 298.926 686.098 299.342 686.367C299.63 686.553 301.447 687.225 303.381 687.861C307.52 689.221 311.062 689.422 312.571 688.382Z" fill="#32292F"/>
<path d="M375.872 746.68C369.131 745.402 363.629 741.175 360.22 734.653C359.254 732.807 358.551 731.214 358.657 731.114C359.037 730.758 369.287 725.722 369.391 725.84C369.449 725.907 369.853 726.665 370.29 727.524C373.396 733.64 378.099 736.408 382.977 734.99C386.424 733.987 388.72 730.82 388.105 727.915C387.561 725.349 385.976 723.316 378.813 715.998C368.424 705.384 365.868 701.754 364.822 696.129C363.407 688.521 368.617 680.572 376.659 678.069C379.655 677.137 385.014 677.081 387.979 677.952C392.618 679.315 397.358 682.831 401.13 687.709L402.361 689.3L397.458 692.955C393.65 695.794 392.484 696.486 392.241 696.052C391.602 694.913 389.281 692.22 388.084 691.23C384.282 688.084 379.026 688.404 377.286 691.888C375.8 694.863 376.434 695.76 389.506 709.165C394.995 714.793 396.653 716.751 397.817 718.979C399.869 722.907 400.603 726.05 400.322 729.711C399.403 741.696 388.713 749.116 375.872 746.68Z" fill="#32292F"/>
<path d="M417.594 746.813C417.475 746.41 411.912 680.633 411.989 680.532C412.167 680.299 429.619 678.898 432.287 678.902C445.456 678.924 452.766 685.835 452.789 698.284C452.802 705.665 449.147 711.445 442.468 714.605C440.01 715.768 436.548 716.554 431.357 717.129C429.341 717.353 427.643 717.585 427.583 717.647C427.523 717.708 427.997 723.981 428.637 731.586C429.512 741.979 429.688 745.484 429.345 745.696C429.094 745.851 427.193 746.095 425.119 746.239C423.046 746.382 420.514 746.604 419.494 746.73C418.473 746.857 417.619 746.894 417.594 746.813ZM431.115 705.047C433.049 704.826 435.292 704.469 436.101 704.252C441.745 702.741 442.64 694.994 437.519 691.977C436.371 691.301 435.501 691.197 431.041 691.205C428.207 691.21 425.766 691.337 425.617 691.486C425.363 691.74 426.11 703.899 426.445 704.966C426.629 705.552 426.675 705.553 431.115 705.047Z" fill="#32292F"/>
<path d="M494.201 734.116C485.693 732.457 477.307 727.567 472.34 721.368C469.85 718.261 466.736 712.017 465.669 707.993C463.198 698.669 464.854 688.184 470.05 680.27C476.682 670.168 487.413 664.324 499.279 664.352C504.841 664.365 508.453 665.24 513.928 667.899C523.89 672.739 529.906 680.181 532.939 691.418C534.206 696.112 534.209 703.924 532.945 708.342C529.331 720.978 520.975 729.399 508.459 733.019C505.719 733.811 503.866 734.066 500.06 734.171C497.375 734.245 494.738 734.221 494.201 734.116ZM506.319 721.159C512.534 718.975 516.538 715.513 519.155 710.06C521.113 705.979 521.723 702.879 521.432 698.493C521.013 692.179 518.548 686.845 514.116 682.662C509.812 678.599 504.791 676.561 499.068 676.552C488.815 676.537 480.125 683.126 477.596 692.834C476.848 695.707 476.86 701.038 477.622 704.282C478.402 707.606 480.87 712.605 482.861 714.898C485.624 718.08 490.552 720.872 495.178 721.877C497.661 722.417 503.879 722.016 506.319 721.159Z" fill="#32292F"/>
<path d="M546.689 681.959C537.264 666.442 529.5 653.622 529.436 653.469C529.297 653.139 538.796 647.251 539.468 647.251C539.724 647.251 550.399 652.277 563.19 658.419C575.982 664.562 586.542 669.494 586.657 669.378C586.772 669.263 581.837 660.883 575.69 650.757C569.543 640.63 564.514 632.215 564.514 632.057C564.514 631.499 574.693 625.634 575.035 625.995C575.513 626.499 609.461 682.518 609.34 682.602C609.285 682.64 606.974 684.027 604.205 685.684L599.17 688.698L575.523 677.353C562.517 671.114 551.822 666.062 551.756 666.128C551.69 666.194 556.731 674.643 562.958 684.904C569.185 695.164 574.279 703.623 574.279 703.701C574.279 703.778 572.302 705.027 569.885 706.475C567.468 707.924 565.115 709.348 564.657 709.64C563.851 710.154 563.286 709.284 546.689 681.959Z" fill="#32292F"/>
<path d="M120.286 571.517C104.831 568.299 94.6609 558.394 91.6086 543.587C90.0006 535.787 90.8924 529.834 94.8793 521.756C99.863 511.659 109.684 504.558 121.12 502.784C142.215 499.511 162.101 517.504 160.694 538.593C159.863 551.061 152.506 562.217 141.439 567.79C134.881 571.093 125.871 572.681 120.286 571.517ZM133.255 558.122C146.114 553.23 152.196 539.348 146.661 527.521C143.444 520.645 137.81 516.291 130.356 514.917C125.54 514.03 121.182 514.791 115.755 517.467C106.872 521.848 102.255 529.827 103.059 539.412C103.845 548.786 110.53 556.636 119.733 558.992C123.414 559.934 129.527 559.541 133.255 558.122Z" fill="#32292F"/>
<path d="M72.8561 489.146C72.0197 485.966 71.4722 483.227 71.6394 483.06C71.8067 482.893 83.5466 479.688 97.7282 475.938C111.91 472.188 123.59 469.043 123.684 468.948C123.779 468.854 123.225 466.474 122.453 463.66C121.682 460.845 121.142 458.27 121.253 457.937C121.364 457.604 123.944 456.684 126.986 455.893L132.517 454.456L137.125 472.013C139.659 481.669 141.631 489.649 141.505 489.746C141.38 489.843 139.165 490.478 136.583 491.157C134 491.835 131.477 492.509 130.976 492.654C130.232 492.869 129.834 491.955 128.794 487.641C128.094 484.739 127.348 482.083 127.134 481.738C126.862 481.297 121.592 482.473 109.429 485.689C99.9049 488.207 88.1217 491.315 83.2445 492.597L74.3768 494.927L72.8561 489.146Z" fill="#32292F"/>
<path d="M658.677 617.795C654.174 617.515 650.363 616.47 645.982 614.313C637.097 609.939 630.754 602.763 627.736 593.672C626.334 589.449 625.862 586.146 626.025 581.681C626.353 572.662 629.645 564.905 635.92 558.365C641.644 552.4 649.166 549.004 658.331 548.249C667.398 547.502 676.138 550.46 683.827 556.879C692.041 563.735 696.448 573.903 696.017 585.002C695.714 592.797 692.873 599.656 687.239 606.193C682.27 611.959 676.003 615.643 668.622 617.138C667.312 617.403 665.417 617.667 664.411 617.724C663.406 617.781 662.232 617.853 661.802 617.884C661.373 617.916 659.966 617.875 658.677 617.795ZM665.904 605.118C670.58 604.168 674.399 602.052 677.659 598.604C683.184 592.76 684.978 585.555 682.886 577.605C681.123 570.904 675.61 564.92 668.653 562.156C663.824 560.238 658.178 560.104 653.025 561.787C646.21 564.013 640.831 569.871 638.794 577.287C638.421 578.645 638.366 579.322 638.376 582.463C638.387 585.734 638.437 586.257 638.904 587.986C639.496 590.181 640.772 592.992 641.99 594.784C644.141 597.953 648.261 601.439 652.018 603.269C656.73 605.565 660.943 606.126 665.904 605.118Z" fill="#32292F"/>
<path d="M623.033 664.168C621.014 663.849 619.102 663.405 617.22 662.821C615.142 662.176 615.027 662.113 615.135 661.682C615.198 661.432 615.981 658.776 616.875 655.78C618.045 651.862 618.575 650.352 618.765 650.399C618.91 650.435 619.82 650.684 620.786 650.953C622.962 651.556 626.785 651.786 628.47 651.414C632.578 650.508 635.533 647.028 635.533 643.097C635.533 640.682 634.458 638.984 632.222 637.866C630.045 636.777 628.965 636.678 621.372 636.878C604.352 637.326 599.977 636.91 595.327 634.404C591.4 632.287 588.514 628.683 587.36 624.455C586.883 622.708 586.878 618.076 587.35 616.183C589.134 609.041 594.87 603.489 602.464 601.554C604.027 601.155 604.643 601.115 609.204 601.115C612.638 601.115 614.293 601.184 614.442 601.333C614.602 601.494 614.496 603.093 614.041 607.388C613.701 610.598 613.396 613.32 613.363 613.437C613.321 613.588 612.859 613.577 611.771 613.399C608.254 612.823 604.594 613.23 602.554 614.426C600.605 615.568 599.27 617.488 599.069 619.438C598.936 620.726 599.236 621.717 600.036 622.628C601.555 624.358 602.967 624.556 612.192 624.332C623.716 624.053 629.66 624.109 631.724 624.516C636.41 625.439 639.581 627.114 642.572 630.246C645.202 633 646.872 636.048 647.582 639.393C648.041 641.558 647.839 645.933 647.177 648.143C644.875 655.828 637.423 662.487 629.429 664.004C628.014 664.272 624.292 664.368 623.033 664.168Z" fill="#32292F"/>
<path d="M687.583 540.451C670.825 533.277 657.003 527.336 656.866 527.249C656.68 527.131 657.419 525.228 659.809 519.67C665.149 507.247 667.545 503.05 670.866 500.305C674.37 497.41 679.491 496.027 684.179 496.71C687.412 497.182 691.58 498.847 694.224 500.723C695.763 501.815 697.966 504.149 698.886 505.663C700.424 508.195 701.349 511.866 701.351 515.449L701.352 517.087L702.378 516.975C705.582 516.626 734.578 514.257 734.659 514.338C734.713 514.391 733.579 517.195 732.139 520.568C729.543 526.652 729.517 526.702 728.865 526.848C728.503 526.929 721.308 527.567 712.876 528.267C696.606 529.617 697.055 529.553 697.055 530.517C697.055 530.759 700.31 532.23 709.995 536.365C717.112 539.404 722.95 541.901 722.968 541.914C722.987 541.927 721.888 544.538 720.526 547.716L718.051 553.494L687.583 540.451ZM686.87 523.039C689.087 517.806 689.641 514.735 688.729 512.736C687.608 510.281 684.084 508.533 681.294 509.049C678.273 509.608 676.92 511.181 674.261 517.228C673.001 520.092 672.881 520.468 673.182 520.601C676.645 522.131 685.297 525.8 685.465 525.81C685.589 525.817 686.221 524.57 686.87 523.039Z" fill="#32292F"/>
<path d="M725.304 499.034C725.03 498.138 724.203 495.506 723.467 493.185L722.127 488.966L723.801 488.425C728.217 486.997 731.41 484.684 732.685 481.99C734.711 477.708 733.174 472.536 729.489 471.236C727.813 470.645 725.313 470.956 723.228 472.016C721.793 472.745 718.872 474.727 714.996 477.602C703.791 485.915 698.763 488.502 693.15 488.843C687.92 489.161 682.851 486.764 679.692 482.481C676.067 477.565 675.112 471.301 677.072 465.287C678.866 459.781 682.385 455.848 688.954 452.008C690.706 450.984 691.474 450.63 691.623 450.78C691.738 450.895 693.077 453.355 694.598 456.246L697.364 461.503L695.892 462.164C689.963 464.828 686.947 469.481 688.485 473.591C689.57 476.492 692.191 477.299 695.341 475.703C696.754 474.987 701.466 471.771 707.008 467.741C713.095 463.314 715.048 462.022 717.466 460.826C721.319 458.92 723.821 458.342 727.574 458.492C732.788 458.7 736.744 460.39 740.22 463.894C742.824 466.518 744.395 469.371 745.228 472.99C745.704 475.057 745.705 479.324 745.231 481.734C743.714 489.439 739.724 494.899 733.297 498.062C731.365 499.013 727.918 500.268 726.517 500.53L725.802 500.664L725.304 499.034Z" fill="#32292F"/>
<path d="M364.873 689.842C364.873 689.834 364.911 689.684 364.958 689.509C365.249 688.423 365.595 687.51 366.082 686.541C367.131 684.456 368.646 682.634 370.695 680.994C373.324 678.889 376.322 677.6 379.616 677.159C382.548 676.767 385.824 677.036 388.563 677.893L388.783 677.962V678.084C388.783 678.176 388.778 678.204 388.761 678.198C388.548 678.116 387.892 677.919 387.548 677.833C385.396 677.297 382.094 677.176 379.28 677.531C377.737 677.726 376.633 678.011 375.257 678.569C374.786 678.761 374.464 678.908 373.945 679.17C372.602 679.848 371.479 680.603 370.302 681.62C369.952 681.923 369.037 682.826 368.737 683.166C367.005 685.128 365.803 687.303 365.127 689.7L365.085 689.847L364.979 689.852C364.921 689.855 364.873 689.85 364.873 689.842Z" fill="#32292F"/>
<path d="M214.406 625.066C214.344 623.898 214.117 622.415 213.815 621.191C212.727 616.79 210.273 612.98 206.487 609.817C206.19 609.568 205.45 608.983 205.372 608.934C205.36 608.927 205.354 608.899 205.358 608.871C205.365 608.827 205.406 608.852 205.752 609.115C208.637 611.301 210.939 614.072 212.459 617.19C213.436 619.192 214.078 621.306 214.302 623.256C214.377 623.907 214.466 625.333 214.432 625.333C214.426 625.333 214.414 625.213 214.406 625.066Z" fill="#32292F"/>
<path d="M227.159 663.333C227.204 663.255 231.035 656.712 235.671 648.792L244.101 634.393L244.239 634.393C244.315 634.393 244.377 634.398 244.377 634.405C244.377 634.412 244.295 634.553 244.193 634.72C243.581 635.727 240.741 640.506 238.992 643.475C235.18 649.944 230.264 658.393 227.634 662.998L227.368 663.462L227.222 663.469L227.076 663.476L227.159 663.333Z" fill="#32292F"/>
<path d="M309.135 689.028C308.157 688.986 306.937 688.804 305.727 688.52C304.834 688.311 304.134 688.107 302.992 687.726C301.025 687.07 299.486 686.49 299.315 686.34C299.279 686.308 299.221 686.221 299.232 686.213C299.234 686.212 299.76 686.399 300.401 686.629C303.304 687.67 303.724 687.816 304.471 688.046C306.514 688.676 308.192 688.989 309.552 688.995C309.857 688.996 309.881 688.998 309.881 689.016C309.881 689.034 309.858 689.035 309.546 689.033C309.362 689.032 309.177 689.029 309.135 689.028Z" fill="#32292F"/>
<path d="M287.485 690.272V683.002H293.71H299.935L299.87 683.199C299.584 684.048 299.285 685.103 299.237 685.433C299.234 685.454 299.224 685.513 299.214 685.563C299.185 685.718 299.173 685.935 299.185 686.048C299.208 686.246 299.261 686.329 299.415 686.409C299.53 686.468 299.717 686.552 299.723 686.546C299.725 686.544 299.688 686.525 299.641 686.505C299.404 686.402 299.294 686.332 299.257 686.26C299.235 686.217 299.236 686.217 299.285 686.234C299.309 686.243 299.329 686.247 299.329 686.243C299.329 686.239 299.336 686.242 299.344 686.249C299.363 686.264 299.484 686.307 299.484 686.298C299.484 686.295 299.49 686.297 299.498 686.303C299.517 686.318 299.639 686.363 299.639 686.354C299.639 686.35 299.645 686.352 299.653 686.358C299.669 686.371 299.741 686.395 299.75 686.391C299.754 686.39 299.765 686.395 299.775 686.404C299.785 686.412 299.793 686.415 299.793 686.411C299.793 686.406 299.799 686.408 299.807 686.414C299.823 686.427 299.895 686.451 299.905 686.447C299.909 686.446 299.92 686.451 299.93 686.459C299.94 686.467 299.948 686.471 299.948 686.466C299.948 686.461 299.954 686.463 299.962 686.469C299.973 686.478 300.043 686.505 300.072 686.512C300.077 686.513 300.083 686.515 300.086 686.517C300.089 686.519 300.095 686.521 300.1 686.522C300.105 686.523 300.122 686.53 300.139 686.537C300.157 686.544 300.177 686.55 300.185 686.55C300.193 686.55 300.202 686.554 300.207 686.558C300.212 686.563 300.22 686.567 300.225 686.568C300.231 686.569 300.238 686.571 300.241 686.572C300.244 686.574 300.25 686.576 300.255 686.577C300.26 686.578 300.277 686.585 300.294 686.592C300.311 686.599 300.332 686.605 300.339 686.605C300.347 686.605 300.357 686.609 300.362 686.613C300.367 686.618 300.374 686.622 300.38 686.623C300.386 686.624 300.393 686.626 300.396 686.627C300.399 686.629 300.405 686.631 300.409 686.632C300.414 686.633 300.432 686.64 300.449 686.647C300.466 686.654 300.486 686.66 300.494 686.66C300.502 686.66 300.512 686.664 300.516 686.668C300.521 686.673 300.528 686.677 300.532 686.677C300.536 686.678 300.553 686.684 300.57 686.691C300.587 686.698 300.614 686.707 300.631 686.711C300.647 686.715 300.668 686.723 300.676 686.73C300.685 686.737 300.695 686.742 300.698 686.741C300.702 686.74 300.716 686.744 300.73 686.749C300.745 686.754 300.76 686.759 300.766 686.759C300.771 686.759 300.789 686.765 300.806 686.772C300.823 686.779 300.84 686.786 300.843 686.787C300.846 686.788 300.862 686.795 300.88 686.801C300.897 686.808 300.917 686.814 300.925 686.814C300.933 686.814 300.942 686.818 300.947 686.822C300.952 686.827 300.96 686.831 300.965 686.832C300.971 686.833 300.978 686.835 300.981 686.836C300.984 686.838 300.99 686.84 300.995 686.841C301 686.842 301.017 686.849 301.034 686.857C301.051 686.864 301.072 686.869 301.079 686.869C301.087 686.869 301.097 686.873 301.102 686.877C301.107 686.882 301.114 686.886 301.12 686.887C301.126 686.888 301.133 686.89 301.136 686.891C301.139 686.893 301.145 686.895 301.149 686.896C301.154 686.897 301.172 686.904 301.189 686.912C301.206 686.919 301.226 686.924 301.234 686.924C301.242 686.924 301.252 686.928 301.256 686.932C301.261 686.937 301.268 686.941 301.272 686.941C301.276 686.942 301.293 686.949 301.31 686.955C301.327 686.962 301.354 686.971 301.371 686.975C301.387 686.979 301.408 686.988 301.416 686.995C301.425 687.002 301.432 687.005 301.433 687.003C301.434 687.001 301.448 687.005 301.465 687.011C301.482 687.017 301.503 687.023 301.51 687.023C301.518 687.023 301.528 687.027 301.533 687.031C301.538 687.036 301.545 687.04 301.551 687.041C301.557 687.042 301.564 687.044 301.567 687.045C301.57 687.047 301.576 687.049 301.58 687.05C301.585 687.051 301.603 687.058 301.62 687.065C301.637 687.072 301.655 687.078 301.66 687.078C301.665 687.078 301.684 687.084 301.701 687.091C301.718 687.098 301.735 687.105 301.738 687.106C301.741 687.107 301.757 687.114 301.774 687.121C301.791 687.128 301.81 687.134 301.815 687.134C301.82 687.134 301.839 687.14 301.856 687.146C301.873 687.153 301.889 687.16 301.892 687.161C301.895 687.162 301.912 687.169 301.929 687.176C301.946 687.183 301.966 687.189 301.974 687.189C301.982 687.189 301.992 687.193 301.996 687.197C302.001 687.202 302.009 687.206 302.015 687.207C302.021 687.208 302.027 687.21 302.03 687.211C302.033 687.213 302.039 687.215 302.044 687.216C302.049 687.217 302.066 687.224 302.084 687.231C302.101 687.238 302.121 687.244 302.129 687.244C302.137 687.244 302.146 687.248 302.151 687.252C302.156 687.257 302.163 687.261 302.167 687.261C302.171 687.261 302.187 687.267 302.203 687.274C302.219 687.281 302.252 687.291 302.277 687.298C302.301 687.305 302.335 687.317 302.353 687.326C302.37 687.335 302.389 687.343 302.395 687.343C302.401 687.343 302.566 687.399 302.76 687.469C302.954 687.538 303.217 687.63 303.345 687.673C303.473 687.717 303.585 687.755 303.594 687.759C303.603 687.763 303.614 687.767 303.619 687.768C303.624 687.769 303.629 687.772 303.632 687.773C303.635 687.775 303.643 687.777 303.649 687.779C303.655 687.781 303.662 687.783 303.666 687.785C303.669 687.787 303.676 687.789 303.682 687.791C303.688 687.793 303.696 687.795 303.699 687.797C303.702 687.799 303.709 687.801 303.715 687.803C303.721 687.805 303.729 687.807 303.732 687.809C303.735 687.811 303.742 687.813 303.749 687.815C303.755 687.817 303.762 687.819 303.765 687.821C303.768 687.823 303.776 687.825 303.782 687.827C303.788 687.829 303.795 687.831 303.798 687.833C303.801 687.835 303.809 687.837 303.815 687.839C303.821 687.841 303.828 687.843 303.832 687.845C303.835 687.847 303.842 687.849 303.848 687.851C303.854 687.853 303.862 687.855 303.865 687.857C303.868 687.859 303.875 687.861 303.881 687.863C303.887 687.865 303.895 687.867 303.898 687.869C303.901 687.871 303.908 687.873 303.915 687.875C303.921 687.877 303.928 687.879 303.931 687.881C303.934 687.883 303.94 687.885 303.945 687.886C303.95 687.887 303.961 687.891 303.97 687.895C303.991 687.904 304.169 687.96 304.191 687.964C304.2 687.966 304.209 687.968 304.21 687.97C304.212 687.971 304.218 687.973 304.224 687.975C304.23 687.977 304.236 687.979 304.238 687.98C304.24 687.981 304.248 687.984 304.257 687.986C304.266 687.988 304.295 687.997 304.321 688.007C304.346 688.016 304.368 688.021 304.368 688.018C304.368 688.014 304.375 688.017 304.384 688.025C304.393 688.033 304.401 688.035 304.401 688.031C304.401 688.026 304.408 688.029 304.417 688.037C304.426 688.045 304.434 688.047 304.434 688.043C304.434 688.038 304.44 688.04 304.448 688.046C304.46 688.056 304.529 688.075 304.536 688.07C304.538 688.069 304.565 688.079 304.597 688.091C304.629 688.104 304.655 688.111 304.655 688.107C304.655 688.103 304.662 688.107 304.671 688.115C304.68 688.123 304.688 688.125 304.688 688.122C304.688 688.119 304.705 688.122 304.727 688.132C304.748 688.141 304.765 688.145 304.765 688.141C304.765 688.137 304.772 688.14 304.782 688.148C304.791 688.156 304.799 688.158 304.799 688.154C304.799 688.151 304.816 688.155 304.837 688.164C304.859 688.173 304.876 688.178 304.876 688.176C304.876 688.173 304.893 688.178 304.915 688.187C304.936 688.196 304.953 688.2 304.953 688.197C304.953 688.194 304.978 688.201 305.009 688.214C305.039 688.226 305.064 688.233 305.064 688.231C305.064 688.228 305.081 688.232 305.103 688.242C305.124 688.251 305.141 688.256 305.141 688.253C305.141 688.25 305.158 688.255 305.177 688.263C305.197 688.271 305.216 688.278 305.219 688.278C305.222 688.278 305.247 688.284 305.274 688.291C305.301 688.298 305.331 688.306 305.34 688.308C305.349 688.31 305.369 688.316 305.384 688.322C305.4 688.328 305.414 688.333 305.417 688.333C305.42 688.333 305.445 688.339 305.473 688.346C305.5 688.353 305.532 688.362 305.544 688.365C305.57 688.371 305.572 688.371 305.638 688.39C305.666 688.398 305.697 688.406 305.707 688.408C305.725 688.412 305.758 688.42 305.788 688.428C305.794 688.43 305.826 688.438 305.859 688.448C305.908 688.462 306.087 688.506 306.194 688.53C306.204 688.532 306.223 688.537 306.235 688.54C306.289 688.553 306.309 688.558 306.334 688.563C306.35 688.566 306.37 688.571 306.381 688.574C306.391 688.577 306.409 688.582 306.422 688.584C306.478 688.597 306.489 688.599 306.526 688.61C306.548 688.616 306.567 688.619 306.567 688.616C306.567 688.613 306.576 688.615 306.586 688.621C306.596 688.627 306.625 688.634 306.649 688.637C306.674 688.641 306.705 688.646 306.718 688.65C306.767 688.661 306.793 688.667 306.821 688.672C306.836 688.675 306.861 688.68 306.876 688.684C306.925 688.695 306.947 688.699 306.973 688.705C306.988 688.708 307.007 688.713 307.018 688.715C307.035 688.72 307.097 688.731 307.148 688.738C307.162 688.74 307.186 688.744 307.204 688.748C307.242 688.756 307.281 688.764 307.318 688.771C307.333 688.774 307.36 688.779 307.379 688.782C307.397 688.785 307.424 688.79 307.439 688.793C307.454 688.796 307.484 688.801 307.506 688.804C307.527 688.807 307.557 688.812 307.572 688.815C307.587 688.818 307.616 688.823 307.638 688.827C307.66 688.83 307.687 688.834 307.699 688.836C307.711 688.838 307.745 688.844 307.774 688.848C307.804 688.852 307.839 688.858 307.852 688.861C307.865 688.864 307.898 688.868 307.925 688.871C307.974 688.876 308.046 688.887 308.082 688.894C308.093 688.896 308.127 688.9 308.16 688.904C308.192 688.908 308.231 688.913 308.246 688.915C308.261 688.918 308.303 688.923 308.34 688.926C308.376 688.93 308.423 688.935 308.445 688.937C308.647 688.958 308.665 688.96 308.798 688.97C308.856 688.974 308.923 688.98 308.947 688.982C309.024 688.989 309.313 688.998 309.593 689.003C309.741 689.006 309.867 689.012 309.872 689.018C309.891 689.036 309.745 689.043 309.4 689.038C309.151 689.035 309.104 689.036 309.229 689.042C309.323 689.047 309.508 689.051 309.641 689.052L309.881 689.053V693.301V697.549H298.683H287.486L287.485 690.272ZM308.983 689.016C308.96 689.014 308.925 689.014 308.906 689.016C308.886 689.018 308.905 689.02 308.947 689.02C308.99 689.02 309.006 689.018 308.983 689.016ZM308.812 689.005C308.792 689.003 308.76 689.003 308.74 689.005C308.72 689.007 308.736 689.009 308.776 689.009C308.815 689.009 308.832 689.007 308.812 689.005ZM308.663 688.994C308.646 688.991 308.619 688.991 308.602 688.994C308.585 688.997 308.599 688.999 308.632 688.999C308.666 688.999 308.679 688.997 308.663 688.994ZM308.53 688.983C308.513 688.98 308.486 688.98 308.469 688.983C308.453 688.986 308.466 688.988 308.5 688.988C308.533 688.988 308.547 688.986 308.53 688.983ZM308.414 688.972C308.401 688.969 308.376 688.969 308.359 688.972C308.342 688.975 308.353 688.977 308.384 688.977C308.414 688.977 308.428 688.975 308.414 688.972ZM308.113 688.94C307.995 688.926 307.888 688.915 307.875 688.917C307.863 688.919 307.933 688.929 308.03 688.94C308.127 688.951 308.212 688.961 308.218 688.963C308.224 688.965 308.251 688.967 308.279 688.966C308.306 688.966 308.232 688.955 308.113 688.94ZM307.748 688.895C307.319 688.831 307.1 688.795 306.865 688.752C306.531 688.691 306.515 688.688 306.522 688.695C306.541 688.716 307.717 688.912 307.815 688.911C307.836 688.911 307.806 688.904 307.748 688.895ZM306.478 688.681C306.371 688.654 305.956 688.57 305.952 688.574C305.95 688.577 306.023 688.595 306.116 688.615C306.209 688.635 306.324 688.66 306.373 688.671C306.463 688.691 306.555 688.7 306.478 688.681ZM305.887 688.554C305.856 688.546 305.824 688.539 305.815 688.539C305.792 688.54 305.892 688.569 305.92 688.569C305.932 688.569 305.917 688.562 305.887 688.554ZM305.743 688.521C305.713 688.513 305.68 688.506 305.671 688.506C305.648 688.507 305.749 688.536 305.776 688.536C305.788 688.536 305.773 688.529 305.743 688.521ZM305.423 688.443C305.295 688.411 305.186 688.385 305.18 688.387C305.166 688.391 305.603 688.503 305.633 688.503C305.645 688.503 305.55 688.476 305.423 688.443ZM305.16 688.376C305.156 688.372 305.147 688.372 305.139 688.376C305.13 688.38 305.133 688.382 305.146 688.383C305.157 688.383 305.164 688.38 305.16 688.376ZM305.116 688.365C305.112 688.361 305.103 688.361 305.095 688.365C305.086 688.369 305.089 688.371 305.102 688.372C305.113 688.372 305.12 688.369 305.116 688.365ZM305.072 688.354C305.068 688.35 305.058 688.35 305.05 688.354C305.041 688.358 305.044 688.36 305.057 688.361C305.069 688.361 305.075 688.358 305.072 688.354ZM305.014 688.34C305.002 688.335 304.974 688.328 304.953 688.324C304.915 688.318 304.915 688.318 304.959 688.333C305.006 688.35 305.052 688.355 305.014 688.34ZM304.906 688.31C304.902 688.306 304.893 688.306 304.885 688.309C304.876 688.313 304.879 688.315 304.892 688.316C304.903 688.317 304.91 688.314 304.906 688.31ZM304.848 688.295C304.836 688.29 304.818 688.285 304.809 688.285C304.799 688.285 304.801 688.289 304.815 688.295C304.827 688.3 304.845 688.304 304.854 688.304C304.864 688.304 304.862 688.3 304.848 688.295ZM304.784 688.277C304.78 688.273 304.771 688.273 304.763 688.276C304.754 688.28 304.757 688.282 304.77 688.283C304.782 688.284 304.788 688.281 304.784 688.277ZM304.726 688.262C304.714 688.257 304.697 688.252 304.688 688.252C304.677 688.252 304.68 688.256 304.694 688.262C304.706 688.267 304.723 688.272 304.732 688.272C304.743 688.272 304.74 688.268 304.726 688.262ZM304.649 688.24C304.637 688.235 304.62 688.231 304.61 688.231C304.6 688.231 304.602 688.235 304.616 688.24C304.629 688.245 304.646 688.25 304.655 688.25C304.666 688.25 304.663 688.246 304.649 688.24ZM304.528 688.206C304.491 688.194 304.456 688.185 304.45 688.186C304.434 688.187 304.558 688.227 304.577 688.227C304.586 688.227 304.564 688.217 304.528 688.206ZM304.417 688.173C304.405 688.168 304.388 688.164 304.378 688.164C304.368 688.164 304.37 688.168 304.384 688.173C304.397 688.178 304.414 688.183 304.423 688.183C304.434 688.183 304.431 688.179 304.417 688.173ZM304.355 688.158C304.352 688.156 304.219 688.114 304.058 688.065C303.565 687.914 302.736 687.64 301.949 687.368C301.807 687.318 301.688 687.28 301.686 687.283C301.684 687.285 301.725 687.302 301.779 687.32C301.832 687.339 302.115 687.436 302.406 687.536C303.341 687.857 304.395 688.194 304.355 688.158ZM301.638 687.263C301.638 687.256 301.503 687.212 301.498 687.217C301.496 687.219 301.522 687.231 301.558 687.243C301.626 687.267 301.638 687.27 301.638 687.263ZM301.483 687.207C301.474 687.198 301.193 687.101 301.189 687.106C301.187 687.108 301.248 687.133 301.326 687.16C301.46 687.208 301.494 687.218 301.483 687.207ZM301.174 687.097C301.174 687.09 301.072 687.057 301.067 687.062C301.065 687.064 301.084 687.074 301.11 687.083C301.162 687.101 301.174 687.104 301.174 687.097ZM301.009 687.036C301 687.031 300.98 687.024 300.964 687.02C300.941 687.014 300.942 687.016 300.97 687.029C301.006 687.046 301.036 687.052 301.009 687.036ZM300.931 687.009C300.931 687.002 300.829 686.969 300.824 686.974C300.822 686.976 300.841 686.985 300.867 686.995C300.919 687.013 300.931 687.016 300.931 687.009ZM300.81 686.965C300.81 686.958 300.707 686.924 300.702 686.929C300.7 686.931 300.719 686.941 300.746 686.951C300.797 686.969 300.81 686.971 300.81 686.965ZM300.677 686.915C300.668 686.91 300.648 686.902 300.633 686.899C300.61 686.893 300.611 686.895 300.639 686.908C300.674 686.925 300.705 686.93 300.677 686.915ZM300.589 686.882C300.58 686.877 300.56 686.869 300.545 686.866C300.522 686.86 300.523 686.862 300.551 686.875C300.586 686.892 300.617 686.897 300.589 686.882ZM300.5 686.849C300.491 686.844 300.471 686.836 300.456 686.833C300.433 686.827 300.434 686.828 300.462 686.841C300.498 686.859 300.528 686.864 300.5 686.849ZM300.384 686.804C300.333 686.781 300.283 686.765 300.291 686.773C300.299 686.782 300.404 686.824 300.418 686.824C300.424 686.824 300.409 686.815 300.384 686.804ZM300.241 686.749C300.189 686.726 300.139 686.71 300.147 686.718C300.155 686.727 300.261 686.769 300.274 686.769C300.28 686.769 300.265 686.76 300.241 686.749ZM300.125 686.704C300.116 686.698 300.103 686.693 300.097 686.693C300.091 686.693 300.093 686.698 300.103 686.704C300.112 686.71 300.125 686.715 300.131 686.715C300.137 686.715 300.135 686.71 300.125 686.704ZM300.07 686.682C300.061 686.676 300.048 686.671 300.042 686.671C300.036 686.671 300.038 686.676 300.048 686.682C300.057 686.688 300.07 686.693 300.076 686.693C300.082 686.693 300.08 686.688 300.07 686.682ZM300.014 686.66C300.005 686.654 299.993 686.649 299.987 686.649C299.981 686.649 299.983 686.654 299.993 686.66C300.002 686.666 300.014 686.671 300.02 686.671C300.026 686.671 300.024 686.665 300.014 686.66ZM299.959 686.638C299.95 686.632 299.938 686.627 299.932 686.627C299.926 686.627 299.928 686.632 299.938 686.638C299.946 686.644 299.959 686.648 299.965 686.648C299.971 686.648 299.969 686.643 299.959 686.638ZM299.904 686.616C299.895 686.61 299.882 686.605 299.876 686.605C299.87 686.605 299.872 686.61 299.882 686.616C299.891 686.622 299.904 686.626 299.91 686.626C299.916 686.626 299.914 686.621 299.904 686.616ZM299.81 686.577C299.78 686.562 299.75 686.551 299.744 686.551C299.738 686.551 299.758 686.563 299.788 686.577C299.818 686.592 299.848 686.603 299.854 686.603C299.86 686.603 299.84 686.591 299.81 686.577Z" fill="#32292F"/>
<path d="M298.142 713.439C298.132 713.409 296.356 701.175 296.359 701.158C296.366 701.121 296.758 703.416 296.992 704.868C297.27 706.592 297.585 708.627 297.899 710.74C298.043 711.709 298.291 713.412 298.291 713.433C298.291 713.45 298.28 713.453 298.219 713.453C298.171 713.453 298.145 713.447 298.142 713.439Z" fill="#32292F"/>
<path d="M298.167 713.445C298.147 713.44 298.137 713.417 298.13 713.358C298.128 713.337 298.123 713.301 298.119 713.278C298.116 713.256 298.112 713.23 298.112 713.22C298.112 713.211 298.106 713.179 298.101 713.149C298.095 713.118 298.088 713.077 298.086 713.057C298.08 713.009 298.072 712.957 298.065 712.917C298.062 712.898 298.057 712.864 298.054 712.839C298.051 712.815 298.045 712.775 298.041 712.751C298.038 712.727 298.033 712.694 298.031 712.679C298.029 712.664 298.024 712.624 298.02 712.591C298.016 712.557 298.011 712.521 298.008 712.51C298.005 712.5 298 712.475 297.997 712.455C297.992 712.417 297.984 712.364 297.976 712.309C297.973 712.291 297.968 712.256 297.965 712.232C297.956 712.167 297.949 712.115 297.943 712.071C297.94 712.05 297.935 712.015 297.932 711.994C297.929 711.973 297.924 711.943 297.921 711.928C297.918 711.913 297.913 711.88 297.91 711.856C297.907 711.832 297.902 711.794 297.898 711.773C297.895 711.752 297.89 711.717 297.887 711.696C297.884 711.675 297.879 711.64 297.876 711.619C297.873 711.597 297.868 711.562 297.865 711.541C297.862 711.52 297.858 711.492 297.855 711.479C297.852 711.467 297.847 711.43 297.843 711.398C297.839 711.365 297.834 711.329 297.831 711.316C297.829 711.303 297.824 711.273 297.821 711.248C297.818 711.224 297.813 711.187 297.81 711.165C297.807 711.144 297.802 711.109 297.799 711.088C297.796 711.067 297.791 711.034 297.788 711.016C297.782 710.972 297.772 710.904 297.766 710.856C297.763 710.835 297.758 710.805 297.755 710.79C297.752 710.775 297.747 710.742 297.744 710.718C297.741 710.694 297.736 710.656 297.732 710.635C297.729 710.614 297.724 710.579 297.721 710.558C297.718 710.537 297.713 710.502 297.71 710.481C297.707 710.459 297.702 710.424 297.699 710.403C297.696 710.382 297.691 710.347 297.688 710.326C297.685 710.305 297.68 710.27 297.677 710.249C297.674 710.227 297.669 710.198 297.666 710.182C297.663 710.167 297.658 710.135 297.655 710.111C297.652 710.086 297.647 710.049 297.644 710.028C297.641 710.006 297.636 709.972 297.633 709.95C297.63 709.929 297.625 709.894 297.622 709.873C297.619 709.852 297.614 709.817 297.611 709.796C297.608 709.774 297.603 709.74 297.6 709.718C297.597 709.697 297.592 709.662 297.589 709.641C297.586 709.62 297.581 709.59 297.578 709.575C297.575 709.56 297.57 709.527 297.567 709.503C297.564 709.479 297.559 709.441 297.555 709.42C297.552 709.399 297.547 709.364 297.544 709.343C297.541 709.322 297.536 709.287 297.533 709.266C297.53 709.244 297.525 709.209 297.522 709.188C297.519 709.167 297.514 709.132 297.511 709.111C297.508 709.09 297.503 709.055 297.5 709.034C297.497 709.012 297.492 708.982 297.489 708.967C297.486 708.952 297.481 708.92 297.478 708.896C297.475 708.871 297.47 708.834 297.467 708.813C297.464 708.791 297.459 708.756 297.456 708.735C297.453 708.714 297.448 708.679 297.445 708.658C297.442 708.637 297.437 708.602 297.433 708.581C297.43 708.559 297.425 708.525 297.422 708.503C297.419 708.482 297.414 708.447 297.411 708.426C297.408 708.405 297.403 708.375 297.401 708.36C297.398 708.345 297.393 708.312 297.389 708.288C297.386 708.264 297.381 708.229 297.379 708.211C297.376 708.192 297.371 708.158 297.368 708.133C297.359 708.069 297.351 708.017 297.345 707.973C297.342 707.952 297.337 707.917 297.334 707.896C297.331 707.875 297.326 707.84 297.323 707.819C297.32 707.797 297.315 707.765 297.312 707.747C297.309 707.729 297.305 707.696 297.301 707.675C297.298 707.654 297.292 707.619 297.29 707.598C297.287 707.576 297.282 707.542 297.279 707.52C297.276 707.499 297.271 707.464 297.268 707.443C297.265 707.422 297.26 707.387 297.257 707.366C297.254 707.344 297.249 707.31 297.245 707.289C297.242 707.267 297.237 707.232 297.234 707.211C297.231 707.19 297.226 707.158 297.224 707.139C297.221 707.121 297.217 707.091 297.214 707.073C297.211 707.055 297.206 707.02 297.202 706.996C297.193 706.931 297.185 706.879 297.179 706.836C297.176 706.814 297.171 706.777 297.167 706.753C297.164 706.728 297.159 706.696 297.157 706.681C297.155 706.666 297.15 706.626 297.146 706.592C297.142 706.559 297.137 706.523 297.134 706.512C297.131 706.501 297.126 706.474 297.123 706.451C297.12 706.429 297.116 706.393 297.113 706.372C297.11 706.35 297.106 706.32 297.103 706.305C297.101 706.29 297.096 706.255 297.091 706.228C297.077 706.139 297.075 706.124 297.068 706.062C297.064 706.029 297.059 705.993 297.056 705.982C297.053 705.971 297.048 705.943 297.045 705.921C297.04 705.88 297.034 705.832 297.025 705.769C297.019 705.731 297.011 705.678 297.002 705.615C296.999 705.59 296.994 705.558 296.992 705.543C296.99 705.528 296.985 705.49 296.981 705.46C296.977 705.43 296.971 705.392 296.968 705.377C296.965 705.362 296.96 705.333 296.957 705.314C296.955 705.294 296.95 705.26 296.947 705.239L296.936 705.162C296.933 705.14 296.928 705.104 296.925 705.082C296.922 705.059 296.917 705.028 296.915 705.013C296.913 704.997 296.908 704.958 296.904 704.924C296.9 704.891 296.892 704.836 296.886 704.803C296.875 704.739 296.868 704.697 296.858 704.629C296.855 704.606 296.85 704.572 296.848 704.554C296.845 704.536 296.84 704.501 296.836 704.477C296.833 704.452 296.828 704.42 296.826 704.405C296.824 704.39 296.819 704.35 296.815 704.316C296.811 704.283 296.803 704.228 296.797 704.195C296.791 704.161 296.784 704.117 296.782 704.095C296.777 704.055 296.771 704.017 296.76 703.952C296.757 703.93 296.751 703.893 296.748 703.869C296.745 703.845 296.74 703.812 296.738 703.797C296.736 703.782 296.731 703.742 296.727 703.709C296.723 703.675 296.715 703.62 296.709 703.587C296.703 703.554 296.696 703.509 296.693 703.488C296.69 703.466 296.686 703.432 296.683 703.41L296.672 703.333C296.667 703.296 296.663 703.273 296.65 703.195C296.647 703.177 296.642 703.134 296.638 703.101C296.634 703.067 296.626 703.013 296.62 702.979C296.614 702.946 296.607 702.901 296.605 702.88C296.599 702.833 296.59 702.775 296.583 702.731C296.576 702.684 296.569 702.629 296.562 702.571C296.55 702.465 296.53 702.332 296.524 702.317C296.521 702.308 296.519 702.289 296.52 702.275C296.521 702.262 296.519 702.244 296.514 702.237C296.509 702.229 296.507 702.209 296.508 702.193C296.51 702.177 296.506 702.161 296.5 702.157C296.494 702.153 296.492 702.141 296.495 702.129C296.498 702.117 296.497 702.098 296.493 702.088C296.489 702.077 296.484 702.056 296.482 702.04C296.466 701.889 296.443 701.729 296.436 701.709C296.433 701.7 296.431 701.681 296.432 701.668C296.433 701.654 296.431 701.637 296.426 701.629C296.421 701.621 296.419 701.602 296.42 701.586C296.422 701.57 296.418 701.554 296.412 701.55C296.405 701.546 296.405 701.527 296.411 701.499C296.419 701.462 296.411 701.398 296.371 701.17C296.343 701.014 296.318 700.878 296.314 700.869C296.31 700.86 296.306 700.84 296.304 700.825C296.3 700.793 296.298 700.786 296.267 700.604C296.213 700.293 296.071 699.568 295.983 699.154C295.956 699.028 295.935 698.922 295.935 698.919C295.935 698.916 299.072 698.914 302.906 698.914H309.878V700.036V701.157L309.809 701.157C309.602 701.157 309.154 701.207 308.95 701.252C308.791 701.287 308.666 701.344 308.655 701.385C308.651 701.401 308.661 701.517 308.678 701.642C308.728 702.02 309.272 705.824 309.584 707.978L309.878 709.998V711.726V713.454H304.09H298.301L298.295 713.418C298.292 713.398 298.28 713.32 298.27 713.244C298.259 713.168 298.249 713.113 298.247 713.122C298.245 713.131 298.253 713.206 298.265 713.288C298.28 713.396 298.282 713.44 298.273 713.445C298.259 713.454 298.195 713.455 298.164 713.446L298.167 713.445ZM298.243 713.046C298.24 713.036 298.238 713.044 298.238 713.066C298.238 713.087 298.24 713.096 298.243 713.085C298.246 713.074 298.246 713.057 298.243 713.046ZM298.232 712.969C298.229 712.959 298.227 712.967 298.227 712.988C298.227 713.01 298.229 713.018 298.232 713.008C298.235 712.997 298.235 712.98 298.232 712.969ZM298.202 712.757C298.188 712.659 298.175 712.582 298.172 712.584C298.169 712.587 298.178 712.669 298.192 712.767C298.206 712.865 298.219 712.942 298.222 712.94C298.225 712.937 298.216 712.855 298.202 712.757ZM298.166 712.516C298.163 712.506 298.161 712.514 298.161 712.535C298.161 712.557 298.163 712.565 298.166 712.555C298.169 712.544 298.169 712.527 298.166 712.516ZM298.155 712.439C298.152 712.428 298.15 712.437 298.15 712.458C298.15 712.479 298.152 712.488 298.155 712.477C298.158 712.467 298.158 712.45 298.155 712.439ZM298.144 712.362C298.141 712.351 298.139 712.36 298.139 712.381C298.139 712.402 298.141 712.411 298.144 712.4C298.147 712.39 298.147 712.372 298.144 712.362ZM298.119 712.188C298.108 712.112 298.097 712.051 298.095 712.054C298.092 712.057 298.099 712.122 298.109 712.198C298.12 712.274 298.131 712.335 298.134 712.332C298.137 712.329 298.13 712.265 298.119 712.188ZM298.089 711.986C298.086 711.975 298.084 711.984 298.084 712.005C298.084 712.027 298.086 712.035 298.089 712.025C298.092 712.014 298.092 711.997 298.089 711.986ZM298.078 711.909C298.075 711.898 298.073 711.907 298.073 711.928C298.073 711.949 298.075 711.958 298.078 711.947C298.081 711.937 298.081 711.919 298.078 711.909ZM298.047 711.697C298.033 711.599 298.02 711.521 298.017 711.524C298.014 711.527 298.023 711.609 298.037 711.706C298.051 711.804 298.065 711.882 298.067 711.879C298.07 711.876 298.061 711.794 298.047 711.697ZM298.003 711.398C297.995 711.343 297.987 711.3 297.984 711.303C297.981 711.306 297.985 711.353 297.993 711.408C298.001 711.463 298.009 711.506 298.012 711.504C298.015 711.501 298.011 711.453 298.003 711.398ZM297.978 711.235C297.975 711.224 297.973 711.233 297.973 711.254C297.973 711.275 297.975 711.284 297.978 711.273C297.981 711.263 297.981 711.245 297.978 711.235ZM297.967 711.157C297.964 711.147 297.962 711.155 297.962 711.177C297.962 711.198 297.964 711.207 297.967 711.196C297.97 711.185 297.97 711.168 297.967 711.157ZM297.954 711.061C297.95 711.027 297.943 711.001 297.941 711.004C297.938 711.007 297.939 711.037 297.944 711.071C297.948 711.106 297.954 711.131 297.957 711.128C297.96 711.125 297.959 711.095 297.954 711.061ZM297.934 710.936C297.931 710.926 297.929 710.934 297.929 710.956C297.929 710.977 297.931 710.986 297.934 710.975C297.937 710.964 297.937 710.947 297.934 710.936ZM297.923 710.859C297.92 710.849 297.918 710.857 297.918 710.878C297.918 710.9 297.92 710.908 297.923 710.898C297.926 710.887 297.926 710.87 297.923 710.859ZM297.912 710.782C297.909 710.771 297.907 710.78 297.907 710.801C297.907 710.822 297.909 710.831 297.912 710.82C297.915 710.81 297.915 710.793 297.912 710.782ZM297.901 710.716C297.898 710.705 297.896 710.711 297.896 710.729C297.896 710.748 297.898 710.756 297.901 710.749C297.904 710.742 297.903 710.727 297.901 710.716ZM297.89 710.638C297.887 710.628 297.885 710.636 297.885 710.658C297.885 710.679 297.887 710.688 297.89 710.677C297.893 710.666 297.893 710.649 297.89 710.638ZM297.879 710.561C297.876 710.55 297.874 710.559 297.874 710.58C297.874 710.602 297.876 710.61 297.879 710.6C297.882 710.589 297.882 710.572 297.879 710.561ZM297.865 710.465C297.861 710.43 297.855 710.405 297.852 710.408C297.849 710.411 297.85 710.441 297.855 710.475C297.859 710.509 297.865 710.535 297.868 710.532C297.871 710.529 297.87 710.499 297.865 710.465ZM297.846 710.34C297.843 710.329 297.841 710.338 297.841 710.359C297.841 710.38 297.843 710.389 297.846 710.379C297.849 710.368 297.849 710.351 297.846 710.34ZM297.826 710.205C297.818 710.15 297.81 710.107 297.808 710.11C297.805 710.113 297.809 710.16 297.817 710.215C297.825 710.27 297.833 710.313 297.835 710.311C297.838 710.308 297.834 710.26 297.826 710.205ZM297.793 709.984C297.785 709.929 297.777 709.886 297.775 709.889C297.772 709.892 297.776 709.939 297.784 709.994C297.792 710.049 297.8 710.092 297.802 710.09C297.805 710.087 297.801 710.039 297.793 709.984ZM297.76 709.763C297.752 709.708 297.744 709.665 297.741 709.668C297.738 709.671 297.742 709.718 297.75 709.773C297.758 709.828 297.766 709.871 297.769 709.869C297.772 709.866 297.768 709.818 297.76 709.763ZM297.733 709.581C297.729 709.547 297.723 709.521 297.72 709.524C297.717 709.527 297.718 709.557 297.723 709.591C297.727 709.625 297.733 709.651 297.736 709.648C297.739 709.645 297.738 709.615 297.733 709.581ZM297.713 709.456C297.71 709.445 297.708 709.454 297.708 709.475C297.708 709.497 297.71 709.505 297.713 709.495C297.716 709.484 297.716 709.467 297.713 709.456ZM297.699 709.36C297.695 709.326 297.689 709.3 297.687 709.303C297.684 709.306 297.685 709.336 297.69 709.37C297.694 709.404 297.7 709.43 297.702 709.427C297.705 709.424 297.704 709.394 297.699 709.36ZM297.68 709.235C297.677 709.225 297.675 709.233 297.675 709.254C297.675 709.276 297.677 709.284 297.68 709.274C297.683 709.263 297.683 709.246 297.68 709.235ZM297.669 709.169C297.666 709.158 297.664 709.164 297.663 709.183C297.663 709.201 297.665 709.21 297.668 709.202C297.671 709.195 297.671 709.18 297.669 709.169ZM297.658 709.091C297.655 709.081 297.653 709.09 297.653 709.111C297.653 709.132 297.655 709.141 297.658 709.13C297.661 709.12 297.661 709.102 297.658 709.091ZM297.644 708.995C297.64 708.961 297.634 708.935 297.631 708.938C297.628 708.941 297.629 708.971 297.634 709.005C297.638 709.04 297.644 709.065 297.647 709.063C297.65 709.06 297.649 709.03 297.644 708.995ZM297.605 708.741C297.591 708.647 297.578 708.572 297.575 708.575C297.572 708.578 297.582 708.657 297.595 708.751C297.609 708.846 297.623 708.921 297.626 708.918C297.629 708.915 297.619 708.836 297.605 708.741ZM297.567 708.487C297.563 708.453 297.557 708.427 297.554 708.43C297.551 708.433 297.552 708.463 297.557 708.497C297.561 708.531 297.567 708.557 297.57 708.554C297.573 708.551 297.572 708.521 297.567 708.487ZM297.545 708.343C297.541 708.309 297.535 708.284 297.532 708.286C297.529 708.289 297.53 708.319 297.535 708.354C297.539 708.388 297.545 708.414 297.548 708.411C297.551 708.408 297.55 708.378 297.545 708.343ZM297.523 708.2C297.519 708.166 297.512 708.14 297.51 708.143C297.507 708.146 297.508 708.176 297.513 708.21C297.517 708.244 297.523 708.27 297.526 708.267C297.529 708.264 297.528 708.234 297.523 708.2ZM297.5 708.056C297.496 708.022 297.49 707.996 297.488 707.999C297.485 708.002 297.486 708.032 297.491 708.066C297.495 708.101 297.501 708.126 297.503 708.123C297.506 708.12 297.505 708.09 297.5 708.056ZM297.478 707.913C297.474 707.878 297.468 707.853 297.465 707.855C297.462 707.858 297.463 707.889 297.468 707.923C297.472 707.957 297.479 707.983 297.481 707.98C297.484 707.977 297.483 707.947 297.478 707.913ZM297.459 707.788C297.456 707.777 297.454 707.786 297.454 707.807C297.454 707.828 297.456 707.837 297.459 707.826C297.462 707.816 297.462 707.799 297.459 707.788ZM297.448 707.722C297.445 707.711 297.443 707.717 297.443 707.735C297.443 707.754 297.445 707.762 297.448 707.755C297.451 707.748 297.45 707.732 297.448 707.722ZM297.437 707.644C297.434 707.634 297.432 707.642 297.432 707.664C297.432 707.685 297.434 707.694 297.437 707.683C297.44 707.672 297.44 707.655 297.437 707.644ZM297.426 707.578C297.423 707.567 297.421 707.573 297.421 707.592C297.42 707.61 297.423 707.619 297.426 707.611C297.429 707.604 297.428 707.589 297.426 707.578ZM297.412 707.482C297.408 707.447 297.402 707.422 297.399 707.425C297.396 707.428 297.397 707.458 297.402 707.492C297.406 707.526 297.412 707.552 297.415 707.549C297.418 707.546 297.417 707.516 297.412 707.482ZM297.39 707.338C297.386 707.304 297.38 707.278 297.377 707.281C297.374 707.284 297.375 707.314 297.38 707.348C297.384 707.382 297.39 707.408 297.393 707.405C297.396 707.402 297.395 707.372 297.39 707.338ZM297.351 707.09C297.337 706.998 297.324 706.926 297.321 706.928C297.318 706.931 297.328 707.008 297.341 707.099C297.355 707.191 297.369 707.263 297.372 707.261C297.375 707.258 297.364 707.181 297.351 707.09ZM297.313 706.841C297.309 706.807 297.302 706.781 297.3 706.784C297.297 706.787 297.298 706.817 297.303 706.851C297.307 706.885 297.313 706.911 297.316 706.908C297.319 706.905 297.318 706.875 297.313 706.841ZM297.285 706.664C297.277 706.612 297.268 706.572 297.266 706.575C297.263 706.578 297.267 706.622 297.275 706.674C297.283 706.726 297.291 706.766 297.294 706.764C297.297 706.761 297.293 706.716 297.285 706.664ZM297.257 706.487C297.253 706.453 297.247 706.427 297.244 706.43C297.241 706.433 297.242 706.463 297.247 706.497C297.251 706.532 297.257 706.557 297.26 706.555C297.263 706.552 297.262 706.521 297.257 706.487ZM297.238 706.374C297.235 706.363 297.233 706.369 297.232 706.387C297.232 706.406 297.234 706.414 297.237 706.407C297.24 706.4 297.24 706.384 297.238 706.374ZM297.224 706.277C297.22 706.243 297.214 706.217 297.211 706.22C297.208 706.223 297.209 706.253 297.214 706.287C297.218 706.322 297.224 706.347 297.227 706.345C297.23 706.342 297.229 706.311 297.224 706.277ZM297.196 706.101C297.188 706.049 297.18 706.008 297.177 706.011C297.174 706.014 297.178 706.059 297.186 706.111C297.194 706.163 297.203 706.203 297.205 706.2C297.208 706.197 297.204 706.153 297.196 706.101ZM297.163 705.891C297.155 705.839 297.147 705.798 297.144 705.801C297.141 705.804 297.145 705.849 297.153 705.901C297.161 705.953 297.17 705.993 297.172 705.99C297.175 705.987 297.171 705.943 297.163 705.891ZM297.125 705.648C297.114 705.578 297.102 705.523 297.1 705.525C297.097 705.528 297.104 705.587 297.115 705.658C297.126 705.728 297.137 705.783 297.14 705.78C297.143 705.777 297.136 705.718 297.125 705.648ZM297.094 705.468C297.091 705.457 297.089 705.463 297.088 705.481C297.088 705.5 297.09 705.508 297.093 705.501C297.096 705.494 297.097 705.479 297.094 705.468ZM297.075 705.338C297.067 705.286 297.059 705.246 297.056 705.249C297.053 705.252 297.057 705.296 297.065 705.348C297.073 705.4 297.081 705.441 297.084 705.438C297.087 705.435 297.083 705.39 297.075 705.338ZM297.05 705.192C297.047 705.181 297.045 705.187 297.044 705.205C297.044 705.223 297.046 705.232 297.049 705.225C297.052 705.218 297.053 705.202 297.05 705.192ZM297.036 705.095C297.032 705.061 297.026 705.035 297.023 705.038C297.02 705.041 297.021 705.071 297.026 705.105C297.03 705.139 297.037 705.165 297.039 705.162C297.042 705.159 297.041 705.129 297.036 705.095ZM297.017 704.982C297.014 704.971 297.012 704.977 297.011 704.995C297.011 705.013 297.013 705.022 297.016 705.015C297.019 705.008 297.019 704.992 297.017 704.982ZM297.006 704.915C297.003 704.905 297.001 704.91 297 704.929C297 704.947 297.002 704.956 297.005 704.948C297.008 704.941 297.008 704.926 297.006 704.915ZM296.995 704.849C296.992 704.838 296.99 704.844 296.99 704.863C296.989 704.881 296.992 704.89 296.995 704.882C296.998 704.875 296.997 704.86 296.995 704.849ZM296.97 704.686C296.959 704.616 296.948 704.561 296.945 704.564C296.942 704.567 296.949 704.626 296.96 704.696C296.971 704.766 296.982 704.821 296.985 704.819C296.988 704.816 296.981 704.757 296.97 704.686ZM296.939 704.506C296.936 704.496 296.934 704.501 296.933 704.52C296.933 704.538 296.935 704.547 296.938 704.54C296.941 704.533 296.942 704.517 296.939 704.506ZM296.881 704.145C296.852 703.966 296.825 703.822 296.823 703.824C296.82 703.827 296.842 703.976 296.872 704.155C296.901 704.334 296.928 704.478 296.93 704.476C296.933 704.473 296.911 704.324 296.881 704.145ZM296.818 703.766C296.815 703.755 296.813 703.761 296.813 703.78C296.813 703.798 296.815 703.807 296.818 703.799C296.821 703.792 296.821 703.777 296.818 703.766ZM296.807 703.7C296.804 703.689 296.802 703.695 296.802 703.714C296.802 703.732 296.804 703.741 296.807 703.733C296.81 703.726 296.809 703.711 296.807 703.7ZM296.796 703.634C296.793 703.623 296.791 703.629 296.79 703.647C296.79 703.665 296.792 703.674 296.795 703.667C296.798 703.66 296.798 703.644 296.796 703.634ZM296.672 702.89C296.607 702.51 296.544 702.138 296.531 702.062C296.518 701.987 296.506 701.93 296.504 701.937C296.502 701.943 296.539 702.179 296.588 702.461C296.636 702.743 296.699 703.117 296.729 703.293C296.758 703.469 296.784 703.605 296.786 703.596C296.788 703.587 296.736 703.269 296.672 702.89ZM296.489 701.825C296.482 701.779 296.473 701.743 296.471 701.746C296.468 701.749 296.472 701.788 296.48 701.835C296.487 701.881 296.496 701.916 296.498 701.914C296.501 701.911 296.497 701.871 296.489 701.825ZM296.464 701.689C296.461 701.678 296.459 701.684 296.459 701.703C296.459 701.721 296.461 701.73 296.464 701.722C296.467 701.715 296.467 701.7 296.464 701.689ZM296.445 701.571C296.438 701.525 296.429 701.489 296.427 701.492C296.424 701.495 296.428 701.534 296.436 701.581C296.443 701.627 296.451 701.662 296.454 701.66C296.457 701.657 296.453 701.617 296.445 701.571Z" fill="#32292F"/>
<path d="M289.014 713.437C289.017 713.428 289.266 712.741 289.566 711.909C291.493 706.581 293.169 701.906 294.011 699.506L294.22 698.913L294.317 698.913C294.413 698.913 294.414 698.913 294.407 698.937C294.403 698.951 293.232 702.221 291.805 706.204L289.212 713.447L289.11 713.45C289.024 713.453 289.009 713.451 289.014 713.437Z" fill="#32292F"/>
<path d="M380.199 699.389C380.176 699.363 380.074 699.246 379.973 699.13C378.914 697.922 378.229 697.059 377.707 696.274C377.108 695.374 376.81 694.681 376.737 694.017C376.724 693.905 376.724 693.603 376.737 693.493C376.778 693.127 376.886 692.761 377.085 692.314C377.144 692.182 377.28 691.902 377.344 691.781C377.894 690.741 378.797 689.951 379.952 689.497C380.272 689.371 380.583 689.28 380.977 689.195L381.132 689.162L381.962 689.16C382.791 689.158 382.792 689.158 382.792 689.173C382.792 689.182 382.788 689.189 382.782 689.189C382.777 689.189 382.669 689.185 382.542 689.181C381.901 689.16 381.256 689.225 380.683 689.368C379.908 689.562 379.267 689.876 378.589 690.394C377.649 691.112 377.108 691.973 376.984 692.95C376.944 693.267 376.941 693.653 376.976 693.993C377.056 694.763 377.311 695.497 377.759 696.243C378.115 696.836 378.933 697.841 380.163 699.197C380.271 699.315 380.363 699.418 380.369 699.425C380.379 699.438 380.375 699.439 380.311 699.438L380.241 699.437L380.199 699.389Z" fill="#32292F"/>
<path d="M366.956 694.297V689.156L374.735 689.158C379.014 689.159 382.576 689.162 382.651 689.164C382.736 689.167 382.787 689.172 382.786 689.177C382.785 689.182 382.729 689.183 382.63 689.181C382.33 689.173 382.005 689.178 381.815 689.192C381.718 689.199 381.669 689.204 381.636 689.207C381.616 689.209 381.578 689.213 381.55 689.216C381.495 689.221 381.481 689.223 381.421 689.231C381.363 689.238 381.322 689.244 381.3 689.247C381.289 689.249 381.266 689.252 381.249 689.254C381.231 689.256 381.209 689.26 381.198 689.262C381.188 689.264 381.167 689.268 381.151 689.27C381.136 689.272 381.115 689.276 381.104 689.278C381.094 689.28 381.073 689.284 381.058 689.286C381.043 689.288 381.021 689.292 381.011 689.294C380.986 689.3 380.965 689.304 380.94 689.309C380.93 689.311 380.912 689.315 380.901 689.317C380.891 689.319 380.859 689.326 380.831 689.332C380.803 689.338 380.771 689.345 380.761 689.348C380.75 689.351 380.732 689.355 380.722 689.357C380.711 689.359 380.695 689.363 380.686 689.366C380.677 689.369 380.667 689.372 380.663 689.373C380.659 689.374 380.648 689.377 380.64 689.379C380.597 689.39 380.528 689.408 380.511 689.411C380.501 689.413 380.489 689.417 380.486 689.419C380.482 689.421 380.473 689.424 380.466 689.426C380.458 689.428 380.437 689.434 380.419 689.441C380.4 689.448 380.384 689.453 380.382 689.453C380.38 689.454 380.377 689.454 380.376 689.454C380.375 689.455 380.369 689.456 380.362 689.457C380.334 689.463 380.222 689.499 380.178 689.517C380.165 689.522 380.152 689.527 380.149 689.528C380.146 689.529 380.141 689.531 380.139 689.532C380.137 689.533 380.132 689.535 380.129 689.535C380.115 689.538 380.082 689.55 380.061 689.559C380.035 689.57 380.008 689.58 380.002 689.58C380 689.58 379.991 689.584 379.982 689.589C379.973 689.594 379.963 689.598 379.959 689.599C379.955 689.6 379.938 689.606 379.922 689.613C379.906 689.62 379.891 689.625 379.888 689.625C379.886 689.625 379.874 689.631 379.861 689.638C379.849 689.645 379.835 689.65 379.832 689.65C379.826 689.651 379.798 689.664 379.723 689.703C379.696 689.717 379.674 689.726 379.674 689.724C379.674 689.72 379.459 689.828 379.394 689.865C379.244 689.949 379.014 690.088 378.989 690.11C378.984 690.114 378.976 690.118 378.971 690.118C378.967 690.118 378.963 690.122 378.963 690.126C378.963 690.13 378.958 690.134 378.951 690.134C378.945 690.134 378.94 690.138 378.94 690.142C378.94 690.146 378.935 690.15 378.928 690.15C378.922 690.15 378.916 690.153 378.916 690.157C378.916 690.161 378.904 690.17 378.889 690.178C378.874 690.186 378.862 690.196 378.862 690.199C378.862 690.202 378.857 690.205 378.85 690.205C378.844 690.205 378.838 690.209 378.838 690.213C378.838 690.217 378.834 690.221 378.828 690.221C378.823 690.221 378.809 690.23 378.797 690.241C378.786 690.251 378.773 690.26 378.769 690.26C378.765 690.26 378.753 690.269 378.741 690.28C378.73 690.29 378.718 690.299 378.716 690.299C378.71 690.299 378.585 690.394 378.576 690.406C378.571 690.412 378.564 690.416 378.56 690.416C378.556 690.416 378.538 690.43 378.52 690.446C378.501 690.462 378.477 690.482 378.466 690.49C378.455 690.499 378.435 690.515 378.423 690.526C378.41 690.536 378.389 690.554 378.376 690.565C378.346 690.589 378.301 690.628 378.249 690.674C378.193 690.725 377.927 690.992 377.881 691.044C377.86 691.069 377.833 691.099 377.822 691.111C377.812 691.123 377.792 691.146 377.779 691.162C377.767 691.178 377.751 691.198 377.744 691.206C377.737 691.214 377.725 691.229 377.716 691.241C377.708 691.252 377.692 691.273 377.68 691.286C377.668 691.3 377.645 691.331 377.629 691.356C377.614 691.38 377.598 691.401 377.594 691.401C377.591 691.401 377.588 691.406 377.588 691.412C377.588 691.418 377.585 691.424 377.582 691.425C377.579 691.426 377.555 691.46 377.53 691.498C377.471 691.587 377.465 691.596 377.456 691.616C377.452 691.625 377.441 691.644 377.43 691.659C377.42 691.674 377.409 691.691 377.406 691.698C377.403 691.704 377.387 691.734 377.37 691.764C377.342 691.813 377.298 691.901 377.251 692.002C377.242 692.022 377.23 692.047 377.224 692.06C377.218 692.072 377.213 692.085 377.213 692.089C377.213 692.093 377.206 692.113 377.197 692.133C377.162 692.211 377.158 692.22 377.158 692.231C377.158 692.237 377.155 692.245 377.152 692.248C377.149 692.251 377.146 692.256 377.145 692.259C377.145 692.262 377.142 692.269 377.139 692.276C377.126 692.307 377.112 692.354 377.116 692.354C377.118 692.354 377.116 692.359 377.111 692.366C377.106 692.372 377.104 692.377 377.106 692.377C377.109 692.377 377.105 692.39 377.099 692.406C377.092 692.421 377.085 692.442 377.083 692.451C377.081 692.46 377.071 692.498 377.061 692.535C377.05 692.572 377.04 692.615 377.038 692.629C377.036 692.643 377.032 692.66 377.03 692.666C377.028 692.672 377.024 692.692 377.021 692.708C377.019 692.725 377.015 692.741 377.013 692.744C377.011 692.747 377.007 692.766 377.005 692.788C377.002 692.809 376.999 692.833 376.997 692.842C376.993 692.869 376.984 692.927 376.981 692.951C376.98 692.964 376.976 692.994 376.973 693.018C376.958 693.148 376.951 693.302 376.951 693.514C376.952 693.734 376.956 693.833 376.973 693.996C376.981 694.073 376.995 694.185 377.004 694.233C377.006 694.246 377.01 694.269 377.012 694.284C377.014 694.299 377.017 694.318 377.019 694.327C377.023 694.348 377.031 694.397 377.036 694.427C377.038 694.439 377.041 694.456 377.044 694.463C377.05 694.481 377.054 694.505 377.06 694.541C377.062 694.556 377.066 694.576 377.069 694.584C377.076 694.605 377.077 694.611 377.082 694.639C377.085 694.652 377.091 694.676 377.096 694.694C377.106 694.73 377.107 694.735 377.113 694.756C377.115 694.765 377.121 694.786 377.125 694.803C377.13 694.82 377.135 694.843 377.138 694.853C377.14 694.863 377.145 694.878 377.149 694.885C377.153 694.892 377.158 694.91 377.16 694.924C377.162 694.938 377.17 694.962 377.177 694.978C377.184 694.993 377.188 695.007 377.188 695.008C377.188 695.009 377.188 695.012 377.189 695.014C377.189 695.016 377.191 695.021 377.192 695.026C377.193 695.03 377.195 695.036 377.196 695.038C377.197 695.04 377.199 695.045 377.2 695.049C377.201 695.053 377.203 695.059 377.204 695.061C377.205 695.063 377.207 695.068 377.208 695.073C377.209 695.077 377.211 695.083 377.212 695.084C377.213 695.086 377.215 695.091 377.216 695.096C377.217 695.1 377.219 695.106 377.22 695.108C377.221 695.11 377.223 695.115 377.223 695.118C377.228 695.14 377.254 695.211 377.26 695.217C377.264 695.221 377.267 695.229 377.267 695.235C377.267 695.241 377.273 695.259 377.279 695.275C377.286 695.29 377.294 695.31 377.298 695.319C377.308 695.346 377.323 695.381 377.33 695.395C377.334 695.402 377.337 695.412 377.337 695.416C377.337 695.424 377.355 695.465 377.436 695.643C377.475 695.729 377.602 695.978 377.641 696.045C377.654 696.067 377.668 696.094 377.673 696.106C377.678 696.118 377.685 696.127 377.689 696.127C377.693 696.127 377.699 696.14 377.704 696.155C377.709 696.17 377.716 696.182 377.72 696.182C377.723 696.182 377.729 696.191 377.731 696.202C377.734 696.212 377.739 696.221 377.744 696.221C377.748 696.221 377.752 696.226 377.752 696.232C377.752 696.238 377.756 696.248 377.762 696.254C377.773 696.267 377.789 696.291 377.796 696.307C377.799 696.313 377.803 696.321 377.806 696.323C377.808 696.325 377.817 696.34 377.826 696.356C377.834 696.372 377.843 696.385 377.847 696.385C377.851 696.385 377.854 696.39 377.854 696.397C377.854 696.403 377.858 696.409 377.862 696.409C377.866 696.409 377.87 696.414 377.87 696.42C377.87 696.426 377.874 696.432 377.878 696.432C377.882 696.432 377.886 696.437 377.886 696.444C377.886 696.45 377.89 696.455 377.894 696.455C377.898 696.455 377.902 696.46 377.902 696.467C377.902 696.473 377.906 696.479 377.91 696.479C377.914 696.479 377.918 696.484 377.918 696.49C377.918 696.496 377.922 696.502 377.926 696.502C377.93 696.502 377.934 696.507 377.934 696.514C377.934 696.52 377.937 696.526 377.941 696.526C377.945 696.526 377.95 696.532 377.953 696.54C377.955 696.548 377.963 696.561 377.971 696.569C377.978 696.577 377.989 696.593 377.995 696.605C378.001 696.616 378.013 696.633 378.022 696.644C378.031 696.654 378.051 696.681 378.067 696.703C378.082 696.726 378.097 696.744 378.1 696.744C378.103 696.744 378.106 696.749 378.106 696.756C378.106 696.763 378.111 696.77 378.117 696.773C378.123 696.775 378.129 696.782 378.129 696.786C378.129 696.791 378.139 696.806 378.151 696.82C378.163 696.834 378.186 696.865 378.203 696.889C378.22 696.912 378.236 696.932 378.24 696.932C378.244 696.932 378.246 696.937 378.246 696.942C378.246 696.947 378.252 696.957 378.26 696.964C378.273 696.977 378.286 696.994 378.308 697.026C378.314 697.036 378.327 697.051 378.336 697.061C378.345 697.071 378.357 697.087 378.363 697.096C378.369 697.106 378.382 697.122 378.39 697.132C378.399 697.142 378.413 697.159 378.421 697.17C378.429 697.181 378.442 697.198 378.448 697.206C378.455 697.214 378.468 697.23 378.476 697.241C378.485 697.252 378.499 697.27 378.508 697.28C378.517 697.29 378.532 697.309 378.543 697.323C378.554 697.337 378.567 697.354 378.574 697.362C378.58 697.37 378.594 697.387 378.605 697.401C378.616 697.415 378.632 697.434 378.64 697.444C378.649 697.454 378.665 697.473 378.676 697.487C378.686 697.501 378.702 697.52 378.711 697.53C378.72 697.54 378.735 697.559 378.746 697.573C378.757 697.587 378.774 697.609 378.785 697.621C378.796 697.634 378.812 697.653 378.822 697.665C378.831 697.676 378.85 697.699 378.865 697.716C378.916 697.774 378.922 697.782 378.945 697.811C378.958 697.828 378.977 697.851 378.988 697.863C378.999 697.874 379.018 697.897 379.031 697.913C379.044 697.929 379.063 697.952 379.074 697.964C379.085 697.976 379.106 698.001 379.121 698.019C379.136 698.037 379.157 698.062 379.168 698.074C379.179 698.086 379.2 698.11 379.215 698.128C379.23 698.146 379.251 698.171 379.262 698.183C379.273 698.195 379.295 698.221 379.313 698.241C379.33 698.262 379.356 698.292 379.371 698.309C379.386 698.326 379.411 698.354 379.426 698.372C379.441 698.389 379.464 698.415 379.477 698.429C379.49 698.443 379.516 698.473 379.535 698.496C379.555 698.518 379.581 698.548 379.594 698.562C379.607 698.576 379.633 698.606 379.653 698.628C379.672 698.65 379.7 698.682 379.715 698.698C379.73 698.715 379.758 698.746 379.778 698.769C379.81 698.806 379.827 698.825 379.914 698.922C379.931 698.942 379.96 698.973 379.977 698.991C379.994 699.01 380.027 699.047 380.051 699.073C380.075 699.1 380.11 699.139 380.129 699.161C380.148 699.182 380.182 699.219 380.203 699.243C380.225 699.266 380.259 699.303 380.279 699.324C380.3 699.345 380.317 699.364 380.317 699.368C380.317 699.371 380.329 699.386 380.344 699.4C380.358 699.415 380.369 699.43 380.367 699.433C380.365 699.437 380.337 699.44 380.307 699.44C380.253 699.44 380.25 699.439 380.219 699.411L380.188 699.382L380.215 699.411L380.241 699.44H373.599H366.957L366.956 694.297ZM380.19 699.373C380.19 699.372 380.177 699.359 380.161 699.344L380.132 699.317L380.159 699.347C380.184 699.374 380.19 699.379 380.19 699.373ZM379.946 699.096C378.775 697.759 378.021 696.788 377.505 695.954C377.118 695.329 376.893 694.815 376.784 694.303C376.772 694.247 376.762 694.206 376.761 694.214C376.76 694.236 376.798 694.411 376.828 694.518C377.104 695.528 377.963 696.817 379.701 698.825C379.945 699.106 380.127 699.313 380.132 699.313C380.134 699.313 380.05 699.216 379.946 699.096ZM376.757 694.146C376.754 694.121 376.75 694.103 376.748 694.105C376.746 694.107 376.747 694.129 376.75 694.153C376.753 694.177 376.757 694.195 376.759 694.193C376.761 694.191 376.76 694.17 376.757 694.146ZM376.743 694.054C376.741 694.044 376.74 694.05 376.739 694.067C376.739 694.085 376.74 694.092 376.742 694.085C376.744 694.078 376.745 694.063 376.743 694.054ZM376.735 693.96C376.733 693.946 376.732 693.956 376.732 693.981C376.732 694.007 376.733 694.019 376.735 694.007C376.737 693.995 376.737 693.974 376.735 693.96ZM376.727 693.667C376.726 693.617 376.725 693.656 376.725 693.755C376.725 693.853 376.726 693.895 376.727 693.847C376.728 693.799 376.728 693.718 376.727 693.667ZM376.735 693.507C376.733 693.493 376.732 693.503 376.732 693.528C376.732 693.554 376.733 693.565 376.735 693.554C376.737 693.542 376.737 693.521 376.735 693.507ZM376.743 693.432C376.741 693.424 376.739 693.431 376.739 693.446C376.739 693.461 376.741 693.467 376.743 693.46C376.745 693.452 376.745 693.44 376.743 693.432ZM376.816 693.077C376.833 693.007 376.87 692.883 376.897 692.802C376.959 692.618 376.959 692.617 376.945 692.645C376.924 692.687 376.839 692.95 376.811 693.059C376.781 693.177 376.745 693.365 376.746 693.398C376.746 693.409 376.755 693.37 376.765 693.311C376.775 693.252 376.798 693.147 376.816 693.077ZM376.991 692.544C377.006 692.506 377.017 692.473 377.016 692.472C377.013 692.469 376.956 692.606 376.956 692.615C376.956 692.627 376.963 692.611 376.991 692.544ZM377.063 692.363C377.06 692.36 377.018 692.452 377.019 692.46C377.02 692.463 377.03 692.443 377.043 692.416C377.055 692.388 377.064 692.364 377.063 692.363ZM377.096 692.294C377.096 692.29 377.089 692.299 377.081 692.313C377.073 692.328 377.066 692.344 377.066 692.348C377.066 692.352 377.073 692.344 377.081 692.329C377.089 692.314 377.096 692.298 377.096 692.294ZM377.135 692.208C377.135 692.204 377.127 692.216 377.116 692.235C377.106 692.254 377.098 692.274 377.098 692.278C377.098 692.282 377.106 692.27 377.116 692.251C377.127 692.232 377.135 692.212 377.135 692.208ZM377.383 691.71C377.397 691.692 377.451 691.59 377.442 691.599C377.419 691.621 377.135 692.174 377.136 692.195C377.136 692.198 377.19 692.092 377.256 691.96C377.322 691.828 377.379 691.716 377.383 691.71ZM377.526 691.472C377.873 690.913 378.356 690.418 378.925 690.035C379.197 689.853 379.54 689.669 379.843 689.544C379.912 689.516 379.975 689.489 379.983 689.485C380.026 689.464 379.95 689.492 379.839 689.537C379.675 689.605 379.388 689.747 379.226 689.84C378.605 690.197 378.071 690.678 377.668 691.246C377.584 691.364 377.442 691.587 377.451 691.587C377.453 691.587 377.486 691.535 377.526 691.472ZM380.173 689.418C380.252 689.391 380.32 689.368 380.325 689.367C380.331 689.367 380.332 689.365 380.326 689.363C380.317 689.359 380.076 689.442 380.026 689.465C379.989 689.482 380.007 689.477 380.173 689.418ZM380.398 689.345C380.419 689.337 380.431 689.33 380.425 689.33C380.419 689.33 380.396 689.336 380.374 689.345C380.353 689.353 380.34 689.359 380.347 689.359C380.353 689.359 380.376 689.353 380.398 689.345ZM380.579 689.294C380.64 689.277 380.689 689.263 380.687 689.261C380.683 689.257 380.48 689.31 380.454 689.322C380.429 689.333 380.446 689.329 380.579 689.294ZM380.788 689.24C380.827 689.229 380.853 689.221 380.847 689.221C380.841 689.22 380.803 689.229 380.765 689.239C380.726 689.249 380.7 689.258 380.706 689.258C380.712 689.258 380.75 689.25 380.788 689.24ZM380.929 689.208C380.95 689.202 380.961 689.198 380.952 689.198C380.943 689.198 380.919 689.202 380.897 689.208C380.876 689.214 380.865 689.218 380.874 689.218C380.883 689.218 380.907 689.214 380.929 689.208ZM380.993 689.191C380.99 689.188 380.984 689.188 380.978 689.191C380.972 689.193 380.974 689.195 380.983 689.196C380.991 689.196 380.996 689.193 380.993 689.191Z" fill="#32292F"/>
<path d="M497.043 722.085C496.033 722.031 495.44 721.945 494.552 721.722C492.058 721.095 489.504 719.983 487.192 718.516C486.132 717.843 485.053 717.027 484.209 716.258C483.824 715.908 483.133 715.204 482.848 714.873C480.868 712.571 478.441 707.659 477.642 704.338C477.433 703.47 477.256 702.274 477.156 701.055C477.127 700.705 477.113 700.296 477.137 700.488C477.142 700.524 477.17 700.773 477.201 701.04C477.511 703.752 478.371 706.804 479.553 709.393C481.08 712.734 483.24 715.486 485.961 717.56C487.459 718.701 489.151 719.656 491.031 720.419C493.402 721.383 495.786 721.934 498.236 722.085C498.492 722.101 498.461 722.103 497.949 722.103C497.633 722.103 497.225 722.095 497.043 722.085Z" fill="#32292F"/>
<path d="M563.663 710.241C563.363 709.766 548.253 684.852 548.253 684.833C548.253 684.82 548.292 684.817 548.34 684.825C548.403 684.835 548.963 685.72 550.334 687.977C559.846 703.63 562.494 707.842 563.691 709.224C563.937 709.507 564.261 709.742 564.406 709.742C564.458 709.742 564.768 709.58 565.094 709.382C565.421 709.184 566.99 708.236 568.582 707.275C572.677 704.804 574.283 703.794 574.283 703.692C574.283 703.627 569.259 695.273 564.633 687.645C563.382 685.584 562.949 684.835 563 684.824C563.038 684.816 563.093 684.835 563.123 684.868C563.153 684.901 565.481 688.726 568.297 693.368C571.112 698.011 573.689 702.26 574.024 702.811L574.631 703.812L569.257 707.076C566.302 708.87 563.857 710.354 563.826 710.373C563.787 710.397 563.734 710.354 563.663 710.241Z" fill="#32292F"/>
<path d="M583.749 668.125C580.093 666.448 575.657 664.365 569.639 661.498C567.448 660.455 566.129 659.824 561.694 657.698C560.048 656.909 557.897 655.879 556.913 655.409L555.124 654.555L555.119 654.449C555.115 654.366 555.119 654.344 555.134 654.351C555.149 654.357 582.432 667.457 584.201 668.308C584.296 668.354 584.363 668.391 584.35 668.391C584.337 668.39 584.067 668.271 583.749 668.125Z" fill="#32292F"/>
<path d="M615.757 659.217C615.758 659.212 616.101 658.056 616.518 656.648L617.277 654.087L617.332 654.086L617.387 654.085L617.342 654.231C617.267 654.476 617.097 655.039 616.992 655.388C616.685 656.412 615.853 659.212 615.853 659.222C615.853 659.225 615.838 659.227 615.804 659.227C615.754 659.227 615.754 659.226 615.757 659.217Z" fill="#32292F"/>
<path d="M676.647 599.595C676.647 599.588 676.847 599.382 677.092 599.138C677.634 598.597 677.99 598.213 678.416 597.71C679.947 595.903 681.187 593.921 682.057 591.893C682.946 589.821 683.479 587.632 683.636 585.41C683.655 585.152 683.658 585.131 683.677 585.131C683.695 585.131 683.697 585.137 683.691 585.184C683.688 585.213 683.682 585.286 683.679 585.347C683.662 585.637 683.612 586.146 683.563 586.54C683.118 590.075 681.753 593.403 679.525 596.384C678.824 597.322 678.105 598.153 677.243 599.023C676.84 599.431 676.647 599.616 676.647 599.595Z" fill="#32292F"/>
<path d="M692.004 599.436C692.511 598.52 692.965 597.603 693.379 596.658C694.85 593.302 695.711 589.759 695.965 586.021C695.979 585.815 696.015 585.189 696.015 585.145C696.015 585.135 696.038 585.131 696.093 585.131H696.17V585.173C696.17 585.275 696.128 585.943 696.098 586.319C695.73 590.904 694.413 595.259 692.134 599.425L691.999 599.671H691.937H691.874L692.004 599.436Z" fill="#32292F"/>
<path d="M402.911 594.63C385.191 592.921 369.485 582.108 361.354 566.021C353.741 550.958 353.963 532.973 361.95 517.924C365.992 510.306 371.738 503.991 379.063 499.113C385.556 494.789 391.942 492.253 399.697 490.918C403.686 490.231 412.915 490.233 416.67 490.921C431.506 493.64 443.496 501.387 451.618 513.501C459.203 524.813 462.101 538.9 459.579 552.194C458.059 560.206 454.85 567.503 450.024 573.915C438.973 588.601 421.241 596.398 402.911 594.63ZM417.098 585.305C425.316 583.515 432.402 579.702 438.513 573.782C444.976 567.52 449.031 560.162 450.955 551.2C451.475 548.78 451.577 547.37 451.582 542.6C451.586 536.416 451.198 533.725 449.592 528.877C448.746 526.322 446.359 521.062 446.045 521.062C445.931 521.062 445.899 521.607 445.974 522.274C446.334 525.489 444.13 532.503 441.501 536.507C439.695 539.258 437.026 541.733 434.648 542.86C433.819 543.222 433.314 543.56 432.747 543.696C431.711 543.944 431.362 544 429.989 543.975C428.156 543.941 428.122 544.103 425.171 542.805C421.9 541.196 419.446 537.757 418.651 533.666C417.902 529.82 418.973 524.873 421.693 519.605C425.136 512.941 429.448 509.602 434.628 509.592L436.754 509.588L435.77 508.758C432.467 505.973 426.449 502.647 422.233 501.277C414.685 498.824 406.409 498.308 399.142 499.837C386.225 502.554 374.887 511.358 369.05 523.202C365.735 529.929 364.629 534.815 364.627 542.743C364.625 548.697 364.98 551.069 366.631 556.107C367.608 559.092 370.335 564.995 370.736 564.995C370.849 564.995 371.184 564.452 371.483 563.789C371.781 563.126 372.569 561.845 373.233 560.941L374.442 559.299L372.771 559.473C371.312 559.626 371.023 559.571 370.493 559.041C369.33 557.877 369.658 556.895 371.918 554.776C374.02 552.806 378.444 547.522 378.444 546.982C378.444 546.814 378.283 546.738 378.086 546.813C376.531 547.41 372.047 548.734 371.581 548.734C370.77 548.734 369.6 547.478 369.6 546.607C369.6 546.208 369.851 545.631 370.157 545.324C370.478 545.004 373.347 543.916 376.91 542.764C382.375 540.998 383.191 540.803 383.831 541.111C385.027 541.686 385.463 542.753 385.056 544.112C384.639 545.503 381.843 549.819 379.502 552.685C378.16 554.328 377.876 554.837 378.188 555.034C378.771 555.404 378.759 555.408 380.898 553.995C381.98 553.28 384.406 551.921 386.289 550.975C388.171 550.028 389.706 549.169 389.7 549.065C389.692 548.962 389.388 547.935 389.023 546.785C388.441 544.953 388.376 544.296 388.498 541.507C388.615 538.854 388.793 537.892 389.565 535.754C391.419 530.613 393.586 527.009 396.376 524.426C401.385 519.788 407.89 519.785 412.124 524.419C416.795 529.529 417.017 536.98 412.75 545.454C409.369 552.166 404.77 555.519 399.321 555.244C396.89 555.121 394.124 554.076 392.964 552.841C392.327 552.163 392.312 552.161 391.729 552.701C391.404 553.001 389.573 554.039 387.661 555.006C385.748 555.974 384.035 556.944 383.854 557.162C383.6 557.468 383.65 557.738 384.076 558.352C385.802 560.842 385.865 565.032 384.226 568.418C383.318 570.297 381.347 572.477 379.666 573.462C378.994 573.856 378.444 574.283 378.444 574.412C378.444 575.171 384.704 579.666 388.244 581.449C392.429 583.557 397.663 585.203 402.121 585.814C405.276 586.247 414.163 585.944 417.098 585.305ZM377.285 569.997C379.909 568.341 381.553 565.16 381.183 562.458C381.08 561.71 380.754 560.905 380.419 560.576L379.834 560.001L378.004 561.923C375.155 564.915 373.55 568.732 374.441 570.396C374.847 571.156 375.621 571.048 377.285 569.997ZM402.497 549.168C405.726 547.633 409.235 541.797 410.175 536.396C411.314 529.854 406.821 524.709 402.006 527.039C398.483 528.745 394.285 536.244 393.92 541.481C393.498 547.554 397.793 551.403 402.497 549.168ZM432.583 537.728C435.311 536.368 437.77 532.945 439.387 528.257C440.989 523.609 440.659 519.675 438.449 517.094C437.193 515.627 436.15 515.071 434.647 515.071C431.614 515.071 428.856 517.545 426.363 522.502C422.791 529.605 423.272 535.73 427.569 537.856C429.209 538.668 430.777 538.628 432.583 537.728Z" fill="#F7F7FF"/>
</svg>
