<?xml version="1.0" encoding="UTF-8" standalone="no"?>
<svg
   sodipodi:docname="cusec.svg"
   inkscape:version="1.1 (c68e22c387, 2021-05-23)"
   id="svg8"
   version="1.1"
   viewBox="0 0 97.551919 97.551918"
   height="97.551918mm"
   width="97.551918mm"
   xmlns:inkscape="http://www.inkscape.org/namespaces/inkscape"
   xmlns:sodipodi="http://sodipodi.sourceforge.net/DTD/sodipodi-0.dtd"
   xmlns="http://www.w3.org/2000/svg"
   xmlns:svg="http://www.w3.org/2000/svg"
   xmlns:rdf="http://www.w3.org/1999/02/22-rdf-syntax-ns#"
   xmlns:cc="http://creativecommons.org/ns#"
   xmlns:dc="http://purl.org/dc/elements/1.1/">
  <defs
     id="defs2">
    <inkscape:path-effect
       lpeversion="1"
       is_visible="true"
       id="path-effect994"
       effect="spiro" />
    <inkscape:path-effect
       effect="spiro"
       id="path-effect888"
       is_visible="true"
       lpeversion="1" />
    <inkscape:path-effect
       effect="spiro"
       id="path-effect879"
       is_visible="true"
       lpeversion="1" />
    <inkscape:path-effect
       effect="spiro"
       id="path-effect870"
       is_visible="true"
       lpeversion="1" />
    <inkscape:path-effect
       lpeversion="1"
       is_visible="true"
       id="path-effect851"
       effect="spiro" />
    <filter
       height="1.0000033"
       y="-1.6666666e-06"
       width="1.0000019"
       x="-9.3750003e-07"
       id="filter987"
       style="color-interpolation-filters:sRGB"
       inkscape:collect="always">
      <feGaussianBlur
         id="feGaussianBlur989"
         stdDeviation="0.00013229166"
         inkscape:collect="always" />
    </filter>
    <filter
       height="0.96847351"
       y="-0.00044824727"
       width="0.88411681"
       x="0.057790351"
       id="filter3058"
       style="color-interpolation-filters:sRGB"
       inkscape:collect="always">
      <feGaussianBlur
         id="feGaussianBlur3060"
         stdDeviation="0.0076460383"
         inkscape:collect="always" />
    </filter>
    <clipPath
       id="clipPath3085"
       clipPathUnits="userSpaceOnUse">
      <circle
         r="39.077675"
         cy="48.369629"
         cx="40.672626"
         id="circle3087"
         style="fill:#f7f7ff;fill-opacity:1;stroke:#f7f7ff;stroke-width:0.119516;stroke-miterlimit:4;stroke-dasharray:none;stroke-opacity:1" />
    </clipPath>
  </defs>
  <sodipodi:namedview
     inkscape:guide-bbox="true"
     showguides="true"
     inkscape:document-rotation="0"
     inkscape:window-maximized="1"
     inkscape:window-y="-9"
     inkscape:window-x="-9"
     inkscape:window-height="1001"
     inkscape:window-width="1920"
     borderlayer="true"
     inkscape:showpageshadow="false"
     fit-margin-bottom="0"
     fit-margin-right="0"
     fit-margin-left="0"
     fit-margin-top="0"
     showgrid="false"
     inkscape:current-layer="layer4"
     inkscape:document-units="px"
     inkscape:cy="180.54732"
     inkscape:cx="140.02332"
     inkscape:zoom="2.8995169"
     inkscape:pageshadow="2"
     inkscape:pageopacity="0"
     borderopacity="1.0"
     bordercolor="#666666"
     pagecolor="#474747"
     id="base"
     inkscape:pagecheckerboard="1" />
  <metadata
     id="metadata5">
    <rdf:RDF>
      <cc:Work
         rdf:about="">
        <dc:format>image/svg+xml</dc:format>
        <dc:type
           rdf:resource="http://purl.org/dc/dcmitype/StillImage" />
        <dc:title />
      </cc:Work>
    </rdf:RDF>
  </metadata>
  <g
     style="display:none;filter:url(#filter987)"
     transform="translate(-32.769823,-27.693834)"
     id="layer1"
     inkscape:groupmode="layer"
     inkscape:label="Background">
    <path
       inkscape:connector-curvature="0"
       id="rect5735"
       d="M -146.84374,-4.3604197 H 191.82291 V 186.13958 h -338.66665 z"
       style="opacity:1;fill:#ffffff;fill-opacity:1;fill-rule:nonzero;stroke:none;stroke-width:3.43958;stroke-linecap:round;stroke-linejoin:round;stroke-miterlimit:4;stroke-dasharray:none;stroke-dashoffset:0;stroke-opacity:1" />
    <rect
       y="45.685799"
       x="68.799332"
       height="2.7361717"
       width="6.7351923"
       id="rect996"
       style="fill:#f7f7ff;fill-opacity:1;stroke:#f7f7ff;stroke-width:3.175;stroke-miterlimit:4;stroke-dasharray:none;stroke-opacity:1" />
  </g>
  <g
     transform="translate(-179.61356,-32.054254)"
     style="display:inline"
     inkscape:label="Layer 3"
     id="layer4"
     inkscape:groupmode="layer">
    <circle
       r="47.897812"
       cy="80.830215"
       cx="228.38953"
       id="path903"
       style="fill:#00b1fc;fill-opacity:1;stroke:#00b1fc;stroke-width:1.7563;stroke-miterlimit:4;stroke-dasharray:none;stroke-opacity:1" />
  </g>
  <g
     transform="translate(-0.71553449,2.5421814e-5)"
     style="filter:url(#filter3058)"
     inkscape:label="Layer 6"
     id="layer9"
     inkscape:groupmode="layer">
    <g
       clip-path="url(#clipPath3085)"
       transform="matrix(1.1416889,0,0,1.1416889,3.0560107,-6.4471335)"
       id="g3081">
      <path
         style="fill:none;stroke:#f7f7ff;stroke-width:0.15875;stroke-linecap:butt;stroke-linejoin:miter;stroke-miterlimit:4;stroke-dasharray:none;stroke-opacity:1"
         d="m 84.903856,62.848698 -88.4357081,-0.107304 3.69103417,-1.8841 c -0.66447822,-0.404328 -0.97277436,-1.010031 0.24266001,-1.199566 -0.54344804,-0.356304 -0.53412259,-0.980605 0.1187663,-0.971893"
         id="path2875"
         sodipodi:nodetypes="ccccc" />
      <path
         style="fill:none;stroke:#f7f7ff;stroke-width:0.15875;stroke-linecap:butt;stroke-linejoin:miter;stroke-miterlimit:4;stroke-dasharray:none;stroke-opacity:1"
         d="M 0.52060839,58.685836 H 2.4188704 v -2.908451 c -0.8883612,-0.11544 -0.4835926,-0.741488 0,-0.659463 h 1.479931 C 3.7678932,54.404714 3.6252321,53.687475 4.2695761,53.240175 4.5320098,51.738397 4.4373796,50.058308 6.5743523,49.492635"
         id="path2877"
         sodipodi:nodetypes="ccccccc" />
      <path
         style="fill:none;stroke:#f7f7ff;stroke-width:0.105833;stroke-linecap:butt;stroke-linejoin:miter;stroke-miterlimit:4;stroke-dasharray:none;stroke-opacity:1"
         d="M 6.4794761,49.606485 C 6.350346,49.163569 6.2678919,48.594042 6.6934002,48.297942 l 0.2792027,-1.099184 0.2492069,1.074705 c 0.5053396,0.297222 0.3457691,0.826402 0.3634268,1.199309"
         id="path2879"
         sodipodi:nodetypes="ccccc" />
      <path
         style="fill:none;stroke:#f7f7ff;stroke-width:0.105833;stroke-linecap:butt;stroke-linejoin:miter;stroke-miterlimit:4;stroke-dasharray:none;stroke-opacity:1"
         d="M 7.5852366,49.472772 Z"
         id="path2881" />
      <path
         style="fill:none;stroke:#f7f7ff;stroke-width:0.105833;stroke-linecap:butt;stroke-linejoin:miter;stroke-miterlimit:4;stroke-dasharray:none;stroke-opacity:1"
         d="m 7.5852366,49.472772 c 1.9519285,0.480038 2.1322634,2.243292 2.3083004,3.788865 0.69415,0.343088 0.474829,1.211306 0.489203,1.824446 h 1.432315 c 0.520297,0 0.122482,0.554793 -0.174657,0.49309 v 3.111861 l 1.992054,-8.52e-4 v 0 c 0.275167,-0.04345 0.457046,0.583936 -0.06293,0.981427 0.336696,0.140669 1.345924,0.313659 0.719249,0.815098 v 0.356185 h 0.507389"
         id="path2883"
         sodipodi:nodetypes="cccscccscccc" />
      <path
         style="fill:none;stroke:#f7f7ff;stroke-width:0.264583px;stroke-linecap:butt;stroke-linejoin:miter;stroke-opacity:1"
         d="m 27.493553,61.224834 h 0.768284 V 46.975015 h 0.439019 v 1.115839 h 0.987792 v -1.225595 h 0.493896 v 6.655767"
         id="path2889"
         sodipodi:nodetypes="ccccccccc" />
      <path
         style="fill:none;stroke:#f7f7ff;stroke-width:0.264583px;stroke-linecap:butt;stroke-linejoin:miter;stroke-opacity:1"
         d="M 36.798582,59.548341 V 47.006262 h -0.59421 v 1.06109 h -1.018646 v -1.167198 h -0.488101 v 6.64242 c -1.209778,-0.361486 -2.580401,-0.54814 -4.627035,0"
         id="path2891"
         sodipodi:nodetypes="ccccccccc" />
      <path
         style="fill:none;stroke:#f7f7ff;stroke-width:0.264583px;stroke-linecap:butt;stroke-linejoin:miter;stroke-opacity:1"
         d="m 32.438788,52.692375 v 0.523206"
         id="path2895" />
      <path
         style="fill:none;stroke:#f7f7ff;stroke-width:0.132292;stroke-linecap:butt;stroke-linejoin:miter;stroke-miterlimit:4;stroke-dasharray:none;stroke-opacity:1"
         d="m 14.79616,60.842892 c 0,0 0.324715,-0.770628 -0.04698,-0.952522 -0.371695,-0.181895 -0.593131,-0.213529 -0.529864,-0.569407 0.06327,-0.355878 0.164903,-0.802819 -0.325418,-0.913537 -0.490321,-0.110717 -1.407541,-0.04792 -1.407541,-0.04792 l -0.08386,-5.018909 h 0.608282 v -1.051886 h 1.643159 v 0.701705 h 0.847893 v -1.210441 h 0.555516 v 0.836198 h 1.196083 v -0.443601 h 0.08745 v 0.424777 h 1.457688 v -0.320257 h 1.809252 v -1.726098 h -0.241704 c 0.213378,-0.978341 0.451901,-1.180361 0.80066,-1.598219 l 0.176512,-1.706286 0.279478,1.706286 c 0.395365,0.470125 0.603906,1.088861 0.660131,1.598219 H 22.0581 v 1.8171 h 0.702488 v -0.15923 h 0.505791 v -0.121765 h 0.599456 v 0.56199 h 2.772483 v -0.899184 h 0.693121 v 1.142713 h 0.458959"
         id="path2899"
         sodipodi:nodetypes="cssscccccccccccccccccccccccccccccccccccc" />
      <path
         style="fill:none;stroke:#f7f7ff;stroke-width:0.079375;stroke-linecap:butt;stroke-linejoin:miter;stroke-miterlimit:4;stroke-dasharray:none;stroke-opacity:1"
         d="m 21.191988,52.061757 h 0.355847 v -1.194631 h -0.362201 v 1.194631 h 0.03177 z"
         id="path2903" />
      <path
         style="fill:none;stroke:#f7f7ff;stroke-width:0.15875;stroke-linecap:butt;stroke-linejoin:miter;stroke-miterlimit:4;stroke-dasharray:none;stroke-opacity:1"
         d="m 27.790397,52.892617 v 0.6237 h -0.293063 v 0.879229 h 0.334574 v 0.599123 h -0.342355 v 0.482409 h 0.420163 v 0.521314 h -0.28789 v 0.622461 h 0.194522 v 0.389041 h -0.178959 l -0.01631,4.349967"
         id="path2905"
         sodipodi:nodetypes="cccccccccccccccc" />
      <path
         style="fill:none;stroke:#f7f7ff;stroke-width:0.132292;stroke-linecap:butt;stroke-linejoin:miter;stroke-miterlimit:4;stroke-dasharray:none;stroke-opacity:1"
         d="m 36.798582,59.548341 0.808974,0.467061 v -7.128333 h 0.872969 L 38.084883,52.491424 V 38.886533 l 0.667922,-0.178969 -1.665772,-0.961732 c 0,0 -0.674002,-0.32589 0.01551,-0.32589 0.689514,0 7.245392,0 7.245392,0 v -3.506345 h 0.362784 v 3.575441 h 0.566406 v 1.274416 l 0.521986,0.139867 v 5.6481 h 2.186147 v 11.863613"
         id="path2924" />
      <path
         style="fill:none;stroke:#f7f7ff;stroke-width:0.0529167;stroke-linecap:butt;stroke-linejoin:miter;stroke-miterlimit:4;stroke-dasharray:none;stroke-opacity:1"
         d="m 47.985258,56.415034 c -2.112375,1.843487 -4.556402,3.456361 -7.467682,4.744331 16.412591,-6.165642 13.219913,-15.689442 13.20658,-16.154471 0,0 -1.112985,-1.007154 -0.04946,-1.051468 1.063524,-0.04431 1.65148,0 1.65148,0 v 0.226314 h 4.152231 v 0.147635 h 1.070353 v 0.387541 c -2.90443,4.461437 -2.548547,9.778954 -2.612202,11.813836 8.746751,-4.268612 13.681494,-3.016715 17.764502,-0.531346 2.323653,0.03803 4.140275,0.611788 4.784994,2.423785 0.400388,0.398312 0.871608,0.776386 -0.02414,1.545023 l 0.313833,1.327754 4.128109,1.55473"
         id="path2958"
         sodipodi:nodetypes="cccscccccccccccc" />
      <path
         style="fill:#f7f7ff;fill-opacity:1;stroke:#f7f7ff;stroke-width:0.05756;stroke-miterlimit:4;stroke-dasharray:none;stroke-opacity:1"
         d="m 168.24424,127.83093 c -1.09098,0.40915 -0.62247,1.90065 -0.78771,2.8015 -0.0669,3.50977 -0.0677,7.02043 -0.10192,10.5306 -9.22396,0.0625 -18.44793,0.12511 -27.67188,0.18775 -1.4878,0.65065 0.4703,1.64932 1.19705,1.98515 1.63725,0.95463 3.28911,1.88566 4.89433,2.89396 -0.86288,0.2765 -2.45087,0.26077 -2.11952,1.58739 v 50.33837 c 0.64638,1.0714 1.74102,1.70369 -0.22072,1.42664 -1.36729,-0.41295 -1.75525,0.84815 -1.50834,1.94076 -0.0302,8.283 -0.0601,16.56599 -0.0899,24.84898 -0.82486,-0.55921 -1.91132,-0.94038 -2.56846,-1.63349 -0.31255,-8.03521 -0.10102,-16.14897 -0.16863,-24.21491 v -22.21418 c -0.22955,-0.91213 -2.12064,-0.89117 -2.35112,-0.004 v 3.43373 h -3.78862 c -0.17422,-1.37074 0.35622,-2.97721 -0.37361,-4.21506 -0.82474,-0.66883 -1.44601,0.50452 -1.30382,1.24637 -0.22731,7.85122 0.0299,15.73076 -0.21275,23.56887 -3.66675,-1.12306 -7.52431,-1.43279 -11.334,-1.05639 -1.85912,0.0749 -3.74741,0.6452 -5.47644,0.79932 -0.24805,-7.96474 0.0559,-15.93956 -0.2106,-23.90163 0.16592,-1.08914 -1.51867,-1.46825 -1.75715,-0.38448 -0.2025,1.30077 -0.054,2.6313 -0.10193,3.943 h -3.78862 c -0.1206,-1.31001 0.25149,-2.77155 -0.31178,-3.99847 -0.77237,-0.68929 -1.33822,0.4743 -1.1388,1.16442 -0.24211,17.50761 -0.0878,35.01854 -0.13307,52.5275 -0.89483,-0.20562 -2.84231,0.63534 -2.339,-0.95894 0.12139,-4.93315 -0.22771,-9.91585 0.23773,-14.83136 0.79445,-0.38149 0.72286,-1.70835 -0.13555,-1.85768 0.13608,-0.70477 -0.46254,-1.99747 0.56886,-1.95651 0.99704,-0.45934 0.69173,-2.45693 -0.55462,-2.26568 -0.70318,0.4477 -0.92436,-2.06761 0.0817,-1.53868 0.90743,-0.37003 0.85698,-1.87561 0.27393,-2.50476 -1.15591,0.19699 -0.86067,-0.69152 -0.77046,-1.59489 -0.16264,-1.06642 -0.3132,-1.83947 0.79932,-1.617 0.57394,-0.67109 0.21584,-1.82457 0.34041,-2.63411 -1.56651,-0.0419 -2.72693,0.4722 -2.08658,-1.51933 -0.13153,-0.90764 0.0679,-2.5635 -0.61244,-2.79198 -1.03996,0.0773 -2.10514,-0.22705 -2.13489,1.36743 0.17965,1.27573 0.73367,2.89756 -1.343016,2.07411 -2.903876,-0.026 -5.80775,-0.0523 -8.711622,-0.0786 -0.04143,-0.91121 0.150861,-2.16688 -1.260249,-1.83627 -0.528811,-0.022 -1.229646,-0.36514 -1.483967,0.18705 -0.681282,0.005 -1.243001,0.23521 -1.661519,0.85122 -0.621802,-0.22399 -2.656293,0.2551 -2.655072,0 0.07041,-1.94557 -0.247984,-5.01575 0,-6.86778 1.187094,-0.36543 0.721959,-1.52288 0.58606,-2.32589 -0.567761,-2.01046 -3.419457,-3.74891 -2.408394,-5.3801 -0.700164,-1.49827 -0.3312,-7.21306 -1.145635,-1.7793 -0.902878,1.20759 0.778425,3.34072 -1.321518,4.20537 -1.055582,1.46145 -2.126188,3.16294 -2.145197,5.01285 0.259787,0.41663 1.708825,-0.3066 0.799681,1.18005 0.02604,1.76936 0.14836,3.84135 0.15363,5.61085 -2.233082,0.10976 -4.724236,-0.11976 -6.965251,-0.12804 0.596923,1.85075 -0.829618,1.29529 -2.095918,1.16881 h -7.817815 c -0.69135,-0.6955 -0.19888,-2.21709 -0.351099,-3.1589 -0.884227,0.38531 -2.272016,-0.29364 -2.079724,1.01387 -0.100271,1.16389 0.700888,3.32937 -0.304025,3.4881 -0.857046,0.87242 -3.383931,0.64637 -2.960443,-0.97297 0.359217,-1.26022 -0.678948,-1.71037 -1.941173,-1.33313 -1.596073,0.13989 -2.599935,0.35797 -4.322594,-0.20578 0.162375,1.33221 0.273587,2.95939 0.124817,4.14759 -0.02219,0.64551 -2.587666,-0.55554 -2.254964,0.86252 0.143011,5.92091 -0.181738,11.91484 0.152868,17.80704 0.619092,0.83417 2.022316,0.28683 2.948227,0.5175 1.079639,0.17352 2.650739,-0.13971 3.4521,0.85591 0.572279,1.27207 -0.409656,2.62996 0.390862,3.74331 0.55452,0.31581 1.427756,0.68243 1.868958,1.29983 0.266987,0.3736 0.520114,0.74556 0.377832,1.32477 -0.143936,0.57446 -0.477339,1.35929 -1.047632,1.68936 -0.714701,0.19836 -0.898813,-0.24497 -0.717251,-0.86115 0.380844,-0.61445 0.930963,-1.34388 0.16022,-2.00807 -0.807147,-0.6863 -1.706813,-1.0381 -2.66985,-1.43054 0.921046,-0.897 1.430881,-2.84314 0.262318,-3.70842 -2.553595,-0.46318 -5.196273,-0.13205 -7.78184,-0.23871 v -11.1545 c 0.887218,-0.13977 1.494113,-1.88924 1.088618,-2.16936 -1.883286,-0.52336 -3.925723,-0.18842 -5.865421,-0.29792 -0.08797,-2.16962 0.544295,-5.0633 -1.5458,-6.52571 -0.761862,-0.85246 -0.412237,-2.23965 -0.72662,-3.29584 -0.534598,-3.88455 -1.991362,-8.1617 -5.642827,-10.15731 -0.810604,-0.47134 -1.694836,-0.79307 -2.576707,-1.10173 -0.03702,-1.54038 0.05583,-3.34324 -1.299222,-4.3927 -0.680198,-0.98133 -0.326592,-2.59592 -1.288707,-3.26874 -1.126493,-0.008 -0.800078,1.62892 -1.185697,2.3941 -0.278968,1.32703 -1.662058,2.21637 -1.45324,3.68744 -0.04793,0.62021 0.155195,1.42275 0.286302,1.88943 -3.269787,1.01984 -6.084924,3.63328 -6.865603,7.03611 -0.781115,2.33359 -0.741167,4.87283 -1.524439,7.18488 -1.283175,1.19365 -1.782731,2.98042 -1.491746,4.68952 0.05978,0.68595 0.124169,1.37265 0.235618,2.05242 -2.166381,0.89804 -4.5295827,0.47692 -6.7235729,0.42982 -1.0460303,0.51903 -0.7315961,2.1233 0.3983477,2.31289 0.7876737,-0.0306 0.7535176,0.5986 0.7228727,1.21828 0.071294,3.17118 0.068934,6.44927 0.1060504,9.66078 -2.7114962,0.12285 -5.4846455,-0.257 -8.16107516,0.2552 -1.37349058,0.48524 -1.03486409,2.35571 -0.0884386,3.10322 0.88813626,0.5454 -0.46355466,0.3866 -0.8517827,0.70076 -1.02575614,0.32197 -2.13885504,1.52605 -1.31758374,2.58533 0.4238272,0.67195 1.00938212,1.23515 1.6645925,1.67996 -4.1108586,2.21158 -8.3802739,4.19595 -12.4365802,6.46188 -0.678589,1.28707 1.376825,0.99178 2.123751,0.98955 125.608605,149.16809 231.887815,115.94695 329.433805,0.37163 1.35567,-0.49273 -0.0864,-1.55407 -0.92228,-1.6062 -4.25599,-1.62039 -8.52191,-3.21424 -12.78419,-4.81796 -0.35983,-1.5367 -0.71969,-3.07338 -1.07963,-4.61005 1.20463,-1.07187 2.58943,-2.85291 1.4555,-4.46164 -1.13165,-1.28521 -1.97038,-2.77161 -2.78694,-4.27091 -2.8398,-4.44594 -8.32711,-6.11388 -13.31397,-6.56109 -1.79075,-0.22097 -3.78651,0.10282 -5.27574,-1.15105 -7.7189,-4.44915 -16.4204,-7.38927 -25.37623,-7.63044 -12.27739,-0.32222 -24.28979,3.3702 -35.40981,8.29834 -1.48278,0.6656 -2.95016,1.36632 -4.4471,2.00025 0.16236,-7.68265 0.11468,-15.43798 1.70729,-22.98665 1.35812,-7.11935 3.85878,-14.03071 7.65521,-20.20582 0.4551,-0.76003 1.06077,-2.52317 -0.26944,-2.63442 -1.10625,-0.10291 -2.39352,0.18844 -3.41162,-0.14277 -1.16358,-0.70687 -2.69436,-0.26075 -3.99622,-0.42166 -3.85416,-0.02 -7.70839,-0.008 -11.56259,-0.0112 0.17702,-1.47623 -1.65086,-0.89024 -2.53058,-0.96229 -1.84735,0.19573 -3.87093,-0.25838 -5.60613,0.50811 -1.25876,0.78906 -0.22318,2.28796 0.39796,3.1347 1.49403,1.57226 1.31398,3.88118 1.63185,5.87321 0.82911,8.49366 -1.42893,17.14367 -5.98745,24.32666 -7.06462,11.24342 -18.29421,19.11535 -29.97556,25.003 -1.36586,0.69008 -2.72608,1.34551 -4.11448,1.98836 6.48281,-3.69107 12.64889,-8.02791 18.2348,-12.94226 0.30791,-2.0795 0.0378,-4.30205 0.12894,-6.43514 v -38.35946 c -0.41774,-1.13158 -1.98032,-0.38571 -2.90237,-0.59995 h -5.34791 v -20.82802 c -0.17807,-1.24508 -2.58773,-0.20352 -2.11053,-1.72005 -0.1057,-1.30529 0.21898,-2.6958 -0.17425,-3.94414 -0.92957,-0.43298 -2.46299,0.32888 -1.93628,-1.32845 -0.0934,-3.95444 0.19168,-7.93807 -0.17838,-11.87624 -0.0846,-0.35485 -0.41875,-0.64901 -0.79894,-0.58834 z m -86.916291,64.52928 c 0.214235,0.51848 0.285003,3.78793 0.243658,4.22311 -0.642297,0.22015 -1.531899,0.32464 -1.539674,0.0577 -0.03098,-1.06376 -0.05506,-4.46822 0.08322,-4.46362 0.120835,0.004 -0.256932,-0.0944 0.261008,0.0863 0.419443,0.14631 0.234456,-0.0896 0.951789,0.0966 z"
         id="path2962"
         transform="scale(0.26458334)"
         sodipodi:nodetypes="cccccccccccccccccccccccccccccccccccccccccccccccccccccccccccccccccccccccaccccccccccccccccccccccccccccccccccccccccccccccccccccccccccccccccccccccccsssc" />
      <path
         style="fill:none;stroke:#f7f7ff;stroke-width:0.264583px;stroke-linecap:butt;stroke-linejoin:miter;stroke-opacity:1"
         d="m 61.244929,55.544994 -4.113356,-8.182639 5.553031,8.256091"
         id="path2964" />
      <path
         style="fill:none;stroke:#f7f7ff;stroke-width:0.264583px;stroke-linecap:butt;stroke-linejoin:miter;stroke-opacity:1"
         d="m 64.476851,55.868185 -7.345278,-8.50583 9.078764,7.96228"
         id="path2966" />
      <path
         style="fill:none;stroke:#f7f7ff;stroke-width:0.264583px;stroke-linecap:butt;stroke-linejoin:miter;stroke-opacity:1"
         d="M 57.131573,47.362355 67.650012,55.20711"
         id="path2968" />
      <path
         style="fill:none;stroke:#f7f7ff;stroke-width:0.264583px;stroke-linecap:butt;stroke-linejoin:miter;stroke-opacity:1"
         d="M 69.104377,55.045513 57.131573,47.362355 70.676266,54.810466"
         id="path2970" />
      <path
         style="fill:none;stroke:#f7f7ff;stroke-width:0.264583px;stroke-linecap:butt;stroke-linejoin:miter;stroke-opacity:1"
         d="m 57.131573,47.362355 15.909873,7.697851"
         id="path2972" />
    </g>
  </g>
  <g
     inkscape:label="Layer 4"
     id="layer10"
     inkscape:groupmode="layer">
    <text
       id="text3094"
       y="40.853516"
       x="6.7623577"
       style="font-style:normal;font-weight:normal;font-size:4.67745px;line-height:1.25;font-family:sans-serif;fill:#f7f7ff;fill-opacity:1;stroke:none;stroke-width:0.116937"
       xml:space="preserve"><tspan
         style="font-style:normal;font-variant:normal;font-weight:normal;font-stretch:normal;font-size:4.67745px;font-family:'A Love of Thunder';-inkscape-font-specification:'A Love of Thunder, Normal';font-variant-ligatures:normal;font-variant-caps:normal;font-variant-numeric:normal;font-variant-east-asian:normal;fill:#f7f7ff;fill-opacity:1;stroke-width:0.116937"
         y="40.853516"
         x="6.7623577"
         id="tspan3092"
         sodipodi:role="line">MONTREAL</tspan></text>
  </g>
</svg>
