<?xml version="1.0" encoding="UTF-8" standalone="no"?>
<svg
   sodipodi:docname="technical-workshop.svg"
   inkscape:version="1.1 (c68e22c387, 2021-05-23)"
   id="svg8"
   version="1.1"
   viewBox="0 0 40.778134 40.778133"
   height="40.778133mm"
   width="40.778133mm"
   xmlns:inkscape="http://www.inkscape.org/namespaces/inkscape"
   xmlns:sodipodi="http://sodipodi.sourceforge.net/DTD/sodipodi-0.dtd"
   xmlns="http://www.w3.org/2000/svg"
   xmlns:svg="http://www.w3.org/2000/svg"
   xmlns:rdf="http://www.w3.org/1999/02/22-rdf-syntax-ns#"
   xmlns:cc="http://creativecommons.org/ns#"
   xmlns:dc="http://purl.org/dc/elements/1.1/">
  <defs
     id="defs2" />
  <sodipodi:namedview
     inkscape:document-rotation="0"
     inkscape:window-maximized="1"
     inkscape:window-y="-9"
     inkscape:window-x="2391"
     inkscape:window-height="1271"
     inkscape:window-width="2400"
     borderlayer="true"
     inkscape:showpageshadow="false"
     fit-margin-bottom="0"
     fit-margin-right="0"
     fit-margin-left="0"
     fit-margin-top="0"
     showgrid="false"
     inkscape:current-layer="layer4"
     inkscape:document-units="px"
     inkscape:cy="91.407959"
     inkscape:cx="95.557319"
     inkscape:zoom="4.0970174"
     inkscape:pageshadow="2"
     inkscape:pageopacity="0"
     borderopacity="1.0"
     bordercolor="#666666"
     pagecolor="#474747"
     id="base"
     inkscape:pagecheckerboard="1"
     showguides="true"
     inkscape:guide-bbox="true" />
  <metadata
     id="metadata5">
    <rdf:RDF>
      <cc:Work
         rdf:about="">
        <dc:format>image/svg+xml</dc:format>
        <dc:type
           rdf:resource="http://purl.org/dc/dcmitype/StillImage" />
        <dc:title />
      </cc:Work>
    </rdf:RDF>
  </metadata>
  <g
     style="display:none"
     transform="translate(-2.1005216,-70.500514)"
     id="layer1"
     inkscape:groupmode="layer"
     inkscape:label="Background">
    <path
       inkscape:connector-curvature="0"
       id="rect5735"
       d="M -146.84374,-4.3604197 H 191.82291 V 186.13958 h -338.66665 z"
       style="opacity:1;fill:#ffffff;fill-opacity:1;fill-rule:nonzero;stroke:none;stroke-width:3.43958;stroke-linecap:round;stroke-linejoin:round;stroke-miterlimit:4;stroke-dasharray:none;stroke-dashoffset:0;stroke-opacity:1" />
  </g>
  <g
     transform="translate(-148.94426,-74.860933)"
     inkscape:label="Layer 1"
     id="layer2"
     inkscape:groupmode="layer"
     sodipodi:insensitive="true"
     style="display:inline">
    <circle
       style="opacity:0.994;fill:#32292f;fill-opacity:1;stroke-width:0.273445"
       id="circle2087"
       cx="169.33333"
       cy="95.25"
       r="20.389067" />
  </g>
  <g
     inkscape:groupmode="layer"
     id="layer3"
     inkscape:label="Layer 2"
     style="display:none;opacity:1"
     sodipodi:insensitive="true">
    <path
       id="path1173"
       style="fill:#00b1ff;fill-opacity:1;stroke:#ffffff;stroke-width:0.264583px;stroke-linecap:butt;stroke-linejoin:miter;stroke-opacity:1"
       d="M 8.4994202,9.3519872 C 7.8854707,9.4490602 7.2891584,9.516566 7.2891584,10.562249 v 15.502929 c 0.032107,0.01926 -2.6555061,2.845832 -3.1279744,3.721738 0.079313,1.312976 0.9863322,1.569842 1.530139,1.614371 l 29.176512,0.02326 c 1.297363,0.04663 1.50894,-0.871945 1.738395,-1.774568 L 33.559389,26.065178 V 10.334873 c 0,-1.2215487 -1.078995,-0.9293529 -1.702223,-0.9828858 z m 1.2769246,0.9260418 c 0.1108657,-8.7e-5 0.2267612,0.0061 0.3441652,0.01033 h 20.434927 c 0.75116,0.0054 1.392679,0.004 1.392679,1.232484 v 12.557889 c -0.0019,0.547191 -0.197686,0.942869 -0.821656,1.004589 H 9.8921 c -0.3702045,0 -0.9818521,-0.04112 -0.9818521,-0.844909 V 11.201487 c 0,-0.813201 0.3856792,-0.923084 0.8660969,-0.923458 z m 6.6114822,18.298625 h 8.048604 l 1.175639,1.176154 H 15.337762 Z M 17.919,30.269571 c 0.0091,-2.22e-4 0.01853,-9.7e-5 0.02791,0 l 4.948535,0.0522 c 0.560102,0.006 0.556647,0.605647 0,0.605647 H 17.94691 c -0.586339,0 -0.599649,-0.643829 -0.02791,-0.657842 z" />
    <path
       style="fill:none;stroke:#000000;stroke-width:0.264583px;stroke-linecap:butt;stroke-linejoin:miter;stroke-opacity:1"
       d="M 7.2891583,26.065178 H 33.559388 v 0 0"
       id="path5256" />
  </g>
  <g
     inkscape:groupmode="layer"
     id="layer4"
     inkscape:label="Layer 3">
    <g
       id="g5474"
       transform="translate(0,-0.01440265)">
      <path
         sodipodi:nodetypes="sassss"
         id="path1746"
         d="m 36.33306,30.438626 c 0.404416,5.6e-5 0.434378,-0.371405 0.427495,-0.623229 -0.0064,-0.234757 -0.145698,-0.558353 -0.429659,-0.558353 H 4.5190414 c -0.6984922,0 -0.6402276,1.177168 0,1.177255 z"
         style="display:inline;opacity:0.999;fill:#ffffff;fill-opacity:1;stroke:#ffffff;stroke-width:0.0146902;stroke-linecap:butt;stroke-linejoin:miter;stroke-miterlimit:4;stroke-dasharray:none;stroke-opacity:1;filter:url(#filter989)" />
      <path
         sodipodi:nodetypes="cccccc"
         id="path1754"
         d="M 6.2729391,29.257044 V 11.373155 c -0.023654,-0.649639 0.2665737,-1.023436 1.0041286,-1.00413 H 33.5392 c 0.60122,-0.0085 0.987193,0.238037 0.966538,0.966539 v 17.92148"
         style="display:inline;opacity:0.999;fill:#ffffff;fill-opacity:1;stroke:#ffffff;stroke-width:0.0146902;stroke-linecap:butt;stroke-linejoin:miter;stroke-miterlimit:4;stroke-dasharray:none;stroke-opacity:1;filter:url(#filter989)" />
      <path
         style="display:inline;opacity:0.999;fill:#00b1fc;fill-opacity:0.37619;stroke:#ffffff;stroke-width:0.0146902;stroke-linecap:butt;stroke-linejoin:miter;stroke-miterlimit:4;stroke-dasharray:none;stroke-opacity:1;filter:url(#filter989)"
         d="M 6.7520918,29.25844 V 11.783602 C 6.7292386,11.148823 7.0096167,10.783575 7.722136,10.80244 h 25.370699 c 0.580814,-0.0084 0.953685,0.232593 0.933733,0.944431 V 29.25844"
         id="path1754-5"
         sodipodi:nodetypes="cccccc" />
    </g>
  </g>
  <g
     inkscape:groupmode="layer"
     id="layer5"
     inkscape:label="Layer 4"
     style="opacity:1">
    <g
       id="g6044">
      <path
         style="fill:none;stroke:#000000;stroke-width:0.264583px;stroke-linecap:butt;stroke-linejoin:miter;stroke-opacity:1"
         d="M 6.5300378,21.188374 10.765429,16.952983 V 10.799678"
         id="path5725" />
      <path
         style="fill:none;stroke:#000000;stroke-width:0.264583px;stroke-linecap:butt;stroke-linejoin:miter;stroke-opacity:1"
         d="M 6.6441994,23.905418 12.375107,18.174511 V 12.489268"
         id="path5727" />
      <path
         style="fill:none;stroke:#000000;stroke-width:0.264583px;stroke-linecap:butt;stroke-linejoin:miter;stroke-opacity:1"
         d="M 6.5757025,26.394139 14.110361,18.85948 v -8.219628"
         id="path5729" />
      <path
         style="fill:none;stroke:#000000;stroke-width:0.264583px;stroke-linecap:butt;stroke-linejoin:miter;stroke-opacity:1"
         d="M 6.6670316,28.791531 16.450672,19.00789"
         id="path5731" />
      <path
         style="fill:none;stroke:#000000;stroke-width:0.264583px;stroke-linecap:butt;stroke-linejoin:miter;stroke-opacity:1"
         d="m 8.607777,29.636324 8.002721,-8.00272 h 2.568634 l 2.505845,-2.505845"
         id="path5735" />
      <path
         style="fill:none;stroke:#000000;stroke-width:0.264583px;stroke-linecap:butt;stroke-linejoin:miter;stroke-opacity:1"
         d="m 11.41615,29.430836 6.176137,-6.176139 h 3.801578"
         id="path5772" />
    </g>
    <circle
       style="fill:#00b1ff;fill-opacity:1;stroke:#ffffff;stroke-width:0.264583;stroke-opacity:1"
       id="path5956"
       cx="12.395226"
       cy="11.97546"
       r="0.67808473" />
  </g>
</svg>
