<svg width="511.99991392937863" height="511.99991392937863" xmlns="http://www.w3.org/2000/svg" preserveAspectRatio="xMidYMid meet">

 <g>
  <title>background</title>
  <rect height="402" width="582" y="-1" x="-1" fill="none" id="canvas_background"/>
 </g>
 <g>
  <title>Layer 1</title>
  <path d="m256,512c-141.385002,0 -256,-114.61499 -256,-256c0,-141.385002 114.614998,-256 256,-256c141.38501,0 256,114.614998 256,256c0,141.38501 -114.61499,256 -256,256zm-124.807999,-128.053986l57.257996,0l0,-170.468018l-57.257996,0l0,170.468018zm28.735992,-255.893021c-17.638992,0 -31.927994,13.468002 -31.927994,30.09201c0,16.608994 14.289001,30.05899 31.927994,30.05899c17.624008,0 31.91301,-13.449997 31.91301,-30.05899c0,-16.624008 -14.289001,-30.09201 -31.91301,-30.09201zm224.072006,158.983994c0,-67.32399 -38.552002,-78.932983 -62.269012,-78.932983c-23.696991,0 -36.767975,8.274994 -51.80899,28.324997l0,-22.951004l-57.166,0l0,170.468018l57.166,0l0,-92.633026c0,-19.549988 8.959015,-38.667984 30.38501,-38.667984c21.423981,0 26.690002,19.117996 26.690002,38.201004l0,93.100006l57.002991,0l0,-96.909027z" stroke-width="0" stroke="#32292f" fill-rule="evenodd" fill="#f7f7ff" id="svg_1" class="cls-1"/>
  <path d="m22.87834,167.039459" stroke-width="1.5" stroke="#000" fill="#fff" opacity="0.5" id="svg_2"/>
 </g>
</svg>