<svg width="773" height="667" viewBox="0 0 773 667" fill="none" xmlns="http://www.w3.org/2000/svg">
<g clip-path="url(#clip0_1370_94)">
<path d="M-237.088 -131.424C-237.088 159.229 -237.088 449.883 -237.088 740.536C-232.274 742.58 -226.248 740.791 -220.979 741.394C239.813 741.394 700.605 741.394 1161.4 741.394C1162.96 735.093 1161.59 727.204 1162.05 720.305C1162.05 436.395 1162.05 152.485 1162.05 -131.424C1157.24 -133.468 1151.21 -131.679 1145.94 -132.282C685.15 -132.282 224.359 -132.282 -236.433 -132.282L-236.979 -131.567L-237.088 -131.424Z" fill="#F7F7FF"/>
<path d="M318.681 660.262C491.118 660.262 630.906 519.153 630.906 345.087C630.906 171.02 491.118 29.9111 318.681 29.9111C146.243 29.9111 6.45508 171.02 6.45508 345.087C6.45508 519.153 146.243 660.262 318.681 660.262Z" fill="#1C6E8C" stroke="#1C6E8C" stroke-width="0.91042"/>
<g opacity="0.999" filter="url(#filter0_f_1370_94)">
<path d="M761.068 519.21C769.327 519.211 769.939 511.625 769.798 506.483C769.667 501.688 766.823 495.08 761.024 495.08H111.369C97.1048 495.08 98.2947 519.12 111.369 519.122L761.068 519.21Z" fill="white" stroke="white" stroke-width="0.3"/>
<path d="M147.962 495.08V129.859C147.479 116.593 153.406 108.959 168.468 109.353H704.787C717.065 109.179 724.947 114.214 724.525 129.092V495.08" fill="white"/>
<path d="M147.962 495.08V129.859C147.479 116.593 153.406 108.959 168.468 109.353H704.787C717.065 109.179 724.947 114.214 724.525 129.092V495.08" stroke="white" stroke-width="0.3"/>
<path d="M158.187 495.108V138.241C157.721 125.278 163.447 117.819 177.997 118.204H696.112C707.973 118.034 715.588 122.954 715.18 137.491V495.108" fill="#00B1FC" fill-opacity="0.37619"/>
<path d="M158.187 495.108V138.241C157.721 125.278 163.447 117.819 177.997 118.204H696.112C707.973 118.034 715.588 122.954 715.18 137.491V495.108" stroke="white" stroke-width="0.3"/>
<path d="M173.787 145.83H697.384V483.766H173.683L173.787 145.83Z" fill="#598282" stroke="#598282" stroke-width="0.3"/>
<path d="M397.396 343.684C397.028 346.427 397.341 349.298 397.237 352.09C398.095 353.347 400.211 352.392 401.587 352.69C460.92 352.69 520.254 352.69 579.587 352.69C580.844 351.832 579.889 349.717 580.187 348.34C580.073 346.787 580.425 345.135 579.993 343.649C576.001 343.28 571.879 343.595 567.837 343.49C511.17 343.49 454.504 343.49 397.837 343.49L397.608 343.591L397.396 343.684Z" fill="#4C5454" stroke="#4C5454" stroke-width="0.0750002"/>
<path opacity="0.998" d="M408.021 362.93C407.653 365.673 407.966 368.544 407.862 371.337C408.72 372.593 410.836 371.639 412.212 371.937C471.545 371.937 530.879 371.937 590.212 371.937C591.469 371.078 590.515 368.963 590.812 367.586C590.698 366.033 591.05 364.382 590.618 362.895C586.626 362.526 582.504 362.841 578.462 362.736C521.795 362.736 465.129 362.736 408.462 362.736L408.233 362.837L408.021 362.93Z" fill="#4C5454" stroke="#4C5454" stroke-width="0.0750002"/>
<path opacity="0.998" d="M583.848 394.21C585.104 393.352 584.15 391.237 584.448 389.86C584.334 388.307 584.686 386.656 584.254 385.169C580.261 384.8 576.67 383.171 572.628 383.066C529.313 383.807 490.044 382.689 463.903 383.474C398.843 385.427 389.481 396.856 464.653 395.234C492.063 394.642 533.893 394.444 583.848 394.21Z" fill="#4C5454" stroke="#4C5454" stroke-width="0.0750002"/>
</g>
<g opacity="0.998">
<path fill-rule="evenodd" clip-rule="evenodd" d="M287.765 175.82V176.322V186.324H342.575V175.82H287.765ZM288.761 176.824H290.265H341.579V185.321H288.761V176.824Z" fill="#FF715B"/>
<path fill-rule="evenodd" clip-rule="evenodd" d="M306.297 194.194V194.696V204.699H361.107V194.194H306.297ZM307.293 195.198H308.797H360.111V203.695H307.293V195.198Z" fill="#FF715B"/>
<path fill-rule="evenodd" clip-rule="evenodd" d="M337.909 214.535V215.037V225.039H392.72V214.535H337.909ZM338.906 215.539H340.409H391.723V224.035H338.906V215.539Z" fill="#FF715B"/>
<path fill-rule="evenodd" clip-rule="evenodd" d="M369.375 236.986V237.488V247.49H424.186V236.986H369.375ZM370.372 237.99H371.875H423.189V246.486H370.372V237.99Z" fill="#FF715B"/>
<path fill-rule="evenodd" clip-rule="evenodd" d="M341.621 257.138V257.64V267.643H396.432V257.138H341.621ZM342.618 258.142H344.121H395.435V266.639H342.618V258.142Z" fill="#FF715B"/>
<path fill-rule="evenodd" clip-rule="evenodd" d="M308.033 279.059V279.561V289.563H362.844V279.059H308.033ZM309.03 280.063H310.533H361.847V288.559H309.03V280.063Z" fill="#FF715B"/>
<path fill-rule="evenodd" clip-rule="evenodd" d="M291.672 300.569V301.071V311.074H346.482V300.569H291.672ZM292.668 301.573H294.172H345.486V310.07H292.668V301.573Z" fill="#FF715B"/>
<path fill-rule="evenodd" clip-rule="evenodd" d="M304.672 320.444V320.946V330.949H359.482V320.444H304.672ZM305.668 321.448H307.172H358.486V329.945H305.668V321.448Z" fill="#FF715B"/>
<path fill-rule="evenodd" clip-rule="evenodd" d="M335.922 342.569V343.071V353.074H390.732V342.569H335.922ZM336.918 343.573H338.422H389.736V352.07H344.477H336.918V343.573Z" fill="#FF715B"/>
<path fill-rule="evenodd" clip-rule="evenodd" d="M342.609 383.194V383.666V393.074H387.107V383.194H342.609ZM343.418 384.139L351.097 384.014L386.298 384.139V392.13H343.418V384.139Z" fill="#FF715B"/>
<path d="M288.478 176.367C287.978 176.756 288.253 177.466 288.182 178.009C288.193 180.466 288.16 182.929 288.198 185.382C288.257 185.982 288.957 185.946 289.407 185.922C306.782 185.922 324.157 185.922 341.532 185.922C342.067 185.902 342.197 185.321 342.132 184.884C342.121 182.198 342.154 179.506 342.115 176.824C342.056 176.224 341.356 176.26 340.907 176.284C323.532 176.284 306.157 176.284 288.782 176.284C288.681 176.312 288.579 176.339 288.478 176.367Z" fill="#FF715B"/>
<path d="M306.858 195.068C306.675 197.994 306.526 201.158 306.934 204.045C317.797 204.37 328.766 204.091 339.669 204.184C346.541 204.083 353.502 204.385 360.319 204.034C360.986 201.409 360.399 198.268 360.599 195.452C359.278 194.07 356.55 195.237 354.695 194.852C338.903 194.852 323.111 194.852 307.319 194.852L306.999 195.002L306.858 195.068Z" fill="#FF715B"/>
<path d="M338.678 215.22C338.494 218.146 338.346 221.31 338.754 224.197C349.675 224.523 360.703 224.243 371.665 224.337C378.361 224.237 385.145 224.536 391.784 224.187C392.451 221.562 391.865 218.421 392.064 215.605C390.744 214.223 388.015 215.389 386.161 215.005C370.487 215.005 354.813 215.005 339.138 215.005L338.818 215.155L338.678 215.22Z" fill="#FF715B"/>
<path d="M370.145 237.848C369.961 240.774 369.813 243.938 370.221 246.825C381.142 247.151 392.17 246.871 403.132 246.964C409.827 246.865 416.611 247.164 423.251 246.814C423.918 244.189 423.332 241.048 423.531 238.232C422.211 236.85 419.482 238.017 417.628 237.632C401.954 237.632 386.279 237.632 370.605 237.632L370.285 237.782L370.145 237.848Z" fill="#FF715B"/>
<path d="M342.214 258C342.03 260.926 341.882 264.09 342.29 266.977C353.152 267.303 364.121 267.024 375.025 267.117C381.896 267.016 388.858 267.318 395.674 266.967C396.341 264.342 395.755 261.201 395.954 258.385C394.634 257.003 391.905 258.169 390.051 257.785C374.259 257.785 358.467 257.785 342.674 257.785L342.354 257.935L342.214 258Z" fill="#FF715B"/>
<path d="M308.626 279.921C308.443 282.847 308.294 286.011 308.702 288.898C319.564 289.223 330.533 288.944 341.437 289.037C348.309 288.936 355.27 289.238 362.086 288.887C362.753 286.262 362.167 283.121 362.366 280.305C361.046 278.923 358.317 280.09 356.463 279.705C340.671 279.705 324.879 279.705 309.087 279.705L308.766 279.855L308.626 279.921Z" fill="#FF715B"/>
<path d="M292.362 301.487C292.179 304.413 292.03 307.577 292.438 310.464C303.36 310.791 314.388 310.51 325.35 310.604C332.045 310.504 338.829 310.803 345.469 310.454C346.136 307.829 345.55 304.688 345.749 301.872C344.429 300.49 341.7 301.656 339.846 301.272C324.171 301.272 308.497 301.272 292.823 301.272L292.503 301.422L292.362 301.487Z" fill="#FF715B"/>
<path d="M305.444 321.286C305.261 324.212 305.112 327.376 305.52 330.263C316.442 330.59 327.47 330.309 338.432 330.403C345.127 330.303 351.911 330.602 358.551 330.253C359.218 327.628 358.632 324.487 358.831 321.671C357.511 320.289 354.782 321.456 352.928 321.071C337.253 321.071 321.579 321.071 305.905 321.071L305.585 321.221L305.444 321.286Z" fill="#FF715B"/>
<path d="M336.557 343.207C336.363 346.252 336.234 349.53 336.633 352.537C347.495 352.863 358.464 352.584 369.367 352.677C376.239 352.576 383.201 352.878 390.017 352.527C390.685 349.902 390.099 346.762 390.297 343.945C389.726 341.915 386.422 343.484 384.747 342.991C368.837 342.991 352.927 342.991 337.017 342.991L336.697 343.141L336.557 343.207Z" fill="#FF715B"/>
<path d="M343.274 383.865C343.079 386.675 342.954 389.717 343.35 392.489C354.272 392.815 365.3 392.535 376.262 392.628C379.7 392.488 383.263 392.91 386.622 392.413C386.817 389.603 386.942 386.561 386.546 383.789C375.625 383.463 364.597 383.743 353.634 383.65C350.202 383.79 346.624 383.368 343.274 383.865Z" fill="#FF715B"/>
<path d="M344.75 363.084C344.554 365.894 344.429 368.936 344.826 371.708C355.747 372.034 366.775 371.753 377.737 371.847C381.175 371.707 384.739 372.129 388.097 371.632C388.293 368.822 388.418 365.78 388.021 363.008C377.1 362.682 366.072 362.962 355.11 362.869C351.678 363.009 348.099 362.586 344.75 363.084Z" fill="#FF715B"/>
<path fill-rule="evenodd" clip-rule="evenodd" d="M237.951 176.322V176.824V185.948H261.079V176.322H237.951ZM238.955 177.319H260.075V184.944H238.955V177.319Z" fill="#F7F7FF"/>
<path fill-rule="evenodd" clip-rule="evenodd" d="M237.826 194.696V195.198V204.322H260.954V194.696H237.826ZM238.83 195.693H259.95V203.318H238.83V195.693Z" fill="#F7F7FF"/>
<path fill-rule="evenodd" clip-rule="evenodd" d="M238.264 216.884V217.386V226.51H261.391V216.884H238.264ZM239.268 217.88H260.387V225.506H239.268V217.88Z" fill="#F7F7FF"/>
<path fill-rule="evenodd" clip-rule="evenodd" d="M237.889 237.259V237.761V246.885H261.016V237.259H237.889ZM238.893 238.255H260.012V245.881H238.893V238.255Z" fill="#F7F7FF"/>
<path fill-rule="evenodd" clip-rule="evenodd" d="M237.389 257.759V258.261V267.385H260.516V257.759H237.389ZM238.393 258.755H259.512V266.381H238.393V258.755Z" fill="#F7F7FF"/>
<path fill-rule="evenodd" clip-rule="evenodd" d="M238.014 279.884V280.386V289.51H261.141V279.884H238.014ZM239.018 280.88H260.137V288.506H239.018V280.88Z" fill="#F7F7FF"/>
<path fill-rule="evenodd" clip-rule="evenodd" d="M238.014 300.259V300.761V309.885H261.141V300.259H238.014ZM239.018 301.255H260.137V308.881H239.018V301.255Z" fill="#F7F7FF"/>
<path fill-rule="evenodd" clip-rule="evenodd" d="M237.764 320.634V321.136V330.26H260.891V320.634H237.764ZM238.768 321.63H259.887V329.256H238.768V321.63Z" fill="#F7F7FF"/>
<path fill-rule="evenodd" clip-rule="evenodd" d="M237.639 341.009V341.511V350.635H260.766V341.009H237.639ZM238.643 342.005H259.762V349.631H238.643V342.005Z" fill="#F7F7FF"/>
<path fill-rule="evenodd" clip-rule="evenodd" d="M238.264 363.259V363.761V372.885H261.391V363.259H238.264ZM239.268 364.255H260.387V371.881H239.268V364.255Z" fill="#F7F7FF"/>
<path fill-rule="evenodd" clip-rule="evenodd" d="M237.889 383.384V383.886V393.01H261.016V383.384H237.889ZM238.893 384.38H260.012V392.006H238.893V384.38Z" fill="#F7F7FF"/>
<path fill-rule="evenodd" clip-rule="evenodd" d="M352.703 175.82V176.322V185.948H536.579V175.82H352.703ZM353.7 176.824H535.575V184.944H353.7V176.824Z" fill="#4C5454"/>
<path fill-rule="evenodd" clip-rule="evenodd" d="M372.515 194.258V194.76V204.386H556.39V194.258H372.515ZM373.511 195.262H555.386V203.382H373.511V195.262Z" fill="#4C5454"/>
<path fill-rule="evenodd" clip-rule="evenodd" d="M404.39 215.008V215.51V225.136H639.515V215.008H404.39ZM405.664 216.012H638.231V224.132H405.664V216.012Z" fill="#4C5454"/>
<path fill-rule="evenodd" clip-rule="evenodd" d="M435.89 237.008V237.51V247.136H619.765V237.008H435.89ZM436.886 238.012H618.761V246.132H436.886V238.012Z" fill="#4C5454"/>
<path fill-rule="evenodd" clip-rule="evenodd" d="M408.14 257.258V257.76V267.386H592.015V257.258H408.14ZM409.136 258.262H591.011V266.382H409.136V258.262Z" fill="#4C5454"/>
<path fill-rule="evenodd" clip-rule="evenodd" d="M374.89 279.008V279.51V289.136H569.515V279.008H374.89ZM375.945 280.012H568.453V288.132H375.945V280.012Z" fill="#4C5454"/>
<path fill-rule="evenodd" clip-rule="evenodd" d="M356.89 300.258V300.76V310.386H540.765V300.258H356.89ZM357.886 301.261H539.761V309.382H357.886V301.261Z" fill="#4C5454"/>
<path fill-rule="evenodd" clip-rule="evenodd" d="M376.64 319.758V320.26V329.886H560.515V319.758H376.64ZM377.636 320.762H559.511V328.882H377.636V320.762Z" fill="#4C5454"/>
<g opacity="0.999">
<path d="M309.36 382.341C309.36 382.341 311.516 379.979 312.221 378.566C313.65 375.704 314.694 372.233 314.85 369.336C315.025 366.101 314.529 362.662 313.374 359.523C313.28 359.266 312.843 359.223 312.312 359.086C311.476 358.87 310.408 358.618 310.074 358.429C308.395 357.481 307.735 357.42 306.263 355.961C305.328 355.034 304.05 353.405 303.55 351.571C303.361 350.878 302.99 349.955 302.947 349.292C302.909 348.708 302.581 348.08 302.581 348.08C300.544 346.769 298.243 346.243 296.006 345.903C288.991 344.836 281.001 347.656 275.961 351.552C272.011 354.606 269.464 359.662 268.614 365.072C267.911 369.552 268.371 374.274 270.161 378.306C271.455 381.221 273.985 384.563 276.791 386.81C279.203 388.741 282.173 390.023 285.171 390.774C288.108 391.511 292.395 391.231 294.246 391.224L294.29 394.682C294.324 397.334 299.493 400.54 303.926 397.228C304.511 396.792 305.149 396.264 305.628 395.562C306.85 393.773 305.832 388.96 306.982 385.927C307.235 385.262 307.608 384.696 308.027 384.135C308.442 383.577 308.902 383.025 309.329 382.387C309.341 382.372 309.349 382.357 309.36 382.341Z" fill="#00B1FC" stroke="#00B1FC" stroke-width="0.999999"/>
<path d="M268.701 365.061C277.527 374.187 285.021 368.402 293.503 363.444C293.503 363.444 295.067 363.26 295.507 363.781C296.733 365.231 296.19 369.436 296.19 369.436C296.19 369.436 297.05 370.315 297.112 370.114C298.927 364.207 311.928 363.307 308.524 376.272C308.41 376.708 307.942 377.622 307.296 378.085C306.522 378.641 305.574 378.753 305.772 379.374L307.548 384.948" stroke="black" stroke-width="0.999999"/>
<path d="M284.308 390.537C284.308 390.537 280.314 390.533 278.542 390.721C276.275 390.962 273.233 391.257 271.737 392.5C258.932 403.136 247.688 436.267 247.688 436.267" fill="#FF715B"/>
<path d="M284.308 390.537C284.308 390.537 280.314 390.533 278.542 390.721C276.275 390.962 273.233 391.257 271.737 392.5C258.932 403.136 247.688 436.267 247.688 436.267" stroke="#FF715B" stroke-width="0.999999"/>
<path d="M270.994 410.974L272.307 472.287Z" fill="#FF715B"/>
<path d="M270.994 410.974L272.307 472.287" stroke="black" stroke-width="0.999999"/>
<path d="M271.342 425.308L262.559 439.66" stroke="black" stroke-width="0.999999"/>
<path d="M271.044 410.978L266.846 432.678" stroke="black" stroke-width="0.999999"/>
<path d="M305.28 486.143C307.875 486.361 311.229 487.302 314.04 488.392C315.814 489.079 316.053 489.462 317.682 490.425C318.565 490.947 319.703 491.549 320.632 492.018" stroke="black" stroke-width="0.999999"/>
<path d="M295.66 480.805C284.321 474.179 279.086 476.801 275.463 481.866C275.463 481.866 275.109 481.656 275.169 481.936C275.411 483.083 276.692 487.567 276.921 487.567C277.187 487.567 298.709 487.655 298.709 487.655L299.416 487.478" stroke="black" stroke-width="0.999999"/>
<path d="M301.734 487.596C301.734 487.596 300.935 491.688 300.544 493.335C300.47 493.644 299.333 493.51 299.333 493.51L210.664 493.768C209.789 493.794 208.435 493.684 207.989 492.238L192.539 438.236C192.29 436.602 193.037 435.839 194.789 435.955L260.018 436.302C260.608 436.339 261.653 437.096 261.884 438.241C266.398 453 270.854 467.759 275.591 482.518" fill="#F7F7FF"/>
<path d="M301.734 487.596C301.734 487.596 300.935 491.688 300.544 493.335C300.47 493.644 299.333 493.51 299.333 493.51L210.664 493.768C209.789 493.794 208.435 493.684 207.989 492.238L192.539 438.236C192.29 436.602 193.037 435.839 194.789 435.955L260.018 436.302C260.608 436.339 261.653 437.096 261.884 438.241C266.398 453 270.854 467.759 275.591 482.518" stroke="#F7F7FF" stroke-width="0.999999"/>
<path d="M320.53 493.942C320.738 490.781 320.542 494.166 320.482 494.255C312.383 506.042 297.253 500.179 292.677 505.724C291.935 506.623 291.287 508.051 290.951 509.321C288.701 517.819 289.418 526.995 289.219 535.452C288.813 552.65 288.447 569.242 287.932 587.523C287.925 587.75 287.823 588.147 287.615 588.056L287.211 587.879L277.982 583.594L277.632 583.377C277.433 583.253 277.359 582.863 277.332 582.63C273.901 553.299 267.305 519.851 269.24 503.839C269.73 499.79 272.873 497.09 274.288 495.58C265.358 496.124 253.902 500.084 254.259 505.321L254.733 512.289L265.967 581.364C265.967 581.364 265.94 581.612 265.867 581.752C265.761 581.956 265.42 582.139 265.42 582.139L257.801 585.949C257.801 585.949 257.169 586.167 256.867 586.08C256.645 586.016 256.338 585.634 256.338 585.634C250.702 559.096 238.868 531.196 234.637 505.7C234.018 501.966 234.572 497.541 236.663 494.205" fill="#32292F"/>
<path d="M320.53 493.942C320.738 490.781 320.542 494.166 320.482 494.255C312.383 506.042 297.253 500.179 292.677 505.724C291.935 506.623 291.287 508.051 290.951 509.321C288.701 517.819 289.418 526.995 289.219 535.452C288.813 552.65 288.447 569.242 287.932 587.523C287.925 587.75 287.823 588.147 287.615 588.056L287.211 587.879L277.982 583.594L277.632 583.377C277.433 583.253 277.359 582.863 277.332 582.63C273.901 553.299 267.305 519.851 269.24 503.839C269.73 499.79 272.873 497.09 274.288 495.58C265.358 496.124 253.902 500.084 254.259 505.321L254.733 512.289L265.967 581.364C265.967 581.364 265.94 581.612 265.867 581.752C265.761 581.956 265.42 582.139 265.42 582.139L257.801 585.949C257.801 585.949 257.169 586.167 256.867 586.08C256.645 586.016 256.338 585.634 256.338 585.634C250.702 559.096 238.868 531.196 234.637 505.7C234.018 501.966 234.572 497.541 236.663 494.205" stroke="#32292F" stroke-width="0.999999"/>
<path d="M283.944 390.967C282.117 391.31 281.752 392.748 280.502 393.914C269.566 407.536 258.59 421.132 247.864 434.918C247.137 435.64 247.692 435.739 248.561 435.74C249.27 435.741 250.183 435.775 250.822 435.772C254.104 435.833 257.537 436.059 260.765 436.227C261.883 436.615 262.26 437.715 262.536 438.698C262.692 439.252 263.013 440.207 263.106 440.571C263.192 440.477 263.281 440.263 263.376 440.115C264.097 438.844 264.828 437.218 265.596 435.781C266.191 434.667 266.827 433.742 267.379 432.709C268.54 426.686 269.456 421.751 270.625 415.729C270.996 434.725 270.652 448.39 271.354 467.377C271.821 468.733 272.723 471.787 273.158 473.196C273.789 475.233 274.832 479.16 275.432 481.016C275.614 481.563 275.829 482.561 275.927 482.367C276.211 481.804 277.283 480.362 277.953 479.786C281.118 476.741 285.832 476.971 289.668 478.497C291.613 479.059 294.237 480.665 295.894 481.551C297.914 479.85 299.824 476.942 299.765 474.009C302.222 448.324 305.954 419.669 308.074 393.955C307.956 392.43 304.609 395.768 303.873 396.539C301.271 398.789 296.744 398.606 295.072 395.32C294.403 393.887 295.761 391.07 293.801 391.348C290.615 391.219 287.102 391.51 283.944 390.967ZM263.702 438.652C263.711 438.607 263.686 438.717 263.702 438.652Z" fill="#FF715B"/>
<path d="M304.692 485.816C303.573 486.356 302.354 487.009 301.18 487.468C301.204 488.893 301.264 490.803 301.208 492.231C301.182 492.646 301.029 493.642 300.793 493.803C300.273 494.105 300.142 493.928 300.377 494.404C300.566 494.83 300.311 495.029 300.758 494.98C307.177 494.964 313.597 494.955 320.016 494.933C320.554 494.932 321.013 494.459 321.015 493.924C321.05 493.41 321.096 492.894 321.144 492.382C321.144 491.879 320.78 491.621 320.311 491.314C319.184 490.604 318.08 489.998 316.958 489.323C315.457 488.434 313.849 487.642 312.195 487.073C309.772 486.212 308.264 485.641 305.706 485.322C305.414 485.455 305.355 485.497 304.692 485.816ZM321.107 492.702C321.113 492.675 321.083 492.785 321.107 492.702Z" fill="#32292F"/>
<path d="M293.373 362.925C289.928 364.765 286.666 367.225 282.686 368.525C279.847 369.516 276.495 369.594 273.762 368.229C272.249 367.491 270.949 366.468 269.707 365.34C269.31 364.996 269.586 365.053 268.412 364.074C268.246 363.935 268.113 364.894 268.062 365.169C267.603 367.625 267.674 370.466 268.032 372.663C268.383 374.813 268.921 376.841 269.581 378.387C270.7 381.005 272.002 382.49 272.133 382.654C274.678 385.854 276.606 387.711 279.586 389.208C281.805 390.353 284.225 391.152 286.694 391.539C289.06 391.817 291.448 391.686 293.824 391.711C294.129 392.979 293.652 394.331 294.144 395.571C295.111 397.769 297.576 399.13 299.946 398.985C301.648 398.97 303.416 398.454 304.718 397.378C305.805 396.702 306.471 395.385 306.598 394.098C306.952 391.613 306.656 389.087 307.248 386.643C307.451 385.957 307.708 385.742 308.071 384.948C307.712 383.607 307.163 382.1 306.778 380.805C306.63 380.28 306.424 379.746 306.268 379.227C307.356 378.801 308.168 378.138 308.609 377.347C309.29 376.124 309.389 374.949 309.555 373.588C309.708 371.692 309.526 369.509 308.397 367.901C307.602 366.773 306.381 365.959 305.024 365.645C303.997 365.383 302.988 365.395 301.911 365.611C299.852 365.988 297.933 367.158 296.987 369.048C296.602 369.632 296.872 368.951 296.837 368.642C296.913 367.314 296.938 366.342 296.657 365.035C296.435 364.243 296.065 363.207 295.136 362.988C294.661 362.875 293.789 362.702 293.373 362.925Z" fill="#DBA79F"/>
<path d="M209.569 494.079C208.771 493.885 208.159 493.448 207.85 492.85C207.705 492.57 203.021 480.25 198.738 465.256C192.674 444.031 192.035 437.689 192.12 437.234C192.248 436.551 192.745 435.963 193.406 435.711C194.406 435.331 252.106 435.319 259.265 435.761C261.063 435.872 260.878 436.356 261.429 436.84C261.838 437.199 262.123 437.693 262.358 438.447C266.591 454.896 268.399 473.047 277.478 487.835C277.497 487.858 281.841 487.964 287.13 488.072C295.829 488.249 296.791 488.297 297.196 488.579C298.238 489.303 299.45 489.471 300.492 489.036L301.119 488.774L301.06 491.063C301.015 492.852 300.942 493.412 300.724 493.629C300.474 493.879 297.184 493.915 268.109 493.987C250.323 494.031 230.004 494.101 222.955 494.142C215.906 494.183 209.882 494.155 209.569 494.079Z" fill="#F7F7FF"/>
<path d="M264.799 583.002C262.851 583.989 261.167 584.777 259.225 585.775C259.666 587.848 260.531 591.063 261.073 593.079C261.289 593.797 261.154 593.754 261.647 593.442C263.231 592.71 265.219 591.846 266.794 591.094C266.698 590.555 266.603 590.058 266.477 589.403C266.128 587.165 265.882 586.455 265.429 583.447C265.271 582.673 265.426 582.687 264.799 583.002Z" fill="#DBA79F" stroke="#DBA79F" stroke-width="0.015625"/>
<path d="M277.972 584.167C278.062 587.319 278.162 590.183 278.266 593.334C278.297 593.556 278.286 593.84 278.488 593.983C278.893 594.146 279.321 594.235 279.736 594.371C281.181 594.795 282.616 595.255 284.077 595.622C284.282 595.667 284.374 595.441 284.373 595.275C284.531 592.582 284.652 590.041 284.794 587.347C282.32 586.171 281.539 585.774 277.972 584.167Z" fill="#DBA79F" stroke="#DBA79F" stroke-width="0.0220971"/>
<path d="M278.291 593.637C277.389 604.084 276.302 616.391 275.956 625.722C275.92 626.704 276.407 627.765 277.167 628.438C278.043 629.214 279.702 628.89 279.999 627.803C281.289 623.076 284.184 596.999 284.355 595.269C282.787 594.87 280.208 594.177 278.291 593.637Z" fill="#00B1FC" stroke="#00B1FC" stroke-width="0.0883883"/>
<path d="M266.774 591.083C265.182 591.833 262.822 592.838 261.265 593.646C262.701 603.921 263.008 615.773 263.778 624.949C263.834 625.612 264.1 626.378 264.834 626.298C265.939 626.179 266.814 625.205 267.144 624.209C267.687 613.491 267.542 602.063 266.774 591.083Z" fill="#00B1FC" stroke="#00B1FC" stroke-width="0.0883883"/>
<path d="M443.319 367.906C436.837 370.849 429.052 369.826 422.51 367.331C420.963 366.565 419.728 368.648 419.699 370.024C419.321 373.243 419.537 377.795 416.445 379.749C414.998 380.778 413.114 380.52 411.557 381.031C410.548 383.167 408.601 385.275 408.881 387.785C409.754 390.031 410.966 392.595 413.303 393.616C414.229 393.959 415.472 393.559 415.904 394.766C417.893 398.054 421.001 400.485 424.492 402.015C425.387 402.308 425.996 402.887 425.846 403.878C426.052 406.379 425.877 409.138 427.404 411.339C428.29 412.641 428.263 414.405 429.265 415.598C431.441 416.876 434.178 417.444 436.609 416.557C437.927 416.178 441.36 415.587 441.017 413.748C441.323 411.448 441.257 409.458 441.002 407.074C441.12 405.975 440.825 404.654 441.366 403.673C443.766 402.216 446.464 401.132 448.42 399.022C449.875 397.768 450.74 395.974 452.043 394.625C453.666 394.739 455.229 394.014 456.149 392.642C457.643 390.476 459.098 387.893 458.87 385.183C458.273 383.524 457.883 381.002 456.787 379.66C453.979 379.574 450.475 379.536 449.229 376.717C447.936 374.401 448.617 371.486 447.906 369.039C447.082 368.08 446.867 365.682 445.462 366.749C445.105 366.903 443.676 367.753 443.319 367.906ZM441.455 389.805C443.082 389.848 443.45 392.298 441.817 392.634C439.873 393.053 439.66 389.928 441.455 389.805ZM425.267 389.818C426.947 389.906 426.714 392.701 425.036 392.51C423.254 392.389 423.387 389.695 425.267 389.818Z" fill="#DBA79F" stroke="#00B1FC" stroke-width="0.25"/>
</g>
<path d="M561.793 382.481C561.793 382.481 559.638 380.12 558.933 378.707C557.504 375.845 556.459 372.374 556.303 369.477C555.978 363.466 557.97 356.754 562.195 352.566C565.237 349.55 570.43 346.762 575.147 346.044C582.162 344.977 590.153 347.797 595.192 351.693C599.142 354.747 601.689 359.802 602.539 365.213C603.242 369.693 602.783 374.415 600.993 378.447C599.698 381.362 597.168 384.704 594.362 386.951C591.95 388.882 588.98 390.163 585.983 390.915C583.045 391.652 578.758 391.372 576.907 391.364L576.863 394.823C576.829 397.475 571.66 400.681 567.227 397.369C566.643 396.933 566.004 396.405 565.525 395.703C564.303 393.914 565.321 389.1 564.171 386.068C563.662 384.727 562.658 383.786 561.793 382.481Z" fill="#32292F" stroke="#32292F" stroke-width="0.999999"/>
<path d="M602.451 365.202C593.626 374.327 586.131 368.543 577.649 363.585C577.649 363.585 576.085 363.401 575.645 363.922C574.42 365.372 574.962 369.577 574.962 369.577C574.962 369.577 574.102 370.456 574.041 370.255C572.225 364.347 559.224 363.448 562.628 376.413C562.743 376.849 563.21 377.763 563.856 378.226C564.63 378.782 565.578 378.894 565.38 379.515L563.604 385.089L561.793 382.437" stroke="#32292F" stroke-width="0.999999"/>
<path d="M586.845 390.678C586.845 390.678 590.839 390.674 592.611 390.862C594.878 391.103 597.921 391.398 599.417 392.641C612.222 403.277 623.466 436.407 623.466 436.407" fill="#32292F"/>
<path d="M586.845 390.678C586.845 390.678 590.839 390.674 592.611 390.862C594.878 391.103 597.921 391.398 599.417 392.641C612.222 403.277 623.466 436.407 623.466 436.407" stroke="#32292F" stroke-width="0.999999"/>
<path d="M600.159 411.115L598.847 472.427Z" fill="black"/>
<path d="M600.159 411.115L598.847 472.427" stroke="black" stroke-width="0.999999"/>
<path d="M599.811 425.449L608.595 439.801Z" fill="black"/>
<path d="M599.811 425.449L608.595 439.801" stroke="black" stroke-width="0.999999"/>
<path d="M564.709 390.283C564.709 390.283 556.188 390.272 548.594 392.459C545.77 393.272 543.172 394.562 541.358 396.567C540.811 397.172 540.336 397.842 539.947 398.583C535.855 406.387 528.691 440.795 533.546 461.211C534.022 463.21 535.405 464.962 536.867 466.406C546.275 475.696 567.677 486.158 570.552 487.346C573.427 488.533 578.052 482.783 574.927 479.533C571.802 476.283 548.552 453.658 548.552 453.658L548.358 409.926" fill="#32292F"/>
<path d="M564.709 390.283C564.709 390.283 556.188 390.272 548.594 392.459C545.77 393.272 543.172 394.562 541.358 396.567C540.811 397.172 540.336 397.842 539.947 398.583C535.855 406.387 528.691 440.795 533.546 461.211C534.022 463.21 535.405 464.962 536.867 466.406C546.275 475.696 567.677 486.158 570.552 487.346C573.427 488.533 578.052 482.783 574.927 479.533C571.802 476.283 548.552 453.658 548.552 453.658L548.358 409.926" stroke="#32292F" stroke-width="0.999999"/>
<path d="M567.052 485.783C564.457 486.002 561.103 486.943 558.292 488.032C556.518 488.72 555.099 489.603 553.47 490.566C552.587 491.087 550.92 493.353 550.453 492.424C547.874 487.292 549.009 481.253 549.723 475.905" fill="#32292F"/>
<path d="M567.052 485.783C564.457 486.002 561.103 486.943 558.292 488.032C556.518 488.72 555.099 489.603 553.47 490.566C552.587 491.087 550.92 493.353 550.453 492.424C547.874 487.292 549.009 481.253 549.723 475.905" stroke="#32292F" stroke-width="0.999999"/>
<path d="M575.493 480.946C586.831 474.32 592.067 476.942 595.689 482.007C595.689 482.007 596.043 481.797 595.984 482.077C595.741 483.224 594.46 487.708 594.231 487.708C593.966 487.708 572.443 487.796 572.443 487.796L571.736 487.619" fill="#32292F"/>
<path d="M575.493 480.946C586.831 474.32 592.067 476.942 595.689 482.007C595.689 482.007 596.043 481.797 595.984 482.077C595.741 483.224 594.46 487.708 594.231 487.708C593.966 487.708 572.443 487.796 572.443 487.796L571.736 487.619" stroke="#32292F" stroke-width="0.999999"/>
<path d="M572.686 487.787L570.459 487.846" stroke="#32292F" stroke-width="0.999999"/>
<path d="M550.427 492.44C558.479 504.585 573.866 500.279 578.475 505.865C579.218 506.764 579.865 508.193 580.201 509.463C582.451 517.96 581.735 527.136 581.934 535.593C582.339 552.791 582.706 569.383 583.22 587.664C583.228 587.891 583.329 588.288 583.538 588.197L583.942 588.02L593.17 583.735L593.52 583.518C593.72 583.394 593.793 583.004 593.821 582.771C597.251 553.441 603.848 519.992 601.912 503.98C601.423 499.931 598.28 497.231 596.864 495.721C605.795 496.265 617.25 500.225 616.894 505.462L616.42 512.43L605.186 581.505C605.186 581.505 605.212 581.753 605.286 581.893C605.392 582.098 605.733 582.28 605.733 582.28L613.352 586.09C613.352 586.09 613.984 586.308 614.286 586.221C614.508 586.157 614.815 585.775 614.815 585.775C620.451 559.237 632.285 531.338 636.515 505.841C637.135 502.107 636.455 497.057 634.364 493.721" fill="#32292F"/>
<path d="M550.427 492.44C558.479 504.585 573.866 500.279 578.475 505.865C579.218 506.764 579.865 508.193 580.201 509.463C582.451 517.96 581.735 527.136 581.934 535.593C582.339 552.791 582.706 569.383 583.22 587.664C583.228 587.891 583.329 588.288 583.538 588.197L583.942 588.02L593.17 583.735L593.52 583.518C593.72 583.394 593.793 583.004 593.821 582.771C597.251 553.441 603.848 519.992 601.912 503.98C601.423 499.931 598.28 497.231 596.864 495.721C605.795 496.265 617.25 500.225 616.894 505.462L616.42 512.43L605.186 581.505C605.186 581.505 605.212 581.753 605.286 581.893C605.392 582.098 605.733 582.28 605.733 582.28L613.352 586.09C613.352 586.09 613.984 586.308 614.286 586.221C614.508 586.157 614.815 585.775 614.815 585.775C620.451 559.237 632.285 531.338 636.515 505.841C637.135 502.107 636.455 497.057 634.364 493.721" stroke="#32292F" stroke-width="0.999999"/>
<path d="M605.334 581.908L604.141 590.755C604.141 590.755 604.118 591.153 604.225 591.346C604.312 591.504 604.545 591.635 604.545 591.635L609.544 593.943C609.544 593.943 609.86 594.175 610.061 594.08C610.227 594.002 610.286 593.687 610.286 593.687L612.428 585.502" fill="#32292F"/>
<path d="M605.334 581.908L604.141 590.755C604.141 590.755 604.118 591.153 604.225 591.346C604.312 591.504 604.545 591.635 604.545 591.635L609.544 593.943C609.544 593.943 609.86 594.175 610.061 594.08C610.227 594.002 610.286 593.687 610.286 593.687L612.428 585.502" stroke="#32292F" stroke-width="0.999999"/>
<path d="M593.521 583.283L593.202 593.513C593.202 593.513 593.168 594.024 593.005 594.237C592.898 594.376 592.986 594.373 592.673 594.467C591.09 594.917 589.482 595.444 587.888 595.873C587.42 595.999 587.602 595.96 587.138 596.065C586.669 596.17 586.474 595.837 586.446 595.273C586.335 592.949 586.052 587.159 586.052 587.159" fill="#32292F"/>
<path d="M593.521 583.283L593.202 593.513C593.202 593.513 593.168 594.024 593.005 594.237C592.898 594.376 592.986 594.373 592.673 594.467C591.09 594.917 589.482 595.444 587.888 595.873C587.42 595.999 587.602 595.96 587.138 596.065C586.669 596.17 586.474 595.837 586.446 595.273C586.335 592.949 586.052 587.159 586.052 587.159" stroke="#32292F" stroke-width="0.999999"/>
<path d="M604.135 590.775L603.089 621.806C603.041 622.174 603.258 623.807 603.331 624.136C603.933 626.88 607.749 628.587 607.989 624.971L608.097 623.34L610.096 593.975" fill="#32292F"/>
<path d="M604.135 590.775L603.089 621.806C603.041 622.174 603.258 623.807 603.331 624.136C603.933 626.88 607.749 628.587 607.989 624.971L608.097 623.34L610.096 593.975" stroke="#32292F" stroke-width="0.999999"/>
<path d="M593.196 593.073L595.578 625.385C595.616 625.905 595.227 627.82 594.431 628.658C594.017 629.094 593.361 629.386 592.763 629.34C592.65 629.333 592.452 629.322 592.452 629.322C592.06 629.202 591.764 629.174 591.242 628.65C591.088 628.496 590.904 628.306 590.784 628.026C590.459 627.268 590.445 627.163 590.395 626.756L586.552 595.884" fill="#32292F"/>
<path d="M593.196 593.073L595.578 625.385C595.616 625.905 595.227 627.82 594.431 628.658C594.017 629.094 593.361 629.386 592.763 629.34C592.65 629.333 592.452 629.322 592.452 629.322C592.06 629.202 591.764 629.174 591.242 628.65C591.088 628.496 590.904 628.306 590.784 628.026C590.459 627.268 590.445 627.163 590.395 626.756L586.552 595.884" stroke="#32292F" stroke-width="0.999999"/>
<path d="M564.36 422.513L565.1 422.509L572.518 422.457C573.811 422.449 572.443 417.102 577.795 416.504C581.524 416.088 583.758 420.044 583.098 423.664C582.61 426.345 580.266 427.617 577.884 429.283C574.548 431.617 571.929 433.81 570.648 437.405C569.575 440.419 569.639 442.204 570.273 445.237C570.77 447.613 575.032 447.933 576.837 446.309C578.343 444.955 577.514 442.789 578.382 441.219C580.378 437.61 583.58 436.106 586.644 434.183C588.219 433.194 590.266 431.968 592.047 429.498C595.049 425.334 594.91 418.314 592.821 414.118C590.949 410.357 587.305 407.311 583.32 405.898C581.18 405.139 577.286 404.67 574.394 405.389C571.308 406.155 568.001 407.683 566.233 410.325C564.149 413.44 562.948 417.785 563.992 421.465C564.093 421.821 564.135 421.917 564.267 422.265L564.36 422.513Z" stroke="#32292F" stroke-width="0.999999"/>
<path d="M569.25 455.026C569.17 456.434 569.693 457.866 570.66 458.892C571.628 459.918 573.027 460.524 574.437 460.526C576.052 460.529 577.649 459.731 578.616 458.438C579.583 457.144 579.897 455.387 579.437 453.839C579.092 452.676 578.326 451.643 577.313 450.975C576.301 450.307 575.049 450.01 573.844 450.15C572.64 450.291 571.49 450.868 570.658 451.751C569.826 452.634 569.318 453.815 569.25 455.026Z" stroke="black" stroke-width="0.999999"/>
<path d="M302.805 347.094C302.698 350.269 303.931 353.468 306.142 355.75C308.352 358.032 311.51 359.367 314.686 359.362C318.304 359.356 321.878 357.59 324.081 354.721C326.285 351.851 327.067 347.942 326.138 344.446C325.415 341.723 323.687 339.279 321.36 337.69C319.033 336.102 316.128 335.382 313.329 335.699C310.529 336.017 307.859 337.37 305.948 339.44C304.036 341.51 302.9 344.278 302.805 347.094Z" fill="#00B1FC" stroke="#00B1FC" stroke-width="0.999999"/>
<path d="M563.811 390.106C560.893 393.29 558.241 396.75 555.427 400.041C552.895 403.155 550.24 406.181 547.878 409.424C547.691 410.112 547.83 410.134 547.815 410.862C548.084 425.038 548.047 439.218 548.154 453.395C548.676 454.794 550.176 455.566 551.112 456.699C559.238 464.631 567.366 472.561 575.45 480.536C576.688 481.276 577.866 479.86 579.047 479.523C582.767 477.857 587.248 476.403 591.15 478.38C592.834 479.088 593.903 480.624 595.226 481.773C596.493 482.315 596.87 480.682 597.091 479.777C597.777 477.23 598.924 477.024 599.39 474.438C599.723 459.366 599.958 442.482 600.295 427.411C602.837 431.488 606.669 438.136 609.284 442.15C610.146 443.071 609.737 438.976 609.823 438.036C610.321 436.569 612.106 437.018 613.287 436.899C616.45 436.801 619.65 437.05 622.79 436.666C623.917 436.111 623.254 434.856 622.631 434.199C613.162 421.914 603.326 409.918 593.672 397.78C591.714 395.397 589.861 392.898 587.838 390.587C586.71 389.949 585.369 390.848 584.134 390.801C581.845 391.051 579.491 390.876 577.235 391.227C576.166 391.864 576.609 393.446 576.389 394.526C576.435 396.482 574.397 397.859 572.654 398.172C570.976 398.27 569.144 398.377 567.763 397.238C566.547 396.399 565.278 395.248 565.393 393.627C565.121 392.428 565.784 390.663 564.453 390.026L563.811 390.106ZM577.942 405.467C585.455 405.334 592.785 411.107 593.718 418.667C594.073 422.108 593.884 425.888 591.959 428.872C589.403 432.865 584.695 434.43 581.181 437.351C579.329 438.937 577.574 440.958 577.47 443.521C577.384 444.716 576.99 446.009 575.778 446.499C574.179 447.137 571.783 447.095 570.776 445.495C569.472 441.1 570.711 436.018 574.133 432.91C576.572 430.295 579.965 428.802 582.347 426.14C584.747 423.142 583.595 417.956 580.041 416.419C577.401 415.481 573.989 416.833 573.261 419.683C572.923 420.364 572.961 421.415 572.436 421.885C569.852 422.072 567.218 422.111 564.656 422.149C563.243 417.831 564.523 412.853 567.482 409.474C570.188 406.722 574.148 405.477 577.942 405.467ZM576.856 423.125C577.698 423.159 577.265 424.494 576.512 423.948C576.253 423.671 576.282 422.917 576.856 423.125ZM574.558 450.574C576.68 450.502 578.711 452.237 579.093 454.288C579.286 455.947 579.021 457.782 577.62 458.877C575.864 460.492 572.987 460.489 571.244 458.861C570.076 457.878 569.623 456.353 569.812 454.867C569.694 452.418 572.224 450.437 574.558 450.574Z" fill="#32292F"/>
<path d="M566.895 485.333C565.474 485.431 564.083 485.778 562.702 486.107C560.865 486.592 559.055 487.193 557.306 487.936C555.075 488.932 553.071 490.357 550.893 491.432C550.362 491.625 550.002 492.257 550.256 492.792C550.437 493.317 551.042 493.466 551.541 493.425C557.683 493.55 563.827 493.627 569.969 493.727C570.601 493.703 571.046 493.053 570.938 492.45C570.867 491.029 570.895 489.59 570.916 488.182C570.99 487.725 570.98 487.184 570.569 486.885C569.69 486.403 568.766 486 567.853 485.585C567.548 485.453 567.236 485.31 566.895 485.333Z" fill="#32292F"/>
<path d="M576.657 422.092C576.32 422.093 575.986 422.234 575.752 422.476C575.511 422.721 575.379 423.061 575.361 423.403C575.34 423.78 575.442 424.166 575.659 424.476C575.788 424.664 575.972 424.807 576.175 424.907C576.409 425.024 576.671 425.09 576.933 425.074C577.241 425.059 577.543 424.94 577.775 424.738C578.043 424.511 578.225 424.189 578.288 423.844C578.36 423.466 578.283 423.058 578.06 422.741C577.864 422.455 577.556 422.252 577.219 422.173C577.137 422.152 577.053 422.145 576.972 422.123C576.868 422.102 576.762 422.091 576.657 422.092Z" fill="#32292F"/>
<path d="M577.87 404.691C572.895 404.588 567.585 406.864 565.152 411.379C563.435 414.652 562.578 418.655 563.785 422.23C564.513 423.365 566.161 422.676 567.3 422.898C569.224 422.805 571.294 423.229 573.11 422.497C573.904 421.286 573.815 419.549 574.854 418.393C576.537 416.373 580.257 416.413 581.646 418.764C583.353 421.168 583.15 424.914 580.647 426.713C577.125 429.555 572.786 431.821 570.76 436.091C569.281 439.028 569.012 442.54 570.021 445.664C570.967 447.911 573.954 448.03 575.94 447.289C577.778 446.648 578.273 444.573 578.393 442.847C578.905 439.9 581.538 437.98 583.855 436.445C587.163 434.385 590.679 432.34 592.846 428.981C594.84 425.793 594.912 421.802 594.504 418.177C593.339 410.451 585.588 404.411 577.87 404.691Z" fill="#F7F7FF"/>
<path d="M574.367 449.68C571.565 449.674 568.991 452.055 568.847 454.866C568.514 457.588 570.562 460.261 573.214 460.826C576.261 461.615 579.62 459.283 580.02 456.177C580.469 453.487 578.693 450.641 576.053 449.915C575.507 449.751 574.936 449.671 574.367 449.68Z" fill="#F7F7FF"/>
<path d="M667.168 435.73C648.464 435.82 629.671 435.054 610.97 435.317C609.487 435.35 608.916 437.772 608.621 438.999C603.957 458.561 597.675 477.96 593.937 487.155C586.251 487.393 578.544 487.257 570.851 487.476C569.652 487.806 570.052 489.22 569.972 490.137C570.07 491.119 569.793 492.223 570.249 493.123C570.819 493.948 572.013 493.556 572.862 493.707C585.973 493.957 599.084 494.155 612.2 494.193C627.948 494.252 643.696 494.346 659.444 494.344C660.712 494.302 662.338 494.52 663.15 493.292C672.747 469.789 675.988 453.837 678.889 438.715C679.376 437.568 678.878 436.021 677.595 435.703C674.12 435.693 670.643 435.724 667.168 435.73Z" fill="#F7F7FF"/>
<path d="M270.997 378.971C270.942 379.382 271.057 379.814 271.309 380.143C271.561 380.473 271.947 380.697 272.359 380.752C272.77 380.807 273.201 380.692 273.531 380.44C273.861 380.188 274.085 379.801 274.14 379.39C274.194 378.979 274.079 378.547 273.827 378.218C273.575 377.888 273.189 377.664 272.778 377.609C272.366 377.554 271.935 377.669 271.605 377.921C271.276 378.173 271.052 378.56 270.997 378.971Z" fill="#32292F" stroke="#32292F" stroke-width="0.237029"/>
<path d="M282.244 379.303C282.189 379.714 282.304 380.145 282.556 380.475C282.808 380.805 283.194 381.029 283.606 381.083C284.017 381.138 284.449 381.023 284.778 380.771C285.108 380.519 285.332 380.133 285.387 379.721C285.441 379.31 285.327 378.879 285.074 378.549C284.822 378.219 284.436 377.995 284.025 377.941C283.613 377.886 283.182 378.001 282.852 378.253C282.523 378.505 282.299 378.891 282.244 379.303Z" fill="#32292F" stroke="#32292F" stroke-width="0.237029"/>
<path d="M395.4 499.891C383.057 449.95 485.247 428.258 473.659 499.932L395.4 499.891Z" fill="#F7F7FF" stroke="black" stroke-width="0.999999"/>
<path d="M393.682 491.191C388.011 493.836 381.952 497.306 382.603 502.294C385.696 526.021 395.93 564.955 402.568 592.539C402.642 592.846 402.748 593.298 403.054 593.361L403.459 593.446L411.083 593.342L411.475 593.346C411.655 593.348 411.904 592.969 411.9 592.788C411.192 565.683 404.305 520.844 408.209 506.606C409.235 502.865 414.878 501.797 419.663 499.941" stroke="black" stroke-width="0.999999"/>
<path d="M474.876 491.179C480.547 493.824 486.606 497.294 485.956 502.282C482.862 526.009 472.629 564.943 465.991 592.527C465.917 592.834 465.811 593.285 465.505 593.349L465.099 593.434L457.476 593.33L457.083 593.333C456.903 593.335 456.654 592.957 456.659 592.776C457.367 565.67 464.254 520.832 460.349 506.593C459.324 502.852 453.68 501.785 448.896 499.929" stroke="black" stroke-width="0.999999"/>
<path d="M412.082 593.359L411.998 608.392L396.921 628.554C392.322 633.262 388.747 625.436 393.468 620.507C393.85 620.108 403.659 605.828 403.659 605.828L403.491 593.448" fill="#32292F"/>
<path d="M412.082 593.359L411.998 608.392L396.921 628.554C392.322 633.262 388.747 625.436 393.468 620.507C393.85 620.108 403.659 605.828 403.659 605.828L403.491 593.448" stroke="#32292F" stroke-width="0.976388"/>
<path d="M455.789 592.71L455.877 607.736L471.699 627.889C476.526 632.595 480.277 624.773 475.323 619.846C474.922 619.447 464.628 605.173 464.628 605.173L464.805 592.799" fill="#32292F"/>
<path d="M429.064 462.376L428.507 414.912C425.755 404.056 414.63 399.758 409.381 389.604" stroke="black" stroke-width="0.999999"/>
<path d="M392.091 483.324C391.649 481.468 371.486 455.592 371.486 455.592C371.486 455.592 370.823 454.707 370.443 453.455C370.07 452.224 370.385 450.907 371.762 448.234C375.167 441.624 399.427 407.752 399.427 407.752C399.427 407.752 403.637 403.211 411.68 404.272" stroke="black" stroke-width="0.999999"/>
<path d="M390.81 451.018C393.196 448.057 404.642 436.873 404.642 436.964L405.217 462.862" stroke="black" stroke-width="0.999999"/>
<path d="M476.22 483.876C476.662 482.02 496.825 456.144 496.825 456.144C496.825 456.144 497.489 455.259 497.868 454.007C498.242 452.776 497.926 451.459 496.549 448.786C493.144 442.176 468.884 408.304 468.884 408.304C468.884 408.304 464.674 403.763 456.631 404.824" stroke="black" stroke-width="0.999999"/>
<path d="M475.449 462.465C475.449 462.465 479.427 455.35 479.382 455.129C479.338 454.908 480.387 452.987 478.587 450.754C476.2 447.792 464.754 436.608 464.754 436.7L464.18 462.598" stroke="black" stroke-width="0.999999"/>
<path d="M428.552 415.574C428.552 415.574 433.767 419.198 439.821 415.53" stroke="black" stroke-width="0.999999"/>
<path d="M421.437 367.138C429.246 370.518 437.183 371.08 445.346 366.696" stroke="black" stroke-width="0.999999"/>
<path d="M448.174 369.215C448.023 376.576 450.316 380.56 456.527 379.91" stroke="black" stroke-width="0.999999"/>
<path d="M419.64 369.6C419.79 376.961 417.779 381.101 411.568 380.451" stroke="black" stroke-width="0.999999"/>
<path d="M410.89 392.186C410.89 392.186 412.105 393.468 412.899 393.793C413.582 394.072 415.1 394.018 415.1 394.018C415.768 394.926 416.838 396.796 417.972 397.961C419.211 399.233 420.941 400.522 422.191 401.209C423.437 401.894 424.903 402.281 425.394 402.737C426.101 403.393 425.555 404.458 425.912 409.018L426.038 409.205" fill="black"/>
<path d="M410.89 392.186C410.89 392.186 412.105 393.468 412.899 393.793C413.582 394.072 415.1 394.018 415.1 394.018C415.768 394.926 416.838 396.796 417.972 397.961C419.211 399.233 420.941 400.522 422.191 401.209C423.437 401.894 424.903 402.281 425.394 402.737C426.101 403.393 425.555 404.458 425.912 409.018L426.038 409.205" stroke="black" stroke-width="0.999999"/>
<path d="M456.679 392.675C456.679 392.675 455.131 394.274 454.129 394.679C453.445 394.955 451.928 394.904 451.928 394.904C451.259 395.813 450.19 397.682 449.055 398.847C447.817 400.119 446.087 401.408 444.836 402.095C443.591 402.78 442.124 403.167 441.634 403.623C440.927 404.279 441.473 405.345 441.115 409.904L440.99 410.091" fill="black"/>
<path d="M456.679 392.675C456.679 392.675 455.131 394.274 454.129 394.679C453.445 394.955 451.928 394.904 451.928 394.904C451.259 395.813 450.19 397.682 449.055 398.847C447.817 400.119 446.087 401.408 444.836 402.095C443.591 402.78 442.124 403.167 441.634 403.623C440.927 404.279 441.473 405.345 441.115 409.904L440.99 410.091" stroke="black" stroke-width="0.999999"/>
<path d="M423.533 390.943C423.478 391.355 423.593 391.786 423.845 392.116C424.097 392.445 424.483 392.669 424.895 392.724C425.306 392.779 425.738 392.664 426.067 392.412C426.397 392.16 426.621 391.774 426.676 391.362C426.73 390.951 426.616 390.52 426.363 390.19C426.111 389.86 425.725 389.636 425.314 389.582C424.902 389.527 424.471 389.642 424.141 389.894C423.812 390.146 423.588 390.532 423.533 390.943Z" fill="#32292F" stroke="#32292F" stroke-width="0.237029"/>
<path d="M439.967 391.058C439.912 391.469 440.027 391.901 440.279 392.23C440.531 392.56 440.917 392.784 441.328 392.839C441.74 392.894 442.171 392.779 442.501 392.527C442.83 392.274 443.054 391.888 443.109 391.477C443.164 391.065 443.049 390.634 442.797 390.304C442.545 389.975 442.159 389.751 441.747 389.696C441.336 389.641 440.905 389.756 440.575 390.008C440.245 390.26 440.021 390.647 439.967 391.058Z" fill="#32292F" stroke="#32292F" stroke-width="0.237029"/>
<path d="M320.805 405.925C319.406 406.028 317.662 409.155 317.128 410.433C315.55 414.212 314.27 417.363 313.073 421.273C308.674 436.348 304.78 451.564 300.912 466.781C300.252 469.425 299.566 472.063 298.94 474.714C298.853 475.156 298.91 474.808 298.484 477.156C298.414 477.542 300.227 475.946 300.559 475.668C303.754 472.65 306.827 469.505 309.99 466.453C314.239 462.278 318.542 458.148 322.757 453.944C323.231 453.254 322.95 452.346 323.061 451.557C323.189 438.164 323.112 424.764 323.266 411.375C323.277 410.548 323.137 408.879 322.76 408.044C322.303 407.034 321.977 405.888 320.805 405.925Z" fill="#AB4333"/>
<path d="M269.689 416.441C268.816 420.933 268.102 425.001 267.522 429.639C267.34 431.476 267.218 432.006 267.214 433.034C267.636 432.292 268.231 431.364 268.46 430.995C269.367 429.519 269.913 428.648 270.803 427.162C270.784 424.388 270.745 423.831 270.769 423.37C270.712 420.699 270.743 418.7 270.661 416.03C270.493 414.076 269.914 415.497 269.689 416.441Z" fill="#AB4333"/>
<path d="M314.795 480.401C311.336 482.456 309.257 483.416 304.884 485.705C305.257 486.151 306.08 486.335 306.596 486.453C307.702 486.642 308.793 486.934 309.836 487.3C311.356 487.813 312.882 488.326 314.33 489.023C315.434 489.519 316.446 490.19 317.497 490.783C318.246 491.211 318.974 491.674 319.729 492.091C320.632 492.577 321.124 492.934 321.135 492.664C321.165 491.916 321.178 490.946 321.208 490.204C321.418 485.784 321.689 480.614 321.885 476.192C319.299 477.833 317.311 479.018 314.795 480.401Z" fill="#AB4333"/>
<path d="M284.097 476.448C283.112 476.425 282.13 476.568 281.185 476.845C279.327 477.359 277.67 478.489 276.437 479.963C275.907 480.589 275.981 480.69 275.561 481.391C275.688 481.929 275.878 482.505 276.029 482.998C276.425 484.298 277.127 486.52 277.544 487.812C279.919 487.868 279.288 487.835 279.919 487.868C286.567 487.917 290.778 488.116 297.426 488.139C297.963 488.173 298.51 487.767 298.54 487.213C298.594 486.791 298.324 486.408 297.98 486.19C296.786 485.288 295.899 483.93 295.696 482.434C295.653 481.97 295.696 481.505 295.764 481.046C295.798 480.538 295.407 480.132 294.977 479.924C293.316 478.989 291.623 478.084 289.805 477.49C288.327 476.961 286.792 476.544 285.219 476.457C284.845 476.446 284.471 476.444 284.097 476.448Z" fill="#DBA79F"/>
<path d="M306.756 391.972C306.756 391.972 315.246 391.758 322.84 393.944C326.515 395.003 329.101 396.602 330.78 399.803C334.872 407.607 342.035 442.015 337.18 462.431C336.705 464.43 335.322 466.182 333.859 467.626C324.452 476.916 303.049 487.379 300.174 488.566C297.299 489.754 292.674 484.004 295.799 480.754C298.924 477.504 322.174 454.879 322.174 454.879L322.369 411.146C322.369 411.146 322.147 410.609 321.712 410.073C320.967 409.154 319.597 408.239 317.643 410.035C314.549 412.879 298.46 478.1 298.46 478.1" fill="#FF715B"/>
<path d="M306.756 391.972C306.756 391.972 315.246 391.758 322.84 393.944C326.515 395.003 329.101 396.602 330.78 399.803C334.872 407.607 342.035 442.015 337.18 462.431C336.705 464.43 335.322 466.182 333.859 467.626C324.452 476.916 303.049 487.379 300.174 488.566C297.299 489.754 292.674 484.004 295.799 480.754C298.924 477.504 322.174 454.879 322.174 454.879L322.369 411.146C322.369 411.146 322.147 410.609 321.712 410.073C320.967 409.154 319.597 408.239 317.643 410.035C314.549 412.879 298.46 478.1 298.46 478.1" stroke="#FF715B" stroke-width="0.999999"/>
<path d="M404.232 376.277C403.662 378.531 403.38 380.885 403.02 383.194C402.584 386.662 402.063 390.139 401.975 393.637C402.282 395.674 403.965 397.108 405.282 398.553C407.229 400.492 409.008 402.02 411.161 403.725C407.761 402.886 403.546 403.413 400.661 405.642C398.724 407.138 397.762 408.587 395.981 411.208C387.658 424.777 376.129 433.07 369.972 450.561C369.301 452.469 370.366 455.064 371.313 456.484C377.493 465.754 385.855 475.489 391.874 483.809C390.364 476.583 389.492 470.604 388.693 465.075C388.507 464.121 388.868 462.883 389.999 462.781C391.069 462.496 392.545 463.825 393.584 463.497C393.839 462.777 396.396 466.583 395.598 464.589C394.63 462.693 390.915 456.732 390.389 454.653C390.144 453.206 390.524 452.128 391.556 451.072C395.716 446.455 400.1 441.976 404.563 437.65C405.509 437.363 404.267 436.508 404.219 437.224C404.356 445.129 404.54 456.658 404.649 464.563C404.92 465.31 406.632 462.449 407.237 462.587H428.526C429.279 462.316 428.773 461.288 428.904 460.682C428.67 445.458 429.484 431.712 429.275 416.49C429.621 411.062 425.051 407.418 421.857 404.331C418.83 401.132 415.039 397.645 412.232 394.248C410.703 392.17 410.295 390.626 409.643 388.081C409.496 386.528 410.005 384.602 410.636 383.265C411.824 381.011 413.364 378.569 414.655 376.393C414.644 375.524 412.553 376.299 411.979 376.163C409.455 376.193 406.906 376.1 404.397 376.21L404.281 376.257L404.232 376.277Z" fill="#00B1FC" stroke="#00B1FC" stroke-width="0.125"/>
<path d="M458.62 376.164C457.437 376.202 456.235 376.107 455.064 376.253C454.48 376.807 455.401 377.418 455.614 377.947C457.009 380.629 458.81 383.629 458.523 386.651C458.194 390.113 456.171 392.586 454.054 395.202C450.344 399.787 443.895 403.863 441.064 409.203C439.624 410.96 438.709 416.545 438.944 419.011C439.948 426.764 434.138 463.044 439.945 462.676L463.58 462.587C464.33 462.29 464.756 464.928 464.927 464.292C465.19 456.463 464.883 446.328 465.203 438.502C466.051 438.257 465.942 438.494 466.464 439.033C470.407 443.066 473.78 446.306 477.488 450.503C478.553 451.634 479.551 452.696 479.053 454.297C478.146 456.966 475.724 460.136 474.538 462.66C474.576 463.434 477.019 462.493 477.564 462.642C478.444 462.639 479.431 463.146 479.353 464.166C479.368 466.344 478.824 468.495 478.558 470.645C478.052 474.03 477.399 477.414 476.974 480.809C477.104 481.473 476.477 484.317 476.631 483.84C482.53 475.657 490.492 465.624 496.592 457.591C497.524 456.342 498.956 454.038 498.496 452.413C497.701 449.461 496.247 447.255 494.777 444.62C488.148 432.741 478.735 421.136 470.873 410.087C469.718 408.476 468.36 406.652 466.466 405.862C463.886 404.413 460.469 404.125 457.56 404.253C456.723 404.459 456.974 404.431 457.45 404.171C460.494 401.094 463.797 398.122 465.901 394.282C467.179 392.104 466.677 389.499 466.407 387.133C465.872 383.494 465.127 379.852 464.015 376.358C463.438 375.927 462.534 376.276 461.83 376.163C460.76 376.163 459.69 376.162 458.62 376.164Z" fill="#00B1FC" stroke="#00B1FC" stroke-width="0.125"/>
<path d="M432.652 343.394C426.397 343.34 420.609 346.559 416.233 350.833C412.502 354.267 409.582 358.55 407.844 363.321C406.262 367.444 405.001 372.164 404.215 376.486C404.886 377.19 406.344 376.228 407.292 376.423C409.511 376.404 412.607 379.305 414.065 377.457C416.175 374.92 418.645 371.123 420.864 368.669C424.71 364.452 427.39 361.529 431.112 358.285C432.59 357.181 434.596 356.584 436.228 357.734C438.829 359.569 441.187 362.395 443.516 364.557C447.471 368.502 451.925 373.114 456.189 378.919C457.861 381.559 458.262 376.329 460.13 376.401C461.28 376.358 462.801 377.956 463.942 377.806C464.581 377.135 463.34 374.605 463.267 373.831C460.976 366.973 458.238 360.071 453.656 354.392C449.419 349.767 444.192 345.692 438.031 344.081C436.276 343.627 434.465 343.387 432.652 343.394Z" fill="#00B1FC" stroke="#00B1FC" stroke-width="0.176777"/>
<path d="M429.316 415.269C429.454 429.418 428.671 448.656 428.976 461.928C428.701 463.178 429.407 463.949 430.673 463.592C433.479 463.544 436.784 463.116 439.565 462.949C439.649 462.039 439.511 460.364 439.655 459.347C439.637 445.026 438.907 429.374 439.118 415.055C436.166 416.417 432.441 416.017 429.316 415.269Z" fill="#32292F"/>
<path d="M475.155 491.973C474.665 494.651 474.276 497.348 473.841 500.036C466.641 500.043 451.066 499.235 443.866 499.241C442.739 500.016 453.266 502.108 453.845 502.384C456.201 503.348 458.153 503.815 459.443 506.185C460.812 509.65 460.763 514.154 460.951 517.829C461.105 532.086 458.907 546.292 457.79 560.497C456.934 571.17 454.902 583.405 454.542 594.11C456.982 594.182 463.551 594.203 466.255 594.185C473.133 561.755 485.921 532.176 486.601 501.029C486.831 498.137 483.115 495.29 481.059 493.656C479.198 492.285 476.377 490.991 474.284 490.068C474.467 490.681 474.916 491.462 475.155 491.973Z" fill="#4C5454"/>
<path d="M393.353 490.71C390.993 491.531 387.266 493.786 385.358 495.562C383.518 497.099 381.918 499.021 382.133 501.66C382.432 506.557 383.178 511.491 383.999 516.319C390.453 545.984 397.468 574.021 402.383 594.063C405.19 594.165 409.988 594.025 412.814 593.942C411.518 564.249 407.55 533.932 408.398 508.535C408.72 506.39 409.908 504.376 411.762 503.538C413.322 502.673 419.299 500.836 420.815 499.962C420.573 498.86 414.752 500.293 413.881 500.052C407.663 500.048 401.445 500.041 395.227 500.037C394.712 497.361 394.183 493.424 393.51 490.784C393.357 491.015 393.409 490.513 393.353 490.71Z" fill="#4C5454"/>
<path d="M434.164 357.135C432.534 357.067 431.7 357.766 430.685 358.494C428.64 360.163 427.082 362.052 425.26 363.958C423.206 366.106 423.338 365.962 421.736 367.807C424.756 369.201 429.157 370.225 432.381 370.371C434.472 370.41 438.159 370.094 440.092 369.477C442.363 368.695 443.912 368.185 445.797 367.021C445.125 366.297 444.843 365.99 444.572 365.754C442.125 363.252 439.041 359.975 437.146 358.499C435.968 357.542 435.321 357.193 434.164 357.135Z" fill="#4C5454"/>
<path d="M419.174 370.827C418.603 371.269 418.227 371.925 417.756 372.469C415.804 374.788 413.317 378.129 411.911 380.991C411.754 381.395 412.203 381.652 412.554 381.578C414.273 381.618 416.936 380.46 418.03 379.08C419.506 377.25 420.158 375.038 420.257 372.76C420.276 372.352 420.546 369.939 420.125 369.679C420.02 369.614 419.292 370.782 419.174 370.827Z" fill="#4C5454"/>
<path d="M448.181 375.851C448.728 377.245 449.816 378.439 451.013 379.34C451.941 380.037 452.534 380.674 454.219 380.698C454.586 380.728 456.509 380.694 456.774 380.478C456.706 379.9 455.796 378.387 455.258 377.467C453.286 374.098 447.849 368.657 447.737 369.104C447.11 369.865 447.358 373.753 448.181 375.851Z" fill="#4C5454"/>
<path d="M390.585 462.555C389.815 462.525 388.518 463.287 388.688 464.704C390.195 475.153 391.711 485.831 395.268 500.114C428.836 500.436 433.842 500.488 473.853 500.024C477.052 483.414 478.298 474.276 479.413 464.379C479.653 463.426 478.441 462.083 477.473 462.325C446.838 462.262 418.879 462.663 390.585 462.555Z" fill="#F7F7FF"/>
<path d="M616.083 434.894C614.07 435.078 611.885 434.605 609.962 435.26C608.273 436.768 608.275 439.336 607.559 441.351C603.663 456.658 599.362 471.877 593.628 486.607C585.996 486.978 578.316 486.633 570.687 487.177C569.127 487.52 569.696 489.62 569.563 490.775C569.571 492.006 569.56 493.986 571.27 493.98C579.625 494.585 588.023 494.359 596.396 494.548C617.746 494.675 639.099 494.813 660.447 494.56C661.716 494.598 663.316 494.447 663.679 492.963C667.978 482.905 671.384 472.468 674.233 461.911C676.276 453.96 678.131 445.941 679.431 437.835C679.585 436.472 678.539 434.957 677.016 435.45C656.706 435.219 636.395 434.887 616.083 434.894Z" fill="#FF715B"/>
<path d="M206.613 434.937C202.08 435.061 197.497 434.75 192.992 435.263C190.923 436.179 191.842 438.845 192.081 440.534C195.448 456.684 200.145 472.543 205.612 488.101C206.438 490.042 206.823 492.268 208.014 494.009C210.141 495.3 212.804 494.539 215.158 494.739C242.913 494.449 270.672 494.794 298.426 494.449C299.563 494.404 301.379 494.637 301.528 493.059C301.647 491.589 302.056 489.99 301.627 488.561C300.842 487.738 299.819 489.127 298.867 488.591C295.826 487.26 292.401 487.766 289.169 487.549C285.406 487.474 281.644 487.406 277.882 487.334C277.132 484.584 275.957 482.023 275.362 479.237C271.178 465.156 266.994 451.065 262.371 437.122C261.217 434.809 258.166 435.455 256.066 435.209C239.585 434.874 223.097 434.954 206.613 434.937Z" fill="#4C5454"/>
<path d="M353.322 176.36C352.856 177.201 353.223 178.263 353.107 179.195C353.137 181.149 353.049 183.122 353.149 185.063C353.469 185.919 354.632 185.406 355.332 185.546C385.082 185.546 414.832 185.546 444.582 185.546C445.58 185.315 445.05 184.049 445.182 183.32C445.152 181.117 445.239 178.894 445.139 176.703C444.82 175.847 443.656 176.36 442.957 176.22C413.207 176.22 383.457 176.22 353.707 176.22C353.579 176.267 353.45 176.313 353.322 176.36Z" fill="#4C5454" stroke="#4C5454" stroke-width="0.0375"/>
<path d="M444.905 176.645C444.538 179.305 444.851 182.092 444.746 184.801C445.605 186.058 447.72 185.104 449.096 185.401C477.846 185.401 506.596 185.401 535.346 185.401C536.603 184.543 535.649 182.428 535.946 181.051C535.825 179.583 536.195 178.011 535.753 176.61C531.76 176.241 527.639 176.556 523.596 176.451C497.513 176.451 471.43 176.451 445.346 176.451L445.117 176.552L444.905 176.645Z" fill="#4C5454" stroke="#4C5454" stroke-width="0.0750002"/>
<path d="M373.251 194.937C372.883 197.68 373.196 200.551 373.092 203.344C373.951 204.6 376.066 203.646 377.443 203.944C436.693 203.944 495.943 203.944 555.193 203.944C556.449 203.085 555.495 200.97 555.793 199.594C555.678 198.04 556.031 196.389 555.599 194.902C551.606 194.533 547.485 194.848 543.442 194.743C486.859 194.743 430.276 194.743 373.693 194.743L373.463 194.844L373.251 194.937Z" fill="#4C5454" stroke="#4C5454" stroke-width="0.0750002"/>
<path d="M405.251 215.687C404.883 218.43 405.196 221.301 405.092 224.094C405.951 225.35 408.066 224.396 409.443 224.694C485.693 224.694 561.943 224.694 638.193 224.694C639.449 223.835 638.495 221.72 638.793 220.344C638.679 218.79 639.031 217.139 638.599 215.652C634.606 215.283 630.485 215.598 626.443 215.493C552.859 215.493 479.276 215.493 405.693 215.493L405.464 215.594L405.251 215.687Z" fill="#4C5454" stroke="#4C5454" stroke-width="0.0750002"/>
<path d="M436.501 237.687C436.133 240.43 436.446 243.301 436.342 246.094C437.201 247.35 439.316 246.396 440.693 246.694C500.026 246.694 559.359 246.694 618.693 246.694C619.949 245.835 618.995 243.72 619.293 242.344C619.179 240.79 619.531 239.139 619.099 237.652C615.106 237.283 610.985 237.598 606.943 237.493C550.276 237.493 493.609 237.493 436.943 237.493L436.713 237.594L436.501 237.687Z" fill="#4C5454" stroke="#4C5454" stroke-width="0.0750002"/>
<path d="M408.751 257.937C408.383 260.68 408.696 263.551 408.592 266.344C409.451 267.6 411.566 266.646 412.943 266.944C472.276 266.944 531.609 266.944 590.943 266.944C592.199 266.085 591.245 263.97 591.543 262.594C591.429 261.04 591.781 259.389 591.349 257.902C587.356 257.533 583.235 257.848 579.193 257.743C522.526 257.743 465.859 257.743 409.193 257.743L408.963 257.844L408.751 257.937Z" fill="#4C5454" stroke="#4C5454" stroke-width="0.0750002"/>
<path d="M375.501 279.687C375.133 282.43 375.446 285.301 375.342 288.094C376.201 289.35 378.316 288.396 379.693 288.694C442.609 288.694 505.526 288.694 568.443 288.694C569.699 287.835 568.745 285.72 569.043 284.344C568.929 282.79 569.281 281.139 568.849 279.652C564.856 279.283 560.735 279.598 556.693 279.493C496.443 279.493 436.193 279.493 375.943 279.493L375.714 279.594L375.501 279.687Z" fill="#4C5454" stroke="#4C5454" stroke-width="0.0750002"/>
<path d="M357.501 300.937C357.133 303.68 357.446 306.551 357.342 309.344C358.201 310.6 360.316 309.646 361.693 309.944C421.026 309.944 480.359 309.944 539.693 309.944C540.949 309.085 539.995 306.97 540.293 305.594C540.179 304.04 540.531 302.389 540.099 300.902C536.106 300.533 531.985 300.848 527.943 300.743C471.276 300.743 414.609 300.743 357.943 300.743L357.714 300.844L357.501 300.937Z" fill="#4C5454" stroke="#4C5454" stroke-width="0.0750002"/>
<path d="M377.251 320.437C376.883 323.18 377.196 326.051 377.092 328.844C377.951 330.1 380.066 329.146 381.443 329.444C440.776 329.444 500.109 329.444 559.443 329.444C560.699 328.585 559.745 326.47 560.043 325.094C559.929 323.54 560.281 321.889 559.849 320.402C555.856 320.033 551.735 320.348 547.693 320.243C491.026 320.243 434.359 320.243 377.693 320.243L377.463 320.344L377.251 320.437Z" fill="#4C5454" stroke="#4C5454" stroke-width="0.0750002"/>
<path d="M238.604 383.989C238.138 384.83 238.505 385.892 238.389 386.825C238.444 388.606 238.277 390.427 238.474 392.185C238.905 392.871 239.927 392.42 240.614 392.55C247.072 392.55 253.53 392.55 259.989 392.55C260.987 392.319 260.457 391.053 260.589 390.325C260.562 388.33 260.646 386.315 260.546 384.332C260.227 383.476 259.063 383.989 258.364 383.849C251.905 383.849 245.447 383.849 238.989 383.849C238.861 383.896 238.732 383.942 238.604 383.989Z" fill="#F7F7FF"/>
<path d="M238.979 363.864C238.513 364.705 238.88 365.767 238.764 366.7C238.819 368.481 238.652 370.302 238.849 372.06C239.28 372.746 240.302 372.295 240.989 372.425C247.447 372.425 253.905 372.425 260.364 372.425C261.362 372.194 260.832 370.928 260.964 370.2C260.937 368.205 261.02 366.19 260.921 364.207C260.602 363.351 259.438 363.864 258.739 363.724C252.28 363.724 245.822 363.724 239.364 363.724C239.235 363.771 239.107 363.817 238.979 363.864Z" fill="#F7F7FF"/>
<path d="M238.354 341.614C237.888 342.455 238.255 343.517 238.139 344.45C238.194 346.231 238.027 348.052 238.224 349.81C238.655 350.496 239.677 350.045 240.364 350.175C246.822 350.175 253.28 350.175 259.739 350.175C260.737 349.944 260.207 348.678 260.339 347.95C260.312 345.955 260.396 343.94 260.296 341.957C259.977 341.101 258.813 341.614 258.114 341.474C251.655 341.474 245.197 341.474 238.739 341.474C238.611 341.521 238.482 341.567 238.354 341.614Z" fill="#F7F7FF"/>
<path d="M238.479 321.239C238.013 322.08 238.38 323.142 238.264 324.075C238.319 325.857 238.152 327.677 238.349 329.435C238.78 330.121 239.802 329.67 240.489 329.8C246.947 329.8 253.405 329.8 259.864 329.8C260.862 329.569 260.332 328.303 260.464 327.575C260.437 325.58 260.521 323.565 260.421 321.582C260.102 320.726 258.938 321.239 258.239 321.099C251.78 321.099 245.322 321.099 238.864 321.099C238.736 321.146 238.607 321.192 238.479 321.239Z" fill="#F7F7FF"/>
<path d="M238.729 300.864C238.263 301.705 238.63 302.767 238.514 303.7C238.569 305.482 238.402 307.302 238.599 309.06C239.03 309.746 240.052 309.295 240.739 309.425C247.197 309.425 253.655 309.425 260.114 309.425C261.112 309.194 260.582 307.928 260.714 307.2C260.687 305.205 260.771 303.19 260.671 301.207C260.352 300.351 259.188 300.864 258.489 300.724C252.03 300.724 245.572 300.724 239.114 300.724C238.985 300.771 238.857 300.817 238.729 300.864Z" fill="#F7F7FF"/>
<path d="M238.729 280.489C238.263 281.33 238.63 282.392 238.514 283.325C238.569 285.107 238.402 286.928 238.599 288.685C239.03 289.371 240.052 288.92 240.739 289.05C247.197 289.05 253.655 289.05 260.114 289.05C261.112 288.819 260.582 287.553 260.714 286.825C260.687 284.83 260.771 282.815 260.671 280.832C260.352 279.976 259.188 280.489 258.489 280.349C252.03 280.349 245.572 280.349 239.114 280.349C238.985 280.396 238.857 280.442 238.729 280.489Z" fill="#F7F7FF"/>
<path d="M238.104 258.364C237.638 259.205 238.005 260.267 237.889 261.2C237.944 262.982 237.777 264.802 237.974 266.56C238.405 267.246 239.427 266.795 240.114 266.925C246.572 266.925 253.03 266.925 259.489 266.925C260.487 266.694 259.957 265.428 260.089 264.7C260.062 262.705 260.145 260.69 260.046 258.707C259.727 257.851 258.563 258.364 257.864 258.224C251.405 258.224 244.947 258.224 238.489 258.224C238.36 258.271 238.232 258.317 238.104 258.364Z" fill="#F7F7FF"/>
<path d="M238.604 237.864C238.138 238.705 238.505 239.767 238.389 240.7C238.444 242.482 238.277 244.302 238.474 246.06C238.905 246.746 239.927 246.295 240.614 246.425C247.072 246.425 253.53 246.425 259.989 246.425C260.987 246.194 260.457 244.928 260.589 244.2C260.562 242.205 260.646 240.19 260.546 238.207C260.227 237.351 259.063 237.864 258.364 237.724C251.905 237.724 245.447 237.724 238.989 237.724C238.861 237.771 238.732 237.817 238.604 237.864Z" fill="#F7F7FF"/>
<path d="M238.979 217.489C238.513 218.33 238.88 219.392 238.764 220.325C238.819 222.107 238.652 223.927 238.849 225.685C239.28 226.371 240.302 225.92 240.989 226.05C247.447 226.05 253.905 226.05 260.364 226.05C261.362 225.819 260.832 224.553 260.964 223.825C260.937 221.83 261.02 219.815 260.921 217.832C260.602 216.976 259.438 217.489 258.739 217.349C252.28 217.349 245.822 217.349 239.364 217.349C239.235 217.396 239.107 217.442 238.979 217.489Z" fill="#F7F7FF"/>
<path d="M238.479 195.239C238.013 196.08 238.38 197.142 238.264 198.075C238.319 199.857 238.152 201.677 238.349 203.435C238.78 204.121 239.802 203.67 240.489 203.8C246.947 203.8 253.405 203.8 259.864 203.8C260.862 203.569 260.332 202.303 260.464 201.575C260.437 199.58 260.521 197.565 260.421 195.582C260.102 194.726 258.938 195.239 258.239 195.099C251.78 195.099 245.322 195.099 238.864 195.099C238.736 195.146 238.607 195.192 238.479 195.239Z" fill="#F7F7FF"/>
<path d="M238.604 176.864C238.138 177.705 238.505 178.767 238.389 179.7C238.444 181.482 238.277 183.303 238.474 185.06C238.905 185.746 239.927 185.295 240.614 185.425C247.072 185.425 253.53 185.425 259.989 185.425C260.987 185.194 260.457 183.928 260.589 183.2C260.562 181.205 260.646 179.19 260.546 177.207C260.227 176.351 259.063 176.864 258.364 176.724C251.905 176.724 245.447 176.724 238.989 176.724C238.861 176.771 238.732 176.817 238.604 176.864Z" fill="#F7F7FF"/>
</g>
</g>
<defs>
<filter id="filter0_f_1370_94" x="100.957" y="109.184" width="669.012" height="410.181" filterUnits="userSpaceOnUse" color-interpolation-filters="sRGB">
<feFlood flood-opacity="0" result="BackgroundImageFix"/>
<feBlend mode="normal" in="SourceGraphic" in2="BackgroundImageFix" result="shape"/>
<feGaussianBlur stdDeviation="0.00242679" result="effect1_foregroundBlur_1370_94"/>
</filter>
<clipPath id="clip0_1370_94">
<rect width="772.015" height="666.504" fill="white"/>
</clipPath>
</defs>
</svg>
