<?xml version="1.0" encoding="UTF-8" standalone="no"?>
<svg
   xmlns:dc="http://purl.org/dc/elements/1.1/"
   xmlns:cc="http://creativecommons.org/ns#"
   xmlns:rdf="http://www.w3.org/1999/02/22-rdf-syntax-ns#"
   xmlns:svg="http://www.w3.org/2000/svg"
   xmlns="http://www.w3.org/2000/svg"
   xmlns:sodipodi="http://sodipodi.sourceforge.net/DTD/sodipodi-0.dtd"
   xmlns:inkscape="http://www.inkscape.org/namespaces/inkscape"
   sodipodi:docname="hack-a-thon2.svg"
   inkscape:version="1.0 (4035a4fb49, 2020-05-01)"
   id="svg8"
   version="1.1"
   viewBox="0 0 40.778134 40.778133"
   height="40.778133mm"
   width="40.778133mm">
  <defs
     id="defs2" />
  <sodipodi:namedview
     inkscape:document-rotation="0"
     inkscape:window-maximized="1"
     inkscape:window-y="-11"
     inkscape:window-x="-11"
     inkscape:window-height="1000"
     inkscape:window-width="1920"
     borderlayer="true"
     inkscape:showpageshadow="false"
     fit-margin-bottom="0"
     fit-margin-right="0"
     fit-margin-left="0"
     fit-margin-top="0"
     showgrid="false"
     inkscape:current-layer="layer1"
     inkscape:document-units="px"
     inkscape:cy="86.8902"
     inkscape:cx="83.821848"
     inkscape:zoom="2.8970288"
     inkscape:pageshadow="2"
     inkscape:pageopacity="0"
     borderopacity="1.0"
     bordercolor="#666666"
     pagecolor="#474747"
     id="base" />
  <metadata
     id="metadata5">
    <rdf:RDF>
      <cc:Work
         rdf:about="">
        <dc:format>image/svg+xml</dc:format>
        <dc:type
           rdf:resource="http://purl.org/dc/dcmitype/StillImage" />
        <dc:title></dc:title>
      </cc:Work>
    </rdf:RDF>
  </metadata>
  <g
     style="display:none"
     transform="translate(-2.1005216,-70.500514)"
     id="layer1"
     inkscape:groupmode="layer"
     inkscape:label="Background">
    <path
       inkscape:connector-curvature="0"
       id="rect5735"
       d="M -146.84374,-4.3604197 H 191.82291 V 186.13958 h -338.66665 z"
       style="opacity:1;fill:#ffffff;fill-opacity:1;fill-rule:nonzero;stroke:none;stroke-width:3.43958;stroke-linecap:round;stroke-linejoin:round;stroke-miterlimit:4;stroke-dasharray:none;stroke-dashoffset:0;stroke-opacity:1" />
  </g>
  <g
     transform="translate(-148.94426,-74.860933)"
     inkscape:label="Layer 1"
     id="layer2"
     inkscape:groupmode="layer">
    <circle
       style="opacity:0.994;fill:#00b1fc;fill-opacity:1;stroke-width:0.273445"
       id="circle2087"
       cx="169.33333"
       cy="95.25"
       r="20.389067" />
    <g
       transform="matrix(0.42124477,0,0,0.41906477,26.704932,30.263028)"
       id="g2179"
       style="opacity:0.994">
      <path
         id="path2093"
         style="display:inline;opacity:0.999;fill:#373637;fill-opacity:1;stroke:#ffffff;stroke-width:6.06353;stroke-linecap:butt;stroke-linejoin:miter;stroke-miterlimit:4;stroke-dasharray:none;stroke-opacity:1"
         d="m 1466.5742,627.35938 c -7.7732,0.0245 -16.1829,0.68183 -25.1875,2.17187 -27.2765,4.51359 -54.3093,20.29541 -71.5996,41.86914 -12.0966,15.09317 -20.0144,36.06855 -17.6797,55.26953 1.1578,9.52184 -2.558,17.77202 15.0801,24.50781 9.8986,18.13134 23.0161,22.57965 39.1934,16.35352 19.1237,34.79981 39.8547,24.79864 60.5253,16.48633 17.3336,10.71938 21.9961,36.08915 34.1465,41.04101 6.8482,2.47884 13.8367,2.86328 25.7715,2.81641 l -14.3105,-22.5625 c 2.4489,3.49924 50.5143,-1.73838 48.707,-37.25781 12.6193,-7.98306 17.4711,-20.71447 18.082,-32.78516 a 40.438247,40.908284 0 0 1 -3.3867,0.14453 40.438247,40.908284 0 0 1 -40.4219,-39.82031 45.896766,46.43025 0 0 1 -10.6933,1.27734 45.896766,46.43025 0 0 1 -45.8965,-46.42968 45.896766,46.43025 0 0 1 5.4648,-21.97071 c -5.4921,-0.7235 -11.426,-1.13141 -17.7949,-1.11132 z"
         transform="matrix(0.26458333,0,0,0.26458333,-54.62989,-35.921025)" />
      <path
         sodipodi:nodetypes="ccc"
         id="path2095"
         d="m 346.29373,183.19122 -0.0113,-0.0941 -13.9246,-23.01449"
         style="opacity:0.999;fill:none;fill-opacity:1;stroke:#ffffff;stroke-width:0.641723;stroke-linecap:butt;stroke-linejoin:miter;stroke-miterlimit:4;stroke-dasharray:none;stroke-opacity:1" />
      <path
         sodipodi:nodetypes="ccc"
         id="path2097"
         d="m 333.48106,171.6768 0.008,-0.15995 -2.09733,-3.46646"
         style="opacity:0.999;fill:none;stroke:#ffffff;stroke-width:0.641723;stroke-linecap:butt;stroke-linejoin:miter;stroke-miterlimit:4;stroke-dasharray:none;stroke-opacity:1" />
      <path
         sodipodi:nodetypes="cc"
         id="path2099"
         d="m 329.577,173.07711 -0.78223,-1.29451"
         style="opacity:0.999;fill:none;stroke:#ffffff;stroke-width:0.641723;stroke-linecap:butt;stroke-linejoin:miter;stroke-miterlimit:4;stroke-dasharray:none;stroke-opacity:1" />
      <path
         sodipodi:nodetypes="ccc"
         id="path2101"
         d="m 346.99559,177.48358 -8.10699,-13.39919 3.56788,-7.30937"
         style="opacity:0.999;fill:none;stroke:#ffffff;stroke-width:0.641723;stroke-linecap:butt;stroke-linejoin:miter;stroke-miterlimit:4;stroke-dasharray:none;stroke-opacity:1" />
      <path
         sodipodi:nodetypes="ccc"
         id="path2103"
         d="m 351.80975,165.20806 -0.79637,2.11939 4.26111,7.14752"
         style="opacity:0.999;fill:none;stroke:#ffffff;stroke-width:0.641723;stroke-linecap:butt;stroke-linejoin:miter;stroke-miterlimit:4;stroke-dasharray:none;stroke-opacity:1" />
      <path
         id="path2105"
         d="m 352.39874,176.16678 -6.26283,-10.35116"
         style="opacity:0.999;fill:none;stroke:#ffffff;stroke-width:0.641723;stroke-linecap:butt;stroke-linejoin:miter;stroke-miterlimit:4;stroke-dasharray:none;stroke-opacity:1" />
      <path
         id="path2107"
         d="m 362.87415,161.63761 -4.92629,-0.64533"
         style="opacity:0.999;fill:none;stroke:#ffffff;stroke-width:0.641723;stroke-linecap:butt;stroke-linejoin:miter;stroke-miterlimit:4;stroke-dasharray:none;stroke-opacity:1" />
      <path
         sodipodi:nodetypes="cc"
         id="path2109"
         d="M 326.39052,130.69613 336.7281,147.7509"
         style="opacity:0.999;fill:none;stroke:#ffffff;stroke-width:0.641723;stroke-linecap:butt;stroke-linejoin:miter;stroke-miterlimit:4;stroke-dasharray:none;stroke-opacity:1" />
      <path
         id="path2111"
         d="m 319.25116,137.48681 6.80942,11.25456 6.17483,0.80889 4.27536,7.0663"
         style="opacity:0.999;fill:none;stroke:#ffffff;stroke-width:0.641723;stroke-linecap:butt;stroke-linejoin:miter;stroke-miterlimit:4;stroke-dasharray:none;stroke-opacity:1" />
      <path
         d="m 329.15799,171.07354 a 0.69750519,0.72540549 77.123488 0 1 -0.55173,0.84163 0.69750519,0.72540549 77.123488 0 1 -0.8626,-0.51831 0.69750519,0.72540549 77.123488 0 1 0.55173,-0.84162 0.69750519,0.72540549 77.123488 0 1 0.8626,0.5183"
         style="opacity:0.999;fill:#ffffff;fill-opacity:1;stroke:#ffffff;stroke-width:0.446404;stroke-miterlimit:4;stroke-dasharray:none;stroke-opacity:1"
         id="path2113" />
      <path
         d="m 331.71369,167.25271 a 0.69750519,0.72540549 77.123488 0 1 -0.55172,0.84161 0.69750519,0.72540549 77.123488 0 1 -0.8626,-0.5183 0.69750519,0.72540549 77.123488 0 1 0.55172,-0.84163 0.69750519,0.72540549 77.123488 0 1 0.8626,0.51832"
         style="display:inline;opacity:0.999;fill:#ffffff;fill-opacity:1;stroke:#ffffff;stroke-width:0.446405;stroke-miterlimit:4;stroke-dasharray:none;stroke-opacity:1"
         id="path2115" />
      <path
         d="m 351.65187,165.15099 a 0.69750519,0.72540549 40.309997 0 0 1.00117,-0.10193 0.69750519,0.72540549 40.309997 0 0 -0.0626,-1.00439 0.69750519,0.72540549 40.309997 0 0 -1.00116,0.10193 0.69750519,0.72540549 40.309997 0 0 0.0626,1.00439"
         style="display:inline;opacity:0.999;fill:#ffffff;fill-opacity:1;stroke:#ffffff;stroke-width:0.446405;stroke-miterlimit:4;stroke-dasharray:none;stroke-opacity:1"
         id="path2117" />
      <path
         d="m 337.59731,156.99526 a 0.69750519,0.72540549 77.123488 0 1 -0.55173,0.84161 0.69750519,0.72540549 77.123488 0 1 -0.8626,-0.5183 0.69750519,0.72540549 77.123488 0 1 0.55172,-0.84163 0.69750519,0.72540549 77.123488 0 1 0.86261,0.51832"
         style="display:inline;opacity:0.999;fill:#ffffff;fill-opacity:1;stroke:#ffffff;stroke-width:0.446405;stroke-miterlimit:4;stroke-dasharray:none;stroke-opacity:1"
         id="path2119" />
      <path
         d="m 319.7291,136.98597 a 0.69750519,0.72540549 77.123488 0 1 -0.55172,0.84163 0.69750519,0.72540549 77.123488 0 1 -0.86261,-0.51832 0.69750519,0.72540549 77.123488 0 1 0.55173,-0.84161 0.69750519,0.72540549 77.123488 0 1 0.8626,0.5183"
         style="display:inline;opacity:0.999;fill:#ffffff;fill-opacity:1;stroke:#ffffff;stroke-width:0.446405;stroke-miterlimit:4;stroke-dasharray:none;stroke-opacity:1"
         id="path2121" />
      <path
         d="m 346.86885,164.27684 a 1.5032741,1.5032741 0 0 1 -1.13046,1.80047 1.5032741,1.5032741 0 0 1 -1.80048,-1.13046 1.5032741,1.5032741 0 0 1 1.13046,-1.80048 1.5032741,1.5032741 0 0 1 1.80048,1.13047"
         style="opacity:0.999;fill:none;fill-opacity:1;stroke:#ffffff;stroke-width:0.583089;stroke-miterlimit:4;stroke-dasharray:none;stroke-opacity:1"
         id="path2123" />
      <path
         d="m 358.15759,160.38306 a 1.5032741,1.5032741 0 0 1 -1.13046,1.80049 1.5032741,1.5032741 0 0 1 -1.80048,-1.13048 1.5032741,1.5032741 0 0 1 1.13047,-1.80047 1.5032741,1.5032741 0 0 1 1.80047,1.13046"
         style="display:inline;opacity:0.999;fill:none;fill-opacity:1;stroke:#ffffff;stroke-width:0.583089;stroke-miterlimit:4;stroke-dasharray:none;stroke-opacity:1"
         id="path2125" />
      <path
         d="m 344.67518,155.08032 a 1.5032741,1.5032741 0 0 1 -1.13047,1.80048 1.5032741,1.5032741 0 0 1 -1.80048,-1.13047 1.5032741,1.5032741 0 0 1 1.13047,-1.80047 1.5032741,1.5032741 0 0 1 1.80048,1.13046"
         style="display:inline;opacity:0.999;fill:none;fill-opacity:1;stroke:#ffffff;stroke-width:0.583089;stroke-miterlimit:4;stroke-dasharray:none;stroke-opacity:1"
         id="path2127" />
      <path
         d="m 333.08335,158.5511 a 1.5032741,1.5032741 0 0 1 -1.13047,1.80047 1.5032741,1.5032741 0 0 1 -1.80048,-1.13046 1.5032741,1.5032741 0 0 1 1.13047,-1.80048 1.5032741,1.5032741 0 0 1 1.80048,1.13047"
         style="display:inline;opacity:0.999;fill:none;fill-opacity:1;stroke:#ffffff;stroke-width:0.583089;stroke-miterlimit:4;stroke-dasharray:none;stroke-opacity:1"
         id="path2129" />
      <path
         d="m 338.88588,148.55522 a 1.5032741,1.5032741 0 0 1 -1.13046,1.80049 1.5032741,1.5032741 0 0 1 -1.80048,-1.13048 1.5032741,1.5032741 0 0 1 1.13046,-1.80047 1.5032741,1.5032741 0 0 1 1.80048,1.13046"
         style="display:inline;opacity:0.999;fill:none;fill-opacity:1;stroke:#ffffff;stroke-width:0.583089;stroke-miterlimit:4;stroke-dasharray:none;stroke-opacity:1"
         id="path2131" />
      <path
         id="path2133"
         d="m 352.02406,148.43481 -1.70106,3.4849"
         style="opacity:0.999;fill:none;stroke:#ffffff;stroke-width:0.641723;stroke-linecap:butt;stroke-linejoin:miter;stroke-miterlimit:4;stroke-dasharray:none;stroke-opacity:1"
         sodipodi:nodetypes="cc" />
      <path
         d="m 350.69658,152.38436 a 0.69750519,0.72540549 77.123488 0 1 -0.55172,0.84163 0.69750519,0.72540549 77.123488 0 1 -0.86261,-0.51831 0.69750519,0.72540549 77.123488 0 1 0.55173,-0.84162 0.69750519,0.72540549 77.123488 0 1 0.8626,0.5183"
         style="display:inline;opacity:0.999;fill:#ffffff;fill-opacity:1;stroke:#ffffff;stroke-width:0.446405;stroke-miterlimit:4;stroke-dasharray:none;stroke-opacity:1"
         id="path2135" />
      <path
         id="path2137"
         d="m 334.21358,135.04313 3.5845,5.92444"
         style="opacity:0.999;fill:none;stroke:#ffffff;stroke-width:0.641723;stroke-linecap:butt;stroke-linejoin:miter;stroke-miterlimit:4;stroke-dasharray:none;stroke-opacity:1"
         sodipodi:nodetypes="cc" />
      <path
         d="m 334.549,134.23788 a 0.69750519,0.72540549 77.123488 0 1 -0.55172,0.84163 0.69750519,0.72540549 77.123488 0 1 -0.8626,-0.51831 0.69750519,0.72540549 77.123488 0 1 0.55172,-0.84162 0.69750519,0.72540549 77.123488 0 1 0.8626,0.5183"
         style="display:inline;opacity:0.999;fill:#ffffff;fill-opacity:1;stroke:#ffffff;stroke-width:0.446405;stroke-miterlimit:4;stroke-dasharray:none;stroke-opacity:1"
         id="path2139" />
      <path
         sodipodi:nodetypes="ccc"
         id="path2141"
         d="m 322.17443,172.58548 4.4696,-9.15669 -11.01756,-1.44329"
         style="opacity:0.999;fill:none;stroke:#ffffff;stroke-width:0.641723;stroke-linecap:butt;stroke-linejoin:miter;stroke-miterlimit:4;stroke-dasharray:none;stroke-opacity:1" />
      <path
         d="m 315.64904,161.72462 a 0.69750519,0.72540549 77.123488 0 1 -0.55172,0.84162 0.69750519,0.72540549 77.123488 0 1 -0.86261,-0.51831 0.69750519,0.72540549 77.123488 0 1 0.55173,-0.84162 0.69750519,0.72540549 77.123488 0 1 0.8626,0.51831"
         style="display:inline;opacity:0.999;fill:#ffffff;fill-opacity:1;stroke:#ffffff;stroke-width:0.446405;stroke-miterlimit:4;stroke-dasharray:none;stroke-opacity:1"
         id="path2143" />
      <path
         sodipodi:nodetypes="cc"
         id="path2145"
         d="m 303.00073,155.81597 18.38135,2.40793"
         style="opacity:0.999;fill:none;stroke:#ffffff;stroke-width:0.641723;stroke-linecap:butt;stroke-linejoin:miter;stroke-miterlimit:4;stroke-dasharray:none;stroke-opacity:1" />
      <path
         d="m 324.43616,158.0037 a 1.5032741,1.5032741 0 0 1 -1.13047,1.80047 1.5032741,1.5032741 0 0 1 -1.80047,-1.13046 1.5032741,1.5032741 0 0 1 1.13046,-1.80047 1.5032741,1.5032741 0 0 1 1.80048,1.13046"
         style="display:inline;opacity:0.999;fill:none;fill-opacity:1;stroke:#ffffff;stroke-width:0.583089;stroke-miterlimit:4;stroke-dasharray:none;stroke-opacity:1"
         id="path2147" />
      <path
         sodipodi:nodetypes="cccc"
         id="path2149"
         d="m 305.16668,145.82494 0.0415,0.0288 3.23127,5.33754 8.45827,1.10802"
         style="opacity:0.999;fill:none;stroke:#ffffff;stroke-width:0.641723;stroke-linecap:butt;stroke-linejoin:miter;stroke-miterlimit:4;stroke-dasharray:none;stroke-opacity:1" />
      <path
         d="m 319.76188,152.19966 a 1.5032741,1.5032741 0 0 1 -1.13047,1.80047 1.5032741,1.5032741 0 0 1 -1.80047,-1.13046 1.5032741,1.5032741 0 0 1 1.13046,-1.80048 1.5032741,1.5032741 0 0 1 1.80048,1.13047"
         style="display:inline;opacity:0.999;fill:none;fill-opacity:1;stroke:#ffffff;stroke-width:0.583089;stroke-miterlimit:4;stroke-dasharray:none;stroke-opacity:1"
         id="path2151" />
      <path
         id="path2153"
         d="m 309.00655,140.40808 3.78839,6.26143"
         style="opacity:0.999;fill:none;stroke:#ffffff;stroke-width:0.641723;stroke-linecap:butt;stroke-linejoin:miter;stroke-miterlimit:4;stroke-dasharray:none;stroke-opacity:1" />
      <path
         id="path2155"
         d="m 312.89832,136.79386 5.77776,9.54945"
         style="opacity:0.999;fill:#00b1fc;fill-opacity:1;stroke:#ffffff;stroke-width:0.641723;stroke-linecap:butt;stroke-linejoin:miter;stroke-miterlimit:4;stroke-dasharray:none;stroke-opacity:1" />
      <path
         d="m 319.67012,146.63498 a 0.69750519,0.72540549 77.123488 0 1 -0.55173,0.84162 0.69750519,0.72540549 77.123488 0 1 -0.8626,-0.51831 0.69750519,0.72540549 77.123488 0 1 0.55172,-0.84162 0.69750519,0.72540549 77.123488 0 1 0.86261,0.51831"
         style="display:inline;opacity:0.999;fill:#ffffff;fill-opacity:1;stroke:#ffffff;stroke-width:0.446405;stroke-miterlimit:4;stroke-dasharray:none;stroke-opacity:1"
         id="path2157" />
      <path
         d="m 313.8152,146.98428 a 0.69750519,0.72540549 77.123488 0 1 -0.55173,0.84161 0.69750519,0.72540549 77.123488 0 1 -0.8626,-0.5183 0.69750519,0.72540549 77.123488 0 1 0.55173,-0.84163 0.69750519,0.72540549 77.123488 0 1 0.8626,0.51832"
         style="display:inline;opacity:0.999;fill:#ffffff;fill-opacity:1;stroke:#ffffff;stroke-width:0.446405;stroke-miterlimit:4;stroke-dasharray:none;stroke-opacity:1"
         id="path2159" />
      <g
         id="g2165">
        <path
           id="path2161"
           style="fill:#383738;fill-opacity:1;stroke:#ffffff;stroke-width:1;stroke-linecap:butt;stroke-linejoin:miter;stroke-miterlimit:4;stroke-dasharray:none;stroke-opacity:1"
           d="m 1531.248,613.82227 -3.1054,6.35546 c -2.6317,-0.33713 -5.2808,-0.46837 -7.9317,-0.0488 l -3.4414,-5.73438 -7.2148,2.29492 0.7168,7.40625 c -2.6911,1.3801 -4.7076,3.35064 -6.0215,4.82618 l -6.9277,-3.0586 -4.4434,6.73828 5.3516,5.01758 c -2.0831,3.50736 -2.1302,5.35431 -2.295,7.26172 l -7.1191,1.43359 0.047,7.98047 7.2637,1.48047 c 0.1745,0.91844 1.4366,5.63601 2.8203,7.07227 l -5.0469,5.20507 5.0684,6.85938 6.25,-3.65039 c 1.8292,1.42617 3.5474,3.14328 6.1992,4.3457 l -0.4785,7.64453 7.6464,2.29297 3.1055,-6.88086 c 2.5325,0.09 5.0652,0.26391 7.5977,-0.28711 l 3.9668,6.35547 7.5019,-2.3418 -1.2422,-7.93164 c 2.9273,-1.38738 4.8724,-3.43992 5.9239,-4.44336 l 6.8476,2.84376 4.1426,-6.37891 -4.8262,-5.06641 c 1.5292,-2.92879 1.9903,-5.18956 2.5332,-7.50195 l 6.9766,-1.43359 -0.3828,-7.88282 -7.0235,-1.19531 c -0.4309,-2.00761 -0.6852,-3.87442 -2.9629,-7.35937 l 4.9688,-5.49414 -4.9688,-6.25977 -6.6894,3.10547 c -3.3963,-2.93719 -4.2481,-3.29887 -5.8301,-4.15625 l 0.6211,-7.2168 z m -6.2792,11.49414 c 6.3799,0 12.7211,2.62542 17.2324,7.13671 4.5113,4.51131 7.1386,10.85249 7.1386,17.23243 0,6.37994 -2.6273,12.72112 -7.1386,17.23242 -4.5113,4.5113 -10.8525,7.13672 -17.2324,7.13672 -6.3801,0 -12.7192,-2.62542 -17.2305,-7.13672 -4.5113,-4.5113 -7.1387,-10.85248 -7.1387,-17.23242 0,-6.37994 2.6274,-12.72112 7.1387,-17.23243 4.5113,-4.51129 10.8504,-7.13671 17.2305,-7.13671 z"
           transform="matrix(0.26458333,0,0,0.26458333,-54.62989,-35.921025)" />
        <path
           transform="matrix(0.26458333,0,0,0.26458333,-54.62989,-35.921025)"
           d="m 1524.9688,628.56445 c -5.5293,0 -11.0239,2.27771 -14.9336,6.1875 -3.9098,3.9098 -6.1856,9.40431 -6.1856,14.9336 0,5.52928 2.2758,11.0238 6.1856,14.93359 3.9097,3.90979 9.4043,6.1875 14.9336,6.1875 5.5292,0 11.0257,-2.27771 14.9355,-6.1875 3.9098,-3.90979 6.1855,-9.40431 6.1855,-14.93359 0,-5.52929 -2.2757,-11.0238 -6.1855,-14.9336 -3.9098,-3.90979 -9.4063,-6.1875 -14.9355,-6.1875 z m 0,4.63672 c 4.3158,0 8.6064,1.77637 11.6582,4.82813 3.0517,3.05175 4.8281,7.34041 4.8281,11.65625 0,4.31583 -1.7764,8.60449 -4.8281,11.65625 -3.0518,3.05175 -7.3424,4.83008 -11.6582,4.83008 -4.3159,0 -8.6045,-1.77833 -11.6563,-4.83008 -3.0518,-3.05176 -4.8281,-7.34042 -4.8281,-11.65625 0,-4.31584 1.7763,-8.6045 4.8281,-11.65625 3.0518,-3.05176 7.3404,-4.82813 11.6563,-4.82813 z"
           style="fill:#ffffff;fill-opacity:1;stroke:#383738;stroke-width:1;stroke-linecap:butt;stroke-linejoin:miter;stroke-miterlimit:4;stroke-dasharray:none;stroke-opacity:1"
           id="path2163" />
      </g>
      <g
         id="g2171"
         transform="matrix(0.78298229,0,0,0.78298229,90.332065,41.254425)">
        <path
           id="path2167"
           style="fill:#383738;fill-opacity:1;stroke:#ffffff;stroke-width:1;stroke-linecap:butt;stroke-linejoin:miter;stroke-miterlimit:4;stroke-dasharray:none;stroke-opacity:1"
           d="m 1585.1621,665.99805 -2.4316,4.97656 c -2.0606,-0.26397 -4.1354,-0.36756 -6.211,-0.0391 l -2.6953,-4.49024 -5.6484,1.79688 0.5605,5.79883 c -2.1071,1.08059 -3.6861,2.62398 -4.7148,3.77929 l -5.4238,-2.39453 -3.4786,5.27539 4.1895,3.92969 c -1.631,2.7462 -1.6678,4.19208 -1.7969,5.68555 l -5.5742,1.12109 0.037,6.25 5.6875,1.1582 c 0.079,0.91846 1.1256,4.41255 2.209,5.53711 l -3.9512,4.07617 3.9668,5.3711 4.8945,-2.85938 c 1.4323,1.11667 2.7773,2.46283 4.8536,3.4043 l -0.375,5.98438 5.9882,1.79492 2.4317,-5.38672 c 1.9829,0.0705 3.9644,0.20683 5.9473,-0.22461 l 3.1074,4.97656 5.873,-1.83398 -0.9726,-6.21094 c 2.292,-1.08629 3.8153,-2.69285 4.6386,-3.47852 l 5.3614,2.22657 3.2441,-4.99414 -3.7793,-3.9668 c 1.1973,-2.29319 1.5574,-4.06444 1.9824,-5.875 l 5.4629,-1.1211 -0.2988,-6.17382 -5.5,-0.93555 c -0.3374,-1.57192 -0.5369,-3.03306 -2.3203,-5.76172 l 3.8906,-4.30273 -3.8906,-4.90039 -5.2363,2.43164 c -2.6593,-2.29977 -3.3278,-2.5826 -4.5665,-3.25391 l 0.4864,-5.65039 z m -4.918,9 c 4.9954,0 9.9619,2.05563 13.4942,5.58789 3.5322,3.53227 5.5879,8.4968 5.5879,13.49218 0,4.99539 -2.0557,9.95992 -5.5879,13.49219 -3.5323,3.53227 -8.4988,5.58789 -13.4942,5.58789 -4.9954,0 -9.9579,-2.05562 -13.4902,-5.58789 -3.5323,-3.53227 -5.5898,-8.4968 -5.5898,-13.49219 0,-4.99538 2.0575,-9.95991 5.5898,-13.49218 3.5323,-3.53226 8.4948,-5.58789 13.4902,-5.58789 z"
           transform="matrix(0.33791738,0,0,0.33791738,-185.14078,-98.566022)" />
        <path
           id="path2169"
           style="fill:#ffffff;fill-opacity:1;stroke:#383738;stroke-width:1.27717;stroke-linecap:butt;stroke-linejoin:miter;stroke-miterlimit:4;stroke-dasharray:none;stroke-opacity:1"
           d="m 1524.9688,628.56445 c -5.5293,0 -11.0239,2.27771 -14.9336,6.1875 -3.9098,3.9098 -6.1856,9.40431 -6.1856,14.9336 0,5.52928 2.2758,11.0238 6.1856,14.93359 3.9097,3.90979 9.4043,6.1875 14.9336,6.1875 5.5292,0 11.0257,-2.27771 14.9355,-6.1875 3.9098,-3.90979 6.1855,-9.40431 6.1855,-14.93359 0,-5.52929 -2.2757,-11.0238 -6.1855,-14.9336 -3.9098,-3.90979 -9.4063,-6.1875 -14.9355,-6.1875 z m 0,4.63672 c 4.3158,0 8.6064,1.77637 11.6582,4.82813 3.0517,3.05175 4.8281,7.34041 4.8281,11.65625 0,4.31583 -1.7764,8.60449 -4.8281,11.65625 -3.0518,3.05175 -7.3424,4.83008 -11.6582,4.83008 -4.3159,0 -8.6045,-1.77833 -11.6563,-4.83008 -3.0518,-3.05176 -4.8281,-7.34042 -4.8281,-11.65625 0,-4.31584 1.7763,-8.6045 4.8281,-11.65625 3.0518,-3.05176 7.3404,-4.82813 11.6563,-4.82813 z"
           transform="matrix(0.26458333,0,0,0.26458333,-54.62989,-35.921025)" />
      </g>
      <g
         transform="matrix(0.67168548,0,0,0.67168548,134.09305,41.427441)"
         id="g2177">
        <path
           id="path2173"
           style="fill:#383738;fill-opacity:1;stroke:#ffffff;stroke-width:1;stroke-linecap:butt;stroke-linejoin:miter;stroke-miterlimit:4;stroke-dasharray:none;stroke-opacity:1"
           d="m 1603.1133,613.44531 -2.084,4.26953 c -1.7677,-0.22644 -3.5476,-0.31501 -5.3281,-0.0332 l -2.3125,-3.85156 -4.8457,1.54101 0.4824,4.97461 c -1.8076,0.927 -3.1624,2.2511 -4.0449,3.24219 l -4.6543,-2.05469 -2.9844,4.52539 3.5957,3.3711 c -1.3992,2.35584 -1.4323,3.59577 -1.543,4.87695 l -4.7812,0.96289 0.031,5.36133 4.8789,0.99414 c 0.067,0.7879 0.9652,3.78529 1.8946,4.75 l -3.3887,3.49609 3.4043,4.60743 4.1973,-2.45118 c 1.2286,0.95794 2.3828,2.11032 4.164,2.91797 l -0.3222,5.13477 5.1367,1.54101 2.0859,-4.62304 c 1.7011,0.0604 3.4025,0.17675 5.1035,-0.19336 l 2.6641,4.26953 5.0391,-1.57227 -0.834,-5.32812 c 1.9662,-0.93188 3.2722,-2.31039 3.9785,-2.98438 l 4.5996,1.91016 2.7832,-4.28516 -3.2422,-3.40234 c 1.0272,-1.96723 1.3365,-3.48586 1.7012,-5.03906 l 4.6855,-0.96289 -0.2558,-5.29493 -4.7188,-0.80273 c -0.2894,-1.34848 -0.4603,-2.60257 -1.9902,-4.94336 l 3.3379,-3.68945 -3.3379,-4.20508 -4.4922,2.08594 c -2.2812,-1.97287 -2.8534,-2.21708 -3.916,-2.79297 l 0.416,-4.8457 z m -4.2168,7.72071 c 4.2853,0 8.544,1.7628 11.5742,4.79296 3.0302,3.03018 4.7949,7.28891 4.7949,11.57422 0,4.28532 -1.7647,8.546 -4.7949,11.57618 -3.0302,3.03017 -7.2889,4.79296 -11.5742,4.79296 -4.2854,0 -8.5441,-1.76279 -11.5742,-4.79296 -3.0302,-3.03018 -4.795,-7.29086 -4.795,-11.57618 0,-4.28531 1.7648,-8.54404 4.795,-11.57422 3.0301,-3.03016 7.2888,-4.79296 11.5742,-4.79296 z"
           transform="matrix(0.39390955,0,0,0.39390955,-280.96921,-115.15578)" />
        <path
           transform="matrix(0.26458333,0,0,0.26458333,-54.62989,-35.921025)"
           d="m 1524.9688,628.56445 c -5.5293,0 -11.0239,2.27771 -14.9336,6.1875 -3.9098,3.9098 -6.1856,9.40431 -6.1856,14.9336 0,5.52928 2.2758,11.0238 6.1856,14.93359 3.9097,3.90979 9.4043,6.1875 14.9336,6.1875 5.5292,0 11.0257,-2.27771 14.9355,-6.1875 3.9098,-3.90979 6.1855,-9.40431 6.1855,-14.93359 0,-5.52929 -2.2757,-11.0238 -6.1855,-14.9336 -3.9098,-3.90979 -9.4063,-6.1875 -14.9355,-6.1875 z m 0,4.63672 c 4.3158,0 8.6064,1.77637 11.6582,4.82813 3.0517,3.05175 4.8281,7.34041 4.8281,11.65625 0,4.31583 -1.7764,8.60449 -4.8281,11.65625 -3.0518,3.05175 -7.3424,4.83008 -11.6582,4.83008 -4.3159,0 -8.6045,-1.77833 -11.6563,-4.83008 -3.0518,-3.05176 -4.8281,-7.34042 -4.8281,-11.65625 0,-4.31584 1.7763,-8.6045 4.8281,-11.65625 3.0518,-3.05176 7.3404,-4.82813 11.6563,-4.82813 z"
           style="fill:#ffffff;fill-opacity:1;stroke:#383738;stroke-width:1.48879;stroke-linecap:butt;stroke-linejoin:miter;stroke-miterlimit:4;stroke-dasharray:none;stroke-opacity:1"
           id="path2175" />
      </g>
    </g>
  </g>
</svg>
